<?xml version="1.0" encoding="UTF-8" standalone="no"?>
<!-- Created with Inkscape (http://www.inkscape.org/) -->

<svg
   width="240mm"
   height="120mm"
   viewBox="0 0 240 120"
   version="1.1"
   id="svg8"
   inkscape:version="1.2.2 (b0a8486541, 2022-12-01)"
   sodipodi:docname="caracterización-de-la-topología-dada-una-base.svg"
   xmlns:inkscape="http://www.inkscape.org/namespaces/inkscape"
   xmlns:sodipodi="http://sodipodi.sourceforge.net/DTD/sodipodi-0.dtd"
   xmlns="http://www.w3.org/2000/svg"
   xmlns:svg="http://www.w3.org/2000/svg"
   xmlns:rdf="http://www.w3.org/1999/02/22-rdf-syntax-ns#"
   xmlns:cc="http://creativecommons.org/ns#"
   xmlns:dc="http://purl.org/dc/elements/1.1/">
  <defs
     id="defs2">
    <clipPath
       id="clipPath9872">
      <path
         clip-rule="nonzero"
         d="M 0,0 H 8 V 6.808594 H 0 Z m 0,0"
         id="path1081" />
    </clipPath>
    <clipPath
       id="clipPath8949">
      <path
         clip-rule="nonzero"
         d="m 8,3 h 3 V 8.300781 H 8 Z m 0,0"
         id="path5087" />
    </clipPath>
    <clipPath
       id="clipPath9599">
      <path
         clip-rule="nonzero"
         d="m 7,3 h 5 V 8.300781 H 7 Z m 0,0"
         id="path4655" />
    </clipPath>
  </defs>
  <sodipodi:namedview
     id="base"
     pagecolor="#ffffff"
     bordercolor="#666666"
     borderopacity="1.0"
     inkscape:pageopacity="0.0"
     inkscape:pageshadow="2"
     inkscape:zoom="7.2314616"
     inkscape:cx="463.25352"
     inkscape:cy="234.73816"
     inkscape:document-units="mm"
     inkscape:current-layer="layer1"
     showgrid="false"
     showborder="true"
     width="200mm"
     showguides="true"
     inkscape:guide-bbox="true"
     inkscape:window-width="1920"
     inkscape:window-height="1050"
     inkscape:window-x="0"
     inkscape:window-y="0"
     inkscape:window-maximized="1"
     inkscape:showpageshadow="2"
     inkscape:pagecheckerboard="0"
     inkscape:deskcolor="#d1d1d1">
    <inkscape:grid
       type="xygrid"
       id="grid815"
       units="mm"
       spacingx="10"
       spacingy="10"
       empspacing="4"
       dotted="false" />
  </sodipodi:namedview>
  <metadata
     id="metadata5">
    <rdf:RDF>
      <cc:Work
         rdf:about="">
        <dc:format>image/svg+xml</dc:format>
        <dc:type
           rdf:resource="http://purl.org/dc/dcmitype/StillImage" />
        <dc:title />
      </cc:Work>
    </rdf:RDF>
  </metadata>
  <g
     inkscape:label="Layer 1"
     inkscape:groupmode="layer"
     id="layer1"
     transform="translate(0, -177)">
    <path
       style="fill:#d3feff;stroke:#00a5de;stroke-width:0.264999;stroke-linecap:round;stroke-dasharray:0.264999, 0.529997;paint-order:fill markers stroke;fill-opacity:1"
       d="m 133.38939,240.324 c -1.01319,0.29089 -2.1037,-0.55023 -3.12644,-0.30246 -1.75712,0.4257 -3.17635,1.58271 -4.80504,2.2991 -2.22411,0.97831 -5.1636,1.29131 -7.59576,1.23998 -1.70861,-0.0361 -3.17955,-0.78804 -4.73851,-1.39173 -1.50145,-0.58141 -3.00623,-0.90192 -4.4028,-1.75446 -1.64052,-1.00147 -2.88242,-2.78939 -4.1336,-4.20428 -1.42204,-1.60811 -3.23005,-3.30446 -4.20116,-5.26236 -1.587847,-3.20133 -1.810263,-7.1442 -1.378212,-10.64633 1.001942,-8.12158 4.946232,-16.18543 11.762622,-20.99125 2.44625,-1.7247 5.31268,-2.43219 8.13312,-3.2969 4.08508,-1.25244 8.07494,-2.41554 12.30102,-3.11501 4.70212,-0.77826 11.28243,-2.55268 15.66132,0.0603 1.35336,0.80758 2.70769,1.77283 3.46112,3.20648 1.10102,2.09505 0.81113,4.51611 1.34495,6.74451 0.42928,1.79199 1.63187,3.4142 2.78865,4.80919 0.96883,1.16836 2.1086,2.50207 3.79788,2.44982 2.41129,-0.0746 4.56065,-3.17287 6.05021,-4.74891 3.74577,-3.96324 5.22106,-8.42076 8.56966,-12.36962 4.44802,-5.24537 10.64093,-5.74202 16.13216,-1.72433 2.19008,1.60239 3.47149,4.82947 4.40176,7.31929 2.34028,6.26364 3.92579,14.6395 2.6213,21.2937 -0.46544,2.37427 -1.36902,4.63707 -2.28455,6.86508 -3.32758,8.09799 -6.22784,11.35023 -12.73755,16.84725 -3.95441,3.33924 -9.82991,8.05597 -14.98885,8.83158 -4.75717,0.71521 -10.04105,-0.31063 -14.51904,-1.96546 -1.70772,-0.63108 -2.89215,-1.92781 -4.43606,-2.78241 -0.72164,-0.39944 -1.46762,-0.66435 -2.15151,-1.14955 -0.90842,-0.64449 -1.65263,-1.48959 -2.55375,-2.14735 -0.36283,-0.26484 -0.80358,-0.29531 -1.20983,-0.45421 -0.7944,-0.31071 -1.52644,-0.68729 -2.38641,-0.81695 -0.88117,-0.13285 -1.88332,0.0721 -2.75539,-0.1507 -1.14769,-0.29325 -2.00494,-1.78348 -2.62131,-2.69199 z"
       id="path4026" />
    <path
       style="fill:#d3feff;fill-opacity:1;stroke:#00a5de;stroke-width:0.264999;stroke-linecap:round;stroke-dasharray:0.264999, 0.529997;paint-order:fill markers stroke"
       d="m 91.849682,243.37873 c 2.264339,-3.14248 4.178038,-6.5766 7.057366,-9.22447 1.151982,-1.05938 2.477372,-1.69544 3.697062,-2.6317 1.47698,-1.13376 2.43824,-2.59896 3.66276,-3.9621 0.92242,-1.02684 1.94263,-1.80835 2.95807,-2.72213 0.98433,-0.88578 1.81066,-1.96327 2.82294,-2.81359 2.06769,-1.73685 4.93961,-3.0221 7.49495,-3.87064 1.81333,-0.60214 3.74654,-0.27696 5.54507,-0.90737 4.36231,-1.52906 8.70635,-3.60931 12.73755,0.18085 1.94835,1.83185 2.45447,4.37222 3.49543,6.71437 0.62976,1.41698 1.58106,2.61468 2.04965,4.11385 1.67375,5.35485 2.4167,10.86205 1.17657,16.3629 -0.12753,0.56567 -0.17379,1.28976 -0.43758,1.81476 -0.82325,1.63845 -3.41198,4.54024 -4.70525,5.77685 -0.86334,0.82551 -1.98056,1.33615 -2.82295,2.17853 -0.92455,0.92456 -1.02107,2.59216 -1.44473,3.75007 -0.62366,1.70452 -1.56711,3.67825 -2.72213,5.08151 -1.84674,2.24364 -4.24129,4.40564 -7.09166,5.20208 -0.89815,0.25095 -1.84277,0.29259 -2.75539,0.48435 -1.54804,0.32526 -3.05597,0.82531 -4.60444,1.14851 -2.18073,0.45517 -7.54036,1.76248 -9.91461,0.57477 -2.15278,-1.07691 -3.41422,-2.83692 -5.91509,-3.53803 -3.700194,-1.03734 -7.566253,-1.29263 -10.485227,-4.08371 -0.740809,-0.70835 -1.669335,-1.5041 -2.117209,-2.44981 -0.34295,-0.72416 -0.605369,-6.15898 -0.437578,-7.22886 0.03866,-0.24651 0.42359,-1.7685 0.604917,-2.23778 1.081214,-2.79819 2.680777,-4.53761 2.151509,-7.71321 z"
       id="path7274" />
    <path
       style="fill:#918aff;fill-opacity:1;stroke:#00a5de;stroke-width:0.264999;stroke-linecap:round;stroke-dasharray:0.264999, 0.529997;paint-order:fill markers stroke"
       d="m 134.40753,237.06388 c -1.72878,-0.17908 -3.47234,-0.24882 -5.19642,-0.4737 -1.69217,-0.22072 -0.79654,-0.14054 -2.39639,-0.42284 -1.46395,-0.25832 -1.57604,-0.22044 -2.84712,-0.49055 -1.24292,-0.26413 -2.45267,-0.65143 -3.6835,-0.96396 -1.23076,-0.31252 -3.00078,-0.39365 -3.85293,-1.49694 -0.99342,-1.28621 -0.44864,-3.19544 0.066,-4.53296 0.27409,-0.71238 0.77242,-1.3518 1.3249,-1.86892 1.07873,-1.0097 2.06916,-1.94902 3.34523,-2.6806 2.15117,-1.23329 6.01007,-1.253 8.33503,-0.59198 0.46342,0.13176 0.91976,0.29226 1.36268,0.48184 0.35546,0.15214 1.01528,0.67409 1.28711,0.87125 0.89624,0.65005 0.8545,0.62319 1.77622,1.22609 1.94628,1.27307 3.75619,2.56326 4.31297,5.00636 0.20039,0.8793 0.10548,1.7712 0.27259,2.64718 0.21894,1.14769 0.65646,2.02625 0.18803,3.17958 -0.18591,0.45772 -0.71749,1.26544 -1.33449,1.11653 -0.46623,-0.11252 -0.66604,-0.53358 -1.10869,-0.68526 -0.18154,-0.0622 -0.37074,-0.0119 -0.55448,-0.0506 -0.22441,-0.0472 -1.24947,-0.23766 -1.29671,-0.27055 -0.19806,-0.13792 -0.26949,-0.40047 -0.40424,-0.6007"
       id="path13078" />
    <g
       inkscape:label=""
       transform="translate(132.5312,238.1697)"
       id="g17857">
      <g
         clip-path="url(#clipPath9872)"
         id="g17"
         transform="matrix(0.352778,0,0,0.352778,-0.148828,0.00158747)">
        <g
           fill="#000000"
           fill-opacity="1"
           id="g15">
          <g
             id="use13"
             transform="translate(0,6.8080001)">
            <path
               d="M 1.59375,-0.78125 C 1.5,-0.390625 1.46875,-0.3125 0.6875,-0.3125 c -0.171875,0 -0.265625,0 -0.265625,0.203125 C 0.421875,0 0.515625,0 0.6875,0 H 4.25 C 5.828125,0 7,-1.171875 7,-2.15625 7,-2.875 6.421875,-3.453125 5.453125,-3.5625 6.484375,-3.75 7.53125,-4.484375 7.53125,-5.4375 c 0,-0.734375 -0.65625,-1.375 -1.84375,-1.375 H 2.328125 c -0.1875,0 -0.28125,0 -0.28125,0.203125 0,0.109375 0.09375,0.109375 0.28125,0.109375 0.015625,0 0.203125,0 0.375,0.015625 0.171875,0.03125 0.265625,0.03125 0.265625,0.171875 0,0.03125 -0.015625,0.0625 -0.03125,0.1875 z m 1.5,-2.875 0.625,-2.46875 C 3.8125,-6.46875 3.828125,-6.5 4.25,-6.5 h 1.296875 c 0.875,0 1.078125,0.59375 1.078125,1.03125 0,0.875 -0.859375,1.8125 -2.0625,1.8125 z m -0.4375,3.34375 c -0.140625,0 -0.15625,0 -0.21875,0 -0.109375,-0.015625 -0.140625,-0.03125 -0.140625,-0.109375 0,-0.03125 0,-0.046875 0.0625,-0.21875 l 0.6875,-2.78125 h 1.875 c 0.953125,0 1.15625,0.734375 1.15625,1.15625 C 6.078125,-1.28125 5.1875,-0.3125 4,-0.3125 Z m 0,0"
               id="path23" />
          </g>
        </g>
      </g>
    </g>
    <g
       inkscape:label=""
       transform="translate(85.368435,240.0052)"
       id="g17912">
      <g
         fill="#000000"
         fill-opacity="1"
         id="g19"
         transform="matrix(0.352778,0,0,0.352778,-0.148828,0.00158747)">
        <g
           id="use17"
           transform="translate(0,6.8080001)">
          <path
             d="M 1.59375,-0.78125 C 1.5,-0.390625 1.46875,-0.3125 0.6875,-0.3125 c -0.171875,0 -0.265625,0 -0.265625,0.203125 C 0.421875,0 0.515625,0 0.6875,0 H 4.25 C 5.828125,0 7,-1.171875 7,-2.15625 7,-2.875 6.421875,-3.453125 5.453125,-3.5625 6.484375,-3.75 7.53125,-4.484375 7.53125,-5.4375 c 0,-0.734375 -0.65625,-1.375 -1.84375,-1.375 H 2.328125 c -0.1875,0 -0.28125,0 -0.28125,0.203125 0,0.109375 0.09375,0.109375 0.28125,0.109375 0.015625,0 0.203125,0 0.375,0.015625 0.171875,0.03125 0.265625,0.03125 0.265625,0.171875 0,0.03125 -0.015625,0.0625 -0.03125,0.1875 z m 1.5,-2.875 0.625,-2.46875 C 3.8125,-6.46875 3.828125,-6.5 4.25,-6.5 h 1.296875 c 0.875,0 1.078125,0.59375 1.078125,1.03125 0,0.875 -0.859375,1.8125 -2.0625,1.8125 z m -0.4375,3.34375 c -0.140625,0 -0.15625,0 -0.21875,0 -0.109375,-0.015625 -0.140625,-0.03125 -0.140625,-0.109375 0,-0.03125 0,-0.046875 0.0625,-0.21875 l 0.6875,-2.78125 h 1.875 c 0.953125,0 1.15625,0.734375 1.15625,1.15625 C 6.078125,-1.28125 5.1875,-0.3125 4,-0.3125 Z m 0,0"
             id="path31" />
        </g>
      </g>
      <g
         clip-path="url(#clipPath8949)"
         id="g25"
         transform="matrix(0.352778,0,0,0.352778,-0.148828,0.00158747)">
        <g
           fill="#000000"
           fill-opacity="1"
           id="g23">
          <g
             id="use21"
             transform="translate(7.5570002,8.302)">
            <path
               d="m 2.328125,-4.4375 c 0,-0.1875 0,-0.1875 -0.203125,-0.1875 -0.453125,0.4375 -1.078125,0.4375 -1.359375,0.4375 v 0.25 c 0.15625,0 0.625,0 1,-0.1875 v 3.546875 c 0,0.234375 0,0.328125 -0.6875,0.328125 H 0.8125 V 0 c 0.125,0 0.984375,-0.03125 1.234375,-0.03125 0.21875,0 1.09375,0.03125 1.25,0.03125 V -0.25 H 3.03125 c -0.703125,0 -0.703125,-0.09375 -0.703125,-0.328125 z m 0,0"
               id="path35" />
          </g>
        </g>
      </g>
    </g>
    <g
       inkscape:label=""
       transform="translate(158.06287,204.46109)"
       id="g17993">
      <g
         fill="#000000"
         fill-opacity="1"
         id="g17983"
         transform="matrix(0.352778,0,0,0.352778,-0.148828,0.00158747)">
        <g
           id="g17981"
           transform="translate(0,6.8080001)">
          <path
             d="M 1.59375,-0.78125 C 1.5,-0.390625 1.46875,-0.3125 0.6875,-0.3125 c -0.171875,0 -0.265625,0 -0.265625,0.203125 C 0.421875,0 0.515625,0 0.6875,0 H 4.25 C 5.828125,0 7,-1.171875 7,-2.15625 7,-2.875 6.421875,-3.453125 5.453125,-3.5625 6.484375,-3.75 7.53125,-4.484375 7.53125,-5.4375 c 0,-0.734375 -0.65625,-1.375 -1.84375,-1.375 H 2.328125 c -0.1875,0 -0.28125,0 -0.28125,0.203125 0,0.109375 0.09375,0.109375 0.28125,0.109375 0.015625,0 0.203125,0 0.375,0.015625 0.171875,0.03125 0.265625,0.03125 0.265625,0.171875 0,0.03125 -0.015625,0.0625 -0.03125,0.1875 z m 1.5,-2.875 0.625,-2.46875 C 3.8125,-6.46875 3.828125,-6.5 4.25,-6.5 h 1.296875 c 0.875,0 1.078125,0.59375 1.078125,1.03125 0,0.875 -0.859375,1.8125 -2.0625,1.8125 z m -0.4375,3.34375 c -0.140625,0 -0.15625,0 -0.21875,0 -0.109375,-0.015625 -0.140625,-0.03125 -0.140625,-0.109375 0,-0.03125 0,-0.046875 0.0625,-0.21875 l 0.6875,-2.78125 h 1.875 c 0.953125,0 1.15625,0.734375 1.15625,1.15625 C 6.078125,-1.28125 5.1875,-0.3125 4,-0.3125 Z m 0,0"
             id="path17979" />
        </g>
      </g>
      <g
         clip-path="url(#clipPath9599)"
         id="g17991"
         transform="matrix(0.352778,0,0,0.352778,-0.148828,0.00158747)">
        <g
           fill="#000000"
           fill-opacity="1"
           id="g17989">
          <g
             id="g17987"
             transform="translate(7.5570002,8.302)">
            <path
               d="M 3.515625,-1.265625 H 3.28125 c -0.015625,0.15625 -0.09375,0.5625 -0.1875,0.625 C 3.046875,-0.59375 2.515625,-0.59375 2.40625,-0.59375 H 1.125 c 0.734375,-0.640625 0.984375,-0.84375 1.390625,-1.171875 0.515625,-0.40625 1,-0.84375 1,-1.5 0,-0.84375 -0.734375,-1.359375 -1.625,-1.359375 -0.859375,0 -1.453125,0.609375 -1.453125,1.25 0,0.34375 0.296875,0.390625 0.375,0.390625 0.15625,0 0.359375,-0.125 0.359375,-0.375 0,-0.125 -0.046875,-0.375 -0.40625,-0.375 C 0.984375,-4.21875 1.453125,-4.375 1.78125,-4.375 c 0.703125,0 1.0625,0.546875 1.0625,1.109375 0,0.609375 -0.4375,1.078125 -0.65625,1.328125 L 0.515625,-0.265625 C 0.4375,-0.203125 0.4375,-0.1875 0.4375,0 h 2.875 z m 0,0"
               id="path17985" />
          </g>
        </g>
      </g>
    </g>
    <g
       inkscape:label=""
       transform="translate(122.81518,227.67484)"
       id="g18081">
      <g
         fill="#000000"
         fill-opacity="1"
         id="g12"
         transform="matrix(0.352778,0,0,0.352778,-0.104731,0.0413632)">
        <g
           id="use10"
           transform="translate(0,4.289)">
          <path
             d="M 3.328125,-3.015625 C 3.390625,-3.265625 3.625,-4.1875 4.3125,-4.1875 c 0.046875,0 0.296875,0 0.5,0.125 C 4.53125,-4 4.34375,-3.765625 4.34375,-3.515625 c 0,0.15625 0.109375,0.34375 0.375,0.34375 0.21875,0 0.53125,-0.171875 0.53125,-0.578125 0,-0.515625 -0.578125,-0.65625 -0.921875,-0.65625 -0.578125,0 -0.921875,0.53125 -1.046875,0.75 -0.25,-0.65625 -0.78125,-0.75 -1.078125,-0.75 -1.03125,0 -1.609375,1.28125 -1.609375,1.53125 0,0.109375 0.109375,0.109375 0.125,0.109375 0.078125,0 0.109375,-0.03125 0.125,-0.109375 0.34375,-1.0625 1,-1.3125 1.34375,-1.3125 0.1875,0 0.53125,0.09375 0.53125,0.671875 0,0.3125 -0.171875,0.96875 -0.53125,2.375 -0.15625,0.609375 -0.515625,1.03125 -0.953125,1.03125 -0.0625,0 -0.28125,0 -0.5,-0.125 0.25,-0.0625 0.46875,-0.265625 0.46875,-0.546875 0,-0.265625 -0.21875,-0.34375 -0.359375,-0.34375 -0.3125,0 -0.546875,0.25 -0.546875,0.578125 0,0.453125 0.484375,0.65625 0.921875,0.65625 0.671875,0 1.03125,-0.703125 1.046875,-0.75 0.125,0.359375 0.484375,0.75 1.078125,0.75 1.03125,0 1.59375,-1.28125 1.59375,-1.53125 0,-0.109375 -0.078125,-0.109375 -0.109375,-0.109375 -0.09375,0 -0.109375,0.046875 -0.140625,0.109375 -0.328125,1.078125 -1,1.3125 -1.3125,1.3125 -0.390625,0 -0.546875,-0.3125 -0.546875,-0.65625 0,-0.21875 0.046875,-0.4375 0.15625,-0.875 z m 0,0"
             id="path18" />
        </g>
      </g>
    </g>
    <ellipse
       style="fill:#0e00f1;fill-opacity:1;stroke:none;stroke-width:0.189864;stroke-linecap:round;stroke-dasharray:0.189864, 0.379727;paint-order:fill markers stroke"
       id="path18663"
       cx="127.32449"
       cy="229.95369"
       rx="0.27783993"
       ry="0.28743833" />
  </g>
</svg>
