<?xml version="1.0" encoding="UTF-8" standalone="no"?>
<!-- Created with Inkscape (http://www.inkscape.org/) -->

<svg
   width="240mm"
   height="120mm"
   viewBox="0 0 240 120"
   version="1.1"
   id="svg8"
   inkscape:version="1.2.2 (b0a8486541, 2022-12-01)"
   sodipodi:docname="definición-interior.svg"
   xmlns:inkscape="http://www.inkscape.org/namespaces/inkscape"
   xmlns:sodipodi="http://sodipodi.sourceforge.net/DTD/sodipodi-0.dtd"
   xmlns="http://www.w3.org/2000/svg"
   xmlns:svg="http://www.w3.org/2000/svg"
   xmlns:rdf="http://www.w3.org/1999/02/22-rdf-syntax-ns#"
   xmlns:cc="http://creativecommons.org/ns#"
   xmlns:dc="http://purl.org/dc/elements/1.1/">
  <defs
     id="defs2">
    <clipPath
       id="clipPath3382">
      <path
         clip-rule="nonzero"
         d="M 0,0 H 8 V 6.808594 H 0 Z m 0,0"
         id="path8916" />
    </clipPath>
    <clipPath
       id="clipPath3140">
      <path
         clip-rule="nonzero"
         d="M 0,0 H 8 V 6.808594 H 0 Z m 0,0"
         id="path147" />
    </clipPath>
    <clipPath
       id="clipPath3021">
      <path
         clip-rule="nonzero"
         d="M 0,0 H 9 V 6.808594 H 0 Z m 0,0"
         id="path1073" />
    </clipPath>
    <clipPath
       id="clipPath1164">
      <path
         clip-rule="nonzero"
         d="M 9,0 H 32.710938 V 6.808594 H 9 Z m 0,0"
         id="path235" />
    </clipPath>
    <clipPath
       id="clipPath6915">
      <path
         clip-rule="nonzero"
         d="M 0,0 H 13 V 6.808594 H 0 Z m 0,0"
         id="path7963" />
    </clipPath>
    <clipPath
       id="clipPath8857">
      <path
         clip-rule="nonzero"
         d="m 16,0 h 9 v 6.808594 h -9 z m 0,0"
         id="path3630" />
    </clipPath>
    <clipPath
       id="clipPath7036">
      <path
         clip-rule="nonzero"
         d="M 24,0 H 48.484375 V 6.808594 H 24 Z m 0,0"
         id="path2179" />
    </clipPath>
    <clipPath
       id="clipPath4972">
      <path
         clip-rule="nonzero"
         d="m 13,5 h 4 v 4.964844 h -4 z m 0,0"
         id="path7213" />
    </clipPath>
    <clipPath
       id="clipPath4624">
      <path
         clip-rule="nonzero"
         d="m 18,0 h 4 v 9.964844 h -4 z m 0,0"
         id="path3827" />
    </clipPath>
    <clipPath
       id="clipPath8907">
      <path
         clip-rule="nonzero"
         d="m 29,0 h 3 v 9.964844 h -3 z m 0,0"
         id="path5409" />
    </clipPath>
    <clipPath
       id="clipPath7887">
      <path
         clip-rule="nonzero"
         d="M 0,2 H 7.472656 V 9.4375 H 0 Z m 0,0"
         id="path7638" />
    </clipPath>
    <clipPath
       id="clipPath9091">
      <path
         clip-rule="nonzero"
         d="M 0,2 H 7.472656 V 9.4375 H 0 Z m 0,0"
         id="path8055" />
    </clipPath>
  </defs>
  <sodipodi:namedview
     id="base"
     pagecolor="#ffffff"
     bordercolor="#666666"
     borderopacity="1.0"
     inkscape:pageopacity="0.0"
     inkscape:pageshadow="2"
     inkscape:zoom="10.690306"
     inkscape:cx="474.26144"
     inkscape:cy="254.01517"
     inkscape:document-units="mm"
     inkscape:current-layer="layer1"
     showgrid="false"
     showborder="true"
     width="200mm"
     showguides="true"
     inkscape:guide-bbox="true"
     inkscape:window-width="1920"
     inkscape:window-height="1050"
     inkscape:window-x="0"
     inkscape:window-y="0"
     inkscape:window-maximized="1"
     inkscape:showpageshadow="2"
     inkscape:pagecheckerboard="0"
     inkscape:deskcolor="#d1d1d1">
    <inkscape:grid
       type="xygrid"
       id="grid815"
       units="mm"
       spacingx="10"
       spacingy="10"
       empspacing="4"
       dotted="false" />
  </sodipodi:namedview>
  <metadata
     id="metadata5">
    <rdf:RDF>
      <cc:Work
         rdf:about="">
        <dc:format>image/svg+xml</dc:format>
        <dc:type
           rdf:resource="http://purl.org/dc/dcmitype/StillImage" />
        <dc:title />
      </cc:Work>
    </rdf:RDF>
  </metadata>
  <g
     inkscape:label="Layer 1"
     inkscape:groupmode="layer"
     id="layer1"
     transform="translate(0, -177)">
    <path
       style="fill:none;stroke:#5792ff;stroke-width:0.264999;stroke-linecap:round;stroke-opacity:1;paint-order:fill markers stroke"
       d="m 21.510672,217.06069 c -0.004,-0.17468 -0.0286,-0.35008 -0.01213,-0.52402 0.04311,-0.45511 0.346499,-0.96119 0.522916,-1.36885 0.67182,-1.55242 1.501852,-2.97509 2.329057,-4.44828 0.586547,-1.0446 1.07702,-2.1704 1.782254,-3.14412 1.124498,-1.55259 2.609101,-3.06548 4.230005,-4.10617 1.104771,-0.7093 2.530615,-0.85523 3.790503,-1.09066 2.613181,-0.48832 4.838192,-0.87444 7.461948,-0.16059 1.856492,0.50511 4.08858,1.1 5.323242,2.68404 0.358876,0.46042 0.791599,1.34378 1.033709,1.80724 0.995336,1.90533 0.987798,2.71924 1.283221,4.8334 0.110419,0.79018 0.295339,1.5712 0.392097,2.36323 0.216244,1.77009 0.0994,6.12212 1.414044,7.35722 0.21426,0.2013 0.464743,0.36534 0.72466,0.50271 0.541244,0.28605 1.251939,0.2613 1.841785,0.25649 0.986438,-0.008 1.96401,-0.11744 2.875492,-0.52365 0.727451,-0.32419 1.334733,-0.83011 1.996493,-1.26191 0.399497,-0.26067 0.82636,-0.47359 1.22369,-0.73789 1.180872,-0.78548 2.29816,-1.6145 3.54099,-2.30995 1.677011,-0.93839 3.52739,-1.82797 5.418053,-2.21366 1.014886,-0.20704 2.136354,-0.17862 3.160651,-0.19219 2.880937,-0.0382 6.228363,0.49328 8.662122,2.11702 1.002954,0.66914 1.895073,1.49132 2.745037,2.34192 4.45209,4.45539 6.929601,10.53383 7.604529,16.7462 0.598059,5.50487 0.297043,10.20323 -3.588395,14.48991 -2.442033,2.69421 -5.885199,4.10458 -9.125506,5.57129 -0.935143,0.42329 -1.860402,0.86895 -2.804202,1.27256 -2.096704,0.89666 -4.2897,1.60142 -6.452126,2.32061 -1.136648,0.37803 -2.245789,0.82906 -3.374523,1.22957 -0.932973,0.33105 -1.883116,0.61967 -2.804202,0.98373 -0.476607,0.18838 -2.23996,1.10169 -2.81596,1.10169"
       id="path803" />
    <path
       style="fill:none;stroke:#5792ff;stroke-width:0.264999;stroke-linecap:round;stroke-opacity:1;paint-order:fill markers stroke;stroke-dasharray:0.264999,0.529998;stroke-dashoffset:0"
       d="m 60.22006,263.19303 c -0.141827,0.18561 -0.534966,0.0361 -0.740934,0.12865 -0.387926,0.17435 -0.705159,0.4725 -1.079042,0.66656 -0.858094,0.44539 -1.632154,0.94958 -2.560913,1.27523 -0.674745,0.23658 -1.406847,0.15935 -2.105818,0.28102 -1.557137,0.27104 -3.081581,0.73265 -4.666734,0.84224 -1.683502,0.1164 -3.36024,5.3e-4 -5.043832,0.14031 -1.796417,0.14912 -3.534396,0.67466 -5.329676,0.80727 -0.700892,0.0518 -1.404628,0.005 -2.106221,0.035 -2.283444,0.0973 -4.578797,0.14011 -6.863408,0 -0.918557,-0.0563 -1.836367,-0.28161 -2.743033,-0.42092 -1.282903,-0.19712 -2.564161,-0.4183 -3.847802,-0.60867 -0.966319,-0.14331 -1.930875,-0.21191 -2.885751,-0.43258 -1.855962,-0.42891 -3.668174,-1.1414 -5.433801,-1.84853 -2.864531,-1.14722 -5.477283,-2.42266 -7.2276452,-5.08926 -1.6244927,-2.47484 -2.034292,-6.10743 -1.8851057,-9.0432 0.080914,-1.59228 0.47957,-3.17228 0.8060645,-4.72623 0.4859973,-2.31311 1.1597529,-4.22908 1.9369672,-6.45817 0.7421004,-2.12837 1.535004,-4.1766 2.7036332,-6.11845 0.642733,-1.06799 1.331791,-2.07779 2.119086,-3.04174 0.898613,-1.10024 1.873729,-2.14083 2.651771,-3.33441 0.574676,-0.8816 0.799749,-1.79208 1.222163,-2.7374 0.438881,-0.98218 1.038359,-1.90409 1.559866,-2.84274 0.384341,-0.69177 0.68188,-1.44762 1.143767,-2.09416 0.257645,-0.36064 0.602002,-0.63378 0.845061,-1.00627 0.15056,-0.23074 0.198854,-0.55345 0.35097,-0.76024 0.304425,-0.41382 0.5322,-0.0555 0.740936,-0.28101"
       id="path2327" />
    <path
       style="fill:#ccfcff;stroke:#5792ff;stroke-width:0.264999;stroke-linecap:round;stroke-dasharray:0.264999, 0.529998;stroke-dashoffset:0;stroke-opacity:1;paint-order:fill markers stroke;fill-opacity:1"
       d="m 159.86352,223.32993 c -0.004,-0.17468 -0.0286,-0.35008 -0.0121,-0.52402 0.0431,-0.45511 0.3465,-0.96119 0.52291,-1.36885 0.67182,-1.55242 1.50186,-2.97509 2.32906,-4.44828 0.58655,-1.0446 1.07702,-2.1704 1.78226,-3.14412 1.12449,-1.55259 2.6091,-3.06548 4.23,-4.10617 1.10477,-0.7093 2.53062,-0.85523 3.7905,-1.09066 2.61318,-0.48832 4.8382,-0.87444 7.46195,-0.16059 1.85649,0.50511 4.08858,1.1 5.32324,2.68404 0.35888,0.46042 0.7916,1.34378 1.03371,1.80724 0.99534,1.90533 0.9878,2.71924 1.28322,4.8334 0.11042,0.79018 0.29534,1.5712 0.3921,2.36323 0.21624,1.77009 0.0994,6.12212 1.41404,7.35722 0.21426,0.2013 0.46475,0.36534 0.72466,0.50271 0.54125,0.28605 1.25194,0.2613 1.84179,0.25649 0.98644,-0.008 1.96401,-0.11744 2.87549,-0.52365 0.72745,-0.32419 1.33473,-0.83011 1.99649,-1.26191 0.3995,-0.26067 0.82636,-0.47359 1.22369,-0.73789 1.18088,-0.78548 2.29816,-1.6145 3.54099,-2.30995 1.67702,-0.93839 3.52739,-1.82797 5.41806,-2.21366 1.01488,-0.20704 2.13635,-0.17862 3.16065,-0.19219 2.88094,-0.0382 6.22836,0.49328 8.66212,2.11702 1.00295,0.66914 1.89507,1.49132 2.74504,2.34192 4.45209,4.45539 6.9296,10.53383 7.60453,16.7462 0.59806,5.50487 0.29704,10.20323 -3.5884,14.48991 -2.44203,2.69421 -5.8852,4.10458 -9.1255,5.57129 -0.93515,0.42329 -1.86041,0.86895 -2.80421,1.27256 -2.0967,0.89666 -4.2897,1.60142 -6.45212,2.32061 -1.13665,0.37803 -2.24579,0.82906 -3.37453,1.22957 -0.93297,0.33105 -1.88311,0.61967 -2.8042,0.98373 -0.4766,0.18838 -2.23996,1.10169 -2.81596,1.10169"
       id="path803-3" />
    <path
       style="fill:#ccfcff;stroke:#5792ff;stroke-width:0.264999;stroke-linecap:round;stroke-dasharray:0.264999, 0.529998;stroke-dashoffset:0;stroke-opacity:1;paint-order:fill markers stroke;fill-opacity:1"
       d="m 198.57291,269.46227 c -0.14183,0.18561 -0.53497,0.0361 -0.74094,0.12865 -0.38792,0.17435 -0.70516,0.4725 -1.07904,0.66656 -0.85809,0.44539 -1.63215,0.94958 -2.56091,1.27523 -0.67475,0.23658 -1.40685,0.15935 -2.10582,0.28102 -1.55714,0.27104 -3.08158,0.73265 -4.66673,0.84224 -1.68351,0.1164 -3.36024,5.3e-4 -5.04384,0.14031 -1.79641,0.14912 -3.53439,0.67466 -5.32967,0.80727 -0.70089,0.0518 -1.40463,0.005 -2.10622,0.035 -2.28345,0.0973 -4.5788,0.14011 -6.86341,0 -0.91856,-0.0563 -1.83637,-0.28161 -2.74303,-0.42092 -1.28291,-0.19712 -2.56417,-0.4183 -3.84781,-0.60867 -0.96632,-0.14331 -1.93087,-0.21191 -2.88575,-0.43258 -1.85596,-0.42891 -3.66818,-1.1414 -5.4338,-1.84853 -2.86453,-1.14722 -5.47729,-2.42266 -7.22765,-5.08926 -1.62449,-2.47484 -2.03429,-6.10743 -1.8851,-9.0432 0.0809,-1.59228 0.47957,-3.17228 0.80606,-4.72623 0.486,-2.31311 1.15975,-4.22908 1.93697,-6.45817 0.7421,-2.12837 1.535,-4.1766 2.70363,-6.11845 0.64273,-1.06799 1.33179,-2.07779 2.11909,-3.04174 0.89861,-1.10024 1.87373,-2.14083 2.65177,-3.33441 0.57467,-0.8816 0.79975,-1.79208 1.22216,-2.7374 0.43888,-0.98218 1.03836,-1.90409 1.55987,-2.84274 0.38434,-0.69177 0.68188,-1.44762 1.14376,-2.09416 0.25765,-0.36064 0.60201,-0.63378 0.84506,-1.00627 0.15056,-0.23074 0.19886,-0.55345 0.35098,-0.76024 0.30442,-0.41382 0.5322,-0.0555 0.74094,-0.28101"
       id="path2327-6" />
    <circle
       style="fill:none;stroke:#5792ff;stroke-width:0.264999;stroke-linecap:round;stroke-dasharray:none;stroke-dashoffset:0;stroke-opacity:1;paint-order:fill markers stroke"
       id="path4755"
       cx="89.769867"
       cy="229.94458"
       r="9.7218227" />
    <path
       style="fill:#d1ffff;stroke:none;stroke-width:0.389598;stroke-linecap:round;stroke-dasharray:none;stroke-dashoffset:0;stroke-opacity:1;paint-order:fill markers stroke;fill-opacity:1"
       d="m 336.08312,236.03956 c -15.85394,-1.68133 -28.9343,-13.3487 -32.06012,-28.59686 -0.79233,-3.86509 -0.79083,-10.76636 0.003,-14.61974 1.42554,-6.9183 5.20156,-13.70339 10.33285,-18.567 3.01095,-2.85388 6.92891,-5.68295 7.43727,-5.37027 0.16505,0.10152 1.88466,2.57621 3.82135,5.49931 10.50662,15.85794 16.62085,35.41858 17.72592,56.70871 l 0.24419,4.70439 -1.86168,0.25517 c -1.87108,0.25646 -3.12407,0.25342 -5.64295,-0.0137 z"
       id="path6939"
       transform="matrix(0.26458333,0,0,0.26458333,0,177)" />
    <path
       style="fill:#ffe4b7;stroke:none;stroke-width:0.389598;stroke-linecap:round;stroke-dasharray:none;stroke-dashoffset:0;stroke-opacity:1;paint-order:fill markers stroke;fill-opacity:1"
       d="m 344.86236,232.17041 c -0.52932,-7.46264 -1.51355,-15.30373 -2.55841,-20.3823 -3.2007,-15.55699 -9.28108,-29.8446 -17.54069,-41.21688 -1.24971,-1.72068 -1.69147,-2.61914 -1.3843,-2.81543 1.00172,-0.64015 5.6612,-2.25622 8.03634,-2.78729 10.72834,-2.39878 21.73198,0.16833 30.3799,7.08752 7.17625,5.74171 11.87117,14.04826 13.21308,23.37742 1.74519,12.13289 -3.54711,25.08615 -13.44316,32.90303 -4.2144,3.32895 -10.61378,6.34653 -14.91904,7.03497 l -1.53921,0.24613 z"
       id="path7010"
       transform="matrix(0.26458333,0,0,0.26458333,0,177)" />
    <path
       style="fill:#cdfcff;fill-opacity:1;stroke:#5792ff;stroke-width:0.264999;stroke-linecap:round;stroke-dasharray:0.264999, 0.529998;stroke-dashoffset:0;stroke-opacity:1;paint-order:fill markers stroke"
       d="m 41.138241,266.57409 c -0.627899,0.0343 -1.069941,0.45059 -1.663991,0.61992 -1.328968,0.37883 -3.491032,0.17882 -4.783723,-0.082 -1.560629,-0.3149 -2.899129,-1.25413 -4.290031,-1.96511 -0.708855,-0.36234 -1.808554,-0.68961 -2.3398,-1.3689 -1.501968,-1.92054 -0.506013,-4.77814 0.247248,-6.79708 1.322123,-3.54364 2.322626,-6.76191 5.797635,-8.70429 2.042228,-1.14152 4.43086,-0.97088 6.681692,-0.98255 1.142389,-0.006 3.614306,-0.18636 4.692864,0.31559 1.050277,0.48879 1.764694,2.34162 2.339798,3.29944 0.753914,1.25561 1.871628,2.86432 1.585997,4.44561 -0.415158,2.29838 -1.194721,3.19408 -1.9241,5.14756 -0.310351,0.8312 -0.214154,1.91293 -0.806067,2.60875 -0.61046,0.71764 -1.591643,1.27247 -2.287534,1.8835 -0.31595,0.27742 -0.649193,0.77096 -1.053312,0.95924 -0.343754,0.16015 -0.762137,0.0572 -1.117634,0.24604 -0.530561,0.28187 -0.458095,0.45867 -1.079042,0.37429 z"
       id="path13609" />
    <g
       inkscape:label=""
       transform="translate(24.516867,257.86614)"
       id="g14834">
      <g
         clip-path="url(#clipPath3382)"
         id="g21"
         transform="matrix(0.352778,0,0,0.352778,-0.237023,0.00158747)">
        <g
           fill="#000000"
           fill-opacity="1"
           id="g19">
          <g
             id="use17"
             transform="translate(0,6.8080001)">
            <path
               d="M 6.328125,-5.765625 C 6.4375,-6.171875 6.609375,-6.46875 7.40625,-6.5 c 0.046875,0 0.171875,-0.015625 0.171875,-0.203125 0,0 0,-0.109375 -0.125,-0.109375 -0.328125,0 -0.6875,0.03125 -1.015625,0.03125 -0.34375,0 -0.71875,-0.03125 -1.046875,-0.03125 -0.0625,0 -0.171875,0 -0.171875,0.203125 C 5.21875,-6.5 5.3125,-6.5 5.390625,-6.5 c 0.578125,0.015625 0.6875,0.21875 0.6875,0.4375 0,0.03125 -0.03125,0.1875 -0.03125,0.203125 l -0.90625,3.5625 C 4.8125,-0.953125 3.65625,-0.09375 2.65625,-0.09375 c -0.671875,0 -1.203125,-0.4375 -1.203125,-1.296875 0,-0.015625 0,-0.328125 0.109375,-0.765625 L 2.515625,-6.046875 C 2.609375,-6.40625 2.625,-6.5 3.359375,-6.5 c 0.265625,0 0.34375,0 0.34375,-0.203125 0,-0.109375 -0.109375,-0.109375 -0.140625,-0.109375 -0.28125,0 -1,0.03125 -1.28125,0.03125 -0.28125,0 -1,-0.03125 -1.28125,-0.03125 -0.078125,0 -0.1875,0 -0.1875,0.203125 C 0.8125,-6.5 0.890625,-6.5 1.09375,-6.5 c 0.015625,0 0.203125,0 0.375,0.015625 0.171875,0.03125 0.265625,0.03125 0.265625,0.171875 0,0.046875 -0.109375,0.46875 -0.171875,0.703125 l -0.21875,0.875 C 1.25,-4.34375 0.78125,-2.46875 0.734375,-2.265625 0.671875,-2 0.671875,-1.84375 0.671875,-1.6875 c 0,1.203125 0.90625,1.90625 1.953125,1.90625 1.25,0 2.484375,-1.125 2.8125,-2.4375 z m 0,0"
               id="path31" />
          </g>
        </g>
      </g>
      <g
         fill="#000000"
         fill-opacity="1"
         id="g25"
         transform="matrix(0.352778,0,0,0.352778,-0.237023,0.00158747)">
        <g
           id="use23"
           transform="translate(7.888,3.1930001)">
          <path
             d="M 1.734375,-0.734375 C 1.671875,-0.5 1.4375,-0.125 1.078125,-0.125 c -0.015625,0 -0.234375,0 -0.375,-0.09375 0.28125,-0.09375 0.3125,-0.34375 0.3125,-0.390625 0,-0.15625 -0.125,-0.25 -0.28125,-0.25 -0.203125,0 -0.40625,0.15625 -0.40625,0.421875 0,0.34375 0.390625,0.5 0.734375,0.5 0.328125,0 0.609375,-0.1875 0.78125,-0.484375 C 2.015625,-0.0625 2.390625,0.0625 2.671875,0.0625 c 0.8125,0 1.234375,-0.859375 1.234375,-1.0625 0,-0.09375 -0.09375,-0.09375 -0.109375,-0.09375 -0.109375,0 -0.109375,0.046875 -0.140625,0.125 -0.140625,0.484375 -0.5625,0.84375 -0.953125,0.84375 -0.28125,0 -0.421875,-0.1875 -0.421875,-0.453125 0,-0.1875 0.171875,-0.8125 0.359375,-1.59375 C 2.78125,-2.703125 3.09375,-2.875 3.328125,-2.875 c 0.015625,0 0.21875,0 0.375,0.09375 -0.21875,0.0625 -0.3125,0.265625 -0.3125,0.390625 0,0.140625 0.125,0.25 0.28125,0.25 0.15625,0 0.390625,-0.125 0.390625,-0.421875 0,-0.390625 -0.453125,-0.515625 -0.71875,-0.515625 -0.359375,0 -0.640625,0.234375 -0.78125,0.5 -0.125,-0.28125 -0.453125,-0.5 -0.84375,-0.5 C 0.9375,-3.078125 0.5,-2.21875 0.5,-2 c 0,0.078125 0.09375,0.078125 0.109375,0.078125 0.09375,0 0.09375,-0.015625 0.140625,-0.109375 C 0.921875,-2.578125 1.359375,-2.875 1.703125,-2.875 1.9375,-2.875 2.125,-2.75 2.125,-2.421875 2.125,-2.28125 2.03125,-1.9375 1.96875,-1.6875 Z m 0,0"
             id="path35" />
        </g>
      </g>
    </g>
    <g
       inkscape:label=""
       transform="translate(97.222689,219.92602)"
       id="g14915">
      <g
         clip-path="url(#clipPath3140)"
         id="g14907"
         transform="matrix(0.352778,0,0,0.352778,-0.237023,0.00158747)">
        <g
           fill="#000000"
           fill-opacity="1"
           id="g14905">
          <g
             id="g14903"
             transform="translate(0,6.8080001)">
            <path
               d="M 6.328125,-5.765625 C 6.4375,-6.171875 6.609375,-6.46875 7.40625,-6.5 c 0.046875,0 0.171875,-0.015625 0.171875,-0.203125 0,0 0,-0.109375 -0.125,-0.109375 -0.328125,0 -0.6875,0.03125 -1.015625,0.03125 -0.34375,0 -0.71875,-0.03125 -1.046875,-0.03125 -0.0625,0 -0.171875,0 -0.171875,0.203125 C 5.21875,-6.5 5.3125,-6.5 5.390625,-6.5 c 0.578125,0.015625 0.6875,0.21875 0.6875,0.4375 0,0.03125 -0.03125,0.1875 -0.03125,0.203125 l -0.90625,3.5625 C 4.8125,-0.953125 3.65625,-0.09375 2.65625,-0.09375 c -0.671875,0 -1.203125,-0.4375 -1.203125,-1.296875 0,-0.015625 0,-0.328125 0.109375,-0.765625 L 2.515625,-6.046875 C 2.609375,-6.40625 2.625,-6.5 3.359375,-6.5 c 0.265625,0 0.34375,0 0.34375,-0.203125 0,-0.109375 -0.109375,-0.109375 -0.140625,-0.109375 -0.28125,0 -1,0.03125 -1.28125,0.03125 -0.28125,0 -1,-0.03125 -1.28125,-0.03125 -0.078125,0 -0.1875,0 -0.1875,0.203125 C 0.8125,-6.5 0.890625,-6.5 1.09375,-6.5 c 0.015625,0 0.203125,0 0.375,0.015625 0.171875,0.03125 0.265625,0.03125 0.265625,0.171875 0,0.046875 -0.109375,0.46875 -0.171875,0.703125 l -0.21875,0.875 C 1.25,-4.34375 0.78125,-2.46875 0.734375,-2.265625 0.671875,-2 0.671875,-1.84375 0.671875,-1.6875 c 0,1.203125 0.90625,1.90625 1.953125,1.90625 1.25,0 2.484375,-1.125 2.8125,-2.4375 z m 0,0"
               id="path14901" />
          </g>
        </g>
      </g>
      <g
         fill="#000000"
         fill-opacity="1"
         id="g14913"
         transform="matrix(0.352778,0,0,0.352778,-0.237023,0.00158747)">
        <g
           id="g14911"
           transform="translate(7.888,3.1930001)">
          <path
             d="M 1.734375,-0.734375 C 1.671875,-0.5 1.4375,-0.125 1.078125,-0.125 c -0.015625,0 -0.234375,0 -0.375,-0.09375 0.28125,-0.09375 0.3125,-0.34375 0.3125,-0.390625 0,-0.15625 -0.125,-0.25 -0.28125,-0.25 -0.203125,0 -0.40625,0.15625 -0.40625,0.421875 0,0.34375 0.390625,0.5 0.734375,0.5 0.328125,0 0.609375,-0.1875 0.78125,-0.484375 C 2.015625,-0.0625 2.390625,0.0625 2.671875,0.0625 c 0.8125,0 1.234375,-0.859375 1.234375,-1.0625 0,-0.09375 -0.09375,-0.09375 -0.109375,-0.09375 -0.109375,0 -0.109375,0.046875 -0.140625,0.125 -0.140625,0.484375 -0.5625,0.84375 -0.953125,0.84375 -0.28125,0 -0.421875,-0.1875 -0.421875,-0.453125 0,-0.1875 0.171875,-0.8125 0.359375,-1.59375 C 2.78125,-2.703125 3.09375,-2.875 3.328125,-2.875 c 0.015625,0 0.21875,0 0.375,0.09375 -0.21875,0.0625 -0.3125,0.265625 -0.3125,0.390625 0,0.140625 0.125,0.25 0.28125,0.25 0.15625,0 0.390625,-0.125 0.390625,-0.421875 0,-0.390625 -0.453125,-0.515625 -0.71875,-0.515625 -0.359375,0 -0.640625,0.234375 -0.78125,0.5 -0.125,-0.28125 -0.453125,-0.5 -0.84375,-0.5 C 0.9375,-3.078125 0.5,-2.21875 0.5,-2 c 0,0.078125 0.09375,0.078125 0.109375,0.078125 0.09375,0 0.09375,-0.015625 0.140625,-0.109375 C 0.921875,-2.578125 1.359375,-2.875 1.703125,-2.875 1.9375,-2.875 2.125,-2.75 2.125,-2.421875 2.125,-2.28125 2.03125,-1.9375 1.96875,-1.6875 Z m 0,0"
             id="path14909" />
        </g>
      </g>
    </g>
    <g
       inkscape:label=""
       transform="translate(85.341176,231.12208)"
       id="g15006">
      <g
         fill="#000000"
         fill-opacity="1"
         id="g15004"
         transform="matrix(0.352778,0,0,0.352778,-0.104731,0.0413632)">
        <g
           id="g15002"
           transform="translate(0,4.289)">
          <path
             d="M 3.328125,-3.015625 C 3.390625,-3.265625 3.625,-4.1875 4.3125,-4.1875 c 0.046875,0 0.296875,0 0.5,0.125 C 4.53125,-4 4.34375,-3.765625 4.34375,-3.515625 c 0,0.15625 0.109375,0.34375 0.375,0.34375 0.21875,0 0.53125,-0.171875 0.53125,-0.578125 0,-0.515625 -0.578125,-0.65625 -0.921875,-0.65625 -0.578125,0 -0.921875,0.53125 -1.046875,0.75 -0.25,-0.65625 -0.78125,-0.75 -1.078125,-0.75 -1.03125,0 -1.609375,1.28125 -1.609375,1.53125 0,0.109375 0.109375,0.109375 0.125,0.109375 0.078125,0 0.109375,-0.03125 0.125,-0.109375 0.34375,-1.0625 1,-1.3125 1.34375,-1.3125 0.1875,0 0.53125,0.09375 0.53125,0.671875 0,0.3125 -0.171875,0.96875 -0.53125,2.375 -0.15625,0.609375 -0.515625,1.03125 -0.953125,1.03125 -0.0625,0 -0.28125,0 -0.5,-0.125 0.25,-0.0625 0.46875,-0.265625 0.46875,-0.546875 0,-0.265625 -0.21875,-0.34375 -0.359375,-0.34375 -0.3125,0 -0.546875,0.25 -0.546875,0.578125 0,0.453125 0.484375,0.65625 0.921875,0.65625 0.671875,0 1.03125,-0.703125 1.046875,-0.75 0.125,0.359375 0.484375,0.75 1.078125,0.75 1.03125,0 1.59375,-1.28125 1.59375,-1.53125 0,-0.109375 -0.078125,-0.109375 -0.109375,-0.109375 -0.09375,0 -0.109375,0.046875 -0.140625,0.109375 -0.328125,1.078125 -1,1.3125 -1.3125,1.3125 -0.390625,0 -0.546875,-0.3125 -0.546875,-0.65625 0,-0.21875 0.046875,-0.4375 0.15625,-0.875 z m 0,0"
             id="path15000" />
        </g>
      </g>
    </g>
    <g
       inkscape:label=""
       transform="translate(40.870129,253.95883)"
       id="g15099">
      <g
         fill="#000000"
         fill-opacity="1"
         id="g15097"
         transform="matrix(0.352778,0,0,0.352778,-0.104731,0.0413632)">
        <g
           id="g15095"
           transform="translate(0,4.289)">
          <path
             d="M 3.328125,-3.015625 C 3.390625,-3.265625 3.625,-4.1875 4.3125,-4.1875 c 0.046875,0 0.296875,0 0.5,0.125 C 4.53125,-4 4.34375,-3.765625 4.34375,-3.515625 c 0,0.15625 0.109375,0.34375 0.375,0.34375 0.21875,0 0.53125,-0.171875 0.53125,-0.578125 0,-0.515625 -0.578125,-0.65625 -0.921875,-0.65625 -0.578125,0 -0.921875,0.53125 -1.046875,0.75 -0.25,-0.65625 -0.78125,-0.75 -1.078125,-0.75 -1.03125,0 -1.609375,1.28125 -1.609375,1.53125 0,0.109375 0.109375,0.109375 0.125,0.109375 0.078125,0 0.109375,-0.03125 0.125,-0.109375 0.34375,-1.0625 1,-1.3125 1.34375,-1.3125 0.1875,0 0.53125,0.09375 0.53125,0.671875 0,0.3125 -0.171875,0.96875 -0.53125,2.375 -0.15625,0.609375 -0.515625,1.03125 -0.953125,1.03125 -0.0625,0 -0.28125,0 -0.5,-0.125 0.25,-0.0625 0.46875,-0.265625 0.46875,-0.546875 0,-0.265625 -0.21875,-0.34375 -0.359375,-0.34375 -0.3125,0 -0.546875,0.25 -0.546875,0.578125 0,0.453125 0.484375,0.65625 0.921875,0.65625 0.671875,0 1.03125,-0.703125 1.046875,-0.75 0.125,0.359375 0.484375,0.75 1.078125,0.75 1.03125,0 1.59375,-1.28125 1.59375,-1.53125 0,-0.109375 -0.078125,-0.109375 -0.109375,-0.109375 -0.09375,0 -0.109375,0.046875 -0.140625,0.109375 -0.328125,1.078125 -1,1.3125 -1.3125,1.3125 -0.390625,0 -0.546875,-0.3125 -0.546875,-0.65625 0,-0.21875 0.046875,-0.4375 0.15625,-0.875 z m 0,0"
             id="path15093" />
        </g>
      </g>
    </g>
    <g
       inkscape:label=""
       transform="translate(45.250618,273.07483)"
       id="g15218">
      <g
         clip-path="url(#clipPath3021)"
         id="g40"
         transform="matrix(0.352778,0,0,0.352778,-0.0992187,0.00158747)">
        <g
           fill="#000000"
           fill-opacity="1"
           id="g38">
          <g
             id="use34"
             transform="translate(0,6.8080001)">
            <path
               d="M 2.25,-6.03125 C 2.25,-6.390625 2.265625,-6.5 3.0625,-6.5 h 0.25 v -0.3125 c -0.34375,0.03125 -1.125,0.03125 -1.515625,0.03125 -0.375,0 -1.171875,0 -1.515625,-0.03125 V -6.5 h 0.25 c 0.796875,0 0.828125,0.109375 0.828125,0.46875 v 5.25 c 0,0.359375 -0.03125,0.46875 -0.828125,0.46875 h -0.25 V 0 c 0.34375,-0.03125 1.140625,-0.03125 1.515625,-0.03125 0.390625,0 1.171875,0 1.515625,0.03125 v -0.3125 h -0.25 C 2.265625,-0.3125 2.25,-0.421875 2.25,-0.78125 Z m 0,0"
               id="path62" />
          </g>
          <g
             id="use36"
             transform="translate(3.5974951,6.8080001)">
            <path
               d="M 1.09375,-3.421875 V -0.75 c 0,0.4375 -0.109375,0.4375 -0.78125,0.4375 V 0 c 0.359375,-0.015625 0.859375,-0.03125 1.140625,-0.03125 0.25,0 0.765625,0.015625 1.109375,0.03125 v -0.3125 c -0.671875,0 -0.78125,0 -0.78125,-0.4375 V -2.59375 C 1.78125,-3.625 2.5,-4.1875 3.125,-4.1875 c 0.640625,0 0.75,0.53125 0.75,1.109375 V -0.75 c 0,0.4375 -0.109375,0.4375 -0.78125,0.4375 V 0 c 0.34375,-0.015625 0.859375,-0.03125 1.125,-0.03125 0.25,0 0.78125,0.015625 1.109375,0.03125 v -0.3125 c -0.515625,0 -0.765625,0 -0.765625,-0.296875 v -1.90625 c 0,-0.859375 0,-1.15625 -0.3125,-1.515625 -0.140625,-0.171875 -0.46875,-0.375 -1.046875,-0.375 C 2.46875,-4.40625 2,-3.984375 1.71875,-3.359375 V -4.40625 L 0.3125,-4.296875 v 0.3125 c 0.703125,0 0.78125,0.0625 0.78125,0.5625 z m 0,0"
               id="path66" />
          </g>
        </g>
      </g>
      <g
         clip-path="url(#clipPath1164)"
         id="g56"
         transform="matrix(0.352778,0,0,0.352778,-0.0992187,0.00158747)">
        <g
           fill="#000000"
           fill-opacity="1"
           id="g54">
          <g
             id="use42"
             transform="translate(8.8537626,6.8080001)">
            <path
               d="m 1.71875,-3.984375 h 1.4375 v -0.3125 H 1.71875 V -6.125 h -0.25 c 0,0.8125 -0.296875,1.875 -1.28125,1.921875 v 0.21875 h 0.84375 v 2.75 c 0,1.21875 0.9375,1.34375 1.296875,1.34375 0.703125,0 0.984375,-0.703125 0.984375,-1.34375 v -0.5625 h -0.25 V -1.25 c 0,0.734375 -0.296875,1.109375 -0.671875,1.109375 -0.671875,0 -0.671875,-0.90625 -0.671875,-1.078125 z m 0,0"
               id="path70" />
          </g>
          <g
             id="use44"
             transform="translate(12.728218,6.8080001)">
            <path
               d="M 1.109375,-2.515625 C 1.171875,-4 2.015625,-4.25 2.359375,-4.25 c 1.015625,0 1.125,1.34375 1.125,1.734375 z m 0,0.21875 h 2.78125 c 0.21875,0 0.25,0 0.25,-0.21875 0,-0.984375 -0.546875,-1.953125 -1.78125,-1.953125 -1.15625,0 -2.078125,1.03125 -2.078125,2.28125 0,1.328125 1.046875,2.296875 2.1875,2.296875 C 3.6875,0.109375 4.140625,-1 4.140625,-1.1875 4.140625,-1.28125 4.0625,-1.3125 4,-1.3125 c -0.078125,0 -0.109375,0.0625 -0.125,0.140625 -0.34375,1.03125 -1.25,1.03125 -1.34375,1.03125 -0.5,0 -0.890625,-0.296875 -1.125,-0.671875 -0.296875,-0.46875 -0.296875,-1.125 -0.296875,-1.484375 z m 0,0"
               id="path74" />
          </g>
          <g
             id="use46"
             transform="translate(17.155598,6.8080001)">
            <path
               d="M 1.671875,-3.3125 V -4.40625 L 0.28125,-4.296875 v 0.3125 c 0.703125,0 0.78125,0.0625 0.78125,0.5625 V -0.75 c 0,0.4375 -0.109375,0.4375 -0.78125,0.4375 V 0 c 0.390625,-0.015625 0.859375,-0.03125 1.140625,-0.03125 0.390625,0 0.859375,0 1.265625,0.03125 V -0.3125 H 2.46875 c -0.734375,0 -0.75,-0.109375 -0.75,-0.46875 V -2.3125 c 0,-0.984375 0.421875,-1.875 1.171875,-1.875 0.0625,0 0.09375,0 0.109375,0.015625 -0.03125,0 -0.234375,0.125 -0.234375,0.390625 0,0.265625 0.21875,0.421875 0.4375,0.421875 0.171875,0 0.421875,-0.125 0.421875,-0.4375 0,-0.3125 -0.3125,-0.609375 -0.734375,-0.609375 -0.734375,0 -1.09375,0.671875 -1.21875,1.09375 z m 0,0"
               id="path78" />
          </g>
          <g
             id="use48"
             transform="translate(21.057947,6.8080001)">
            <path
               d="M 1.765625,-4.40625 0.375,-4.296875 v 0.3125 c 0.640625,0 0.734375,0.0625 0.734375,0.546875 V -0.75 c 0,0.4375 -0.109375,0.4375 -0.78125,0.4375 V 0 C 0.640625,-0.015625 1.1875,-0.03125 1.421875,-0.03125 1.78125,-0.03125 2.125,-0.015625 2.46875,0 v -0.3125 c -0.671875,0 -0.703125,-0.046875 -0.703125,-0.4375 z m 0.03125,-1.734375 c 0,-0.3125 -0.234375,-0.53125 -0.515625,-0.53125 -0.3125,0 -0.53125,0.265625 -0.53125,0.53125 0,0.265625 0.21875,0.53125 0.53125,0.53125 0.28125,0 0.515625,-0.21875 0.515625,-0.53125 z m 0,0"
               id="path82" />
          </g>
          <g
             id="use50"
             transform="translate(23.825558,6.8080001)">
            <path
               d="M 4.6875,-2.140625 C 4.6875,-3.40625 3.703125,-4.46875 2.5,-4.46875 c -1.25,0 -2.21875,1.09375 -2.21875,2.328125 0,1.296875 1.03125,2.25 2.203125,2.25 1.203125,0 2.203125,-0.984375 2.203125,-2.25 z m -2.1875,2 c -0.4375,0 -0.875,-0.203125 -1.140625,-0.671875 -0.25,-0.4375 -0.25,-1.046875 -0.25,-1.40625 0,-0.390625 0,-0.921875 0.234375,-1.359375 C 1.609375,-4.03125 2.078125,-4.25 2.484375,-4.25 c 0.4375,0 0.859375,0.21875 1.125,0.65625 0.265625,0.421875 0.265625,1 0.265625,1.375 0,0.359375 0,0.90625 -0.21875,1.34375 C 3.421875,-0.421875 2.984375,-0.140625 2.5,-0.140625 Z m 0,0"
               id="path86" />
          </g>
          <g
             id="use52"
             transform="translate(28.806858,6.8080001)">
            <path
               d="M 1.671875,-3.3125 V -4.40625 L 0.28125,-4.296875 v 0.3125 c 0.703125,0 0.78125,0.0625 0.78125,0.5625 V -0.75 c 0,0.4375 -0.109375,0.4375 -0.78125,0.4375 V 0 c 0.390625,-0.015625 0.859375,-0.03125 1.140625,-0.03125 0.390625,0 0.859375,0 1.265625,0.03125 V -0.3125 H 2.46875 c -0.734375,0 -0.75,-0.109375 -0.75,-0.46875 V -2.3125 c 0,-0.984375 0.421875,-1.875 1.171875,-1.875 0.0625,0 0.09375,0 0.109375,0.015625 -0.03125,0 -0.234375,0.125 -0.234375,0.390625 0,0.265625 0.21875,0.421875 0.4375,0.421875 0.171875,0 0.421875,-0.125 0.421875,-0.4375 0,-0.3125 -0.3125,-0.609375 -0.734375,-0.609375 -0.734375,0 -1.09375,0.671875 -1.21875,1.09375 z m 0,0"
               id="path90" />
          </g>
        </g>
      </g>
    </g>
    <g
       inkscape:label=""
       transform="translate(93.036782,242.9264)"
       id="g15420">
      <g
         clip-path="url(#clipPath6915)"
         id="g46"
         transform="matrix(0.352778,0,0,0.352778,-0.115755,0.00158747)">
        <g
           fill="#000000"
           fill-opacity="1"
           id="g44">
          <g
             id="use40"
             transform="translate(0,6.8080001)">
            <path
               d="M 2.3125,-6.671875 C 2.21875,-6.796875 2.21875,-6.8125 2.03125,-6.8125 H 0.328125 V -6.5 H 0.625 c 0.140625,0 0.34375,0.015625 0.484375,0.015625 0.234375,0.03125 0.25,0.046875 0.25,0.234375 v 5.203125 c 0,0.265625 0,0.734375 -1.03125,0.734375 V 0 C 0.671875,-0.015625 1.171875,-0.03125 1.5,-0.03125 c 0.328125,0 0.8125,0.015625 1.15625,0.03125 v -0.3125 c -1.015625,0 -1.015625,-0.46875 -1.015625,-0.734375 v -5.1875 c 0.046875,0.046875 0.046875,0.0625 0.09375,0.125 L 5.796875,-0.125 C 5.890625,-0.015625 5.90625,0 5.96875,0 6.109375,0 6.109375,-0.0625 6.109375,-0.265625 v -5.5 c 0,-0.265625 0,-0.734375 1.03125,-0.734375 v -0.3125 c -0.359375,0.015625 -0.84375,0.03125 -1.171875,0.03125 -0.328125,0 -0.8125,-0.015625 -1.15625,-0.03125 V -6.5 c 1.015625,0 1.015625,0.46875 1.015625,0.734375 V -1.5 Z m 0,0"
               id="path76" />
          </g>
          <g
             id="g15393"
             transform="translate(7.4719501,6.8080001)">
            <path
               d="M 4.6875,-2.140625 C 4.6875,-3.40625 3.703125,-4.46875 2.5,-4.46875 c -1.25,0 -2.21875,1.09375 -2.21875,2.328125 0,1.296875 1.03125,2.25 2.203125,2.25 1.203125,0 2.203125,-0.984375 2.203125,-2.25 z m -2.1875,2 c -0.4375,0 -0.875,-0.203125 -1.140625,-0.671875 -0.25,-0.4375 -0.25,-1.046875 -0.25,-1.40625 0,-0.390625 0,-0.921875 0.234375,-1.359375 C 1.609375,-4.03125 2.078125,-4.25 2.484375,-4.25 c 0.4375,0 0.859375,0.21875 1.125,0.65625 0.265625,0.421875 0.265625,1 0.265625,1.375 0,0.359375 0,0.90625 -0.21875,1.34375 C 3.421875,-0.421875 2.984375,-0.140625 2.5,-0.140625 Z m 0,0"
               id="path80" />
          </g>
        </g>
      </g>
      <g
         clip-path="url(#clipPath8857)"
         id="g15404"
         transform="matrix(0.352778,0,0,0.352778,-0.115755,0.00158747)">
        <g
           fill="#000000"
           fill-opacity="1"
           id="g52">
          <g
             id="g15398"
             transform="translate(15.770796,6.8080001)">
            <path
               d="M 2.25,-6.03125 C 2.25,-6.390625 2.265625,-6.5 3.0625,-6.5 h 0.25 v -0.3125 c -0.34375,0.03125 -1.125,0.03125 -1.515625,0.03125 -0.375,0 -1.171875,0 -1.515625,-0.03125 V -6.5 h 0.25 c 0.796875,0 0.828125,0.109375 0.828125,0.46875 v 5.25 c 0,0.359375 -0.03125,0.46875 -0.828125,0.46875 h -0.25 V 0 c 0.34375,-0.03125 1.140625,-0.03125 1.515625,-0.03125 0.390625,0 1.171875,0 1.515625,0.03125 v -0.3125 h -0.25 C 2.265625,-0.3125 2.25,-0.421875 2.25,-0.78125 Z m 0,0"
               id="path84" />
          </g>
          <g
             id="g15401"
             transform="translate(19.368292,6.8080001)">
            <path
               d="M 1.09375,-3.421875 V -0.75 c 0,0.4375 -0.109375,0.4375 -0.78125,0.4375 V 0 c 0.359375,-0.015625 0.859375,-0.03125 1.140625,-0.03125 0.25,0 0.765625,0.015625 1.109375,0.03125 v -0.3125 c -0.671875,0 -0.78125,0 -0.78125,-0.4375 V -2.59375 C 1.78125,-3.625 2.5,-4.1875 3.125,-4.1875 c 0.640625,0 0.75,0.53125 0.75,1.109375 V -0.75 c 0,0.4375 -0.109375,0.4375 -0.78125,0.4375 V 0 c 0.34375,-0.015625 0.859375,-0.03125 1.125,-0.03125 0.25,0 0.78125,0.015625 1.109375,0.03125 v -0.3125 c -0.515625,0 -0.765625,0 -0.765625,-0.296875 v -1.90625 c 0,-0.859375 0,-1.15625 -0.3125,-1.515625 -0.140625,-0.171875 -0.46875,-0.375 -1.046875,-0.375 C 2.46875,-4.40625 2,-3.984375 1.71875,-3.359375 V -4.40625 L 0.3125,-4.296875 v 0.3125 c 0.703125,0 0.78125,0.0625 0.78125,0.5625 z m 0,0"
               id="path88" />
          </g>
        </g>
      </g>
      <g
         clip-path="url(#clipPath7036)"
         id="g70"
         transform="matrix(0.352778,0,0,0.352778,-0.115755,0.00158747)">
        <g
           fill="#000000"
           fill-opacity="1"
           id="g68">
          <g
             id="use56"
             transform="translate(24.634521,6.8080001)">
            <path
               d="m 1.71875,-3.984375 h 1.4375 v -0.3125 H 1.71875 V -6.125 h -0.25 c 0,0.8125 -0.296875,1.875 -1.28125,1.921875 v 0.21875 h 0.84375 v 2.75 c 0,1.21875 0.9375,1.34375 1.296875,1.34375 0.703125,0 0.984375,-0.703125 0.984375,-1.34375 v -0.5625 h -0.25 V -1.25 c 0,0.734375 -0.296875,1.109375 -0.671875,1.109375 -0.671875,0 -0.671875,-0.90625 -0.671875,-1.078125 z m 0,0"
               id="path92" />
          </g>
          <g
             id="use58"
             transform="translate(28.508976,6.8080001)">
            <path
               d="M 1.109375,-2.515625 C 1.171875,-4 2.015625,-4.25 2.359375,-4.25 c 1.015625,0 1.125,1.34375 1.125,1.734375 z m 0,0.21875 h 2.78125 c 0.21875,0 0.25,0 0.25,-0.21875 0,-0.984375 -0.546875,-1.953125 -1.78125,-1.953125 -1.15625,0 -2.078125,1.03125 -2.078125,2.28125 0,1.328125 1.046875,2.296875 2.1875,2.296875 C 3.6875,0.109375 4.140625,-1 4.140625,-1.1875 4.140625,-1.28125 4.0625,-1.3125 4,-1.3125 c -0.078125,0 -0.109375,0.0625 -0.125,0.140625 -0.34375,1.03125 -1.25,1.03125 -1.34375,1.03125 -0.5,0 -0.890625,-0.296875 -1.125,-0.671875 -0.296875,-0.46875 -0.296875,-1.125 -0.296875,-1.484375 z m 0,0"
               id="path96" />
          </g>
          <g
             id="use60"
             transform="translate(32.936356,6.8080001)">
            <path
               d="M 1.671875,-3.3125 V -4.40625 L 0.28125,-4.296875 v 0.3125 c 0.703125,0 0.78125,0.0625 0.78125,0.5625 V -0.75 c 0,0.4375 -0.109375,0.4375 -0.78125,0.4375 V 0 c 0.390625,-0.015625 0.859375,-0.03125 1.140625,-0.03125 0.390625,0 0.859375,0 1.265625,0.03125 V -0.3125 H 2.46875 c -0.734375,0 -0.75,-0.109375 -0.75,-0.46875 V -2.3125 c 0,-0.984375 0.421875,-1.875 1.171875,-1.875 0.0625,0 0.09375,0 0.109375,0.015625 -0.03125,0 -0.234375,0.125 -0.234375,0.390625 0,0.265625 0.21875,0.421875 0.4375,0.421875 0.171875,0 0.421875,-0.125 0.421875,-0.4375 0,-0.3125 -0.3125,-0.609375 -0.734375,-0.609375 -0.734375,0 -1.09375,0.671875 -1.21875,1.09375 z m 0,0"
               id="path100" />
          </g>
          <g
             id="use62"
             transform="translate(36.838707,6.8080001)">
            <path
               d="M 1.765625,-4.40625 0.375,-4.296875 v 0.3125 c 0.640625,0 0.734375,0.0625 0.734375,0.546875 V -0.75 c 0,0.4375 -0.109375,0.4375 -0.78125,0.4375 V 0 C 0.640625,-0.015625 1.1875,-0.03125 1.421875,-0.03125 1.78125,-0.03125 2.125,-0.015625 2.46875,0 v -0.3125 c -0.671875,0 -0.703125,-0.046875 -0.703125,-0.4375 z m 0.03125,-1.734375 c 0,-0.3125 -0.234375,-0.53125 -0.515625,-0.53125 -0.3125,0 -0.53125,0.265625 -0.53125,0.53125 0,0.265625 0.21875,0.53125 0.53125,0.53125 0.28125,0 0.515625,-0.21875 0.515625,-0.53125 z m 0,0"
               id="path104" />
          </g>
          <g
             id="use64"
             transform="translate(39.606316,6.8080001)">
            <path
               d="M 4.6875,-2.140625 C 4.6875,-3.40625 3.703125,-4.46875 2.5,-4.46875 c -1.25,0 -2.21875,1.09375 -2.21875,2.328125 0,1.296875 1.03125,2.25 2.203125,2.25 1.203125,0 2.203125,-0.984375 2.203125,-2.25 z m -2.1875,2 c -0.4375,0 -0.875,-0.203125 -1.140625,-0.671875 -0.25,-0.4375 -0.25,-1.046875 -0.25,-1.40625 0,-0.390625 0,-0.921875 0.234375,-1.359375 C 1.609375,-4.03125 2.078125,-4.25 2.484375,-4.25 c 0.4375,0 0.859375,0.21875 1.125,0.65625 0.265625,0.421875 0.265625,1 0.265625,1.375 0,0.359375 0,0.90625 -0.21875,1.34375 C 3.421875,-0.421875 2.984375,-0.140625 2.5,-0.140625 Z m 0,0"
               id="path108" />
          </g>
          <g
             id="use66"
             transform="translate(44.587616,6.8080001)">
            <path
               d="M 1.671875,-3.3125 V -4.40625 L 0.28125,-4.296875 v 0.3125 c 0.703125,0 0.78125,0.0625 0.78125,0.5625 V -0.75 c 0,0.4375 -0.109375,0.4375 -0.78125,0.4375 V 0 c 0.390625,-0.015625 0.859375,-0.03125 1.140625,-0.03125 0.390625,0 0.859375,0 1.265625,0.03125 V -0.3125 H 2.46875 c -0.734375,0 -0.75,-0.109375 -0.75,-0.46875 V -2.3125 c 0,-0.984375 0.421875,-1.875 1.171875,-1.875 0.0625,0 0.09375,0 0.109375,0.015625 -0.03125,0 -0.234375,0.125 -0.234375,0.390625 0,0.265625 0.21875,0.421875 0.4375,0.421875 0.171875,0 0.421875,-0.125 0.421875,-0.4375 0,-0.3125 -0.3125,-0.609375 -0.734375,-0.609375 -0.734375,0 -1.09375,0.671875 -1.21875,1.09375 z m 0,0"
               id="path112" />
          </g>
        </g>
      </g>
    </g>
    <g
       inkscape:label=""
       transform="translate(118.54057,234.65276)"
       id="g15791">
      <g
         fill="#000000"
         fill-opacity="1"
         id="g43"
         transform="matrix(0.352778,0,0,0.352778,-0.0992187,0.00436558)">
        <g
           id="use39"
           transform="translate(0,7.4720001)">
          <path
             d="M 2.25,-6.03125 C 2.25,-6.390625 2.265625,-6.5 3.0625,-6.5 h 0.25 v -0.3125 c -0.34375,0.03125 -1.125,0.03125 -1.515625,0.03125 -0.375,0 -1.171875,0 -1.515625,-0.03125 V -6.5 h 0.25 c 0.796875,0 0.828125,0.109375 0.828125,0.46875 v 5.25 c 0,0.359375 -0.03125,0.46875 -0.828125,0.46875 h -0.25 V 0 c 0.34375,-0.03125 1.140625,-0.03125 1.515625,-0.03125 0.390625,0 1.171875,0 1.515625,0.03125 v -0.3125 h -0.25 C 2.265625,-0.3125 2.25,-0.421875 2.25,-0.78125 Z m 0,0"
             id="path75" />
        </g>
        <g
           id="use41"
           transform="translate(3.5974951,7.4720001)">
          <path
             d="M 1.09375,-3.421875 V -0.75 c 0,0.4375 -0.109375,0.4375 -0.78125,0.4375 V 0 c 0.359375,-0.015625 0.859375,-0.03125 1.140625,-0.03125 0.25,0 0.765625,0.015625 1.109375,0.03125 v -0.3125 c -0.671875,0 -0.78125,0 -0.78125,-0.4375 V -2.59375 C 1.78125,-3.625 2.5,-4.1875 3.125,-4.1875 c 0.640625,0 0.75,0.53125 0.75,1.109375 V -0.75 c 0,0.4375 -0.109375,0.4375 -0.78125,0.4375 V 0 c 0.34375,-0.015625 0.859375,-0.03125 1.125,-0.03125 0.25,0 0.78125,0.015625 1.109375,0.03125 v -0.3125 c -0.515625,0 -0.765625,0 -0.765625,-0.296875 v -1.90625 c 0,-0.859375 0,-1.15625 -0.3125,-1.515625 -0.140625,-0.171875 -0.46875,-0.375 -1.046875,-0.375 C 2.46875,-4.40625 2,-3.984375 1.71875,-3.359375 V -4.40625 L 0.3125,-4.296875 v 0.3125 c 0.703125,0 0.78125,0.0625 0.78125,0.5625 z m 0,0"
             id="path79" />
        </g>
      </g>
      <g
         fill="#000000"
         fill-opacity="1"
         id="g47"
         transform="matrix(0.352778,0,0,0.352778,-0.0992187,0.00436558)">
        <g
           id="use45"
           transform="translate(8.8537626,7.4720001)">
          <path
             d="m 1.71875,-3.984375 h 1.4375 v -0.3125 H 1.71875 V -6.125 h -0.25 c 0,0.8125 -0.296875,1.875 -1.28125,1.921875 v 0.21875 h 0.84375 v 2.75 c 0,1.21875 0.9375,1.34375 1.296875,1.34375 0.703125,0 0.984375,-0.703125 0.984375,-1.34375 v -0.5625 h -0.25 V -1.25 c 0,0.734375 -0.296875,1.109375 -0.671875,1.109375 -0.671875,0 -0.671875,-0.90625 -0.671875,-1.078125 z m 0,0"
             id="path83" />
        </g>
      </g>
      <g
         clip-path="url(#clipPath4972)"
         id="g53"
         transform="matrix(0.352778,0,0,0.352778,-0.0992187,0.00436558)">
        <g
           fill="#000000"
           fill-opacity="1"
           id="g51">
          <g
             id="use49"
             transform="translate(12.73,8.967)">
            <path
               d="M 1.734375,-0.734375 C 1.671875,-0.5 1.4375,-0.125 1.078125,-0.125 c -0.015625,0 -0.234375,0 -0.375,-0.09375 0.28125,-0.09375 0.3125,-0.34375 0.3125,-0.390625 0,-0.15625 -0.125,-0.25 -0.28125,-0.25 -0.203125,0 -0.40625,0.15625 -0.40625,0.421875 0,0.34375 0.390625,0.5 0.734375,0.5 0.328125,0 0.609375,-0.1875 0.78125,-0.484375 C 2.015625,-0.0625 2.390625,0.0625 2.671875,0.0625 c 0.8125,0 1.234375,-0.859375 1.234375,-1.0625 0,-0.09375 -0.09375,-0.09375 -0.109375,-0.09375 -0.109375,0 -0.109375,0.046875 -0.140625,0.125 -0.140625,0.484375 -0.5625,0.84375 -0.953125,0.84375 -0.28125,0 -0.421875,-0.1875 -0.421875,-0.453125 0,-0.1875 0.171875,-0.8125 0.359375,-1.59375 C 2.78125,-2.703125 3.09375,-2.875 3.328125,-2.875 c 0.015625,0 0.21875,0 0.375,0.09375 -0.21875,0.0625 -0.3125,0.265625 -0.3125,0.390625 0,0.140625 0.125,0.25 0.28125,0.25 0.15625,0 0.390625,-0.125 0.390625,-0.421875 0,-0.390625 -0.453125,-0.515625 -0.71875,-0.515625 -0.359375,0 -0.640625,0.234375 -0.78125,0.5 -0.125,-0.28125 -0.453125,-0.5 -0.84375,-0.5 C 0.9375,-3.078125 0.5,-2.21875 0.5,-2 c 0,0.078125 0.09375,0.078125 0.109375,0.078125 0.09375,0 0.09375,-0.015625 0.140625,-0.109375 C 0.921875,-2.578125 1.359375,-2.875 1.703125,-2.875 1.9375,-2.875 2.125,-2.75 2.125,-2.421875 2.125,-2.28125 2.03125,-1.9375 1.96875,-1.6875 Z m 0,0"
               id="path87" />
          </g>
        </g>
      </g>
      <g
         clip-path="url(#clipPath4624)"
         id="g59"
         transform="matrix(0.352778,0,0,0.352778,-0.0992187,0.00436558)">
        <g
           fill="#000000"
           fill-opacity="1"
           id="g57">
          <g
             id="use55"
             transform="translate(17.746,7.4720001)">
            <path
               d="m 3.296875,2.390625 c 0,-0.03125 0,-0.046875 -0.171875,-0.21875 C 1.890625,0.921875 1.5625,-0.96875 1.5625,-2.5 c 0,-1.734375 0.375,-3.46875 1.609375,-4.703125 0.125,-0.125 0.125,-0.140625 0.125,-0.171875 0,-0.078125 -0.03125,-0.109375 -0.09375,-0.109375 -0.109375,0 -1,0.6875 -1.59375,1.953125 -0.5,1.09375 -0.625,2.203125 -0.625,3.03125 0,0.78125 0.109375,1.984375 0.65625,3.125 C 2.25,1.84375 3.09375,2.5 3.203125,2.5 c 0.0625,0 0.09375,-0.03125 0.09375,-0.109375 z m 0,0"
               id="path91" />
          </g>
        </g>
      </g>
      <g
         fill="#000000"
         fill-opacity="1"
         id="g63"
         transform="matrix(0.352778,0,0,0.352778,-0.0992187,0.00436558)">
        <g
           id="use61"
           transform="translate(21.620001,7.4720001)">
          <path
             d="M 1.78125,-1.140625 C 1.390625,-0.484375 1,-0.34375 0.5625,-0.3125 0.4375,-0.296875 0.34375,-0.296875 0.34375,-0.109375 0.34375,-0.046875 0.40625,0 0.484375,0 0.75,0 1.0625,-0.03125 1.328125,-0.03125 c 0.34375,0 0.6875,0.03125 1,0.03125 0.0625,0 0.1875,0 0.1875,-0.1875 0,-0.109375 -0.078125,-0.125 -0.15625,-0.125 -0.21875,-0.015625 -0.46875,-0.09375 -0.46875,-0.34375 0,-0.125 0.0625,-0.234375 0.140625,-0.375 l 0.765625,-1.265625 h 2.5 c 0.015625,0.203125 0.15625,1.5625 0.15625,1.65625 0,0.296875 -0.515625,0.328125 -0.71875,0.328125 C 4.59375,-0.3125 4.5,-0.3125 4.5,-0.109375 4.5,0 4.609375,0 4.640625,0 5.046875,0 5.46875,-0.03125 5.875,-0.03125 6.125,-0.03125 6.765625,0 7.015625,0 7.0625,0 7.1875,0 7.1875,-0.203125 7.1875,-0.3125 7.09375,-0.3125 6.953125,-0.3125 6.34375,-0.3125 6.34375,-0.375 6.3125,-0.671875 l -0.609375,-6.21875 c -0.015625,-0.203125 -0.015625,-0.25 -0.1875,-0.25 -0.15625,0 -0.203125,0.078125 -0.265625,0.171875 z M 2.984375,-2.609375 4.9375,-5.90625 5.265625,-2.609375 Z m 0,0"
             id="path95" />
        </g>
      </g>
      <g
         clip-path="url(#clipPath8907)"
         id="g69"
         transform="matrix(0.352778,0,0,0.352778,-0.0992187,0.00436558)">
        <g
           fill="#000000"
           fill-opacity="1"
           id="g67">
          <g
             id="use65"
             transform="translate(29.091999,7.4720001)">
            <path
               d="m 2.875,-2.5 c 0,-0.765625 -0.109375,-1.96875 -0.65625,-3.109375 -0.59375,-1.21875 -1.453125,-1.875 -1.546875,-1.875 -0.0625,0 -0.109375,0.046875 -0.109375,0.109375 0,0.03125 0,0.046875 0.1875,0.234375 0.984375,0.984375 1.546875,2.5625 1.546875,4.640625 0,1.71875 -0.359375,3.46875 -1.59375,4.71875 C 0.5625,2.34375 0.5625,2.359375 0.5625,2.390625 0.5625,2.453125 0.609375,2.5 0.671875,2.5 0.765625,2.5 1.671875,1.8125 2.25,0.546875 2.765625,-0.546875 2.875,-1.65625 2.875,-2.5 Z m 0,0"
               id="path99" />
          </g>
        </g>
      </g>
    </g>
    <g
       inkscape:label=""
       transform="translate(192.14198,220.55553)"
       id="g17841">
      <g
         fill="#000000"
         fill-opacity="1"
         id="g17833"
         transform="matrix(0.352778,0,0,0.352778,-0.121267,0.0781843)">
        <g
           id="g17831"
           transform="translate(1.3839999,6.9190001)">
          <path
             d="m 4.6875,-6.265625 c 0,-0.46875 -0.40625,-0.875 -0.953125,-0.875 -0.5625,0 -0.953125,0.4375 -0.953125,0.875 0,0.5 0.4375,0.875 0.953125,0.875 0.546875,0 0.953125,-0.40625 0.953125,-0.875 z m -0.953125,0.65625 c -0.421875,0 -0.703125,-0.1875 -0.703125,-0.65625 0,-0.453125 0.265625,-0.65625 0.703125,-0.65625 0.421875,0 0.703125,0.1875 0.703125,0.65625 0,0.453125 -0.265625,0.65625 -0.703125,0.65625 z m 0,0"
             id="path17829" />
        </g>
      </g>
      <g
         clip-path="url(#clipPath9091)"
         id="g17839"
         transform="matrix(0.352778,0,0,0.352778,-0.121267,0.0781843)">
        <g
           fill="#000000"
           fill-opacity="1"
           id="g23">
          <g
             id="use21"
             transform="translate(0,9.4370003)">
            <path
               d="M 1.78125,-1.140625 C 1.390625,-0.484375 1,-0.34375 0.5625,-0.3125 0.4375,-0.296875 0.34375,-0.296875 0.34375,-0.109375 0.34375,-0.046875 0.40625,0 0.484375,0 0.75,0 1.0625,-0.03125 1.328125,-0.03125 c 0.34375,0 0.6875,0.03125 1,0.03125 0.0625,0 0.1875,0 0.1875,-0.1875 0,-0.109375 -0.078125,-0.125 -0.15625,-0.125 -0.21875,-0.015625 -0.46875,-0.09375 -0.46875,-0.34375 0,-0.125 0.0625,-0.234375 0.140625,-0.375 l 0.765625,-1.265625 h 2.5 c 0.015625,0.203125 0.15625,1.5625 0.15625,1.65625 0,0.296875 -0.515625,0.328125 -0.71875,0.328125 C 4.59375,-0.3125 4.5,-0.3125 4.5,-0.109375 4.5,0 4.609375,0 4.640625,0 5.046875,0 5.46875,-0.03125 5.875,-0.03125 6.125,-0.03125 6.765625,0 7.015625,0 7.0625,0 7.1875,0 7.1875,-0.203125 7.1875,-0.3125 7.09375,-0.3125 6.953125,-0.3125 6.34375,-0.3125 6.34375,-0.375 6.3125,-0.671875 l -0.609375,-6.21875 c -0.015625,-0.203125 -0.015625,-0.25 -0.1875,-0.25 -0.15625,0 -0.203125,0.078125 -0.265625,0.171875 z M 2.984375,-2.609375 4.9375,-5.90625 5.265625,-2.609375 Z m 0,0"
               id="path17835" />
          </g>
        </g>
      </g>
    </g>
    <g
       inkscape:label=""
       transform="translate(12.946102,219.35973)"
       id="g18137">
      <g
         fill="#000000"
         fill-opacity="1"
         id="g12"
         transform="matrix(0.352778,0,0,0.352778,-0.121267,0.117343)">
        <g
           id="use10"
           transform="translate(0,6.8080001)">
          <path
             d="M 1.78125,-1.140625 C 1.390625,-0.484375 1,-0.34375 0.5625,-0.3125 0.4375,-0.296875 0.34375,-0.296875 0.34375,-0.109375 0.34375,-0.046875 0.40625,0 0.484375,0 0.75,0 1.0625,-0.03125 1.328125,-0.03125 c 0.34375,0 0.6875,0.03125 1,0.03125 0.0625,0 0.1875,0 0.1875,-0.1875 0,-0.109375 -0.078125,-0.125 -0.15625,-0.125 -0.21875,-0.015625 -0.46875,-0.09375 -0.46875,-0.34375 0,-0.125 0.0625,-0.234375 0.140625,-0.375 l 0.765625,-1.265625 h 2.5 c 0.015625,0.203125 0.15625,1.5625 0.15625,1.65625 0,0.296875 -0.515625,0.328125 -0.71875,0.328125 C 4.59375,-0.3125 4.5,-0.3125 4.5,-0.109375 4.5,0 4.609375,0 4.640625,0 5.046875,0 5.46875,-0.03125 5.875,-0.03125 6.125,-0.03125 6.765625,0 7.015625,0 7.0625,0 7.1875,0 7.1875,-0.203125 7.1875,-0.3125 7.09375,-0.3125 6.953125,-0.3125 6.34375,-0.3125 6.34375,-0.375 6.3125,-0.671875 l -0.609375,-6.21875 c -0.015625,-0.203125 -0.015625,-0.25 -0.1875,-0.25 -0.15625,0 -0.203125,0.078125 -0.265625,0.171875 z M 2.984375,-2.609375 4.9375,-5.90625 5.265625,-2.609375 Z m 0,0"
             id="path18" />
        </g>
      </g>
    </g>
    <path
       style="fill:none;fill-opacity:1;stroke:#5792ff;stroke-width:0.264999;stroke-linecap:round;stroke-dasharray:none;stroke-dashoffset:0;stroke-opacity:1;paint-order:fill markers stroke"
       d="m 115.9402,242.7394 c 0.67325,-0.41886 1.38335,-0.76722 2.17095,-0.91261 1.18215,-0.21821 3.2543,-0.2098 4.17264,-0.23397 0.72043,-0.019 2.62939,-0.0545 3.44497,-0.035 1.32158,0.0316 2.63235,0.20017 3.95193,0.2573 0.92351,0.04 1.86094,-0.0414 2.78163,0.0354 0.26128,0.0218 0.49961,0.13569 0.77993,0.16363"
       id="path18601" />
    <path
       style="fill:none;fill-opacity:1;stroke:#5792ff;stroke-width:0.264999;stroke-linecap:round;stroke-dasharray:none;stroke-dashoffset:0;stroke-opacity:1;paint-order:fill markers stroke"
       d="m 132.42856,240.95114 c 0.17213,0.13767 0.31436,0.31358 0.46411,0.47563 0.0634,0.0686 0.1401,0.13314 0.19535,0.20885 0.0487,0.0668 0.089,0.14215 0.13559,0.21099 0.0163,0.024 0.0781,0.0697 0.0781,0.1034 0,0.0173 -0.03,0.0388 -0.0391,0.0517 -0.0284,0.0402 -0.0419,0.0881 -0.0736,0.12614 -0.0998,0.11975 -0.22969,0.21204 -0.34921,0.31019 -0.0469,0.0385 -0.0824,0.0853 -0.12408,0.1282 -0.0442,0.0456 -0.10059,0.0806 -0.1471,0.12408 -0.0907,0.0847 -0.19439,0.19315 -0.27572,0.28745"
       id="path18613" />
    <circle
       style="fill:#615fff;fill-opacity:1;stroke:none;stroke-width:0.264999;stroke-linecap:round;stroke-dasharray:none;stroke-dashoffset:0;stroke-opacity:1;paint-order:fill markers stroke"
       id="path18819"
       cx="89.406265"
       cy="229.51152"
       r="0.29699802" />
    <circle
       style="fill:#615fff;fill-opacity:1;stroke:none;stroke-width:0.264999;stroke-linecap:round;stroke-dasharray:none;stroke-dashoffset:0;stroke-opacity:1;paint-order:fill markers stroke"
       id="path25063"
       cx="39.381924"
       cy="256.10657"
       r="0.25320241" />
  </g>
</svg>
