<?xml version="1.0" encoding="UTF-8" standalone="no"?>
<!-- Created with Inkscape (http://www.inkscape.org/) -->

<svg
   width="240mm"
   height="120mm"
   viewBox="0 0 240 120"
   version="1.1"
   id="svg8"
   inkscape:version="1.2.2 (b0a8486541, 2022-12-01)"
   sodipodi:docname="definición-entornos.svg"
   xmlns:inkscape="http://www.inkscape.org/namespaces/inkscape"
   xmlns:sodipodi="http://sodipodi.sourceforge.net/DTD/sodipodi-0.dtd"
   xmlns="http://www.w3.org/2000/svg"
   xmlns:svg="http://www.w3.org/2000/svg"
   xmlns:rdf="http://www.w3.org/1999/02/22-rdf-syntax-ns#"
   xmlns:cc="http://creativecommons.org/ns#"
   xmlns:dc="http://purl.org/dc/elements/1.1/">
  <defs
     id="defs2">
    <clipPath
       id="clipPath6575">
      <path
         clip-rule="nonzero"
         d="M 0,3 H 6 V 7.488281 H 0 Z m 0,0"
         id="path5212" />
    </clipPath>
    <clipPath
       id="clipPath3391">
      <path
         clip-rule="nonzero"
         d="M 0,0 H 8 V 6.808594 H 0 Z m 0,0"
         id="path650" />
    </clipPath>
    <clipPath
       id="clipPath3940">
      <path
         clip-rule="nonzero"
         d="M 0,0 H 8 V 6.808594 H 0 Z m 0,0"
         id="path2139" />
    </clipPath>
    <clipPath
       id="clipPath2102">
      <path
         clip-rule="nonzero"
         d="m 7,4 h 4 V 9.28125 H 7 Z m 0,0"
         id="path7026" />
    </clipPath>
    <clipPath
       id="clipPath5662">
      <path
         clip-rule="nonzero"
         d="m 7,4 h 4 V 9.28125 H 7 Z m 0,0"
         id="path4059" />
    </clipPath>
    <clipPath
       id="clipPath7696">
      <path
         clip-rule="nonzero"
         d="m 6,4 h 4 V 9.28125 H 6 Z m 0,0"
         id="path1528" />
    </clipPath>
    <clipPath
       id="clipPath928">
      <path
         clip-rule="nonzero"
         d="m 6,4 h 4 V 9.28125 H 6 Z m 0,0"
         id="path1127" />
    </clipPath>
  </defs>
  <sodipodi:namedview
     id="base"
     pagecolor="#ffffff"
     bordercolor="#666666"
     borderopacity="1.0"
     inkscape:pageopacity="0.0"
     inkscape:pageshadow="2"
     inkscape:zoom="2.5839185"
     inkscape:cx="75.079768"
     inkscape:cy="173.57359"
     inkscape:document-units="mm"
     inkscape:current-layer="layer1"
     showgrid="false"
     showborder="true"
     width="200mm"
     showguides="true"
     inkscape:guide-bbox="true"
     inkscape:window-width="1920"
     inkscape:window-height="1050"
     inkscape:window-x="0"
     inkscape:window-y="0"
     inkscape:window-maximized="1"
     inkscape:showpageshadow="2"
     inkscape:pagecheckerboard="0"
     inkscape:deskcolor="#d1d1d1">
    <inkscape:grid
       type="xygrid"
       id="grid815"
       units="mm"
       spacingx="10"
       spacingy="10"
       empspacing="4"
       dotted="false" />
  </sodipodi:namedview>
  <metadata
     id="metadata5">
    <rdf:RDF>
      <cc:Work
         rdf:about="">
        <dc:format>image/svg+xml</dc:format>
        <dc:type
           rdf:resource="http://purl.org/dc/dcmitype/StillImage" />
        <dc:title />
      </cc:Work>
    </rdf:RDF>
  </metadata>
  <g
     inkscape:label="Layer 1"
     inkscape:groupmode="layer"
     id="layer1"
     transform="translate(0, -177)">
    <path
       style="fill:#c9ffff;fill-opacity:1;stroke:#5353ff;stroke-width:0.264999;stroke-linecap:round;stroke-dasharray:none;stroke-opacity:1;paint-order:fill markers stroke"
       d="m 14.635194,234.94812 c -1.790163,0.47083 -2.1755,0.47294 -3.764103,-0.46875 -0.501126,-0.29707 -1.4672196,-0.93713 -1.9321986,-1.28519 -1.433227,-1.07285 -3.038552,-2.51879 -3.562461,-4.29523 -1.164386,-3.9481 1.554887,-6.72869 4.234418,-9.08882 0.8682586,-0.76476 1.5611286,-1.50292 2.6384566,-1.98105 1.54269,-0.68467 3.285185,-0.88465 4.906375,-1.31585 1.499523,-0.39884 2.924135,-1.01703 4.436578,-1.39121 2.040496,-0.50482 4.205086,-0.82747 6.18377,-1.54243 1.250262,-0.45177 2.173057,-1.36565 3.226223,-2.13228 1.284494,-0.93504 2.694678,-1.8842 4.13412,-2.55583 0.759484,-0.35437 1.570427,-0.59289 2.352109,-0.8923 0.867857,-0.33243 1.72026,-0.74108 2.672236,-0.74108 1.20382,0 2.013154,0.86627 2.889986,1.52736 0.996145,0.75106 2.022345,1.44107 2.974173,2.25337 0.620204,0.52929 1.209138,1.11146 1.848532,1.61831 2.126287,1.68552 6.467126,2.15948 9.074275,1.85996 1.947457,-0.22373 4.004527,-0.94221 5.797121,-1.7238 0.554358,-0.24171 1.500844,-0.70027 2.134356,-0.92245 1.18359,-0.41508 2.44188,-0.54296 3.64665,-0.87723 0.93069,-0.25823 1.82794,-0.63079 2.80632,-0.68079 2.84261,-0.14528 6.44692,1.2692 9.14132,2.16294 2.52668,0.83811 5.29822,1.41896 7.56146,2.87336 3.23934,2.08165 6.03357,6.45427 7.14155,10.11728 1.7396,5.75115 1.91286,12.32836 -0.21827,18.01136 -0.57033,1.52088 -1.434,2.97322 -2.26843,4.3555 -3.20615,5.31112 -8.03711,9.82036 -13.61116,12.5671 -1.28801,0.6347 -2.69092,0.97559 -4.0333,1.46656 -1.4298,0.52294 -2.77244,1.23158 -4.28482,1.51281 -1.02037,0.18974 -2.22621,-0.11643 -3.24286,-0.15123 -0.70895,-0.0243 -1.42686,0.10511 -2.13436,0.0301 -0.39415,-0.0418 -1.095456,-0.25362 -1.428104,-0.31753 -0.616741,-0.11851 -1.260506,-0.0277 -1.86568,-0.21204 -0.803026,-0.24458 -1.424683,-0.86335 -2.100059,-1.33092 -0.873723,-0.60488 -1.65632,-1.10871 -2.420188,-1.87503 -0.704623,-0.70689 -1.30978,-1.49824 -2.033019,-2.19309 -0.838203,-0.8053 -1.700884,-1.58474 -2.554269,-2.37393 -0.626102,-0.57902 -1.608778,-1.22575 -2.016389,-2.01172 -0.398603,-0.76859 -0.525466,-1.32844 -0.655326,-2.14735 -0.171545,-1.08176 -0.09505,-3.59852 -0.722886,-4.44593 -0.646417,-0.87248 -2.969636,-2.00543 -4.01615,-2.08707 -0.460614,-0.0359 -0.94873,-0.11666 -1.411473,-0.10601 -0.260345,0.006 -0.694754,0.22674 -0.924007,0.1663 -0.112271,-0.0296 -0.153792,-0.17416 -0.235418,-0.25673"
       id="path264" />
    <path
       style="fill:#b5c4ff;fill-opacity:1;stroke:#5353ff;stroke-width:0.264999;stroke-linecap:round;stroke-dasharray:0.264999, 0.529998;stroke-dashoffset:0;stroke-opacity:1;paint-order:fill markers stroke"
       d="m 43.874409,243.78022 c -0.207357,0.13096 -0.424156,0.24805 -0.622067,0.39289 -0.390322,0.28565 -0.771771,1.12982 -1.024827,1.49722 -0.411845,0.59794 -0.840073,1.19419 -1.193202,1.82982 -0.333856,0.60094 -0.619895,1.2678 -1.041977,1.81475 -0.359875,0.46635 -0.789334,0.88756 -1.192683,1.31585 -0.270592,0.28733 -0.581451,0.71461 -0.907894,0.95259 -0.561361,0.40924 -3.962075,0.45271 -4.738518,0.54463 -1.414473,0.16746 -2.77708,0.64175 -4.201157,0.75615 -2.110777,0.16956 -4.4732,0.18741 -6.53664,-0.31753 -0.860737,-0.21063 -1.677914,-0.56315 -2.520487,-0.83202 -0.783627,-0.25006 -1.476785,-0.46105 -2.2014,-0.87671 -1.02413,-0.58748 -1.494041,-1.63443 -2.083429,-2.60156 -0.560348,-0.91948 -1.525754,-2.36258 -1.59648,-3.44761 -0.0847,-1.29942 0.45045,-3.57322 0.739516,-4.96043 0.15839,-0.76011 0.418486,-1.41157 0.486947,-2.19308 0.05451,-0.6223 -0.121619,-1.30678 -0.486947,-1.81475 -0.139354,-0.19376 -0.310709,-0.34892 -0.37002,-0.58985 -0.08053,-0.32712 0.03596,-0.68036 0.100819,-0.9978 0.27246,-1.33336 0.47575,-1.19747 1.378215,-2.25337 0.333856,-0.39061 0.63985,-0.80261 1.075235,-1.08874 1.461865,-0.96073 3.084729,-1.65523 4.604435,-2.51062 0.677455,-0.38131 1.093666,-0.99291 1.713934,-1.42134 1.395031,-0.96358 3.35158,-1.37219 5.007713,-1.33092 0.430966,0.0107 0.876969,-0.0675 1.276874,0.13615 1.031986,0.52563 2.019921,1.20838 2.655088,2.19257 0.361895,0.56076 0.447659,1.22983 0.772774,1.81475 0.630462,1.13425 2.094039,1.36106 3.277156,1.36106 2.610151,0 2.667653,-1.68565 4.755144,-2.51009 0.854086,-0.33732 1.65476,-0.41601 2.554269,-0.51449 0.689115,-0.0754 1.388771,-0.20604 2.083948,-0.19645 0.708139,0.01 1.401607,0.28355 2.08343,0.43862 1.590445,0.36171 2.269027,0.47266 3.730842,1.34599 1.281123,0.76538 3.05418,1.38488 3.242855,3.05473 0.08571,0.7586 -0.352571,1.25715 -0.756148,1.85996 -0.41171,0.61496 -0.774819,1.37837 -1.276873,1.92077 -0.598467,0.64657 -1.605132,0.9799 -2.31937,1.48215 -0.724633,0.50957 -1.08948,1.39775 -1.66352,1.79968 -0.509153,0.35649 -1.195109,0.34454 -1.713931,0.72549 -0.663435,0.48712 -1.033999,1.20389 -1.629743,1.73939 -0.522034,0.46925 -0.99599,0.94858 -1.461881,1.48215 z"
       id="path1906" />
    <ellipse
       style="fill:#5252ff;fill-opacity:1;stroke:#5353ff;stroke-width:0.107848;stroke-linecap:round;stroke-dasharray:none;stroke-dashoffset:0;stroke-opacity:1;paint-order:fill markers stroke"
       id="path6531"
       cx="26.495056"
       cy="238.0139"
       rx="0.30989444"
       ry="0.37649193" />
    <g
       inkscape:label=""
       transform="translate(28.216433,236.11035)"
       id="g7861">
      <g
         fill="#000000"
         fill-opacity="1"
         id="g12"
         transform="matrix(0.352778,0,0,0.352778,-0.104731,0.0413632)">
        <g
           id="use10"
           transform="translate(0,4.289)">
          <path
             d="M 3.328125,-3.015625 C 3.390625,-3.265625 3.625,-4.1875 4.3125,-4.1875 c 0.046875,0 0.296875,0 0.5,0.125 C 4.53125,-4 4.34375,-3.765625 4.34375,-3.515625 c 0,0.15625 0.109375,0.34375 0.375,0.34375 0.21875,0 0.53125,-0.171875 0.53125,-0.578125 0,-0.515625 -0.578125,-0.65625 -0.921875,-0.65625 -0.578125,0 -0.921875,0.53125 -1.046875,0.75 -0.25,-0.65625 -0.78125,-0.75 -1.078125,-0.75 -1.03125,0 -1.609375,1.28125 -1.609375,1.53125 0,0.109375 0.109375,0.109375 0.125,0.109375 0.078125,0 0.109375,-0.03125 0.125,-0.109375 0.34375,-1.0625 1,-1.3125 1.34375,-1.3125 0.1875,0 0.53125,0.09375 0.53125,0.671875 0,0.3125 -0.171875,0.96875 -0.53125,2.375 -0.15625,0.609375 -0.515625,1.03125 -0.953125,1.03125 -0.0625,0 -0.28125,0 -0.5,-0.125 0.25,-0.0625 0.46875,-0.265625 0.46875,-0.546875 0,-0.265625 -0.21875,-0.34375 -0.359375,-0.34375 -0.3125,0 -0.546875,0.25 -0.546875,0.578125 0,0.453125 0.484375,0.65625 0.921875,0.65625 0.671875,0 1.03125,-0.703125 1.046875,-0.75 0.125,0.359375 0.484375,0.75 1.078125,0.75 1.03125,0 1.59375,-1.28125 1.59375,-1.53125 0,-0.109375 -0.078125,-0.109375 -0.109375,-0.109375 -0.09375,0 -0.109375,0.046875 -0.140625,0.109375 -0.328125,1.078125 -1,1.3125 -1.3125,1.3125 -0.390625,0 -0.546875,-0.3125 -0.546875,-0.65625 0,-0.21875 0.046875,-0.4375 0.15625,-0.875 z m 0,0"
             id="path18" />
        </g>
      </g>
    </g>
    <g
       inkscape:label=""
       transform="translate(49.304312,239.45952)"
       id="g8656">
      <g
         clip-path="url(#clipPath3391)"
         id="g8648"
         transform="matrix(0.352778,0,0,0.352778,-0.237023,0.00158747)">
        <g
           fill="#000000"
           fill-opacity="1"
           id="g8646">
          <g
             id="g8644"
             transform="translate(0,6.8080001)">
            <path
               d="M 6.328125,-5.765625 C 6.4375,-6.171875 6.609375,-6.46875 7.40625,-6.5 c 0.046875,0 0.171875,-0.015625 0.171875,-0.203125 0,0 0,-0.109375 -0.125,-0.109375 -0.328125,0 -0.6875,0.03125 -1.015625,0.03125 -0.34375,0 -0.71875,-0.03125 -1.046875,-0.03125 -0.0625,0 -0.171875,0 -0.171875,0.203125 C 5.21875,-6.5 5.3125,-6.5 5.390625,-6.5 c 0.578125,0.015625 0.6875,0.21875 0.6875,0.4375 0,0.03125 -0.03125,0.1875 -0.03125,0.203125 l -0.90625,3.5625 C 4.8125,-0.953125 3.65625,-0.09375 2.65625,-0.09375 c -0.671875,0 -1.203125,-0.4375 -1.203125,-1.296875 0,-0.015625 0,-0.328125 0.109375,-0.765625 L 2.515625,-6.046875 C 2.609375,-6.40625 2.625,-6.5 3.359375,-6.5 c 0.265625,0 0.34375,0 0.34375,-0.203125 0,-0.109375 -0.109375,-0.109375 -0.140625,-0.109375 -0.28125,0 -1,0.03125 -1.28125,0.03125 -0.28125,0 -1,-0.03125 -1.28125,-0.03125 -0.078125,0 -0.1875,0 -0.1875,0.203125 C 0.8125,-6.5 0.890625,-6.5 1.09375,-6.5 c 0.015625,0 0.203125,0 0.375,0.015625 0.171875,0.03125 0.265625,0.03125 0.265625,0.171875 0,0.046875 -0.109375,0.46875 -0.171875,0.703125 l -0.21875,0.875 C 1.25,-4.34375 0.78125,-2.46875 0.734375,-2.265625 0.671875,-2 0.671875,-1.84375 0.671875,-1.6875 c 0,1.203125 0.90625,1.90625 1.953125,1.90625 1.25,0 2.484375,-1.125 2.8125,-2.4375 z m 0,0"
               id="path8642" />
          </g>
        </g>
      </g>
      <g
         fill="#000000"
         fill-opacity="1"
         id="g8654"
         transform="matrix(0.352778,0,0,0.352778,-0.237023,0.00158747)">
        <g
           id="g8652"
           transform="translate(7.888,3.1930001)">
          <path
             d="M 1.734375,-0.734375 C 1.671875,-0.5 1.4375,-0.125 1.078125,-0.125 c -0.015625,0 -0.234375,0 -0.375,-0.09375 0.28125,-0.09375 0.3125,-0.34375 0.3125,-0.390625 0,-0.15625 -0.125,-0.25 -0.28125,-0.25 -0.203125,0 -0.40625,0.15625 -0.40625,0.421875 0,0.34375 0.390625,0.5 0.734375,0.5 0.328125,0 0.609375,-0.1875 0.78125,-0.484375 C 2.015625,-0.0625 2.390625,0.0625 2.671875,0.0625 c 0.8125,0 1.234375,-0.859375 1.234375,-1.0625 0,-0.09375 -0.09375,-0.09375 -0.109375,-0.09375 -0.109375,0 -0.109375,0.046875 -0.140625,0.125 -0.140625,0.484375 -0.5625,0.84375 -0.953125,0.84375 -0.28125,0 -0.421875,-0.1875 -0.421875,-0.453125 0,-0.1875 0.171875,-0.8125 0.359375,-1.59375 C 2.78125,-2.703125 3.09375,-2.875 3.328125,-2.875 c 0.015625,0 0.21875,0 0.375,0.09375 -0.21875,0.0625 -0.3125,0.265625 -0.3125,0.390625 0,0.140625 0.125,0.25 0.28125,0.25 0.15625,0 0.390625,-0.125 0.390625,-0.421875 0,-0.390625 -0.453125,-0.515625 -0.71875,-0.515625 -0.359375,0 -0.640625,0.234375 -0.78125,0.5 -0.125,-0.28125 -0.453125,-0.5 -0.84375,-0.5 C 0.9375,-3.078125 0.5,-2.21875 0.5,-2 c 0,0.078125 0.09375,0.078125 0.109375,0.078125 0.09375,0 0.09375,-0.015625 0.140625,-0.109375 C 0.921875,-2.578125 1.359375,-2.875 1.703125,-2.875 1.9375,-2.875 2.125,-2.75 2.125,-2.421875 2.125,-2.28125 2.03125,-1.9375 1.96875,-1.6875 Z m 0,0"
             id="path8650" />
        </g>
      </g>
    </g>
    <g
       inkscape:label=""
       transform="translate(63.727256,208.60681)"
       id="g8751">
      <g
         clip-path="url(#clipPath3940)"
         id="g8743"
         transform="matrix(0.352778,0,0,0.352778,-0.198437,0.00158747)">
        <g
           fill="#000000"
           fill-opacity="1"
           id="g8741">
          <g
             id="g8739"
             transform="translate(0,6.8080001)">
            <path
               d="M 6.265625,-5.671875 C 6.75,-6.453125 7.171875,-6.484375 7.53125,-6.5 c 0.125,-0.015625 0.140625,-0.171875 0.140625,-0.1875 0,-0.078125 -0.0625,-0.125 -0.140625,-0.125 -0.25,0 -0.546875,0.03125 -0.8125,0.03125 -0.328125,0 -0.671875,-0.03125 -0.984375,-0.03125 -0.0625,0 -0.1875,0 -0.1875,0.1875 0,0.109375 0.078125,0.125 0.15625,0.125 0.265625,0.015625 0.453125,0.125 0.453125,0.328125 0,0.15625 -0.140625,0.375 -0.140625,0.375 l -3.0625,4.875 -0.6875,-5.28125 C 2.265625,-6.375 2.5,-6.5 2.953125,-6.5 c 0.140625,0 0.25,0 0.25,-0.203125 0,-0.078125 -0.078125,-0.109375 -0.125,-0.109375 -0.40625,0 -0.828125,0.03125 -1.25,0.03125 -0.171875,0 -0.359375,0 -0.546875,0 -0.171875,0 -0.359375,-0.03125 -0.53125,-0.03125 -0.078125,0 -0.1875,0 -0.1875,0.1875 0,0.125 0.078125,0.125 0.25,0.125 0.546875,0 0.5625,0.09375 0.59375,0.34375 L 2.1875,-0.015625 C 2.21875,0.1875 2.265625,0.21875 2.390625,0.21875 c 0.15625,0 0.203125,-0.046875 0.28125,-0.171875 z m 0,0"
               id="path8737" />
          </g>
        </g>
      </g>
      <g
         fill="#000000"
         fill-opacity="1"
         id="g8749"
         transform="matrix(0.352778,0,0,0.352778,-0.198437,0.00158747)">
        <g
           id="g8747"
           transform="translate(8.0249996,3.1930001)">
          <path
             d="M 1.734375,-0.734375 C 1.671875,-0.5 1.4375,-0.125 1.078125,-0.125 c -0.015625,0 -0.234375,0 -0.375,-0.09375 0.28125,-0.09375 0.3125,-0.34375 0.3125,-0.390625 0,-0.15625 -0.125,-0.25 -0.28125,-0.25 -0.203125,0 -0.40625,0.15625 -0.40625,0.421875 0,0.34375 0.390625,0.5 0.734375,0.5 0.328125,0 0.609375,-0.1875 0.78125,-0.484375 C 2.015625,-0.0625 2.390625,0.0625 2.671875,0.0625 c 0.8125,0 1.234375,-0.859375 1.234375,-1.0625 0,-0.09375 -0.09375,-0.09375 -0.109375,-0.09375 -0.109375,0 -0.109375,0.046875 -0.140625,0.125 -0.140625,0.484375 -0.5625,0.84375 -0.953125,0.84375 -0.28125,0 -0.421875,-0.1875 -0.421875,-0.453125 0,-0.1875 0.171875,-0.8125 0.359375,-1.59375 C 2.78125,-2.703125 3.09375,-2.875 3.328125,-2.875 c 0.015625,0 0.21875,0 0.375,0.09375 -0.21875,0.0625 -0.3125,0.265625 -0.3125,0.390625 0,0.140625 0.125,0.25 0.28125,0.25 0.15625,0 0.390625,-0.125 0.390625,-0.421875 0,-0.390625 -0.453125,-0.515625 -0.71875,-0.515625 -0.359375,0 -0.640625,0.234375 -0.78125,0.5 -0.125,-0.28125 -0.453125,-0.5 -0.84375,-0.5 C 0.9375,-3.078125 0.5,-2.21875 0.5,-2 c 0,0.078125 0.09375,0.078125 0.109375,0.078125 0.09375,0 0.09375,-0.015625 0.140625,-0.109375 C 0.921875,-2.578125 1.359375,-2.875 1.703125,-2.875 1.9375,-2.875 2.125,-2.75 2.125,-2.421875 2.125,-2.28125 2.03125,-1.9375 1.96875,-1.6875 Z m 0,0"
             id="path8745" />
        </g>
      </g>
    </g>
    <path
       style="fill:none;fill-opacity:1;stroke:#5353ff;stroke-width:0.264999;stroke-linecap:round;stroke-dasharray:none;stroke-dashoffset:0;stroke-opacity:1;paint-order:fill markers stroke"
       d="m 163.30338,246.70433 c -6.66119,2.42457 -13.79053,3.42655 -20.84599,3.70308 -2.69836,0.10576 -5.47229,0.23866 -8.16174,-0.0857 -2.12192,-0.2559 -4.09832,-0.84793 -6.16552,-1.39312 -2.12412,-0.56021 -4.28199,-1.10162 -6.27387,-2.05336 -1.36785,-0.65356 -3.30013,-1.53948 -4.44102,-2.6888 -1.74921,-1.76213 -2.64858,-3.98567 -3.82951,-6.12309 -0.58646,-1.06147 -1.29934,-2.0003 -1.96935,-3.00674 -1.60738,-2.4145 -2.88459,-4.90682 -3.08276,-7.84633 -0.0747,-1.10831 0.0247,-2.59827 0.24444,-3.69091 0.40537,-2.01566 1.00931,-3.97446 2.05083,-5.75644 3.57053,-6.10896 12.04581,-10.4105 18.61876,-12.29533 4.02517,-1.15424 8.11313,-1.64861 12.27643,-1.96767 2.72746,-0.20902 5.54324,-0.36201 8.27052,-0.0857 3.2585,0.33015 6.45388,1.01893 9.66953,1.6132 4.72689,0.87356 9.48962,1.79801 14.15044,2.98238 4.17585,1.06113 8.41587,2.77518 11.58428,5.76862 0.86837,0.82041 1.93884,1.83269 2.40363,2.96978 1.95829,4.79089 -2.13596,10.24439 -4.42716,14.10424 -0.99967,1.68408 -1.97864,3.37629 -3.00128,5.04749 -0.56725,0.927 -1.1153,1.87042 -1.80639,2.71358 -1.11793,1.36392 -2.46243,2.76145 -3.92443,3.75181 -1.29123,0.87468 -2.7409,1.47122 -4.16928,2.07771 -0.97303,0.41315 -1.84142,0.81761 -2.86562,1.06342 -0.72018,0.17285 -1.45689,0.37941 -2.15919,0.6111 -0.51056,0.16843 -1.02051,0.55096 -1.5481,0.63545 -0.19736,0.0316 -0.39843,-0.0325 -0.59765,-0.0487 z"
       id="path10646" />
    <path
       style="fill:none;fill-opacity:1;stroke:#5353ff;stroke-width:0.264999;stroke-linecap:round;stroke-dasharray:none;stroke-dashoffset:0;stroke-opacity:1;paint-order:fill markers stroke"
       d="m 204.69632,254.64852 c -1.53067,0.79032 -3.31215,1.10935 -4.94291,1.56447 -1.29186,0.36054 -2.47729,0.77387 -3.80263,1.00211 -2.18392,0.37609 -4.38662,0.52834 -6.6002,0.46451 -4.81412,-0.13881 -9.51454,-1.24145 -14.24578,-2.01681 -3.61549,-0.5925 -7.40585,-0.79715 -10.94589,-1.78413 -2.07671,-0.57901 -4.04742,-1.35948 -5.9887,-2.28561 -2.10861,-1.00596 -5.98223,-2.80215 -7.2386,-4.91309 -1.73149,-2.90924 -2.68239,-6.31494 -2.7161,-9.69221 -0.007,-0.7239 0.19094,-3.00865 0.2583,-3.69091 0.26097,-2.64345 0.60221,-5.32718 1.43932,-7.85851 1.67237,-5.05712 4.90344,-9.649 8.90891,-13.12649 0.68088,-0.59113 1.99,-1.698 2.77028,-2.19993 1.86261,-1.19817 3.87433,-1.9776 5.90764,-2.8232 1.98196,-0.82425 3.83606,-1.54096 5.93452,-2.05336 1.64116,-0.40073 3.3766,-0.35374 5.03825,-0.68417 2.14005,-0.42555 4.24568,-1.11428 6.40995,-1.41789 3.15857,-0.44311 6.3401,-0.14709 9.49271,0.14657 2.6888,0.25046 5.29253,0.33334 7.93117,0.95339 1.85816,0.43665 3.47087,1.31206 5.16046,2.16339 1.44551,0.72834 2.96772,1.29919 4.39986,2.05293 1.72597,0.90838 3.24022,2.29033 4.6716,3.59347 1.82881,1.66498 4.6143,4.05549 5.60902,6.39189 1.50197,3.52783 1.38726,7.32095 0.90971,11.04879 -0.43366,3.38517 -0.92298,6.66877 -2.26797,9.83836 -0.9363,2.20645 -2.51918,4.19837 -3.88411,6.14787 -1.44343,2.06163 -2.85596,4.23582 -4.97021,5.68294 -1.22849,0.84086 -2.63318,1.49762 -3.99288,2.06554 -0.32816,0.13706 -0.58732,0.37492 -0.90971,0.52541 -0.74322,0.34692 -1.56949,0.61097 -2.33601,0.90467 -0.7371,0.28242 -0.71922,0.0434 -0.89627,0.43973"
       id="path10711" />
    <path
       style="fill:#9de9ff;fill-opacity:1;stroke:#5353ff;stroke-width:0.264999;stroke-linecap:round;stroke-dasharray:0.264999, 0.529997;stroke-dashoffset:0;stroke-opacity:1;paint-order:fill markers stroke"
       d="m 166.49492,210.80869 c 1.63876,0.65508 3.53166,1.11313 4.94333,2.23647 0.95538,0.76024 1.71914,1.68489 2.53928,2.57876 0.76391,0.83259 1.58461,1.61847 1.94205,2.72576 0.3298,1.02166 0.27958,2.13329 0.32592,3.18986 0.0547,1.24697 0.22755,2.59953 0.0546,3.84966 -0.54283,3.92367 -3.08587,10.37441 -6.27429,12.88207 -0.73997,0.58196 -1.60239,0.98647 -2.44437,1.39311 -2.28455,1.10336 -4.18445,1.81795 -6.64095,2.46873 -1.60073,0.42407 -3.2016,0.9336 -4.83455,1.22218 -2.75103,0.48617 -5.57379,0.50631 -8.352,0.73331 -1.27634,0.10429 -2.54763,0.23404 -3.82951,0.24444 -3.885,0.0315 -8.00418,-0.47225 -11.76068,-1.46662 -2.64851,-0.70108 -5.12841,-1.51267 -7.26547,-3.29989 -1.27105,-1.06298 -2.05561,-2.47514 -3.02858,-3.78877 -2.48884,-3.36022 -5.11095,-7.16114 -4.22346,-11.59856 0.86432,-4.32163 2.71851,-6.55922 6.68168,-8.4087 1.29878,-0.6061 2.63904,-1.09724 4.03321,-1.42966 1.85314,-0.44186 3.76124,-0.56867 5.62246,-0.98993 2.45282,-0.55515 4.88139,-1.16964 7.3877,-1.44226 0.35547,-0.0387 1.58913,-0.14809 1.84671,-0.15875 1.15554,-0.0478 2.30205,0.14556 3.46327,0.0853 1.06645,-0.0554 2.11169,-0.33545 3.17768,-0.41537 1.12216,-0.0841 2.2465,-0.0404 3.36793,-0.12222 1.17083,-0.0854 2.33278,-0.2604 3.50359,-0.3423 0.78279,-0.0548 1.56633,-0.0298 2.34945,-0.0735 0.90114,-0.0503 1.79901,-0.17094 2.70266,-0.17094 0.75645,0 1.51056,0.0735 2.26797,0.0735 0.89751,0 1.51905,-0.25308 2.44437,0.0244 z"
       id="path15871" />
    <path
       style="fill:#9de9ff;fill-opacity:1;stroke:#5353ff;stroke-width:0.264999;stroke-linecap:round;stroke-dasharray:0.264999, 0.529997;stroke-dashoffset:0;stroke-opacity:1;paint-order:fill markers stroke"
       d="m 207.60268,243.68541 c -1.35658,1.35882 -2.82965,2.60935 -4.50863,3.55651 -1.71359,0.96667 -3.60224,1.37149 -5.50025,1.79673 -1.6935,0.37943 -2.83534,0.66233 -4.63085,0.94121 -0.84968,0.13197 -2.06105,0.1681 -2.9198,0.17094 -3.16837,0.0105 -6.25743,-0.20654 -9.34319,-0.96557 -1.27079,-0.31258 -2.56502,-0.55839 -3.82951,-0.89207 -2.2101,-0.5832 -4.34194,-1.36668 -6.57291,-1.88241 -1.76643,-0.40834 -3.49975,-0.87998 -5.22851,-1.42966 -0.83785,-0.26641 -1.75652,-0.53661 -2.49896,-1.02688 -0.74735,-0.49352 -1.37031,-1.107 -1.88745,-1.83328 -0.99565,-1.39829 -2.03476,-3.1875 -2.06428,-4.94963 -0.0528,-3.14992 1.73297,-7.62119 3.21842,-10.36419 1.23544,-2.28135 2.54879,-4.52361 3.80263,-6.79551 1.38865,-2.51617 2.82689,-5.31517 5.06555,-7.1987 1.80289,-1.51689 4.06363,-2.27989 6.27387,-2.96978 1.28159,-0.40003 2.54746,-0.86933 3.84336,-1.22218 2.72821,-0.74285 5.57129,-1.09373 8.39275,-1.06343 2.03228,0.0218 4.59502,0.24763 6.55947,0.73331 1.65692,0.40966 3.14263,1.24107 4.71233,1.88242 0.90588,0.37012 1.82901,0.69106 2.70224,1.1365 1.18604,0.605 2.24099,1.42368 3.36794,2.12643 1.71247,1.06789 3.39036,2.01851 4.78037,3.51997 1.81969,1.9656 2.3275,4.79278 2.64806,7.34528 0.13217,1.05244 0.29691,2.06587 0.2583,3.12896 -0.0312,0.85827 -0.19588,1.69597 -0.21756,2.5544 -0.0108,0.42831 -0.0239,1.29602 0,1.77195 0.0268,0.53533 0.17067,1.15053 0.068,1.6867 -0.14067,0.73495 -0.46727,1.33832 -0.77405,2.00463 -0.3131,0.68006 -0.55725,1.39089 -0.88283,2.06553 -0.3767,0.7806 -0.87143,1.50657 -1.3171,2.24865 -0.31024,0.51659 -0.58928,1.05443 -0.91012,1.56448 -0.19007,0.30215 -0.43519,0.56895 -0.6111,0.87989 -0.14579,0.25771 -0.34518,1.19857 -0.74675,1.2709 -0.41131,0.0741 -0.83126,0.13421 -1.24948,0.2079 z"
       id="path15873" />
    <path
       style="fill:#74afff;fill-opacity:1;stroke:#5353ff;stroke-width:0.264999;stroke-linecap:round;stroke-dasharray:0.264999, 0.529997;stroke-dashoffset:0;stroke-opacity:1;paint-order:fill markers stroke"
       d="m 162.23071,243.53883 c 0.76831,0.0794 1.79155,0.31881 2.55315,0.0365 0.60676,-0.22488 1.13547,-0.62715 1.72449,-0.89207 0.61836,-0.2781 1.2566,-0.43352 1.83328,-0.80681 0.85741,-0.55501 1.53598,-1.31079 2.30871,-1.96767 1.25425,-1.06622 2.48751,-2.1285 3.69384,-3.25075 1.69329,-1.57525 4.20426,-4.88834 5.02482,-6.97904 0.52705,-1.34289 0.96655,-3.42809 0.86938,-4.86396 -0.0338,-0.49971 -0.0967,-0.46044 -0.23099,-1.02688 -0.29713,-1.25338 -0.3145,-2.52938 -0.95087,-3.69091 -0.38024,-0.69404 -0.95211,-1.263 -1.35784,-1.94331 -0.30963,-0.51916 -0.50529,-1.08648 -0.80135,-1.6132 -0.52774,-0.93891 -1.65587,-2.15704 -2.72954,-2.49351 -0.2326,-0.0729 -0.49608,-0.0544 -0.73331,-0.12222 -0.72507,-0.20724 -2.60722,-1.91028 -3.36794,-1.69887 -0.16927,0.047 -0.29844,0.16034 -0.44813,0.24443 -0.43093,0.24209 -0.76068,0.49349 -1.11382,0.84335 -0.29657,0.29381 -1.0137,2.85571 -1.22219,3.33686 -0.82525,1.9045 -1.75288,3.79738 -2.64806,5.67076 -0.41375,0.86587 -0.96141,1.64464 -1.42588,2.4809 -0.3789,0.6822 -0.71358,1.31414 -1.168,1.95549 -0.32407,0.45739 -0.7647,0.80699 -1.08653,1.25915 -0.30061,0.42235 -0.49982,0.907 -0.81478,1.32004 -0.32595,0.42743 -0.72312,0.84319 -0.96431,1.3318 -0.30724,0.62239 -0.32469,1.43017 -0.48888,2.09031 -0.14331,0.57622 -0.36443,1.10556 -0.35279,1.71106 0.005,0.25206 0.13595,0.49046 0.18984,0.73331 0.10542,0.47513 0.15905,0.98082 0.19025,1.46662 0.0374,0.58226 -0.0554,1.16773 -0.0134,1.74759 0.0362,0.50006 0.25929,0.97162 0.29862,1.4788 0.0319,0.41163 -0.0925,0.89884 0.0134,1.29568 0.0829,0.31079 1.47952,1.66115 1.86057,1.83328 0.60547,0.27351 0.45431,-0.0232 1.35826,0.51323 z"
       id="path15875" />
    <circle
       style="fill:#5252ff;fill-opacity:1;stroke:none;stroke-width:0.264999;stroke-linecap:round;stroke-dasharray:none;stroke-dashoffset:0;stroke-opacity:1;paint-order:fill markers stroke"
       id="path22642"
       cx="169.41107"
       cy="227.46342"
       r="0.30534616" />
    <g
       inkscape:label=""
       transform="translate(170.07843,225.26761)"
       id="g23199">
      <g
         fill="#000000"
         fill-opacity="1"
         id="g23197"
         transform="matrix(0.352778,0,0,0.352778,-0.104731,0.0413632)">
        <g
           id="g23195"
           transform="translate(0,4.289)">
          <path
             d="M 3.328125,-3.015625 C 3.390625,-3.265625 3.625,-4.1875 4.3125,-4.1875 c 0.046875,0 0.296875,0 0.5,0.125 C 4.53125,-4 4.34375,-3.765625 4.34375,-3.515625 c 0,0.15625 0.109375,0.34375 0.375,0.34375 0.21875,0 0.53125,-0.171875 0.53125,-0.578125 0,-0.515625 -0.578125,-0.65625 -0.921875,-0.65625 -0.578125,0 -0.921875,0.53125 -1.046875,0.75 -0.25,-0.65625 -0.78125,-0.75 -1.078125,-0.75 -1.03125,0 -1.609375,1.28125 -1.609375,1.53125 0,0.109375 0.109375,0.109375 0.125,0.109375 0.078125,0 0.109375,-0.03125 0.125,-0.109375 0.34375,-1.0625 1,-1.3125 1.34375,-1.3125 0.1875,0 0.53125,0.09375 0.53125,0.671875 0,0.3125 -0.171875,0.96875 -0.53125,2.375 -0.15625,0.609375 -0.515625,1.03125 -0.953125,1.03125 -0.0625,0 -0.28125,0 -0.5,-0.125 0.25,-0.0625 0.46875,-0.265625 0.46875,-0.546875 0,-0.265625 -0.21875,-0.34375 -0.359375,-0.34375 -0.3125,0 -0.546875,0.25 -0.546875,0.578125 0,0.453125 0.484375,0.65625 0.921875,0.65625 0.671875,0 1.03125,-0.703125 1.046875,-0.75 0.125,0.359375 0.484375,0.75 1.078125,0.75 1.03125,0 1.59375,-1.28125 1.59375,-1.53125 0,-0.109375 -0.078125,-0.109375 -0.109375,-0.109375 -0.09375,0 -0.109375,0.046875 -0.140625,0.109375 -0.328125,1.078125 -1,1.3125 -1.3125,1.3125 -0.390625,0 -0.546875,-0.3125 -0.546875,-0.65625 0,-0.21875 0.046875,-0.4375 0.15625,-0.875 z m 0,0"
             id="path23193" />
        </g>
      </g>
    </g>
    <g
       inkscape:label=""
       transform="translate(117.4392,235.03324)"
       id="g23308">
      <g
         fill="#000000"
         fill-opacity="1"
         id="g23"
         transform="matrix(0.352778,0,0,0.352778,-0.237023,0.00158747)">
        <g
           id="use21"
           transform="translate(0,6.8080001)">
          <path
             d="M 6.328125,-5.765625 C 6.4375,-6.171875 6.609375,-6.46875 7.40625,-6.5 c 0.046875,0 0.171875,-0.015625 0.171875,-0.203125 0,0 0,-0.109375 -0.125,-0.109375 -0.328125,0 -0.6875,0.03125 -1.015625,0.03125 -0.34375,0 -0.71875,-0.03125 -1.046875,-0.03125 -0.0625,0 -0.171875,0 -0.171875,0.203125 C 5.21875,-6.5 5.3125,-6.5 5.390625,-6.5 c 0.578125,0.015625 0.6875,0.21875 0.6875,0.4375 0,0.03125 -0.03125,0.1875 -0.03125,0.203125 l -0.90625,3.5625 C 4.8125,-0.953125 3.65625,-0.09375 2.65625,-0.09375 c -0.671875,0 -1.203125,-0.4375 -1.203125,-1.296875 0,-0.015625 0,-0.328125 0.109375,-0.765625 L 2.515625,-6.046875 C 2.609375,-6.40625 2.625,-6.5 3.359375,-6.5 c 0.265625,0 0.34375,0 0.34375,-0.203125 0,-0.109375 -0.109375,-0.109375 -0.140625,-0.109375 -0.28125,0 -1,0.03125 -1.28125,0.03125 -0.28125,0 -1,-0.03125 -1.28125,-0.03125 -0.078125,0 -0.1875,0 -0.1875,0.203125 C 0.8125,-6.5 0.890625,-6.5 1.09375,-6.5 c 0.015625,0 0.203125,0 0.375,0.015625 0.171875,0.03125 0.265625,0.03125 0.265625,0.171875 0,0.046875 -0.109375,0.46875 -0.171875,0.703125 l -0.21875,0.875 C 1.25,-4.34375 0.78125,-2.46875 0.734375,-2.265625 0.671875,-2 0.671875,-1.84375 0.671875,-1.6875 c 0,1.203125 0.90625,1.90625 1.953125,1.90625 1.25,0 2.484375,-1.125 2.8125,-2.4375 z m 0,0"
             id="path39" />
        </g>
      </g>
      <g
         fill="#000000"
         fill-opacity="1"
         id="g27"
         transform="matrix(0.352778,0,0,0.352778,-0.237023,0.00158747)">
        <g
           id="use25"
           transform="translate(7.888,3.1930001)">
          <path
             d="M 1.734375,-0.734375 C 1.671875,-0.5 1.4375,-0.125 1.078125,-0.125 c -0.015625,0 -0.234375,0 -0.375,-0.09375 0.28125,-0.09375 0.3125,-0.34375 0.3125,-0.390625 0,-0.15625 -0.125,-0.25 -0.28125,-0.25 -0.203125,0 -0.40625,0.15625 -0.40625,0.421875 0,0.34375 0.390625,0.5 0.734375,0.5 0.328125,0 0.609375,-0.1875 0.78125,-0.484375 C 2.015625,-0.0625 2.390625,0.0625 2.671875,0.0625 c 0.8125,0 1.234375,-0.859375 1.234375,-1.0625 0,-0.09375 -0.09375,-0.09375 -0.109375,-0.09375 -0.109375,0 -0.109375,0.046875 -0.140625,0.125 -0.140625,0.484375 -0.5625,0.84375 -0.953125,0.84375 -0.28125,0 -0.421875,-0.1875 -0.421875,-0.453125 0,-0.1875 0.171875,-0.8125 0.359375,-1.59375 C 2.78125,-2.703125 3.09375,-2.875 3.328125,-2.875 c 0.015625,0 0.21875,0 0.375,0.09375 -0.21875,0.0625 -0.3125,0.265625 -0.3125,0.390625 0,0.140625 0.125,0.25 0.28125,0.25 0.15625,0 0.390625,-0.125 0.390625,-0.421875 0,-0.390625 -0.453125,-0.515625 -0.71875,-0.515625 -0.359375,0 -0.640625,0.234375 -0.78125,0.5 -0.125,-0.28125 -0.453125,-0.5 -0.84375,-0.5 C 0.9375,-3.078125 0.5,-2.21875 0.5,-2 c 0,0.078125 0.09375,0.078125 0.109375,0.078125 0.09375,0 0.09375,-0.015625 0.140625,-0.109375 C 0.921875,-2.578125 1.359375,-2.875 1.703125,-2.875 1.9375,-2.875 2.125,-2.75 2.125,-2.421875 2.125,-2.28125 2.03125,-1.9375 1.96875,-1.6875 Z m 0,0"
             id="path43" />
        </g>
      </g>
      <g
         clip-path="url(#clipPath2102)"
         id="g33"
         transform="matrix(0.352778,0,0,0.352778,-0.237023,0.00158747)">
        <g
           fill="#000000"
           fill-opacity="1"
           id="g31">
          <g
             id="use29"
             transform="translate(6.802,9.2810001)">
            <path
               d="m 2.328125,-4.4375 c 0,-0.1875 0,-0.1875 -0.203125,-0.1875 -0.453125,0.4375 -1.078125,0.4375 -1.359375,0.4375 v 0.25 c 0.15625,0 0.625,0 1,-0.1875 v 3.546875 c 0,0.234375 0,0.328125 -0.6875,0.328125 H 0.8125 V 0 c 0.125,0 0.984375,-0.03125 1.234375,-0.03125 0.21875,0 1.09375,0.03125 1.25,0.03125 V -0.25 H 3.03125 c -0.703125,0 -0.703125,-0.09375 -0.703125,-0.328125 z m 0,0"
               id="path47" />
          </g>
        </g>
      </g>
    </g>
    <g
       inkscape:label=""
       transform="translate(207.61102,244.40289)"
       id="g23462">
      <g
         fill="#000000"
         fill-opacity="1"
         id="g23446"
         transform="matrix(0.352778,0,0,0.352778,-0.237023,0.00158747)">
        <g
           id="g23444"
           transform="translate(0,6.8080001)">
          <path
             d="M 6.328125,-5.765625 C 6.4375,-6.171875 6.609375,-6.46875 7.40625,-6.5 c 0.046875,0 0.171875,-0.015625 0.171875,-0.203125 0,0 0,-0.109375 -0.125,-0.109375 -0.328125,0 -0.6875,0.03125 -1.015625,0.03125 -0.34375,0 -0.71875,-0.03125 -1.046875,-0.03125 -0.0625,0 -0.171875,0 -0.171875,0.203125 C 5.21875,-6.5 5.3125,-6.5 5.390625,-6.5 c 0.578125,0.015625 0.6875,0.21875 0.6875,0.4375 0,0.03125 -0.03125,0.1875 -0.03125,0.203125 l -0.90625,3.5625 C 4.8125,-0.953125 3.65625,-0.09375 2.65625,-0.09375 c -0.671875,0 -1.203125,-0.4375 -1.203125,-1.296875 0,-0.015625 0,-0.328125 0.109375,-0.765625 L 2.515625,-6.046875 C 2.609375,-6.40625 2.625,-6.5 3.359375,-6.5 c 0.265625,0 0.34375,0 0.34375,-0.203125 0,-0.109375 -0.109375,-0.109375 -0.140625,-0.109375 -0.28125,0 -1,0.03125 -1.28125,0.03125 -0.28125,0 -1,-0.03125 -1.28125,-0.03125 -0.078125,0 -0.1875,0 -0.1875,0.203125 C 0.8125,-6.5 0.890625,-6.5 1.09375,-6.5 c 0.015625,0 0.203125,0 0.375,0.015625 0.171875,0.03125 0.265625,0.03125 0.265625,0.171875 0,0.046875 -0.109375,0.46875 -0.171875,0.703125 l -0.21875,0.875 C 1.25,-4.34375 0.78125,-2.46875 0.734375,-2.265625 0.671875,-2 0.671875,-1.84375 0.671875,-1.6875 c 0,1.203125 0.90625,1.90625 1.953125,1.90625 1.25,0 2.484375,-1.125 2.8125,-2.4375 z m 0,0"
             id="path23442" />
        </g>
      </g>
      <g
         fill="#000000"
         fill-opacity="1"
         id="g23452"
         transform="matrix(0.352778,0,0,0.352778,-0.237023,0.00158747)">
        <g
           id="g23450"
           transform="translate(7.888,3.1930001)">
          <path
             d="M 1.734375,-0.734375 C 1.671875,-0.5 1.4375,-0.125 1.078125,-0.125 c -0.015625,0 -0.234375,0 -0.375,-0.09375 0.28125,-0.09375 0.3125,-0.34375 0.3125,-0.390625 0,-0.15625 -0.125,-0.25 -0.28125,-0.25 -0.203125,0 -0.40625,0.15625 -0.40625,0.421875 0,0.34375 0.390625,0.5 0.734375,0.5 0.328125,0 0.609375,-0.1875 0.78125,-0.484375 C 2.015625,-0.0625 2.390625,0.0625 2.671875,0.0625 c 0.8125,0 1.234375,-0.859375 1.234375,-1.0625 0,-0.09375 -0.09375,-0.09375 -0.109375,-0.09375 -0.109375,0 -0.109375,0.046875 -0.140625,0.125 -0.140625,0.484375 -0.5625,0.84375 -0.953125,0.84375 -0.28125,0 -0.421875,-0.1875 -0.421875,-0.453125 0,-0.1875 0.171875,-0.8125 0.359375,-1.59375 C 2.78125,-2.703125 3.09375,-2.875 3.328125,-2.875 c 0.015625,0 0.21875,0 0.375,0.09375 -0.21875,0.0625 -0.3125,0.265625 -0.3125,0.390625 0,0.140625 0.125,0.25 0.28125,0.25 0.15625,0 0.390625,-0.125 0.390625,-0.421875 0,-0.390625 -0.453125,-0.515625 -0.71875,-0.515625 -0.359375,0 -0.640625,0.234375 -0.78125,0.5 -0.125,-0.28125 -0.453125,-0.5 -0.84375,-0.5 C 0.9375,-3.078125 0.5,-2.21875 0.5,-2 c 0,0.078125 0.09375,0.078125 0.109375,0.078125 0.09375,0 0.09375,-0.015625 0.140625,-0.109375 C 0.921875,-2.578125 1.359375,-2.875 1.703125,-2.875 1.9375,-2.875 2.125,-2.75 2.125,-2.421875 2.125,-2.28125 2.03125,-1.9375 1.96875,-1.6875 Z m 0,0"
             id="path23448" />
        </g>
      </g>
      <g
         clip-path="url(#clipPath5662)"
         id="g23460"
         transform="matrix(0.352778,0,0,0.352778,-0.237023,0.00158747)">
        <g
           fill="#000000"
           fill-opacity="1"
           id="g23458">
          <g
             id="g23456"
             transform="translate(6.802,9.2810001)">
            <path
               d="M 3.515625,-1.265625 H 3.28125 c -0.015625,0.15625 -0.09375,0.5625 -0.1875,0.625 C 3.046875,-0.59375 2.515625,-0.59375 2.40625,-0.59375 H 1.125 c 0.734375,-0.640625 0.984375,-0.84375 1.390625,-1.171875 0.515625,-0.40625 1,-0.84375 1,-1.5 0,-0.84375 -0.734375,-1.359375 -1.625,-1.359375 -0.859375,0 -1.453125,0.609375 -1.453125,1.25 0,0.34375 0.296875,0.390625 0.375,0.390625 0.15625,0 0.359375,-0.125 0.359375,-0.375 0,-0.125 -0.046875,-0.375 -0.40625,-0.375 C 0.984375,-4.21875 1.453125,-4.375 1.78125,-4.375 c 0.703125,0 1.0625,0.546875 1.0625,1.109375 0,0.609375 -0.4375,1.078125 -0.65625,1.328125 L 0.515625,-0.265625 C 0.4375,-0.203125 0.4375,-0.1875 0.4375,0 h 2.875 z m 0,0"
               id="path23454" />
          </g>
        </g>
      </g>
    </g>
    <g
       inkscape:label=""
       transform="translate(218.68181,206.6323)"
       id="g23642">
      <g
         fill="#000000"
         fill-opacity="1"
         id="g23626"
         transform="matrix(0.352778,0,0,0.352778,-0.198437,0.00158747)">
        <g
           id="g23624"
           transform="translate(0,6.8080001)">
          <path
             d="M 6.265625,-5.671875 C 6.75,-6.453125 7.171875,-6.484375 7.53125,-6.5 c 0.125,-0.015625 0.140625,-0.171875 0.140625,-0.1875 0,-0.078125 -0.0625,-0.125 -0.140625,-0.125 -0.25,0 -0.546875,0.03125 -0.8125,0.03125 -0.328125,0 -0.671875,-0.03125 -0.984375,-0.03125 -0.0625,0 -0.1875,0 -0.1875,0.1875 0,0.109375 0.078125,0.125 0.15625,0.125 0.265625,0.015625 0.453125,0.125 0.453125,0.328125 0,0.15625 -0.140625,0.375 -0.140625,0.375 l -3.0625,4.875 -0.6875,-5.28125 C 2.265625,-6.375 2.5,-6.5 2.953125,-6.5 c 0.140625,0 0.25,0 0.25,-0.203125 0,-0.078125 -0.078125,-0.109375 -0.125,-0.109375 -0.40625,0 -0.828125,0.03125 -1.25,0.03125 -0.171875,0 -0.359375,0 -0.546875,0 -0.171875,0 -0.359375,-0.03125 -0.53125,-0.03125 -0.078125,0 -0.1875,0 -0.1875,0.1875 0,0.125 0.078125,0.125 0.25,0.125 0.546875,0 0.5625,0.09375 0.59375,0.34375 L 2.1875,-0.015625 C 2.21875,0.1875 2.265625,0.21875 2.390625,0.21875 c 0.15625,0 0.203125,-0.046875 0.28125,-0.171875 z m 0,0"
             id="path23622" />
        </g>
      </g>
      <g
         fill="#000000"
         fill-opacity="1"
         id="g23632"
         transform="matrix(0.352778,0,0,0.352778,-0.198437,0.00158747)">
        <g
           id="g23630"
           transform="translate(8.0249996,3.1930001)">
          <path
             d="M 1.734375,-0.734375 C 1.671875,-0.5 1.4375,-0.125 1.078125,-0.125 c -0.015625,0 -0.234375,0 -0.375,-0.09375 0.28125,-0.09375 0.3125,-0.34375 0.3125,-0.390625 0,-0.15625 -0.125,-0.25 -0.28125,-0.25 -0.203125,0 -0.40625,0.15625 -0.40625,0.421875 0,0.34375 0.390625,0.5 0.734375,0.5 0.328125,0 0.609375,-0.1875 0.78125,-0.484375 C 2.015625,-0.0625 2.390625,0.0625 2.671875,0.0625 c 0.8125,0 1.234375,-0.859375 1.234375,-1.0625 0,-0.09375 -0.09375,-0.09375 -0.109375,-0.09375 -0.109375,0 -0.109375,0.046875 -0.140625,0.125 -0.140625,0.484375 -0.5625,0.84375 -0.953125,0.84375 -0.28125,0 -0.421875,-0.1875 -0.421875,-0.453125 0,-0.1875 0.171875,-0.8125 0.359375,-1.59375 C 2.78125,-2.703125 3.09375,-2.875 3.328125,-2.875 c 0.015625,0 0.21875,0 0.375,0.09375 -0.21875,0.0625 -0.3125,0.265625 -0.3125,0.390625 0,0.140625 0.125,0.25 0.28125,0.25 0.15625,0 0.390625,-0.125 0.390625,-0.421875 0,-0.390625 -0.453125,-0.515625 -0.71875,-0.515625 -0.359375,0 -0.640625,0.234375 -0.78125,0.5 -0.125,-0.28125 -0.453125,-0.5 -0.84375,-0.5 C 0.9375,-3.078125 0.5,-2.21875 0.5,-2 c 0,0.078125 0.09375,0.078125 0.109375,0.078125 0.09375,0 0.09375,-0.015625 0.140625,-0.109375 C 0.921875,-2.578125 1.359375,-2.875 1.703125,-2.875 1.9375,-2.875 2.125,-2.75 2.125,-2.421875 2.125,-2.28125 2.03125,-1.9375 1.96875,-1.6875 Z m 0,0"
             id="path23628" />
        </g>
      </g>
      <g
         clip-path="url(#clipPath7696)"
         id="g23640"
         transform="matrix(0.352778,0,0,0.352778,-0.198437,0.00158747)">
        <g
           fill="#000000"
           fill-opacity="1"
           id="g23638">
          <g
             id="g23636"
             transform="translate(5.8119998,9.2810001)">
            <path
               d="M 3.515625,-1.265625 H 3.28125 c -0.015625,0.15625 -0.09375,0.5625 -0.1875,0.625 C 3.046875,-0.59375 2.515625,-0.59375 2.40625,-0.59375 H 1.125 c 0.734375,-0.640625 0.984375,-0.84375 1.390625,-1.171875 0.515625,-0.40625 1,-0.84375 1,-1.5 0,-0.84375 -0.734375,-1.359375 -1.625,-1.359375 -0.859375,0 -1.453125,0.609375 -1.453125,1.25 0,0.34375 0.296875,0.390625 0.375,0.390625 0.15625,0 0.359375,-0.125 0.359375,-0.375 0,-0.125 -0.046875,-0.375 -0.40625,-0.375 C 0.984375,-4.21875 1.453125,-4.375 1.78125,-4.375 c 0.703125,0 1.0625,0.546875 1.0625,1.109375 0,0.609375 -0.4375,1.078125 -0.65625,1.328125 L 0.515625,-0.265625 C 0.4375,-0.203125 0.4375,-0.1875 0.4375,0 h 2.875 z m 0,0"
               id="path23634" />
          </g>
        </g>
      </g>
    </g>
    <g
       inkscape:label=""
       transform="translate(107.93316,207.57547)"
       id="g23848">
      <g
         fill="#000000"
         fill-opacity="1"
         id="g23832"
         transform="matrix(0.352778,0,0,0.352778,-0.198437,0.00158747)">
        <g
           id="g23830"
           transform="translate(0,6.8080001)">
          <path
             d="M 6.265625,-5.671875 C 6.75,-6.453125 7.171875,-6.484375 7.53125,-6.5 c 0.125,-0.015625 0.140625,-0.171875 0.140625,-0.1875 0,-0.078125 -0.0625,-0.125 -0.140625,-0.125 -0.25,0 -0.546875,0.03125 -0.8125,0.03125 -0.328125,0 -0.671875,-0.03125 -0.984375,-0.03125 -0.0625,0 -0.1875,0 -0.1875,0.1875 0,0.109375 0.078125,0.125 0.15625,0.125 0.265625,0.015625 0.453125,0.125 0.453125,0.328125 0,0.15625 -0.140625,0.375 -0.140625,0.375 l -3.0625,4.875 -0.6875,-5.28125 C 2.265625,-6.375 2.5,-6.5 2.953125,-6.5 c 0.140625,0 0.25,0 0.25,-0.203125 0,-0.078125 -0.078125,-0.109375 -0.125,-0.109375 -0.40625,0 -0.828125,0.03125 -1.25,0.03125 -0.171875,0 -0.359375,0 -0.546875,0 -0.171875,0 -0.359375,-0.03125 -0.53125,-0.03125 -0.078125,0 -0.1875,0 -0.1875,0.1875 0,0.125 0.078125,0.125 0.25,0.125 0.546875,0 0.5625,0.09375 0.59375,0.34375 L 2.1875,-0.015625 C 2.21875,0.1875 2.265625,0.21875 2.390625,0.21875 c 0.15625,0 0.203125,-0.046875 0.28125,-0.171875 z m 0,0"
             id="path23828" />
        </g>
      </g>
      <g
         fill="#000000"
         fill-opacity="1"
         id="g23838"
         transform="matrix(0.352778,0,0,0.352778,-0.198437,0.00158747)">
        <g
           id="g23836"
           transform="translate(8.0249996,3.1930001)">
          <path
             d="M 1.734375,-0.734375 C 1.671875,-0.5 1.4375,-0.125 1.078125,-0.125 c -0.015625,0 -0.234375,0 -0.375,-0.09375 0.28125,-0.09375 0.3125,-0.34375 0.3125,-0.390625 0,-0.15625 -0.125,-0.25 -0.28125,-0.25 -0.203125,0 -0.40625,0.15625 -0.40625,0.421875 0,0.34375 0.390625,0.5 0.734375,0.5 0.328125,0 0.609375,-0.1875 0.78125,-0.484375 C 2.015625,-0.0625 2.390625,0.0625 2.671875,0.0625 c 0.8125,0 1.234375,-0.859375 1.234375,-1.0625 0,-0.09375 -0.09375,-0.09375 -0.109375,-0.09375 -0.109375,0 -0.109375,0.046875 -0.140625,0.125 -0.140625,0.484375 -0.5625,0.84375 -0.953125,0.84375 -0.28125,0 -0.421875,-0.1875 -0.421875,-0.453125 0,-0.1875 0.171875,-0.8125 0.359375,-1.59375 C 2.78125,-2.703125 3.09375,-2.875 3.328125,-2.875 c 0.015625,0 0.21875,0 0.375,0.09375 -0.21875,0.0625 -0.3125,0.265625 -0.3125,0.390625 0,0.140625 0.125,0.25 0.28125,0.25 0.15625,0 0.390625,-0.125 0.390625,-0.421875 0,-0.390625 -0.453125,-0.515625 -0.71875,-0.515625 -0.359375,0 -0.640625,0.234375 -0.78125,0.5 -0.125,-0.28125 -0.453125,-0.5 -0.84375,-0.5 C 0.9375,-3.078125 0.5,-2.21875 0.5,-2 c 0,0.078125 0.09375,0.078125 0.109375,0.078125 0.09375,0 0.09375,-0.015625 0.140625,-0.109375 C 0.921875,-2.578125 1.359375,-2.875 1.703125,-2.875 1.9375,-2.875 2.125,-2.75 2.125,-2.421875 2.125,-2.28125 2.03125,-1.9375 1.96875,-1.6875 Z m 0,0"
             id="path23834" />
        </g>
      </g>
      <g
         clip-path="url(#clipPath928)"
         id="g23846"
         transform="matrix(0.352778,0,0,0.352778,-0.198437,0.00158747)">
        <g
           fill="#000000"
           fill-opacity="1"
           id="g23844">
          <g
             id="g23842"
             transform="translate(5.8119998,9.2810001)">
            <path
               d="m 2.328125,-4.4375 c 0,-0.1875 0,-0.1875 -0.203125,-0.1875 -0.453125,0.4375 -1.078125,0.4375 -1.359375,0.4375 v 0.25 c 0.15625,0 0.625,0 1,-0.1875 v 3.546875 c 0,0.234375 0,0.328125 -0.6875,0.328125 H 0.8125 V 0 c 0.125,0 0.984375,-0.03125 1.234375,-0.03125 0.21875,0 1.09375,0.03125 1.25,0.03125 V -0.25 H 3.03125 c -0.703125,0 -0.703125,-0.09375 -0.703125,-0.328125 z m 0,0"
               id="path23840" />
          </g>
        </g>
      </g>
    </g>
  </g>
</svg>
