<?xml version="1.0" encoding="UTF-8" standalone="no"?>
<!-- Created with Inkscape (http://www.inkscape.org/) -->

<svg
   width="240mm"
   height="120mm"
   viewBox="0 0 240 120"
   version="1.1"
   id="svg8"
   inkscape:version="1.2.2 (b0a8486541, 2022-12-01)"
   sodipodi:docname="dos-discos..svg"
   xmlns:inkscape="http://www.inkscape.org/namespaces/inkscape"
   xmlns:sodipodi="http://sodipodi.sourceforge.net/DTD/sodipodi-0.dtd"
   xmlns="http://www.w3.org/2000/svg"
   xmlns:svg="http://www.w3.org/2000/svg"
   xmlns:rdf="http://www.w3.org/1999/02/22-rdf-syntax-ns#"
   xmlns:cc="http://creativecommons.org/ns#"
   xmlns:dc="http://purl.org/dc/elements/1.1/"
   xmlns:ns2="http://www.iki.fi/pav/software/textext/">
  <defs
     id="defs2">
    <marker
       style="overflow:visible"
       id="marker10267"
       refX="0"
       refY="0"
       orient="auto-start-reverse"
       inkscape:stockid="Arrow1"
       markerWidth="4.0606604"
       markerHeight="6.7071066"
       viewBox="0 0 4.0606602 6.7071068"
       inkscape:isstock="true"
       inkscape:collect="always"
       preserveAspectRatio="xMidYMid">
      <path
         style="fill:none;stroke:context-stroke;stroke-width:1;stroke-linecap:butt"
         d="M 3,-3 0,0 3,3"
         id="path10265"
         transform="rotate(180,0.125,0)"
         sodipodi:nodetypes="ccc" />
    </marker>
    <marker
       style="overflow:visible"
       id="marker10203"
       refX="0"
       refY="0"
       orient="auto-start-reverse"
       inkscape:stockid="Arrow1"
       markerWidth="4.0606604"
       markerHeight="6.7071066"
       viewBox="0 0 4.0606602 6.7071068"
       inkscape:isstock="true"
       inkscape:collect="always"
       preserveAspectRatio="xMidYMid">
      <path
         style="fill:none;stroke:context-stroke;stroke-width:1;stroke-linecap:butt"
         d="M 3,-3 0,0 3,3"
         id="path10201"
         transform="rotate(180,0.125,0)"
         sodipodi:nodetypes="ccc" />
    </marker>
    <marker
       style="overflow:visible"
       id="marker9159"
       refX="0"
       refY="0"
       orient="auto-start-reverse"
       inkscape:stockid="Arrow1"
       markerWidth="4.0606604"
       markerHeight="6.7071066"
       viewBox="0 0 4.0606602 6.7071068"
       inkscape:isstock="true"
       inkscape:collect="always"
       preserveAspectRatio="xMidYMid">
      <path
         style="fill:none;stroke:context-stroke;stroke-width:1;stroke-linecap:butt"
         d="M 3,-3 0,0 3,3"
         id="path9157"
         transform="rotate(180,0.125,0)"
         sodipodi:nodetypes="ccc" />
    </marker>
    <marker
       style="overflow:visible"
       id="Arrow1"
       refX="0"
       refY="0"
       orient="auto-start-reverse"
       inkscape:stockid="Arrow1"
       markerWidth="4.0606604"
       markerHeight="6.7071066"
       viewBox="0 0 4.0606602 6.7071068"
       inkscape:isstock="true"
       inkscape:collect="always"
       preserveAspectRatio="xMidYMid">
      <path
         style="fill:none;stroke:context-stroke;stroke-width:1;stroke-linecap:butt"
         d="M 3,-3 0,0 3,3"
         id="path5057"
         transform="rotate(180,0.125,0)"
         sodipodi:nodetypes="ccc" />
    </marker>
  </defs>
  <sodipodi:namedview
     id="base"
     pagecolor="#ffffff"
     bordercolor="#666666"
     borderopacity="1.0"
     inkscape:pageopacity="0.0"
     inkscape:pageshadow="2"
     inkscape:zoom="13.893951"
     inkscape:cx="394.30827"
     inkscape:cy="207.24846"
     inkscape:document-units="mm"
     inkscape:current-layer="layer1"
     showgrid="false"
     showborder="true"
     width="200mm"
     showguides="true"
     inkscape:guide-bbox="true"
     inkscape:window-width="1920"
     inkscape:window-height="1050"
     inkscape:window-x="0"
     inkscape:window-y="0"
     inkscape:window-maximized="1"
     inkscape:showpageshadow="2"
     inkscape:pagecheckerboard="0"
     inkscape:deskcolor="#d1d1d1">
    <inkscape:grid
       type="xygrid"
       id="grid815"
       units="mm"
       spacingx="10"
       spacingy="10"
       empspacing="4"
       dotted="false" />
  </sodipodi:namedview>
  <metadata
     id="metadata5">
    <rdf:RDF>
      <cc:Work
         rdf:about="">
        <dc:format>image/svg+xml</dc:format>
        <dc:type
           rdf:resource="http://purl.org/dc/dcmitype/StillImage" />
      </cc:Work>
    </rdf:RDF>
  </metadata>
  <g
     inkscape:label="Layer 1"
     inkscape:groupmode="layer"
     id="layer1"
     transform="translate(0, -177)">
    <g
       id="g12148"
       transform="matrix(1.3316252,0,0,1.3316252,-38.02502,-73.793905)">
      <path
         style="font-variation-settings:normal;opacity:1;vector-effect:none;fill:none;fill-opacity:0.806028;stroke:#000000;stroke-width:0.159;stroke-linecap:round;stroke-linejoin:miter;stroke-miterlimit:4;stroke-dasharray:0.159, 0.318;stroke-dashoffset:0;stroke-opacity:1;-inkscape-stroke:none;paint-order:fill markers stroke;stop-color:#000000;stop-opacity:1"
         d="m 100.92869,197.39999 v 47.31031 h 60.16278"
         id="path185" />
      <path
         style="fill:#ffd6d6;fill-opacity:0.806028;stroke:#000000;stroke-width:0.159;stroke-linecap:round;stroke-dasharray:0.159, 0.318;stroke-dashoffset:0;stroke-opacity:1;paint-order:fill markers stroke;stop-color:#000000"
         d="M 100.92869,244.7103 76.250119,269.38887"
         id="path187" />
      <path
         style="font-variation-settings:normal;opacity:1;vector-effect:none;fill:#d6f9ff;fill-opacity:0.806028;stroke:#008bc9;stroke-width:0.159;stroke-linecap:round;stroke-linejoin:miter;stroke-miterlimit:4;stroke-dasharray:none;stroke-dashoffset:0;stroke-opacity:1;-inkscape-stroke:none;paint-order:fill markers stroke;stop-color:#000000;stop-opacity:1"
         id="path1188"
         sodipodi:type="arc"
         sodipodi:cx="101.00819"
         sodipodi:cy="239.299"
         sodipodi:rx="12.418785"
         sodipodi:ry="2.6391268"
         sodipodi:start="0"
         sodipodi:end="6.2774148"
         sodipodi:open="true"
         sodipodi:arc-type="arc"
         d="m 113.42697,239.299 a 12.418785,2.6391268 0 0 1 -12.40087,2.63912 12.418785,2.6391268 0 0 1 -12.436647,-2.63151 12.418785,2.6391268 0 0 1 12.364987,-2.64672 12.418785,2.6391268 0 0 1 12.47232,2.62388" />
      <path
         style="font-variation-settings:normal;opacity:1;vector-effect:none;fill:#d6f9ff;fill-opacity:0.806028;stroke:#008bc9;stroke-width:0.159;stroke-linecap:round;stroke-linejoin:miter;stroke-miterlimit:4;stroke-dasharray:none;stroke-dashoffset:0;stroke-opacity:1;-inkscape-stroke:none;paint-order:fill markers stroke;stop-color:#000000;stop-opacity:1"
         id="path1190"
         sodipodi:type="arc"
         sodipodi:cx="101.00819"
         sodipodi:cy="223.42421"
         sodipodi:rx="12.418785"
         sodipodi:ry="2.6391268"
         sodipodi:start="0"
         sodipodi:end="6.2774148"
         sodipodi:open="true"
         sodipodi:arc-type="arc"
         d="m 113.42697,223.42421 a 12.418785,2.6391268 0 0 1 -12.40087,2.63912 12.418785,2.6391268 0 0 1 -12.436647,-2.63151 12.418785,2.6391268 0 0 1 12.364987,-2.64671 12.418785,2.6391268 0 0 1 12.47232,2.62387" />
      <g
         transform="matrix(0.352778,0,0,0.352778,115.638,237.834)"
         ns2:version="1.8.2"
         ns2:texconverter="pdflatex"
         ns2:pdfconverter="inkscape"
         ns2:text="$$D_1$$"
         ns2:preamble=""
         ns2:scale="1.0"
         ns2:alignment="middle center"
         ns2:stroke-to-path="0"
         ns2:inkscapeversion="1.2.2"
         ns2:jacobian_sqrt="0.352778"
         id="g1255">
        <defs
           id="id-20e20dca-6fac-4950-8c8a-5a05039fa646">
          <g
             id="id-0eded6c6-a614-4709-bf8d-8d089464b387">
            <g
               id="id-546513f9-5392-4ba4-821d-e1b9d4464825" />
            <g
               id="id-a994a5fa-0926-4817-88e3-245bf2daca47">
              <path
                 d="m 1.578125,-0.78125 c -0.09375,0.390625 -0.109375,0.46875 -0.90625,0.46875 -0.15625,0 -0.265625,0 -0.265625,0.1875 C 0.40625,0 0.484375,0 0.671875,0 h 3.3125 c 2.0625,0 4.03125,-2.109375 4.03125,-4.28125 0,-1.40625 -0.84375,-2.53125 -2.34375,-2.53125 h -3.34375 c -0.1875,0 -0.296875,0 -0.296875,0.1875 0,0.125 0.078125,0.125 0.28125,0.125 0.125,0 0.3125,0.015625 0.421875,0.015625 0.171875,0.03125 0.21875,0.046875 0.21875,0.171875 0,0.03125 0,0.0625 -0.03125,0.1875 z M 3.734375,-6.125 C 3.828125,-6.46875 3.84375,-6.5 4.28125,-6.5 h 1.0625 c 0.96875,0 1.796875,0.53125 1.796875,1.84375 0,0.484375 -0.1875,2.125 -1.046875,3.21875 -0.28125,0.375 -1.0625,1.125 -2.296875,1.125 h -1.125 c -0.140625,0 -0.15625,0 -0.21875,0 -0.09375,-0.015625 -0.125,-0.03125 -0.125,-0.109375 0,-0.03125 0,-0.046875 0.046875,-0.21875 z m 0,0"
                 id="id-f11c64cd-a780-4c4a-86b0-23e2a5868f8b" />
            </g>
            <g
               id="id-44509d89-11cf-4173-96c6-dd8357f3f260" />
            <g
               id="id-7d3442ec-8633-4915-9f82-04d64e7b3f07">
              <path
                 d="m 2.328125,-4.4375 c 0,-0.1875 0,-0.1875 -0.203125,-0.1875 -0.453125,0.4375 -1.078125,0.4375 -1.359375,0.4375 v 0.25 c 0.15625,0 0.625,0 1,-0.1875 v 3.546875 c 0,0.234375 0,0.328125 -0.6875,0.328125 H 0.8125 V 0 c 0.125,0 0.984375,-0.03125 1.234375,-0.03125 0.21875,0 1.09375,0.03125 1.25,0.03125 V -0.25 H 3.03125 c -0.703125,0 -0.703125,-0.09375 -0.703125,-0.328125 z m 0,0"
                 id="id-48a5b54a-8d1e-41c8-a807-89688f781b97" />
            </g>
          </g>
        </defs>
        <g
           fill="#000000"
           fill-opacity="1"
           id="id-6071c2c6-dea0-4831-abe8-3e946e72d44d"
           transform="translate(-299.671,-139.907)">
          <g
             transform="translate(299.265,146.72)"
             id="g1248">
            <path
               d="m 1.578125,-0.78125 c -0.09375,0.390625 -0.109375,0.46875 -0.90625,0.46875 -0.15625,0 -0.265625,0 -0.265625,0.1875 C 0.40625,0 0.484375,0 0.671875,0 h 3.3125 c 2.0625,0 4.03125,-2.109375 4.03125,-4.28125 0,-1.40625 -0.84375,-2.53125 -2.34375,-2.53125 h -3.34375 c -0.1875,0 -0.296875,0 -0.296875,0.1875 0,0.125 0.078125,0.125 0.28125,0.125 0.125,0 0.3125,0.015625 0.421875,0.015625 0.171875,0.03125 0.21875,0.046875 0.21875,0.171875 0,0.03125 0,0.0625 -0.03125,0.1875 z M 3.734375,-6.125 C 3.828125,-6.46875 3.84375,-6.5 4.28125,-6.5 h 1.0625 c 0.96875,0 1.796875,0.53125 1.796875,1.84375 0,0.484375 -0.1875,2.125 -1.046875,3.21875 -0.28125,0.375 -1.0625,1.125 -2.296875,1.125 h -1.125 c -0.140625,0 -0.15625,0 -0.21875,0 -0.09375,-0.015625 -0.125,-0.03125 -0.125,-0.109375 0,-0.03125 0,-0.046875 0.046875,-0.21875 z m 0,0"
               id="id-f8f3f31c-345e-420a-8bf2-ef83fc5099f2" />
          </g>
          <g
             transform="translate(297.797,94.906625)"
             ns2:version="1.8.2"
             ns2:texconverter="pdflatex"
             ns2:pdfconverter="inkscape"
             ns2:text="$$D_2$$"
             ns2:preamble=""
             ns2:scale="1.0"
             ns2:alignment="middle center"
             ns2:stroke-to-path="0"
             ns2:inkscapeversion="1.2.2"
             ns2:jacobian_sqrt="1.0"
             id="g1339">
            <defs
               id="id-09fcd5e6-7e2f-4fbb-b270-70b3bfbdb415">
              <g
                 id="id-b2dfe179-3744-4b54-b220-4f04811b3e4c">
                <g
                   id="id-5272b9e0-29c4-4126-8583-5c4be77682be" />
                <g
                   id="id-014fe30a-5a95-482a-bd47-becd7102938d">
                  <path
                     d="m 1.578125,-0.78125 c -0.09375,0.390625 -0.109375,0.46875 -0.90625,0.46875 -0.15625,0 -0.265625,0 -0.265625,0.1875 C 0.40625,0 0.484375,0 0.671875,0 h 3.3125 c 2.0625,0 4.03125,-2.109375 4.03125,-4.28125 0,-1.40625 -0.84375,-2.53125 -2.34375,-2.53125 h -3.34375 c -0.1875,0 -0.296875,0 -0.296875,0.1875 0,0.125 0.078125,0.125 0.28125,0.125 0.125,0 0.3125,0.015625 0.421875,0.015625 0.171875,0.03125 0.21875,0.046875 0.21875,0.171875 0,0.03125 0,0.0625 -0.03125,0.1875 z M 3.734375,-6.125 C 3.828125,-6.46875 3.84375,-6.5 4.28125,-6.5 h 1.0625 c 0.96875,0 1.796875,0.53125 1.796875,1.84375 0,0.484375 -0.1875,2.125 -1.046875,3.21875 -0.28125,0.375 -1.0625,1.125 -2.296875,1.125 h -1.125 c -0.140625,0 -0.15625,0 -0.21875,0 -0.09375,-0.015625 -0.125,-0.03125 -0.125,-0.109375 0,-0.03125 0,-0.046875 0.046875,-0.21875 z m 0,0"
                     id="id-b0389038-7d15-4dc9-9896-23aac89ffe0d" />
                </g>
                <g
                   id="id-6ba817d5-98a1-4340-b50a-33b3366a21d0" />
                <g
                   id="id-175402a0-5129-4738-adf2-13d98201730e">
                  <path
                     d="M 3.515625,-1.265625 H 3.28125 c -0.015625,0.15625 -0.09375,0.5625 -0.1875,0.625 C 3.046875,-0.59375 2.515625,-0.59375 2.40625,-0.59375 H 1.125 c 0.734375,-0.640625 0.984375,-0.84375 1.390625,-1.171875 0.515625,-0.40625 1,-0.84375 1,-1.5 0,-0.84375 -0.734375,-1.359375 -1.625,-1.359375 -0.859375,0 -1.453125,0.609375 -1.453125,1.25 0,0.34375 0.296875,0.390625 0.375,0.390625 0.15625,0 0.359375,-0.125 0.359375,-0.375 0,-0.125 -0.046875,-0.375 -0.40625,-0.375 C 0.984375,-4.21875 1.453125,-4.375 1.78125,-4.375 c 0.703125,0 1.0625,0.546875 1.0625,1.109375 0,0.609375 -0.4375,1.078125 -0.65625,1.328125 L 0.515625,-0.265625 C 0.4375,-0.203125 0.4375,-0.1875 0.4375,0 h 2.875 z m 0,0"
                     id="id-903b493f-4c44-41c7-a842-d956214a69fb" />
                </g>
              </g>
            </defs>
            <g
               fill="#000000"
               fill-opacity="1"
               id="id-45a44190-2813-4a66-a454-7ec5f8158e46"
               transform="translate(-299.671,-139.907)">
              <g
                 transform="translate(299.265,146.72)"
                 id="g1332">
                <path
                   d="m 1.578125,-0.78125 c -0.09375,0.390625 -0.109375,0.46875 -0.90625,0.46875 -0.15625,0 -0.265625,0 -0.265625,0.1875 C 0.40625,0 0.484375,0 0.671875,0 h 3.3125 c 2.0625,0 4.03125,-2.109375 4.03125,-4.28125 0,-1.40625 -0.84375,-2.53125 -2.34375,-2.53125 h -3.34375 c -0.1875,0 -0.296875,0 -0.296875,0.1875 0,0.125 0.078125,0.125 0.28125,0.125 0.125,0 0.3125,0.015625 0.421875,0.015625 0.171875,0.03125 0.21875,0.046875 0.21875,0.171875 0,0.03125 0,0.0625 -0.03125,0.1875 z M 3.734375,-6.125 C 3.828125,-6.46875 3.84375,-6.5 4.28125,-6.5 h 1.0625 c 0.96875,0 1.796875,0.53125 1.796875,1.84375 0,0.484375 -0.1875,2.125 -1.046875,3.21875 -0.28125,0.375 -1.0625,1.125 -2.296875,1.125 h -1.125 c -0.140625,0 -0.15625,0 -0.21875,0 -0.09375,-0.015625 -0.125,-0.03125 -0.125,-0.109375 0,-0.03125 0,-0.046875 0.046875,-0.21875 z m 0,0"
                   id="id-6baaf570-29fa-499a-b2fe-0956bbd8e295" />
              </g>
            </g>
            <g
               fill="#000000"
               fill-opacity="1"
               id="id-f0914269-a7f5-4408-9b79-7db75599e1d6"
               transform="translate(-299.671,-139.907)">
              <g
                 transform="translate(307.513,148.214)"
                 id="g1336">
                <path
                   d="M 3.515625,-1.265625 H 3.28125 c -0.015625,0.15625 -0.09375,0.5625 -0.1875,0.625 C 3.046875,-0.59375 2.515625,-0.59375 2.40625,-0.59375 H 1.125 c 0.734375,-0.640625 0.984375,-0.84375 1.390625,-1.171875 0.515625,-0.40625 1,-0.84375 1,-1.5 0,-0.84375 -0.734375,-1.359375 -1.625,-1.359375 -0.859375,0 -1.453125,0.609375 -1.453125,1.25 0,0.34375 0.296875,0.390625 0.375,0.390625 0.15625,0 0.359375,-0.125 0.359375,-0.375 0,-0.125 -0.046875,-0.375 -0.40625,-0.375 C 0.984375,-4.21875 1.453125,-4.375 1.78125,-4.375 c 0.703125,0 1.0625,0.546875 1.0625,1.109375 0,0.609375 -0.4375,1.078125 -0.65625,1.328125 L 0.515625,-0.265625 C 0.4375,-0.203125 0.4375,-0.1875 0.4375,0 h 2.875 z m 0,0"
                   id="id-4305608d-270c-4b24-928b-311b15b2ea87" />
              </g>
            </g>
          </g>
        </g>
        <g
           fill="#000000"
           fill-opacity="1"
           id="id-8c3188b6-dd66-4e24-9bd8-0ca4fbeb44db"
           transform="translate(-299.671,-139.907)">
          <g
             transform="translate(307.513,148.214)"
             id="g1252">
            <path
               d="m 2.328125,-4.4375 c 0,-0.1875 0,-0.1875 -0.203125,-0.1875 -0.453125,0.4375 -1.078125,0.4375 -1.359375,0.4375 v 0.25 c 0.15625,0 0.625,0 1,-0.1875 v 3.546875 c 0,0.234375 0,0.328125 -0.6875,0.328125 H 0.8125 V 0 c 0.125,0 0.984375,-0.03125 1.234375,-0.03125 0.21875,0 1.09375,0.03125 1.25,0.03125 V -0.25 H 3.03125 c -0.703125,0 -0.703125,-0.09375 -0.703125,-0.328125 z m 0,0"
               id="id-e33e9eb3-26c2-4c31-a1eb-2ea9f0c52b6b" />
          </g>
        </g>
      </g>
      <path
         style="font-variation-settings:normal;opacity:1;fill:#d6f9ff;fill-opacity:0.806028;stroke:#008bc9;stroke-width:0.05;stroke-linecap:round;stroke-linejoin:miter;stroke-miterlimit:4;stroke-dasharray:none;stroke-dashoffset:0;stroke-opacity:1;paint-order:fill markers stroke;stop-color:#000000;stop-opacity:1"
         d="m 100.25737,239.29899 h 1.36933"
         id="path1498" />
      <path
         style="font-variation-settings:normal;opacity:1;fill:#d6f9ff;fill-opacity:0.806028;stroke:#008bc9;stroke-width:0.05;stroke-linecap:round;stroke-linejoin:miter;stroke-miterlimit:4;stroke-dasharray:none;stroke-dashoffset:0;stroke-opacity:1;paint-order:fill markers stroke;stop-color:#000000;stop-opacity:1"
         d="m 100.25737,223.42389 h 1.36933"
         id="path1500" />
      <g
         transform="matrix(0.131909,0,0,0.131909,102.163,238.16)"
         ns2:version="1.8.2"
         ns2:texconverter="pdflatex"
         ns2:pdfconverter="inkscape"
         ns2:text="$$1$$"
         ns2:preamble=""
         ns2:scale="1.0"
         ns2:alignment="middle center"
         ns2:stroke-to-path="0"
         ns2:inkscapeversion="1.2.2"
         ns2:jacobian_sqrt="0.352778"
         id="g1593">
        <defs
           id="id-2fb12cd7-e573-4649-8204-f0b427d9237b">
          <g
             id="id-13e076ee-fd43-4082-b271-399d0c115225">
            <g
               id="id-37d312be-e0b6-49ca-9855-597a557da5bc" />
            <g
               id="id-2e465203-e54e-4aa0-bfd6-256705b8b945">
              <path
                 d="m 2.9375,-6.375 c 0,-0.25 0,-0.265625 -0.234375,-0.265625 C 2.078125,-6 1.203125,-6 0.890625,-6 v 0.3125 c 0.203125,0 0.78125,0 1.296875,-0.265625 v 5.171875 c 0,0.359375 -0.03125,0.46875 -0.921875,0.46875 h -0.3125 V 0 c 0.34375,-0.03125 1.203125,-0.03125 1.609375,-0.03125 0.390625,0 1.265625,0 1.609375,0.03125 v -0.3125 h -0.3125 c -0.90625,0 -0.921875,-0.109375 -0.921875,-0.46875 z m 0,0"
                 id="id-ec41ddbd-95ab-470f-bf50-4c8b1bb8c094" />
            </g>
          </g>
        </defs>
        <g
           fill="#000000"
           fill-opacity="1"
           id="id-64051fdb-60ca-4b31-8ccd-2040854fe17a"
           transform="translate(-304.024,-140.079)">
          <g
             transform="translate(303.133,146.72)"
             id="g1590">
            <path
               d="m 2.9375,-6.375 c 0,-0.25 0,-0.265625 -0.234375,-0.265625 C 2.078125,-6 1.203125,-6 0.890625,-6 v 0.3125 c 0.203125,0 0.78125,0 1.296875,-0.265625 v 5.171875 c 0,0.359375 -0.03125,0.46875 -0.921875,0.46875 h -0.3125 V 0 c 0.34375,-0.03125 1.203125,-0.03125 1.609375,-0.03125 0.390625,0 1.265625,0 1.609375,0.03125 v -0.3125 h -0.3125 c -0.90625,0 -0.921875,-0.109375 -0.921875,-0.46875 z m 0,0"
               id="id-39d56753-6408-4b70-8493-cd63b038f32b" />
          </g>
        </g>
      </g>
      <g
         transform="matrix(0.131909,0,0,0.131909,102.118,222.285)"
         ns2:version="1.8.2"
         ns2:texconverter="pdflatex"
         ns2:pdfconverter="inkscape"
         ns2:text="$$2$$"
         ns2:preamble=""
         ns2:scale="0.3739150400535181"
         ns2:alignment="middle center"
         ns2:stroke-to-path="0"
         ns2:inkscapeversion="1.2.2"
         ns2:jacobian_sqrt="0.131909"
         id="g1735">
        <defs
           id="id-fb1ab9e0-731e-454c-ac49-b61149068341">
          <g
             id="id-e0350749-2371-4aca-b6bf-e66a8376149d">
            <g
               id="id-da0a41b1-09e9-4761-bac7-975dffc7fbbe" />
            <g
               id="id-5845acf0-8767-44a7-9218-c45a1b05ad7b">
              <path
                 d="m 1.265625,-0.765625 1.0625,-1.03125 c 1.546875,-1.375 2.140625,-1.90625 2.140625,-2.90625 0,-1.140625 -0.890625,-1.9375 -2.109375,-1.9375 -1.125,0 -1.859375,0.921875 -1.859375,1.8125 0,0.546875 0.5,0.546875 0.53125,0.546875 0.171875,0 0.515625,-0.109375 0.515625,-0.53125 0,-0.25 -0.1875,-0.515625 -0.53125,-0.515625 -0.078125,0 -0.09375,0 -0.125,0.015625 0.21875,-0.65625 0.765625,-1.015625 1.34375,-1.015625 0.90625,0 1.328125,0.8125 1.328125,1.625 C 3.5625,-3.90625 3.078125,-3.125 2.515625,-2.5 l -1.90625,2.125 C 0.5,-0.265625 0.5,-0.234375 0.5,0 H 4.203125 L 4.46875,-1.734375 H 4.234375 C 4.171875,-1.4375 4.109375,-1 4,-0.84375 3.9375,-0.765625 3.28125,-0.765625 3.0625,-0.765625 Z m 0,0"
                 id="id-d98a3dba-f065-4f41-b6eb-4c5893ee0395" />
            </g>
          </g>
        </defs>
        <g
           fill="#000000"
           fill-opacity="1"
           id="id-3636536e-d935-4af4-88e4-4f6822adb228"
           transform="translate(-303.633,-140.079)">
          <g
             transform="translate(303.133,146.72)"
             id="g1852">
            <path
               d="m 1.265625,-0.765625 1.0625,-1.03125 c 1.546875,-1.375 2.140625,-1.90625 2.140625,-2.90625 0,-1.140625 -0.890625,-1.9375 -2.109375,-1.9375 -1.125,0 -1.859375,0.921875 -1.859375,1.8125 0,0.546875 0.5,0.546875 0.53125,0.546875 0.171875,0 0.515625,-0.109375 0.515625,-0.53125 0,-0.25 -0.1875,-0.515625 -0.53125,-0.515625 -0.078125,0 -0.09375,0 -0.125,0.015625 0.21875,-0.65625 0.765625,-1.015625 1.34375,-1.015625 0.90625,0 1.328125,0.8125 1.328125,1.625 C 3.5625,-3.90625 3.078125,-3.125 2.515625,-2.5 l -1.90625,2.125 C 0.5,-0.265625 0.5,-0.234375 0.5,0 H 4.203125 L 4.46875,-1.734375 H 4.234375 C 4.171875,-1.4375 4.109375,-1 4,-0.84375 3.9375,-0.765625 3.28125,-0.765625 3.0625,-0.765625 Z m 0,0"
               id="id-df68fd29-3d59-42e6-892c-aee114af1ac3" />
          </g>
        </g>
      </g>
      <circle
         id="path1868"
         style="fill:#008bc9;stroke:none;stroke-width:0.264583"
         cx="93.241272"
         cy="225.48349"
         r="0.075000003" />
      <circle
         id="path1870"
         style="fill:#004b6f;fill-opacity:1;stroke:none;stroke-width:0.329993;stroke-dasharray:none;stroke-opacity:1"
         cx="93.316269"
         cy="225.48349"
         r="0.14999695" />
      <circle
         id="circle1872"
         style="fill:#00070a;fill-opacity:1;stroke:none;stroke-width:0.329993;stroke-dasharray:none;stroke-opacity:1"
         cx="93.316269"
         cy="225.48349"
         r="0.14999695" />
      <circle
         id="circle1874"
         style="fill:#000000;fill-opacity:1;stroke:none;stroke-width:0.329993;stroke-dasharray:none;stroke-opacity:1"
         cx="93.316269"
         cy="241.35828"
         r="0.14999695" />
      <g
         transform="matrix(0.131909,0,0,0.131909,92.823168,242.15605)"
         ns2:version="1.8.2"
         ns2:texconverter="pdflatex"
         ns2:pdfconverter="inkscape"
         ns2:text="$$p$$"
         ns2:preamble=""
         ns2:scale="0.3739150400535181"
         ns2:alignment="middle center"
         ns2:stroke-to-path="0"
         ns2:inkscapeversion="1.2.2"
         ns2:jacobian_sqrt="0.131909"
         id="g2011">
        <defs
           id="id-a44ceba9-83be-441d-95cf-a1f14120263c">
          <g
             id="id-035d9b5e-d2fb-4fb8-9dfb-6064643b94b0">
            <g
               id="id-8d3397c1-ea93-4d37-82b8-a491536cdb75" />
            <g
               id="id-3f83d3e3-166c-43d5-87c3-2c13c13f2e41">
              <path
                 d="M 0.453125,1.21875 C 0.375,1.5625 0.34375,1.625 -0.09375,1.625 c -0.109375,0 -0.21875,0 -0.21875,0.1875 0,0.078125 0.046875,0.125 0.125,0.125 0.265625,0 0.5625,-0.03125 0.828125,-0.03125 0.34375,0 0.671875,0.03125 1,0.03125 0.046875,0 0.171875,0 0.171875,-0.203125 C 1.8125,1.625 1.71875,1.625 1.578125,1.625 c -0.5,0 -0.5,-0.0625 -0.5,-0.15625 0,-0.125 0.421875,-1.75 0.484375,-2 0.125,0.296875 0.40625,0.640625 0.921875,0.640625 1.15625,0 2.40625,-1.453125 2.40625,-2.921875 0,-0.9375 -0.578125,-1.59375 -1.328125,-1.59375 -0.5,0 -0.984375,0.359375 -1.3125,0.75 -0.09375,-0.546875 -0.53125,-0.75 -0.890625,-0.75 -0.46875,0 -0.65625,0.390625 -0.734375,0.5625 C 0.4375,-3.5 0.3125,-2.90625 0.3125,-2.875 c 0,0.109375 0.09375,0.109375 0.109375,0.109375 0.109375,0 0.109375,-0.015625 0.171875,-0.234375 0.171875,-0.703125 0.375,-1.1875 0.734375,-1.1875 0.171875,0 0.3125,0.078125 0.3125,0.453125 0,0.234375 -0.03125,0.34375 -0.078125,0.515625 z m 1.75,-4.328125 C 2.265625,-3.375 2.546875,-3.65625 2.71875,-3.8125 c 0.359375,-0.296875 0.640625,-0.375 0.8125,-0.375 0.390625,0 0.640625,0.34375 0.640625,0.9375 0,0.59375 -0.328125,1.734375 -0.515625,2.109375 -0.34375,0.703125 -0.8125,1.03125 -1.1875,1.03125 C 1.8125,-0.109375 1.6875,-0.9375 1.6875,-1 c 0,-0.015625 0,-0.03125 0.03125,-0.15625 z m 0,0"
                 id="id-aa2771c5-c85a-465d-b161-f84c2864cef4" />
            </g>
          </g>
        </defs>
        <g
           fill="#000000"
           fill-opacity="1"
           id="id-9a961c2b-4ed7-4ea5-90b0-b6eba674d959"
           transform="translate(-302.806,-142.314)">
          <g
             transform="translate(303.118,146.72)"
             id="g2008">
            <path
               d="M 0.453125,1.21875 C 0.375,1.5625 0.34375,1.625 -0.09375,1.625 c -0.109375,0 -0.21875,0 -0.21875,0.1875 0,0.078125 0.046875,0.125 0.125,0.125 0.265625,0 0.5625,-0.03125 0.828125,-0.03125 0.34375,0 0.671875,0.03125 1,0.03125 0.046875,0 0.171875,0 0.171875,-0.203125 C 1.8125,1.625 1.71875,1.625 1.578125,1.625 c -0.5,0 -0.5,-0.0625 -0.5,-0.15625 0,-0.125 0.421875,-1.75 0.484375,-2 0.125,0.296875 0.40625,0.640625 0.921875,0.640625 1.15625,0 2.40625,-1.453125 2.40625,-2.921875 0,-0.9375 -0.578125,-1.59375 -1.328125,-1.59375 -0.5,0 -0.984375,0.359375 -1.3125,0.75 -0.09375,-0.546875 -0.53125,-0.75 -0.890625,-0.75 -0.46875,0 -0.65625,0.390625 -0.734375,0.5625 C 0.4375,-3.5 0.3125,-2.90625 0.3125,-2.875 c 0,0.109375 0.09375,0.109375 0.109375,0.109375 0.109375,0 0.109375,-0.015625 0.171875,-0.234375 0.171875,-0.703125 0.375,-1.1875 0.734375,-1.1875 0.171875,0 0.3125,0.078125 0.3125,0.453125 0,0.234375 -0.03125,0.34375 -0.078125,0.515625 z m 1.75,-4.328125 C 2.265625,-3.375 2.546875,-3.65625 2.71875,-3.8125 c 0.359375,-0.296875 0.640625,-0.375 0.8125,-0.375 0.390625,0 0.640625,0.34375 0.640625,0.9375 0,0.59375 -0.328125,1.734375 -0.515625,2.109375 -0.34375,0.703125 -0.8125,1.03125 -1.1875,1.03125 C 1.8125,-0.109375 1.6875,-0.9375 1.6875,-1 c 0,-0.015625 0,-0.03125 0.03125,-0.15625 z m 0,0"
               id="id-eb7cc6b3-f524-444b-ab11-d3efa6389a2b" />
          </g>
        </g>
      </g>
      <g
         transform="matrix(0.131909,0,0,0.131909,92.823168,226.28095)"
         ns2:version="1.8.2"
         ns2:texconverter="pdflatex"
         ns2:pdfconverter="inkscape"
         ns2:text="$$p$$"
         ns2:preamble=""
         ns2:scale="0.3739150400535181"
         ns2:alignment="middle center"
         ns2:stroke-to-path="0"
         ns2:inkscapeversion="1.2.2"
         ns2:jacobian_sqrt="0.131909"
         id="g2041">
        <defs
           id="defs2033">
          <g
             id="g2031">
            <g
               id="g2025" />
            <g
               id="g2029">
              <path
                 d="M 0.453125,1.21875 C 0.375,1.5625 0.34375,1.625 -0.09375,1.625 c -0.109375,0 -0.21875,0 -0.21875,0.1875 0,0.078125 0.046875,0.125 0.125,0.125 0.265625,0 0.5625,-0.03125 0.828125,-0.03125 0.34375,0 0.671875,0.03125 1,0.03125 0.046875,0 0.171875,0 0.171875,-0.203125 C 1.8125,1.625 1.71875,1.625 1.578125,1.625 c -0.5,0 -0.5,-0.0625 -0.5,-0.15625 0,-0.125 0.421875,-1.75 0.484375,-2 0.125,0.296875 0.40625,0.640625 0.921875,0.640625 1.15625,0 2.40625,-1.453125 2.40625,-2.921875 0,-0.9375 -0.578125,-1.59375 -1.328125,-1.59375 -0.5,0 -0.984375,0.359375 -1.3125,0.75 -0.09375,-0.546875 -0.53125,-0.75 -0.890625,-0.75 -0.46875,0 -0.65625,0.390625 -0.734375,0.5625 C 0.4375,-3.5 0.3125,-2.90625 0.3125,-2.875 c 0,0.109375 0.09375,0.109375 0.109375,0.109375 0.109375,0 0.109375,-0.015625 0.171875,-0.234375 0.171875,-0.703125 0.375,-1.1875 0.734375,-1.1875 0.171875,0 0.3125,0.078125 0.3125,0.453125 0,0.234375 -0.03125,0.34375 -0.078125,0.515625 z m 1.75,-4.328125 C 2.265625,-3.375 2.546875,-3.65625 2.71875,-3.8125 c 0.359375,-0.296875 0.640625,-0.375 0.8125,-0.375 0.390625,0 0.640625,0.34375 0.640625,0.9375 0,0.59375 -0.328125,1.734375 -0.515625,2.109375 -0.34375,0.703125 -0.8125,1.03125 -1.1875,1.03125 C 1.8125,-0.109375 1.6875,-0.9375 1.6875,-1 c 0,-0.015625 0,-0.03125 0.03125,-0.15625 z m 0,0"
                 id="path2027" />
            </g>
          </g>
        </defs>
        <g
           fill="#000000"
           fill-opacity="1"
           id="g2039"
           transform="translate(-302.806,-142.314)">
          <g
             transform="translate(303.118,146.72)"
             id="g2037">
            <path
               d="M 0.453125,1.21875 C 0.375,1.5625 0.34375,1.625 -0.09375,1.625 c -0.109375,0 -0.21875,0 -0.21875,0.1875 0,0.078125 0.046875,0.125 0.125,0.125 0.265625,0 0.5625,-0.03125 0.828125,-0.03125 0.34375,0 0.671875,0.03125 1,0.03125 0.046875,0 0.171875,0 0.171875,-0.203125 C 1.8125,1.625 1.71875,1.625 1.578125,1.625 c -0.5,0 -0.5,-0.0625 -0.5,-0.15625 0,-0.125 0.421875,-1.75 0.484375,-2 0.125,0.296875 0.40625,0.640625 0.921875,0.640625 1.15625,0 2.40625,-1.453125 2.40625,-2.921875 0,-0.9375 -0.578125,-1.59375 -1.328125,-1.59375 -0.5,0 -0.984375,0.359375 -1.3125,0.75 -0.09375,-0.546875 -0.53125,-0.75 -0.890625,-0.75 -0.46875,0 -0.65625,0.390625 -0.734375,0.5625 C 0.4375,-3.5 0.3125,-2.90625 0.3125,-2.875 c 0,0.109375 0.09375,0.109375 0.109375,0.109375 0.109375,0 0.109375,-0.015625 0.171875,-0.234375 0.171875,-0.703125 0.375,-1.1875 0.734375,-1.1875 0.171875,0 0.3125,0.078125 0.3125,0.453125 0,0.234375 -0.03125,0.34375 -0.078125,0.515625 z m 1.75,-4.328125 C 2.265625,-3.375 2.546875,-3.65625 2.71875,-3.8125 c 0.359375,-0.296875 0.640625,-0.375 0.8125,-0.375 0.390625,0 0.640625,0.34375 0.640625,0.9375 0,0.59375 -0.328125,1.734375 -0.515625,2.109375 -0.34375,0.703125 -0.8125,1.03125 -1.1875,1.03125 C 1.8125,-0.109375 1.6875,-0.9375 1.6875,-1 c 0,-0.015625 0,-0.03125 0.03125,-0.15625 z m 0,0"
               id="path2035" />
          </g>
        </g>
      </g>
      <path
         style="fill:#000000;fill-opacity:0;stroke:#008bc9;stroke-width:0.1;stroke-linecap:round;stroke-dasharray:none;stroke-opacity:1;marker-start:url(#Arrow1);marker-end:url(#marker9159);paint-order:fill markers stroke;stop-color:#000000"
         d="m 93.31627,227.49281 v 1.72288 9.59582 1.6123"
         id="path5337" />
      <circle
         id="path9358"
         style="font-variation-settings:normal;opacity:1;vector-effect:none;fill:#ff2727;fill-opacity:1;stroke:none;stroke-width:0.329993;stroke-linecap:butt;stroke-linejoin:miter;stroke-miterlimit:4;stroke-dasharray:none;stroke-dashoffset:0;stroke-opacity:1;-inkscape-stroke:none;stop-color:#000000;stop-opacity:1"
         cx="109.87175"
         cy="225.27272"
         r="0.14999999" />
      <g
         transform="matrix(0.08314506,0,0,0.08314506,110.57286,225.31272)"
         ns2:version="1.8.2"
         ns2:texconverter="pdflatex"
         ns2:pdfconverter="inkscape"
         ns2:text="$$h(p)$$"
         ns2:preamble=""
         ns2:scale="0.3739150400535181"
         ns2:alignment="middle center"
         ns2:stroke-to-path="0"
         ns2:inkscapeversion="1.2.2"
         ns2:jacobian_sqrt="0.131909"
         id="g9594"
         style="fill:#ff0000;stroke-width:1.58759;stroke-dasharray:none">
        <defs
           id="id-5b052271-5d40-45bf-b5ef-2044a04640d3">
          <g
             id="id-eb5fcf4b-38e2-41f4-bbc8-1355a2d8b422">
            <g
               id="id-e522beb7-16fd-4e8c-9b74-8ff612d59234" />
            <g
               id="id-83bf75e3-1b32-4ffd-8d0f-60ffa67d6c98">
              <path
                 d="m 2.859375,-6.8125 c 0,0 0,-0.109375 -0.125,-0.109375 -0.234375,0 -0.953125,0.078125 -1.21875,0.109375 -0.078125,0 -0.1875,0.015625 -0.1875,0.1875 0,0.125 0.09375,0.125 0.234375,0.125 0.484375,0 0.5,0.0625 0.5,0.171875 L 2.03125,-6.125 0.59375,-0.390625 c -0.046875,0.140625 -0.046875,0.15625 -0.046875,0.21875 0,0.234375 0.203125,0.28125 0.296875,0.28125 0.15625,0 0.3125,-0.125 0.359375,-0.265625 l 0.1875,-0.75 0.21875,-0.890625 C 1.671875,-2.03125 1.734375,-2.25 1.78125,-2.46875 1.796875,-2.53125 1.890625,-2.859375 1.890625,-2.921875 1.921875,-3.015625 2.234375,-3.5625 2.578125,-3.84375 2.796875,-4 3.09375,-4.1875 3.53125,-4.1875 c 0.421875,0 0.53125,0.34375 0.53125,0.703125 0,0.53125 -0.375,1.625 -0.609375,2.234375 C 3.375,-1.03125 3.3125,-0.90625 3.3125,-0.703125 c 0,0.46875 0.359375,0.8125 0.828125,0.8125 0.9375,0 1.296875,-1.453125 1.296875,-1.53125 0,-0.109375 -0.078125,-0.109375 -0.109375,-0.109375 -0.109375,0 -0.109375,0.03125 -0.15625,0.1875 -0.140625,0.53125 -0.46875,1.234375 -1.015625,1.234375 -0.171875,0 -0.234375,-0.09375 -0.234375,-0.328125 0,-0.25 0.078125,-0.484375 0.171875,-0.703125 0.15625,-0.4375 0.609375,-1.625 0.609375,-2.203125 0,-0.640625 -0.390625,-1.0625 -1.140625,-1.0625 -0.625,0 -1.109375,0.3125 -1.484375,0.765625 z m 0,0"
                 id="id-34591279-1f7c-4606-8ff6-30554b4731f3" />
            </g>
            <g
               id="id-92a9e622-d870-447f-9acb-83beb4f253be">
              <path
                 d="M 0.453125,1.21875 C 0.375,1.5625 0.34375,1.625 -0.09375,1.625 c -0.109375,0 -0.21875,0 -0.21875,0.1875 0,0.078125 0.046875,0.125 0.125,0.125 0.265625,0 0.5625,-0.03125 0.828125,-0.03125 0.34375,0 0.671875,0.03125 1,0.03125 0.046875,0 0.171875,0 0.171875,-0.203125 C 1.8125,1.625 1.71875,1.625 1.578125,1.625 c -0.5,0 -0.5,-0.0625 -0.5,-0.15625 0,-0.125 0.421875,-1.75 0.484375,-2 0.125,0.296875 0.40625,0.640625 0.921875,0.640625 1.15625,0 2.40625,-1.453125 2.40625,-2.921875 0,-0.9375 -0.578125,-1.59375 -1.328125,-1.59375 -0.5,0 -0.984375,0.359375 -1.3125,0.75 -0.09375,-0.546875 -0.53125,-0.75 -0.890625,-0.75 -0.46875,0 -0.65625,0.390625 -0.734375,0.5625 C 0.4375,-3.5 0.3125,-2.90625 0.3125,-2.875 c 0,0.109375 0.09375,0.109375 0.109375,0.109375 0.109375,0 0.109375,-0.015625 0.171875,-0.234375 0.171875,-0.703125 0.375,-1.1875 0.734375,-1.1875 0.171875,0 0.3125,0.078125 0.3125,0.453125 0,0.234375 -0.03125,0.34375 -0.078125,0.515625 z m 1.75,-4.328125 C 2.265625,-3.375 2.546875,-3.65625 2.71875,-3.8125 c 0.359375,-0.296875 0.640625,-0.375 0.8125,-0.375 0.390625,0 0.640625,0.34375 0.640625,0.9375 0,0.59375 -0.328125,1.734375 -0.515625,2.109375 -0.34375,0.703125 -0.8125,1.03125 -1.1875,1.03125 C 1.8125,-0.109375 1.6875,-0.9375 1.6875,-1 c 0,-0.015625 0,-0.03125 0.03125,-0.15625 z m 0,0"
                 id="id-68191d1e-e8fe-41b7-9e0a-4712cd27aa7d" />
            </g>
            <g
               id="id-707c98e0-27c9-4616-9fc8-d2c0c2e100bb" />
            <g
               id="id-15987bbb-0f68-42e4-9e53-66f95c04d86f">
              <path
                 d="m 3.296875,2.390625 c 0,-0.03125 0,-0.046875 -0.171875,-0.21875 C 1.890625,0.921875 1.5625,-0.96875 1.5625,-2.5 c 0,-1.734375 0.375,-3.46875 1.609375,-4.703125 0.125,-0.125 0.125,-0.140625 0.125,-0.171875 0,-0.078125 -0.03125,-0.109375 -0.09375,-0.109375 -0.109375,0 -1,0.6875 -1.59375,1.953125 -0.5,1.09375 -0.625,2.203125 -0.625,3.03125 0,0.78125 0.109375,1.984375 0.65625,3.125 C 2.25,1.84375 3.09375,2.5 3.203125,2.5 c 0.0625,0 0.09375,-0.03125 0.09375,-0.109375 z m 0,0"
                 id="id-9fefba03-e43d-45bb-a958-63311d80b322" />
            </g>
            <g
               id="id-bb54adac-5a61-4bab-8228-4700b62e37c2">
              <path
                 d="m 2.875,-2.5 c 0,-0.765625 -0.109375,-1.96875 -0.65625,-3.109375 -0.59375,-1.21875 -1.453125,-1.875 -1.546875,-1.875 -0.0625,0 -0.109375,0.046875 -0.109375,0.109375 0,0.03125 0,0.046875 0.1875,0.234375 0.984375,0.984375 1.546875,2.5625 1.546875,4.640625 0,1.71875 -0.359375,3.46875 -1.59375,4.71875 C 0.5625,2.34375 0.5625,2.359375 0.5625,2.390625 0.5625,2.453125 0.609375,2.5 0.671875,2.5 0.765625,2.5 1.671875,1.8125 2.25,0.546875 2.765625,-0.546875 2.875,-1.65625 2.875,-2.5 Z m 0,0"
                 id="id-a5e83f1f-b702-4ba9-b8e0-21af84cfccd6" />
            </g>
          </g>
        </defs>
        <g
           fill="#000000"
           fill-opacity="1"
           id="id-516abfc5-a055-4749-923a-a2782306441d"
           transform="translate(-296.92,-139.236)"
           style="fill:#ff0000;stroke-width:1.58759;stroke-dasharray:none">
          <g
             transform="translate(296.373,146.72)"
             id="g9579"
             style="fill:#ff0000;stroke-width:1.58759;stroke-dasharray:none" />
        </g>
        <g
           fill="#000000"
           fill-opacity="1"
           id="id-1759c2c3-bb04-45ec-8120-9a218800884a"
           transform="translate(-296.92,-139.236)"
           style="fill:#ff0000;stroke-width:1.58759;stroke-dasharray:none">
          <g
             transform="translate(302.113,146.72)"
             id="g9583"
             style="fill:#ff0000;stroke-width:1.58759;stroke-dasharray:none" />
        </g>
        <g
           fill="#000000"
           fill-opacity="1"
           id="id-9616b9c0-7d89-416a-94a9-0862612c087b"
           transform="translate(-296.92,-139.236)"
           style="fill:#ff0000;stroke-width:1.58759;stroke-dasharray:none">
          <g
             transform="translate(305.988,146.72)"
             id="g9587"
             style="fill:#ff0000;stroke-width:1.58759;stroke-dasharray:none" />
        </g>
        <g
           fill="#000000"
           fill-opacity="1"
           id="id-93d3f7ba-f376-449d-8ed8-448df961f216"
           transform="translate(-296.92,-139.236)"
           style="fill:#ff0000;stroke-width:1.58759;stroke-dasharray:none">
          <g
             transform="translate(311,146.72)"
             id="g9591"
             style="fill:#ff0000;stroke-width:1.58759;stroke-dasharray:none">
            <g
               id="g12316"
               transform="matrix(1.4317211,0,0,1.4317211,6.0786883,-1.0793027)">
              <path
                 d="m -15.105853,-3.4742751 c 0,0 0,-0.109375 -0.125,-0.109375 -0.234375,0 -0.953125,0.078125 -1.21875,0.109375 -0.07813,0 -0.1875,0.015625 -0.1875,0.1875 0,0.125 0.09375,0.125 0.234375,0.125 0.484375,0 0.5,0.0625 0.5,0.171875 l -0.03125,0.203125 -1.4375,5.734375 c -0.04687,0.140625 -0.04687,0.15625 -0.04687,0.21875 0,0.234375 0.203125,0.28125 0.296875,0.28125 0.15625,0 0.3125,-0.125 0.359375,-0.265625 l 0.1875,-0.75 0.21875,-0.890625 c 0.0625,-0.234375 0.125,-0.453125 0.171875,-0.67187496 0.01563,-0.0625 0.109375,-0.390625 0.109375,-0.453125 0.03125,-0.09375 0.34375,-0.640625 0.6875,-0.921875 0.21875,-0.15625 0.515625,-0.34375 0.953125,-0.34375 0.421875,0 0.53125,0.34375 0.53125,0.703125 0,0.53125 -0.375,1.62499996 -0.609375,2.23437496 -0.07813,0.21875 -0.140625,0.34375 -0.140625,0.546875 0,0.46875 0.359375,0.8125 0.828125,0.8125 0.9375,0 1.296875,-1.453125 1.296875,-1.53125 0,-0.109375 -0.07813,-0.109375 -0.109375,-0.109375 -0.109375,0 -0.109375,0.03125 -0.15625,0.1875 -0.140625,0.53125 -0.46875,1.234375 -1.015625,1.234375 -0.171875,0 -0.234375,-0.09375 -0.234375,-0.328125 0,-0.25 0.07813,-0.484375 0.171875,-0.703125 0.15625,-0.4375 0.609375,-1.62499996 0.609375,-2.20312496 0,-0.640625 -0.390625,-1.06250004 -1.140625,-1.06250004 -0.625,0 -1.109375,0.31250004 -1.484375,0.76562504 z m 0,0"
                 id="id-bbf95174-e7f3-429d-8654-ff00a9e73514"
                 style="fill:#ff0000;stroke-width:1.58759;stroke-dasharray:none" />
              <path
                 d="m -8.9283563,5.7288499 c 0,-0.03125 0,-0.046875 -0.171875,-0.21875 -1.2343747,-1.25 -1.5624997,-3.140625 -1.5624997,-4.67187496 0,-1.734375 0.375,-3.46875004 1.6093747,-4.70312504 0.125,-0.125 0.125,-0.140625 0.125,-0.171875 0,-0.078125 -0.03125,-0.109375 -0.09375,-0.109375 -0.109375,0 -0.9999997,0.6875 -1.5937497,1.953125 -0.5,1.09375 -0.625,2.20312504 -0.625,3.03125004 0,0.78124996 0.109375,1.98437496 0.65625,3.12499996 0.6093747,1.21875 1.4531247,1.875 1.5624997,1.875 0.0625,0 0.09375,-0.03125 0.09375,-0.109375 z m 0,0"
                 id="id-2b74e61c-77c4-4652-a6c9-c439a085c8a6"
                 style="fill:#ff0000;stroke-width:1.58759;stroke-dasharray:none" />
              <path
                 d="m -7.8971064,4.5569749 c -0.078125,0.34375 -0.109375,0.40625 -0.546875,0.40625 -0.109375,0 -0.21875,0 -0.21875,0.1875 0,0.078125 0.046875,0.125 0.125,0.125 0.265625,0 0.5625,-0.03125 0.828125,-0.03125 0.34375,0 0.671875,0.03125 1,0.03125 0.046875,0 0.171875,0 0.171875,-0.203125 0,-0.109375 -0.09375,-0.109375 -0.234375,-0.109375 -0.5,0 -0.5,-0.0625 -0.5,-0.15625 0,-0.125 0.421875,-1.75 0.484375,-2 0.125,0.296875 0.40625,0.640625 0.921875,0.640625 1.15625,0 2.40625,-1.453125 2.40625,-2.92187496 0,-0.9375 -0.578125,-1.59375004 -1.328125,-1.59375004 -0.5,0 -0.984375,0.35937504 -1.3125,0.75000004 -0.09375,-0.546875 -0.53125,-0.75000004 -0.890625,-0.75000004 -0.46875,0 -0.65625,0.39062504 -0.734375,0.56250004 -0.1875,0.34375 -0.3125,0.9375 -0.3125,0.96875 0,0.109375 0.09375,0.109375 0.109375,0.109375 0.109375,0 0.109375,-0.015625 0.171875,-0.234375 0.171875,-0.703125 0.375,-1.1875 0.734375,-1.1875 0.171875,0 0.3125,0.078125 0.3125,0.453125 0,0.234375 -0.03125,0.34375 -0.078125,0.515625 z m 1.75,-4.32812496 c 0.0625,-0.265625 0.34375,-0.546875 0.515625,-0.703125 0.359375,-0.296875 0.640625,-0.375 0.8125,-0.375 0.390625,0 0.640625,0.34375 0.640625,0.9375 0,0.59375 -0.328125,1.73437496 -0.515625,2.10937496 -0.34375,0.703125 -0.8125,1.03125 -1.1875,1.03125 -0.65625,0 -0.78125,-0.828125 -0.78125,-0.890625 0,-0.015625 0,-0.03125 0.03125,-0.15625 z m 0,0"
                 id="id-df17ef78-0bfa-4edd-8701-e4e4d8b058d5"
                 style="fill:#ff0000;stroke-width:1.58759;stroke-dasharray:none" />
              <path
                 d="m -0.46322494,0.83822494 c 0,-0.765625 -0.109375,-1.96875004 -0.65624996,-3.10937504 -0.59375,-1.21875 -1.453125,-1.875 -1.546875,-1.875 -0.0625,0 -0.109375,0.046875 -0.109375,0.109375 0,0.03125 0,0.046875 0.1875,0.234375 0.984375,0.984375 1.546875,2.5625 1.546875,4.64062504 0,1.71874996 -0.359375,3.46874996 -1.59375,4.71874996 -0.140625,0.125 -0.140625,0.140625 -0.140625,0.171875 0,0.0625 0.046875,0.109375 0.109375,0.109375 0.09375,0 1,-0.6875 1.578125,-1.953125 0.51562496,-1.09375 0.62499996,-2.203125 0.62499996,-3.04687496 z m 0,0"
                 id="id-0a229063-abf2-44b6-8713-db3d2682a5fa"
                 style="fill:#ff0000;stroke-width:1.58759;stroke-dasharray:none" />
            </g>
          </g>
        </g>
      </g>
      <path
         style="font-variation-settings:normal;opacity:1;fill:none;fill-opacity:1;stroke:#ff0000;stroke-width:0.1;stroke-linecap:butt;stroke-linejoin:miter;stroke-miterlimit:4;stroke-dasharray:none;stroke-dashoffset:0;stroke-opacity:1;marker-start:url(#marker10203);marker-end:url(#marker10267);paint-order:fill markers stroke;stop-color:#000000;stop-opacity:1"
         d="m 94.468224,240.51952 c 4.160173,-8.25032 11.081666,-8.94242 11.081666,-8.94242 0,0 4.19674,-0.24163 4.47186,-2.0644 0.27512,-1.82276 0.27512,-2.81339 0.27512,-2.81339"
         id="path10199" />
    </g>
  </g>
</svg>
