<?xml version="1.0" encoding="UTF-8" standalone="no"?>
<!-- Created with Inkscape (http://www.inkscape.org/) -->

<svg
   width="240mm"
   height="120mm"
   viewBox="0 0 240 120"
   version="1.1"
   id="svg8"
   inkscape:version="1.2.2 (b0a8486541, 2022-12-01)"
   sodipodi:docname="definición-topología-relativa..svg"
   xmlns:inkscape="http://www.inkscape.org/namespaces/inkscape"
   xmlns:sodipodi="http://sodipodi.sourceforge.net/DTD/sodipodi-0.dtd"
   xmlns="http://www.w3.org/2000/svg"
   xmlns:svg="http://www.w3.org/2000/svg"
   xmlns:rdf="http://www.w3.org/1999/02/22-rdf-syntax-ns#"
   xmlns:cc="http://creativecommons.org/ns#"
   xmlns:dc="http://purl.org/dc/elements/1.1/"
   xmlns:ns3="http://www.iki.fi/pav/software/textext/">
  <defs
     id="defs2">
    <inkscape:path-effect
       effect="taper_stroke"
       id="path-effect24332"
       is_visible="true"
       lpeversion="1"
       stroke_width="0.264999"
       attach_start="0.2"
       end_offset="0.2"
       start_smoothing="0.5"
       end_smoothing="0.5"
       jointype="extrapolated"
       start_shape="center"
       end_shape="center"
       miter_limit="100" />
    <inkscape:path-effect
       effect="taper_stroke"
       id="path-effect24200"
       is_visible="true"
       lpeversion="1"
       stroke_width="0.264999"
       attach_start="0.2"
       end_offset="0.2"
       start_smoothing="0.5"
       end_smoothing="0.5"
       jointype="extrapolated"
       start_shape="center"
       end_shape="center"
       miter_limit="100" />
    <clipPath
       clipPathUnits="userSpaceOnUse"
       id="clipPath22732">
      <path
         id="path22734"
         style="fill:#ff0000;fill-opacity:1;fill-rule:nonzero;stroke:none;stroke-width:0.264583"
         d="M 66.709105,32.802131 V 75.859452 H 165.63382 V 32.802131 h -2.02107 c 0.27474,1.357078 0.48444,2.726902 0.65991,4.100526 0.22706,1.894681 0.36528,3.799044 0.51676,5.700943 0.0684,0.495625 0.0812,0.99645 0.13436,1.493451 0.022,0.206066 0.058,0.410271 0.0832,0.615982 0.0553,0.451583 0.0446,0.629491 0.16537,1.06195 0.0378,0.135263 0.097,0.26362 0.14572,0.395325 0.0313,0.08454 -0.0705,0.112844 -0.0873,0.02429 -0.0263,-0.137956 -0.0414,-0.278664 -0.0791,-0.413927 -0.1958,-0.702077 -0.17329,-0.2886 -0.32453,-1.043347 -0.0409,-0.204071 -0.0534,-0.412658 -0.0837,-0.618567 -0.17271,-1.173459 -0.0674,-0.252661 -0.18758,-1.493451 -0.19703,-1.894756 -0.30879,-3.798036 -0.54261,-5.689058 -0.17965,-1.38484 -0.39104,-2.766131 -0.67024,-4.134115 h -9.7963 c 0.0492,0.146376 0.0985,0.292706 0.14728,0.439251 0.77174,2.461628 1.54387,4.922769 2.36471,7.368543 0.80919,2.366203 1.66196,4.717095 2.45308,7.089489 0.4542,1.355871 0.86832,2.725018 1.22267,4.110342 0.17521,0.718206 0.3494,1.436568 0.5364,2.151808 0.058,0.226206 0.12419,0.450316 0.21239,0.666626 0.0373,0.0807 0.0727,0.161981 0.10593,0.24443 0.0273,0.07081 0.0408,0.14523 0.0656,0.21704 0.0245,0.06598 0.0634,0.130765 0.0496,0.200504 0.0332,0.04668 0.0696,0.07006 0.12093,0.09354 0.0186,0.0086 0.01,0.02782 -0.009,0.01913 -0.0528,-0.02431 -0.11734,-0.03314 -0.15244,-0.08217 -0.0786,-0.03033 -0.11497,-0.100719 -0.14677,-0.179319 -0.0278,-0.06955 -0.0427,-0.142298 -0.0682,-0.212389 -0.0328,-0.08169 -0.0686,-0.162353 -0.10542,-0.242363 -0.0961,-0.220851 -0.16592,-0.451112 -0.22582,-0.684194 -0.19278,-0.714214 -0.36229,-1.434804 -0.54002,-2.152841 -0.35399,-1.381485 -0.76759,-2.746187 -1.22215,-4.097943 -0.79224,-2.371876 -1.64486,-4.722617 -2.45618,-7.087939 -0.82653,-2.444806 -1.59537,-4.907907 -2.3549,-7.374226 -0.0507,-0.162769 -0.10305,-0.32498 -0.15503,-0.48731 h -0.54725 c 0.0829,0.177814 0.16657,0.354788 0.24805,0.531236 0.47205,1.005798 0.91395,2.026957 1.2609,3.083531 0.0901,0.274405 0.16965,0.552752 0.25425,0.828892 0.6022,2.102289 1.02969,4.250095 1.50275,6.384105 0.39667,1.807967 0.84722,3.603117 1.32188,5.39192 0.13646,0.371853 0.2129,0.761169 0.33073,1.13843 0.0483,0.154737 0.11045,0.304586 0.16175,0.45837 0.0457,0.137234 0.0768,0.279601 0.12919,0.414446 0.0449,0.115615 0.10827,0.223705 0.16227,0.33538 0.009,0.0186 -0.0101,0.02742 -0.0191,0.0088 -0.0541,-0.111951 -0.10467,-0.225722 -0.16227,-0.335897 -0.0682,-0.130376 -0.15497,-0.251148 -0.21497,-0.385506 -0.0663,-0.148643 -0.10547,-0.307903 -0.16227,-0.460438 -0.33446,-0.897851 -0.0937,-0.156279 -0.38705,-1.127062 -0.54787,-1.771922 -0.9499,-3.585713 -1.37098,-5.390885 -0.48716,-2.124866 -0.91648,-4.266327 -1.51929,-6.362404 -0.40729,-1.329981 -0.88833,-2.633959 -1.4981,-3.886068 -0.0931,-0.208711 -0.18925,-0.417195 -0.28422,-0.626835 z" />
    </clipPath>
    <clipPath
       clipPathUnits="userSpaceOnUse"
       id="clipPath24210">
      <path
         id="path24212"
         style="fill:#ff0000;fill-opacity:1;fill-rule:nonzero;stroke:none;stroke-width:0.264583"
         d="m 66.709105,209.80213 v 43.05732 h 98.924715 v -43.05732 h -11.51403 c 1.0469,1.96935 1.9606,4.01 2.87941,6.04098 1.08551,2.41228 2.17433,4.82618 3.11506,7.29981 0.17084,0.44922 0.32769,0.90362 0.49144,1.35547 0.51699,1.48494 0.36334,0.99662 0.82011,2.49649 0.11559,0.37961 0.24688,0.75515 0.34158,1.1405 0.0948,0.38556 0.14224,0.78139 0.22634,1.16944 0.0763,0.3524 0.16976,0.70119 0.25476,1.05161 0.005,0.0201 -0.0152,0.025 -0.0202,0.005 -0.42437,-1.75019 -0.0563,-0.36324 -0.63045,-2.17454 -0.38333,-1.20942 -0.72038,-2.43458 -1.17616,-3.62045 -0.16572,-0.44906 -0.32566,-0.90032 -0.49712,-1.34721 -0.94681,-2.46766 -2.05215,-4.87091 -3.1347,-7.28069 -0.94393,-2.06008 -1.86898,-4.1364 -2.93729,-6.13606 z m 84.956575,10.68772 c 0.0437,0 0.0868,0.0431 0.0853,0.12971 -0.005,0.29429 0.056,0.58438 0.13591,0.8661 0.0769,0.30329 0.25265,0.5605 0.41807,0.82062 0.19715,0.3037 0.40293,0.60695 0.53536,0.94516 0.0889,0.14689 0.17013,0.2907 0.27802,0.42426 0.013,0.0161 -0.004,0.029 -0.0165,0.0129 -0.10811,-0.13387 -0.23838,-0.24747 -0.31678,-0.40307 -0.23842,-0.27001 -0.399,-0.60155 -0.62167,-0.88574 -0.18609,-0.26896 -0.36267,-0.5457 -0.44597,-0.86609 -0.0832,-0.29752 -0.14659,-0.60359 -0.14159,-0.91416 0.002,-0.0866 0.0462,-0.12971 0.0899,-0.12971 z" />
    </clipPath>
  </defs>
  <sodipodi:namedview
     id="base"
     pagecolor="#ffffff"
     bordercolor="#666666"
     borderopacity="1.0"
     inkscape:pageopacity="0.0"
     inkscape:pageshadow="2"
     inkscape:zoom="1.4948428"
     inkscape:cx="493.02845"
     inkscape:cy="241.83146"
     inkscape:document-units="mm"
     inkscape:current-layer="g34340"
     showgrid="false"
     showborder="true"
     width="200mm"
     showguides="true"
     inkscape:guide-bbox="true"
     inkscape:window-width="1920"
     inkscape:window-height="1050"
     inkscape:window-x="0"
     inkscape:window-y="0"
     inkscape:window-maximized="1"
     inkscape:showpageshadow="2"
     inkscape:pagecheckerboard="0"
     inkscape:deskcolor="#d1d1d1">
    <inkscape:grid
       type="xygrid"
       id="grid815"
       units="mm"
       spacingx="10"
       spacingy="10"
       empspacing="4"
       dotted="false" />
  </sodipodi:namedview>
  <metadata
     id="metadata5">
    <rdf:RDF>
      <cc:Work
         rdf:about="">
        <dc:format>image/svg+xml</dc:format>
        <dc:type
           rdf:resource="http://purl.org/dc/dcmitype/StillImage" />
        <dc:title />
      </cc:Work>
    </rdf:RDF>
  </metadata>
  <g
     inkscape:label="Layer 1"
     inkscape:groupmode="layer"
     id="layer1"
     transform="translate(0, -177)">
    <g
       transform="matrix(0.352778 0 0 0.352778 73.6903 218.426)"
       ns3:version="1.8.2"
       ns3:texconverter="pdflatex"
       ns3:pdfconverter="inkscape"
       ns3:text="$$\\textit{Abierto en } Y$$"
       ns3:preamble=""
       ns3:scale="1.0"
       ns3:alignment="middle center"
       ns3:stroke-to-path="0"
       ns3:inkscapeversion="1.2.2"
       ns3:jacobian_sqrt="0.352778"
       id="g34340">
      <defs
         id="id-3fe62d12-c97a-4847-8092-427fd89649a6">
        <g
           id="id-283fd7f5-6152-4081-94b1-5d9227c64908">
          <g
             id="id-95ff503d-b6cb-4a6a-8165-f4dd9748da5c" />
          <g
             id="id-41823f44-bd2e-4e47-a85f-d4914426b17e">
            <path
               d="M 1.90625,-1.125 C 1.484375,-0.375 1.0625,-0.328125 0.703125,-0.3125 0.59375,-0.296875 0.59375,-0.125 0.59375,-0.125 c 0,0.03125 0,0.125 0.109375,0.125 C 0.953125,0 1.25,-0.03125 1.5,-0.03125 1.8125,-0.03125 2.140625,0 2.4375,0 c 0.046875,0 0.171875,0 0.171875,-0.1875 0,-0.109375 -0.078125,-0.109375 -0.15625,-0.125 -0.0625,0 -0.421875,-0.03125 -0.421875,-0.328125 0,-0.09375 0.046875,-0.21875 0.140625,-0.390625 l 0.71875,-1.25 H 5.15625 l 0.125,1.65625 c 0,0.203125 -0.25,0.3125 -0.671875,0.3125 C 4.5,-0.3125 4.375,-0.3125 4.375,-0.125 4.375,0 4.5,0 4.53125,0 4.890625,0 5.296875,-0.03125 5.671875,-0.03125 6.015625,-0.03125 6.375,0 6.71875,0 6.78125,0 6.890625,0 6.890625,-0.171875 6.890625,-0.3125 6.8125,-0.3125 6.65625,-0.3125 c -0.515625,0 -0.546875,-0.078125 -0.5625,-0.328125 l -0.4375,-6.25 c 0,-0.21875 -0.015625,-0.25 -0.171875,-0.25 -0.15625,0 -0.203125,0.078125 -0.265625,0.1875 z m 3.015625,-4.734375 0.21875,3.265625 H 3.0625 Z m 0,0"
               id="id-1de2fa69-5147-41e7-b0c2-e5207bd4aa47" />
          </g>
          <g
             id="id-ee9616c0-eca3-4cb6-ba71-293ff05d8286">
            <path
               d="m 3.015625,-6.671875 c 0.015625,-0.03125 0.03125,-0.109375 0.03125,-0.125 0,-0.09375 -0.0625,-0.125 -0.140625,-0.125 -0.03125,0 -0.125,0.015625 -0.15625,0.03125 L 1.765625,-6.8125 c -0.125,0 -0.234375,0.015625 -0.234375,0.203125 0,0.109375 0.109375,0.109375 0.25,0.109375 0.46875,0 0.484375,0.0625 0.484375,0.171875 0,0.03125 -0.015625,0.15625 -0.015625,0.171875 l -1,3.9375 c 0,0.03125 -0.109375,0.4375 -0.109375,0.8125 0,0.84375 0.421875,1.515625 1.15625,1.515625 1.109375,0 2.28125,-1.5 2.28125,-2.953125 0,-1.078125 -0.59375,-1.5625 -1.203125,-1.5625 -0.375,0 -0.71875,0.203125 -1.046875,0.53125 z m -0.71875,6.5625 c -0.25,0 -0.578125,-0.203125 -0.578125,-0.953125 0,-0.4375 0.078125,-0.796875 0.375,-1.921875 0.0625,-0.25 0.0625,-0.265625 0.21875,-0.46875 C 2.609375,-3.84375 2.984375,-4.1875 3.359375,-4.1875 c 0.453125,0 0.546875,0.5625 0.546875,0.890625 0,0.421875 -0.265625,1.609375 -0.5625,2.234375 -0.109375,0.25 -0.546875,0.953125 -1.046875,0.953125 z m 0,0"
               id="id-b46c6b0f-fb2d-4113-9a34-f7f013f2e9c6" />
          </g>
          <g
             id="id-33659068-a0ef-41cf-9944-4e38dc94c5e0">
            <path
               d="m 3.296875,-1.421875 c 0,-0.109375 -0.078125,-0.109375 -0.140625,-0.109375 -0.140625,0 -0.140625,0.03125 -0.171875,0.171875 -0.078125,0.296875 -0.359375,1.25 -0.9375,1.25 -0.078125,0 -0.21875,-0.015625 -0.21875,-0.28125 0,-0.25 0.140625,-0.59375 0.265625,-0.953125 l 0.640625,-1.703125 c 0.09375,-0.296875 0.109375,-0.375 0.109375,-0.5625 0,-0.546875 -0.375,-0.796875 -0.734375,-0.796875 -0.9375,0 -1.28125,1.484375 -1.28125,1.53125 0,0.109375 0.09375,0.109375 0.15625,0.109375 0.125,0 0.125,-0.03125 0.171875,-0.171875 0.09375,-0.328125 0.34375,-1.25 0.921875,-1.25 0.109375,0 0.21875,0.046875 0.21875,0.28125 0,0.234375 -0.109375,0.53125 -0.171875,0.71875 L 1.828125,-2.359375 C 1.6875,-2.03125 1.578125,-1.703125 1.453125,-1.375 1.3125,-1 1.28125,-0.890625 1.28125,-0.6875 c 0,0.390625 0.234375,0.796875 0.75,0.796875 0.9375,0 1.265625,-1.5 1.265625,-1.53125 z M 3.25,-6.203125 c 0,-0.25 -0.203125,-0.34375 -0.34375,-0.34375 -0.203125,0 -0.46875,0.203125 -0.46875,0.484375 0,0.25 0.1875,0.328125 0.328125,0.328125 0.203125,0 0.484375,-0.1875 0.484375,-0.46875 z m 0,0"
               id="id-88553dec-9c40-4f6a-a277-3cfbe0934e5c" />
          </g>
          <g
             id="id-329cdad0-0f9d-49a0-af8b-2a127fb66f64">
            <path
               d="m 2.375,-2.296875 c 0.3125,0 0.96875,-0.03125 1.453125,-0.21875 0.78125,-0.328125 0.78125,-0.96875 0.78125,-1.046875 0,-0.453125 -0.359375,-0.84375 -1,-0.84375 -1.046875,0 -2.46875,1 -2.46875,2.765625 0,0.90625 0.46875,1.75 1.421875,1.75 1.28125,0 2.109375,-1 2.109375,-1.140625 0,-0.0625 -0.09375,-0.171875 -0.171875,-0.171875 -0.03125,0 -0.046875,0.015625 -0.125,0.109375 -0.734375,0.9375 -1.625,0.984375 -1.796875,0.984375 -0.640625,0 -0.75,-0.703125 -0.75,-1.09375 0,-0.375 0.09375,-0.828125 0.171875,-1.09375 z m -0.328125,-0.21875 c 0.4375,-1.640625 1.46875,-1.671875 1.5625,-1.671875 0.390625,0 0.625,0.265625 0.625,0.609375 0,1.0625 -1.640625,1.0625 -1.96875,1.0625 z m 0,0"
               id="id-8899fd60-16fb-4658-9c4f-a88c91d86ecb" />
          </g>
          <g
             id="id-a82dfdbc-6ec6-4cfc-860c-4b94416032c5">
            <path
               d="m 2.578125,-2.875 c 0,-0.03125 0.453125,-1.3125 1.3125,-1.3125 0.046875,0 0.328125,0 0.53125,0.140625 C 4.0625,-3.9375 4.03125,-3.625 4.03125,-3.5625 c 0,0.125 0.09375,0.3125 0.359375,0.3125 0.171875,0 0.484375,-0.140625 0.484375,-0.53125 0,-0.515625 -0.640625,-0.625 -0.984375,-0.625 -0.6875,0 -1.046875,0.5 -1.203125,0.71875 -0.109375,-0.53125 -0.5,-0.71875 -0.828125,-0.71875 -0.359375,0 -0.546875,0.234375 -0.71875,0.53125 -0.1875,0.390625 -0.3125,0.984375 -0.3125,1 0,0.109375 0.09375,0.109375 0.15625,0.109375 0.125,0 0.125,-0.015625 0.1875,-0.234375 0.171875,-0.703125 0.359375,-1.1875 0.671875,-1.1875 0.265625,0 0.265625,0.296875 0.265625,0.40625 0,0.15625 -0.03125,0.34375 -0.078125,0.5 l -0.75,2.984375 c -0.015625,0.0625 -0.03125,0.125 -0.03125,0.140625 0,0.109375 0.078125,0.265625 0.28125,0.265625 0.296875,0 0.375,-0.28125 0.390625,-0.375 z m 0,0"
               id="id-62587b55-dfef-49ba-a617-c9a8cce6ccce" />
          </g>
          <g
             id="id-a5801cf2-f4f5-4cf9-993c-4808214cfb0e">
            <path
               d="M 2.59375,-3.984375 H 3.4375 c 0.171875,0 0.28125,0 0.28125,-0.1875 0,-0.125 -0.09375,-0.125 -0.25,-0.125 H 2.671875 l 0.375,-1.46875 c 0.03125,-0.140625 0.03125,-0.171875 0.03125,-0.21875 0,-0.203125 -0.171875,-0.25 -0.265625,-0.25 -0.25,0 -0.34375,0.203125 -0.390625,0.359375 L 2.03125,-4.296875 H 1.1875 c -0.171875,0 -0.28125,0 -0.28125,0.1875 0,0.125 0.09375,0.125 0.25,0.125 H 1.953125 L 1.234375,-1.125 C 1.21875,-1.09375 1.1875,-0.921875 1.1875,-0.78125 c 0,0.484375 0.328125,0.890625 0.84375,0.890625 1.015625,0 1.515625,-1.484375 1.515625,-1.53125 0,-0.109375 -0.078125,-0.109375 -0.140625,-0.109375 -0.125,0 -0.125,0.015625 -0.203125,0.203125 -0.1875,0.46875 -0.578125,1.21875 -1.15625,1.21875 -0.265625,0 -0.265625,-0.25 -0.265625,-0.40625 0,-0.078125 0,-0.234375 0.078125,-0.515625 z m 0,0"
               id="id-9ca92405-dded-4bdd-95a0-463279ad3d5a" />
          </g>
          <g
             id="id-c8393135-9ed8-4d43-bb87-d8ce4286a4e6">
            <path
               d="m 5.078125,-2.765625 c 0,-0.953125 -0.59375,-1.640625 -1.453125,-1.640625 -1.25,0 -2.53125,1.421875 -2.53125,2.875 0,1.015625 0.625,1.640625 1.453125,1.640625 1.234375,0 2.53125,-1.421875 2.53125,-2.875 z m -2.53125,2.65625 c -0.390625,0 -0.75,-0.3125 -0.75,-1.03125 0,-0.5 0.25,-1.59375 0.578125,-2.140625 0.359375,-0.609375 0.84375,-0.90625 1.234375,-0.90625 0.484375,0 0.765625,0.4375 0.765625,1.03125 0,0.421875 -0.21875,1.453125 -0.53125,2.046875 -0.296875,0.546875 -0.796875,1 -1.296875,1 z m 0,0"
               id="id-7a9c40a0-ffcb-46c5-ad87-6b5724e21316" />
          </g>
          <g
             id="id-65335a1b-3b34-41c2-baa8-fcc7bf38b601">
            <path
               d="M 2.296875,-1.75 C 2.34375,-1.96875 2.40625,-2.171875 2.453125,-2.390625 2.578125,-2.90625 2.578125,-2.90625 2.75,-3.203125 2.890625,-3.4375 3.34375,-4.1875 4.09375,-4.1875 c 0.4375,0 0.46875,0.453125 0.46875,0.65625 0,0.625 -0.453125,1.8125 -0.578125,2.203125 -0.140625,0.34375 -0.171875,0.4375 -0.171875,0.640625 0,0.4375 0.28125,0.796875 0.765625,0.796875 0.921875,0 1.265625,-1.484375 1.265625,-1.53125 0,-0.109375 -0.078125,-0.109375 -0.15625,-0.109375 -0.125,0 -0.125,0.03125 -0.171875,0.171875 -0.078125,0.265625 -0.34375,1.25 -0.921875,1.25 -0.203125,0 -0.21875,-0.15625 -0.21875,-0.296875 0,-0.234375 0.09375,-0.5 0.1875,-0.734375 0.1875,-0.53125 0.59375,-1.65625 0.59375,-2.234375 0,-0.8125 -0.546875,-1.03125 -1.03125,-1.03125 -0.8125,0 -1.296875,0.59375 -1.421875,0.78125 C 2.625,-4.109375 2.296875,-4.40625 1.859375,-4.40625 1.5,-4.40625 1.3125,-4.171875 1.140625,-3.875 c -0.1875,0.390625 -0.3125,0.984375 -0.3125,1 0,0.109375 0.09375,0.109375 0.15625,0.109375 0.125,0 0.125,-0.015625 0.1875,-0.234375 0.171875,-0.703125 0.359375,-1.1875 0.671875,-1.1875 0.265625,0 0.265625,0.296875 0.265625,0.40625 0,0.15625 -0.03125,0.34375 -0.078125,0.5 l -0.75,2.984375 c -0.015625,0.0625 -0.03125,0.125 -0.03125,0.140625 0,0.109375 0.078125,0.265625 0.28125,0.265625 0.125,0 0.296875,-0.0625 0.359375,-0.265625 z m 0,0"
               id="id-2588b7f8-25c1-41a3-819c-035725fd17e9" />
          </g>
          <g
             id="id-4ca383ec-43ed-428a-8bd4-2f9e7b7ba27e" />
          <g
             id="id-6787261b-5ff9-4f19-b9bb-a5b26a8fb332">
            <path
               d="M 5.953125,-5.671875 6.09375,-5.8125 C 6.390625,-6.109375 6.71875,-6.453125 7.390625,-6.5 7.5,-6.515625 7.59375,-6.515625 7.59375,-6.6875 c 0,-0.078125 -0.046875,-0.125 -0.125,-0.125 -0.265625,0 -0.546875,0.03125 -0.8125,0.03125 -0.34375,0 -0.6875,-0.03125 -1,-0.03125 -0.0625,0 -0.1875,0 -0.1875,0.1875 0,0.109375 0.09375,0.125 0.140625,0.125 0.078125,0 0.359375,0.015625 0.359375,0.234375 0,0.171875 -0.234375,0.421875 -0.265625,0.46875 L 3.390625,-3.125 2.296875,-6.09375 C 2.234375,-6.234375 2.234375,-6.25 2.234375,-6.265625 2.234375,-6.5 2.71875,-6.5 2.828125,-6.5 c 0.125,0 0.234375,0 0.234375,-0.203125 0,-0.109375 -0.125,-0.109375 -0.15625,-0.109375 -0.28125,0 -0.96875,0.03125 -1.25,0.03125 -0.25,0 -0.875,-0.03125 -1.125,-0.03125 -0.046875,0 -0.1875,0 -0.1875,0.203125 C 0.34375,-6.5 0.453125,-6.5 0.578125,-6.5 c 0.59375,0 0.640625,0.09375 0.734375,0.34375 L 2.53125,-2.875 c 0.015625,0.03125 0.046875,0.140625 0.046875,0.15625 0,0.03125 -0.40625,1.640625 -0.453125,1.828125 C 2,-0.34375 1.984375,-0.3125 1.1875,-0.3125 c -0.1875,0 -0.265625,0 -0.265625,0.203125 C 0.921875,0 1.03125,0 1.0625,0 c 0.265625,0 0.96875,-0.03125 1.25,-0.03125 0.28125,0 1,0.03125 1.28125,0.03125 0.0625,0 0.1875,0 0.1875,-0.203125 C 3.78125,-0.3125 3.6875,-0.3125 3.5,-0.3125 c -0.015625,0 -0.203125,0 -0.375,-0.015625 C 2.90625,-0.34375 2.84375,-0.375 2.84375,-0.484375 c 0,-0.078125 0.09375,-0.421875 0.140625,-0.625 l 0.359375,-1.40625 c 0.046875,-0.203125 0.0625,-0.21875 0.140625,-0.3125 z m 0,0"
               id="id-9f142d78-529d-4df4-a2ba-352efe73b833" />
          </g>
        </g>
      </defs>
      <g
         id="g37425"
         transform="translate(1.6215912,19.123312)">
        <circle
           style="fill:#e3faff;fill-opacity:1;stroke:#516cff;stroke-width:0.264999;stroke-linecap:round;stroke-dasharray:0.264999, 0.529998;stroke-dashoffset:0;stroke-opacity:1;paint-order:fill markers stroke"
           id="path24500"
           cx="113.70076"
           cy="228.80341"
           r="22.091293"
           transform="matrix(2.8346439,0,0,2.8346439,-208.88576,-619.15993)" />
        <path
           style="fill:none;fill-opacity:1;stroke:#1a60ff;stroke-width:0.264999;stroke-linecap:round;stroke-dasharray:none;stroke-dashoffset:0;stroke-opacity:1;paint-order:fill markers stroke"
           d="m 77.861511,249.33742 c 0.344249,-1.59083 0.134395,-1.02291 1.275241,-3.0608 2.192782,-3.91696 4.938398,-5.72248 8.662064,-7.99462 4.437533,-2.70775 9.725038,-5.46977 14.700314,-7.02736 2.95183,-0.92411 6.12827,-0.95099 9.16786,-1.39419 1.78509,-0.26029 3.55095,-0.65254 5.31117,-1.04321 2.26276,-0.5022 4.50818,-1.0394 6.72297,-1.72596 5.92476,-1.83659 11.74847,-4.45344 17.13478,-7.52044 2.99779,-1.70696 5.79874,-3.77566 8.7041,-5.63348"
           id="path24621"
           transform="matrix(2.8346439,0,0,2.8346439,-208.88576,-619.15993)" />
        <path
           style="fill:none;fill-opacity:1;stroke:#000000;stroke-width:0.264999;stroke-linecap:round;stroke-dasharray:none;stroke-dashoffset:0;stroke-opacity:1;paint-order:fill markers stroke"
           d="m 134.85185,222.69873 c 0.006,-0.003 -0.0126,0.006 -0.019,0.009"
           id="path25005"
           transform="matrix(2.8346439,0,0,2.8346439,-208.88576,-619.15993)" />
        <path
           style="fill:none;fill-opacity:1;stroke:#000000;stroke-width:0.264999;stroke-linecap:round;stroke-dasharray:none;stroke-dashoffset:0;stroke-opacity:1;paint-order:fill markers stroke"
           d="m 134.85185,222.69873 c -9.44591,3.84181 -13.10556,5.62424 -21.15109,6.7424 -8.04553,1.11816 -11.75992,1.46185 -13.04837,2.19626 -1.288459,0.73441 -7.87465,3.80533 -7.87465,3.80533"
           id="path25063"
           transform="matrix(2.8346439,0,0,2.8346439,-208.88576,-619.15993)" />
        <path
           style="fill:none;fill-opacity:1;stroke:#000000;stroke-width:0.264999;stroke-linecap:round;stroke-dasharray:none;stroke-dashoffset:0;stroke-opacity:1;paint-order:fill markers stroke"
           d="m 134.85185,222.69873 c -9.44591,3.84181 -13.10556,5.62424 -21.15109,6.7424 -8.04553,1.11816 -11.75992,1.46185 -13.04837,2.19626 -1.288459,0.73441 -7.87465,3.80533 -7.87465,3.80533"
           id="path25065"
           transform="matrix(2.8346439,0,0,2.8346439,-208.88576,-619.15993)" />
        <g
           id="g25074"
           style="fill:none;fill-opacity:1;stroke:#1a60ff;stroke-width:0.6;stroke-dasharray:none;stroke-opacity:1"
           transform="matrix(2.8346439,0,0,2.8346439,-208.88576,-619.15993)">
          <g
             id="g25070"
             style="fill:none;fill-opacity:1;stroke:#1a60ff;stroke-width:0.6;stroke-dasharray:none;stroke-opacity:1">
            <path
               style="fill:none;fill-opacity:1;stroke:#1a60ff;stroke-width:0.6;stroke-linecap:round;stroke-dasharray:none;stroke-dashoffset:0;stroke-opacity:1;paint-order:fill markers stroke"
               d="m 134.85185,222.69873 c -9.44591,3.84181 -12.94154,5.67624 -20.98707,6.7944 -8.04553,1.11816 -11.75992,1.46185 -13.04837,2.19626 -1.288458,0.73441 -8.03867,3.75333 -8.03867,3.75333"
               id="path25067"
               sodipodi:nodetypes="cssc" />
          </g>
          <path
             style="fill:none;fill-opacity:1;stroke:#1a60ff;stroke-width:0;stroke-linecap:round;stroke-dasharray:none;stroke-dashoffset:0;stroke-opacity:1;paint-order:fill markers stroke"
             d="m 101.55074,231.28471 c 0.0211,0.0219 0.0431,0.043 0.0633,0.0657 0.0551,0.0617 0.10432,0.12812 0.15945,0.1896 0.0156,0.0174 0.0173,0.0478 0.0284,0.0679 0.003,0.006 0.0131,0.0239 0.0114,0.0218 -0.0106,-0.0133 -0.007,-0.004 -0.007,0.008"
             id="path30997" />
        </g>
        <g
           transform="translate(218.43015,-17.230046)"
           ns3:version="1.8.2"
           ns3:texconverter="pdflatex"
           ns3:pdfconverter="inkscape"
           ns3:text="$$Y \\subset X$$"
           ns3:preamble=""
           ns3:scale="1.0"
           ns3:alignment="middle center"
           ns3:stroke-to-path="0"
           ns3:inkscapeversion="1.2.2"
           ns3:jacobian_sqrt="0.352778"
           id="g33441">
          <defs
             id="id-7c7c959d-1f25-4543-80ce-839ec9e09e4c">
            <g
               id="id-9a333c6c-c6cf-4af5-a32a-0b62f882f041">
              <g
                 id="id-8a2a7a83-a961-40f2-808f-2cab512c0ab3" />
              <g
                 id="id-f2ea59d9-b3af-4e6d-b393-f6e13b053d51">
                <path
                   d="M 5.953125,-5.671875 6.09375,-5.8125 C 6.390625,-6.109375 6.71875,-6.453125 7.390625,-6.5 7.5,-6.515625 7.59375,-6.515625 7.59375,-6.6875 c 0,-0.078125 -0.046875,-0.125 -0.125,-0.125 -0.265625,0 -0.546875,0.03125 -0.8125,0.03125 -0.34375,0 -0.6875,-0.03125 -1,-0.03125 -0.0625,0 -0.1875,0 -0.1875,0.1875 0,0.109375 0.09375,0.125 0.140625,0.125 0.078125,0 0.359375,0.015625 0.359375,0.234375 0,0.171875 -0.234375,0.421875 -0.265625,0.46875 L 3.390625,-3.125 2.296875,-6.09375 C 2.234375,-6.234375 2.234375,-6.25 2.234375,-6.265625 2.234375,-6.5 2.71875,-6.5 2.828125,-6.5 c 0.125,0 0.234375,0 0.234375,-0.203125 0,-0.109375 -0.125,-0.109375 -0.15625,-0.109375 -0.28125,0 -0.96875,0.03125 -1.25,0.03125 -0.25,0 -0.875,-0.03125 -1.125,-0.03125 -0.046875,0 -0.1875,0 -0.1875,0.203125 C 0.34375,-6.5 0.453125,-6.5 0.578125,-6.5 c 0.59375,0 0.640625,0.09375 0.734375,0.34375 L 2.53125,-2.875 c 0.015625,0.03125 0.046875,0.140625 0.046875,0.15625 0,0.03125 -0.40625,1.640625 -0.453125,1.828125 C 2,-0.34375 1.984375,-0.3125 1.1875,-0.3125 c -0.1875,0 -0.265625,0 -0.265625,0.203125 C 0.921875,0 1.03125,0 1.0625,0 c 0.265625,0 0.96875,-0.03125 1.25,-0.03125 0.28125,0 1,0.03125 1.28125,0.03125 0.0625,0 0.1875,0 0.1875,-0.203125 C 3.78125,-0.3125 3.6875,-0.3125 3.5,-0.3125 c -0.015625,0 -0.203125,0 -0.375,-0.015625 C 2.90625,-0.34375 2.84375,-0.375 2.84375,-0.484375 c 0,-0.078125 0.09375,-0.421875 0.140625,-0.625 l 0.359375,-1.40625 c 0.046875,-0.203125 0.0625,-0.21875 0.140625,-0.3125 z m 0,0"
                   id="id-5a979e77-3022-40ee-b2f4-755ad16e6eec" />
              </g>
              <g
                 id="id-bb690381-9232-43c8-b44c-6d18ef52e22e">
                <path
                   d="M 4.828125,-4.09375 4,-6.078125 c -0.03125,-0.078125 -0.046875,-0.125 -0.046875,-0.125 0,-0.0625 0.15625,-0.25 0.578125,-0.296875 0.109375,-0.015625 0.203125,-0.015625 0.203125,-0.1875 0,-0.125 -0.125,-0.125 -0.15625,-0.125 -0.40625,0 -0.828125,0.03125 -1.25,0.03125 -0.25,0 -0.859375,-0.03125 -1.109375,-0.03125 -0.0625,0 -0.1875,0 -0.1875,0.203125 C 2.03125,-6.5 2.140625,-6.5 2.265625,-6.5 c 0.59375,0 0.65625,0.09375 0.75,0.3125 l 1.171875,2.78125 -2.109375,2.265625 -0.125,0.109375 C 1.46875,-0.5 1,-0.34375 0.484375,-0.3125 c -0.125,0.015625 -0.21875,0.015625 -0.21875,0.203125 0,0.015625 0,0.109375 0.140625,0.109375 0.296875,0 0.625,-0.03125 0.921875,-0.03125 C 1.703125,-0.03125 2.09375,0 2.453125,0 2.515625,0 2.625,0 2.625,-0.203125 2.625,-0.296875 2.53125,-0.3125 2.515625,-0.3125 c -0.09375,0 -0.40625,-0.03125 -0.40625,-0.3125 0,-0.15625 0.15625,-0.3125 0.265625,-0.4375 L 3.40625,-2.140625 4.296875,-3.125 l 1,2.390625 c 0.046875,0.109375 0.0625,0.109375 0.0625,0.140625 0,0.078125 -0.203125,0.25 -0.578125,0.28125 C 4.671875,-0.296875 4.578125,-0.296875 4.578125,-0.125 4.578125,0 4.6875,0 4.71875,0 5,0 5.703125,-0.03125 5.984375,-0.03125 6.234375,-0.03125 6.84375,0 7.09375,0 c 0.0625,0 0.1875,0 0.1875,-0.1875 0,-0.125 -0.109375,-0.125 -0.1875,-0.125 -0.65625,0 -0.6875,-0.03125 -0.859375,-0.4375 C 5.859375,-1.671875 5.1875,-3.234375 4.953125,-3.828125 5.625,-4.53125 6.671875,-5.71875 7,-5.984375 7.28125,-6.234375 7.671875,-6.46875 8.265625,-6.5 c 0.125,-0.015625 0.21875,-0.015625 0.21875,-0.203125 0,0 0,-0.109375 -0.125,-0.109375 -0.296875,0 -0.640625,0.03125 -0.9375,0.03125 -0.375,0 -0.75,-0.03125 -1.109375,-0.03125 -0.0625,0 -0.1875,0 -0.1875,0.203125 0,0.0625 0.046875,0.09375 0.109375,0.109375 0.09375,0.015625 0.40625,0.03125 0.40625,0.3125 0,0.140625 -0.109375,0.265625 -0.1875,0.359375 z m 0,0"
                   id="id-9a0fc9fe-e65c-4e25-af95-0a097a5c7348" />
              </g>
              <g
                 id="id-49a63ecd-8e7b-4c71-8f60-7dcdbb4b9506" />
              <g
                 id="id-013bf60f-f8a2-42fb-985a-8ce17540edac">
                <path
                   d="m 6.5625,-4.984375 c 0.171875,0 0.359375,0 0.359375,-0.203125 0,-0.203125 -0.1875,-0.203125 -0.359375,-0.203125 H 3.890625 c -1.703125,0 -3.0625,1.296875 -3.0625,2.890625 0,1.609375 1.359375,2.90625 3.0625,2.90625 H 6.5625 c 0.171875,0 0.359375,0 0.359375,-0.203125 C 6.921875,0 6.734375,0 6.5625,0 H 3.90625 c -1.546875,0 -2.6875,-1.15625 -2.6875,-2.5 0,-1.328125 1.140625,-2.484375 2.6875,-2.484375 z m 0,0"
                   id="id-bd061755-0203-45f4-a7cc-e501f58c2255" />
              </g>
            </g>
          </defs>
          <g
             fill="#000000"
             fill-opacity="1"
             id="id-e26d11f6-43c6-4fe3-b10c-5f7727909f22"
             transform="translate(-290.81,-139.907)">
            <g
               transform="translate(290.466,146.72)"
               id="g33430">
              <path
                 d="M 5.953125,-5.671875 6.09375,-5.8125 C 6.390625,-6.109375 6.71875,-6.453125 7.390625,-6.5 7.5,-6.515625 7.59375,-6.515625 7.59375,-6.6875 c 0,-0.078125 -0.046875,-0.125 -0.125,-0.125 -0.265625,0 -0.546875,0.03125 -0.8125,0.03125 -0.34375,0 -0.6875,-0.03125 -1,-0.03125 -0.0625,0 -0.1875,0 -0.1875,0.1875 0,0.109375 0.09375,0.125 0.140625,0.125 0.078125,0 0.359375,0.015625 0.359375,0.234375 0,0.171875 -0.234375,0.421875 -0.265625,0.46875 L 3.390625,-3.125 2.296875,-6.09375 C 2.234375,-6.234375 2.234375,-6.25 2.234375,-6.265625 2.234375,-6.5 2.71875,-6.5 2.828125,-6.5 c 0.125,0 0.234375,0 0.234375,-0.203125 0,-0.109375 -0.125,-0.109375 -0.15625,-0.109375 -0.28125,0 -0.96875,0.03125 -1.25,0.03125 -0.25,0 -0.875,-0.03125 -1.125,-0.03125 -0.046875,0 -0.1875,0 -0.1875,0.203125 C 0.34375,-6.5 0.453125,-6.5 0.578125,-6.5 c 0.59375,0 0.640625,0.09375 0.734375,0.34375 L 2.53125,-2.875 c 0.015625,0.03125 0.046875,0.140625 0.046875,0.15625 0,0.03125 -0.40625,1.640625 -0.453125,1.828125 C 2,-0.34375 1.984375,-0.3125 1.1875,-0.3125 c -0.1875,0 -0.265625,0 -0.265625,0.203125 C 0.921875,0 1.03125,0 1.0625,0 c 0.265625,0 0.96875,-0.03125 1.25,-0.03125 0.28125,0 1,0.03125 1.28125,0.03125 0.0625,0 0.1875,0 0.1875,-0.203125 C 3.78125,-0.3125 3.6875,-0.3125 3.5,-0.3125 c -0.015625,0 -0.203125,0 -0.375,-0.015625 C 2.90625,-0.34375 2.84375,-0.375 2.84375,-0.484375 c 0,-0.078125 0.09375,-0.421875 0.140625,-0.625 l 0.359375,-1.40625 c 0.046875,-0.203125 0.0625,-0.21875 0.140625,-0.3125 z m 0,0"
                 id="id-7eba5e31-dac6-4203-9db2-74594b64dcd1" />
            </g>
          </g>
          <g
             fill="#000000"
             fill-opacity="1"
             id="id-0eca2742-67cb-4b2d-ba7c-bbf6ef62a540"
             transform="translate(-290.81,-139.907)">
            <g
               transform="translate(301.231,146.72)"
               id="g33434">
              <path
                 d="m 6.5625,-4.984375 c 0.171875,0 0.359375,0 0.359375,-0.203125 0,-0.203125 -0.1875,-0.203125 -0.359375,-0.203125 H 3.890625 c -1.703125,0 -3.0625,1.296875 -3.0625,2.890625 0,1.609375 1.359375,2.90625 3.0625,2.90625 H 6.5625 c 0.171875,0 0.359375,0 0.359375,-0.203125 C 6.921875,0 6.734375,0 6.5625,0 H 3.90625 c -1.546875,0 -2.6875,-1.15625 -2.6875,-2.5 0,-1.328125 1.140625,-2.484375 2.6875,-2.484375 z m 0,0"
                 id="id-4d470b00-7a3b-4289-a479-388d9ca5cbff" />
            </g>
          </g>
          <g
             fill="#000000"
             fill-opacity="1"
             id="id-2c8acd95-8351-4c56-9639-fc1cd0008cfc"
             transform="translate(-290.81,-139.907)">
            <g
               transform="translate(311.747,146.72)"
               id="g33438">
              <path
                 d="M 4.828125,-4.09375 4,-6.078125 c -0.03125,-0.078125 -0.046875,-0.125 -0.046875,-0.125 0,-0.0625 0.15625,-0.25 0.578125,-0.296875 0.109375,-0.015625 0.203125,-0.015625 0.203125,-0.1875 0,-0.125 -0.125,-0.125 -0.15625,-0.125 -0.40625,0 -0.828125,0.03125 -1.25,0.03125 -0.25,0 -0.859375,-0.03125 -1.109375,-0.03125 -0.0625,0 -0.1875,0 -0.1875,0.203125 C 2.03125,-6.5 2.140625,-6.5 2.265625,-6.5 c 0.59375,0 0.65625,0.09375 0.75,0.3125 l 1.171875,2.78125 -2.109375,2.265625 -0.125,0.109375 C 1.46875,-0.5 1,-0.34375 0.484375,-0.3125 c -0.125,0.015625 -0.21875,0.015625 -0.21875,0.203125 0,0.015625 0,0.109375 0.140625,0.109375 0.296875,0 0.625,-0.03125 0.921875,-0.03125 C 1.703125,-0.03125 2.09375,0 2.453125,0 2.515625,0 2.625,0 2.625,-0.203125 2.625,-0.296875 2.53125,-0.3125 2.515625,-0.3125 c -0.09375,0 -0.40625,-0.03125 -0.40625,-0.3125 0,-0.15625 0.15625,-0.3125 0.265625,-0.4375 L 3.40625,-2.140625 4.296875,-3.125 l 1,2.390625 c 0.046875,0.109375 0.0625,0.109375 0.0625,0.140625 0,0.078125 -0.203125,0.25 -0.578125,0.28125 C 4.671875,-0.296875 4.578125,-0.296875 4.578125,-0.125 4.578125,0 4.6875,0 4.71875,0 5,0 5.703125,-0.03125 5.984375,-0.03125 6.234375,-0.03125 6.84375,0 7.09375,0 c 0.0625,0 0.1875,0 0.1875,-0.1875 0,-0.125 -0.109375,-0.125 -0.1875,-0.125 -0.65625,0 -0.6875,-0.03125 -0.859375,-0.4375 C 5.859375,-1.671875 5.1875,-3.234375 4.953125,-3.828125 5.625,-4.53125 6.671875,-5.71875 7,-5.984375 7.28125,-6.234375 7.671875,-6.46875 8.265625,-6.5 c 0.125,-0.015625 0.21875,-0.015625 0.21875,-0.203125 0,0 0,-0.109375 -0.125,-0.109375 -0.296875,0 -0.640625,0.03125 -0.9375,0.03125 -0.375,0 -0.75,-0.03125 -1.109375,-0.03125 -0.0625,0 -0.1875,0 -0.1875,0.203125 0,0.0625 0.046875,0.09375 0.109375,0.109375 0.09375,0.015625 0.40625,0.03125 0.40625,0.3125 0,0.140625 -0.109375,0.265625 -0.1875,0.359375 z m 0,0"
                 id="id-4d5d879e-a79f-4002-be33-c6eb18fec275" />
            </g>
          </g>
        </g>
        <g
           fill="#000000"
           fill-opacity="1"
           id="id-c245caa7-06f5-4b10-829e-6c20ee8ca2fa"
           transform="translate(-209.41057,-120.76767)">
          <g
             transform="translate(276.982,146.72)"
             id="g34307">
            <path
               d="M 1.90625,-1.125 C 1.484375,-0.375 1.0625,-0.328125 0.703125,-0.3125 0.59375,-0.296875 0.59375,-0.125 0.59375,-0.125 c 0,0.03125 0,0.125 0.109375,0.125 C 0.953125,0 1.25,-0.03125 1.5,-0.03125 1.8125,-0.03125 2.140625,0 2.4375,0 c 0.046875,0 0.171875,0 0.171875,-0.1875 0,-0.109375 -0.078125,-0.109375 -0.15625,-0.125 -0.0625,0 -0.421875,-0.03125 -0.421875,-0.328125 0,-0.09375 0.046875,-0.21875 0.140625,-0.390625 l 0.71875,-1.25 H 5.15625 l 0.125,1.65625 c 0,0.203125 -0.25,0.3125 -0.671875,0.3125 C 4.5,-0.3125 4.375,-0.3125 4.375,-0.125 4.375,0 4.5,0 4.53125,0 4.890625,0 5.296875,-0.03125 5.671875,-0.03125 6.015625,-0.03125 6.375,0 6.71875,0 6.78125,0 6.890625,0 6.890625,-0.171875 6.890625,-0.3125 6.8125,-0.3125 6.65625,-0.3125 c -0.515625,0 -0.546875,-0.078125 -0.5625,-0.328125 l -0.4375,-6.25 c 0,-0.21875 -0.015625,-0.25 -0.171875,-0.25 -0.15625,0 -0.203125,0.078125 -0.265625,0.1875 z m 3.015625,-4.734375 0.21875,3.265625 H 3.0625 Z m 0,0"
               id="id-ff814186-3fbd-43c0-ba31-5eeeceb34fbf" />
          </g>
        </g>
        <g
           fill="#000000"
           fill-opacity="1"
           id="id-ce80ff18-e13a-4b42-bc66-4fc725b6d11c"
           transform="translate(-209.41057,-120.76767)">
          <g
             transform="translate(284.128,146.72)"
             id="g34311">
            <path
               d="m 3.015625,-6.671875 c 0.015625,-0.03125 0.03125,-0.109375 0.03125,-0.125 0,-0.09375 -0.0625,-0.125 -0.140625,-0.125 -0.03125,0 -0.125,0.015625 -0.15625,0.03125 L 1.765625,-6.8125 c -0.125,0 -0.234375,0.015625 -0.234375,0.203125 0,0.109375 0.109375,0.109375 0.25,0.109375 0.46875,0 0.484375,0.0625 0.484375,0.171875 0,0.03125 -0.015625,0.15625 -0.015625,0.171875 l -1,3.9375 c 0,0.03125 -0.109375,0.4375 -0.109375,0.8125 0,0.84375 0.421875,1.515625 1.15625,1.515625 1.109375,0 2.28125,-1.5 2.28125,-2.953125 0,-1.078125 -0.59375,-1.5625 -1.203125,-1.5625 -0.375,0 -0.71875,0.203125 -1.046875,0.53125 z m -0.71875,6.5625 c -0.25,0 -0.578125,-0.203125 -0.578125,-0.953125 0,-0.4375 0.078125,-0.796875 0.375,-1.921875 0.0625,-0.25 0.0625,-0.265625 0.21875,-0.46875 C 2.609375,-3.84375 2.984375,-4.1875 3.359375,-4.1875 c 0.453125,0 0.546875,0.5625 0.546875,0.890625 0,0.421875 -0.265625,1.609375 -0.5625,2.234375 -0.109375,0.25 -0.546875,0.953125 -1.046875,0.953125 z m 0,0"
               id="id-219334a8-5fb9-4590-997f-815cede384dc" />
          </g>
          <g
             transform="translate(288.711,146.72)"
             id="g34314">
            <path
               d="m 3.296875,-1.421875 c 0,-0.109375 -0.078125,-0.109375 -0.140625,-0.109375 -0.140625,0 -0.140625,0.03125 -0.171875,0.171875 -0.078125,0.296875 -0.359375,1.25 -0.9375,1.25 -0.078125,0 -0.21875,-0.015625 -0.21875,-0.28125 0,-0.25 0.140625,-0.59375 0.265625,-0.953125 l 0.640625,-1.703125 c 0.09375,-0.296875 0.109375,-0.375 0.109375,-0.5625 0,-0.546875 -0.375,-0.796875 -0.734375,-0.796875 -0.9375,0 -1.28125,1.484375 -1.28125,1.53125 0,0.109375 0.09375,0.109375 0.15625,0.109375 0.125,0 0.125,-0.03125 0.171875,-0.171875 0.09375,-0.328125 0.34375,-1.25 0.921875,-1.25 0.109375,0 0.21875,0.046875 0.21875,0.28125 0,0.234375 -0.109375,0.53125 -0.171875,0.71875 L 1.828125,-2.359375 C 1.6875,-2.03125 1.578125,-1.703125 1.453125,-1.375 1.3125,-1 1.28125,-0.890625 1.28125,-0.6875 c 0,0.390625 0.234375,0.796875 0.75,0.796875 0.9375,0 1.265625,-1.5 1.265625,-1.53125 z M 3.25,-6.203125 c 0,-0.25 -0.203125,-0.34375 -0.34375,-0.34375 -0.203125,0 -0.46875,0.203125 -0.46875,0.484375 0,0.25 0.1875,0.328125 0.328125,0.328125 0.203125,0 0.484375,-0.1875 0.484375,-0.46875 z m 0,0"
               id="id-deebcf62-de90-4c5c-b936-7ace74b3d557" />
          </g>
          <g
             transform="translate(291.767,146.72)"
             id="g34317">
            <path
               d="m 2.375,-2.296875 c 0.3125,0 0.96875,-0.03125 1.453125,-0.21875 0.78125,-0.328125 0.78125,-0.96875 0.78125,-1.046875 0,-0.453125 -0.359375,-0.84375 -1,-0.84375 -1.046875,0 -2.46875,1 -2.46875,2.765625 0,0.90625 0.46875,1.75 1.421875,1.75 1.28125,0 2.109375,-1 2.109375,-1.140625 0,-0.0625 -0.09375,-0.171875 -0.171875,-0.171875 -0.03125,0 -0.046875,0.015625 -0.125,0.109375 -0.734375,0.9375 -1.625,0.984375 -1.796875,0.984375 -0.640625,0 -0.75,-0.703125 -0.75,-1.09375 0,-0.375 0.09375,-0.828125 0.171875,-1.09375 z m -0.328125,-0.21875 c 0.4375,-1.640625 1.46875,-1.671875 1.5625,-1.671875 0.390625,0 0.625,0.265625 0.625,0.609375 0,1.0625 -1.640625,1.0625 -1.96875,1.0625 z m 0,0"
               id="id-4587cb77-653a-47b5-bdd7-af4b9167e62f" />
          </g>
          <g
             transform="translate(296.349,146.72)"
             id="g34320">
            <path
               d="m 2.578125,-2.875 c 0,-0.03125 0.453125,-1.3125 1.3125,-1.3125 0.046875,0 0.328125,0 0.53125,0.140625 C 4.0625,-3.9375 4.03125,-3.625 4.03125,-3.5625 c 0,0.125 0.09375,0.3125 0.359375,0.3125 0.171875,0 0.484375,-0.140625 0.484375,-0.53125 0,-0.515625 -0.640625,-0.625 -0.984375,-0.625 -0.6875,0 -1.046875,0.5 -1.203125,0.71875 -0.109375,-0.53125 -0.5,-0.71875 -0.828125,-0.71875 -0.359375,0 -0.546875,0.234375 -0.71875,0.53125 -0.1875,0.390625 -0.3125,0.984375 -0.3125,1 0,0.109375 0.09375,0.109375 0.15625,0.109375 0.125,0 0.125,-0.015625 0.1875,-0.234375 0.171875,-0.703125 0.359375,-1.1875 0.671875,-1.1875 0.265625,0 0.265625,0.296875 0.265625,0.40625 0,0.15625 -0.03125,0.34375 -0.078125,0.5 l -0.75,2.984375 c -0.015625,0.0625 -0.03125,0.125 -0.03125,0.140625 0,0.109375 0.078125,0.265625 0.28125,0.265625 0.296875,0 0.375,-0.28125 0.390625,-0.375 z m 0,0"
               id="id-fbaa3d29-c688-42d8-b576-1273066a358e" />
          </g>
          <g
             transform="translate(300.551,146.72)"
             id="g34323">
            <path
               d="M 2.59375,-3.984375 H 3.4375 c 0.171875,0 0.28125,0 0.28125,-0.1875 0,-0.125 -0.09375,-0.125 -0.25,-0.125 H 2.671875 l 0.375,-1.46875 c 0.03125,-0.140625 0.03125,-0.171875 0.03125,-0.21875 0,-0.203125 -0.171875,-0.25 -0.265625,-0.25 -0.25,0 -0.34375,0.203125 -0.390625,0.359375 L 2.03125,-4.296875 H 1.1875 c -0.171875,0 -0.28125,0 -0.28125,0.1875 0,0.125 0.09375,0.125 0.25,0.125 H 1.953125 L 1.234375,-1.125 C 1.21875,-1.09375 1.1875,-0.921875 1.1875,-0.78125 c 0,0.484375 0.328125,0.890625 0.84375,0.890625 1.015625,0 1.515625,-1.484375 1.515625,-1.53125 0,-0.109375 -0.078125,-0.109375 -0.140625,-0.109375 -0.125,0 -0.125,0.015625 -0.203125,0.203125 -0.1875,0.46875 -0.578125,1.21875 -1.15625,1.21875 -0.265625,0 -0.265625,-0.25 -0.265625,-0.40625 0,-0.078125 0,-0.234375 0.078125,-0.515625 z m 0,0"
               id="id-7f878da2-6fad-4a0b-b067-091d38503e17" />
          </g>
          <g
             transform="translate(303.86,146.72)"
             id="g34326">
            <path
               d="m 5.078125,-2.765625 c 0,-0.953125 -0.59375,-1.640625 -1.453125,-1.640625 -1.25,0 -2.53125,1.421875 -2.53125,2.875 0,1.015625 0.625,1.640625 1.453125,1.640625 1.234375,0 2.53125,-1.421875 2.53125,-2.875 z m -2.53125,2.65625 c -0.390625,0 -0.75,-0.3125 -0.75,-1.03125 0,-0.5 0.25,-1.59375 0.578125,-2.140625 0.359375,-0.609375 0.84375,-0.90625 1.234375,-0.90625 0.484375,0 0.765625,0.4375 0.765625,1.03125 0,0.421875 -0.21875,1.453125 -0.53125,2.046875 -0.296875,0.546875 -0.796875,1 -1.296875,1 z m 0,0"
               id="id-9b921c12-307f-4f8a-82b5-a3c780247441" />
          </g>
        </g>
        <g
           fill="#000000"
           fill-opacity="1"
           id="id-efa9b9c6-5a7c-4f35-b07c-cf341f124ee8"
           transform="translate(-209.41057,-120.76767)">
          <g
             transform="translate(312.519,146.72)"
             id="g34330">
            <path
               d="m 2.375,-2.296875 c 0.3125,0 0.96875,-0.03125 1.453125,-0.21875 0.78125,-0.328125 0.78125,-0.96875 0.78125,-1.046875 0,-0.453125 -0.359375,-0.84375 -1,-0.84375 -1.046875,0 -2.46875,1 -2.46875,2.765625 0,0.90625 0.46875,1.75 1.421875,1.75 1.28125,0 2.109375,-1 2.109375,-1.140625 0,-0.0625 -0.09375,-0.171875 -0.171875,-0.171875 -0.03125,0 -0.046875,0.015625 -0.125,0.109375 -0.734375,0.9375 -1.625,0.984375 -1.796875,0.984375 -0.640625,0 -0.75,-0.703125 -0.75,-1.09375 0,-0.375 0.09375,-0.828125 0.171875,-1.09375 z m -0.328125,-0.21875 c 0.4375,-1.640625 1.46875,-1.671875 1.5625,-1.671875 0.390625,0 0.625,0.265625 0.625,0.609375 0,1.0625 -1.640625,1.0625 -1.96875,1.0625 z m 0,0"
               id="id-2819e077-6346-4e5c-93e3-2abe1668bd24" />
          </g>
          <g
             transform="translate(317.101,146.72)"
             id="g34333">
            <path
               d="M 2.296875,-1.75 C 2.34375,-1.96875 2.40625,-2.171875 2.453125,-2.390625 2.578125,-2.90625 2.578125,-2.90625 2.75,-3.203125 2.890625,-3.4375 3.34375,-4.1875 4.09375,-4.1875 c 0.4375,0 0.46875,0.453125 0.46875,0.65625 0,0.625 -0.453125,1.8125 -0.578125,2.203125 -0.140625,0.34375 -0.171875,0.4375 -0.171875,0.640625 0,0.4375 0.28125,0.796875 0.765625,0.796875 0.921875,0 1.265625,-1.484375 1.265625,-1.53125 0,-0.109375 -0.078125,-0.109375 -0.15625,-0.109375 -0.125,0 -0.125,0.03125 -0.171875,0.171875 -0.078125,0.265625 -0.34375,1.25 -0.921875,1.25 -0.203125,0 -0.21875,-0.15625 -0.21875,-0.296875 0,-0.234375 0.09375,-0.5 0.1875,-0.734375 0.1875,-0.53125 0.59375,-1.65625 0.59375,-2.234375 0,-0.8125 -0.546875,-1.03125 -1.03125,-1.03125 -0.8125,0 -1.296875,0.59375 -1.421875,0.78125 C 2.625,-4.109375 2.296875,-4.40625 1.859375,-4.40625 1.5,-4.40625 1.3125,-4.171875 1.140625,-3.875 c -0.1875,0.390625 -0.3125,0.984375 -0.3125,1 0,0.109375 0.09375,0.109375 0.15625,0.109375 0.125,0 0.125,-0.015625 0.1875,-0.234375 0.171875,-0.703125 0.359375,-1.1875 0.671875,-1.1875 0.265625,0 0.265625,0.296875 0.265625,0.40625 0,0.15625 -0.03125,0.34375 -0.078125,0.5 l -0.75,2.984375 c -0.015625,0.0625 -0.03125,0.125 -0.03125,0.140625 0,0.109375 0.078125,0.265625 0.28125,0.265625 0.125,0 0.296875,-0.0625 0.359375,-0.265625 z m 0,0"
               id="id-66721f0e-3643-4adb-972a-a433e211fd64" />
          </g>
        </g>
        <g
           fill="#000000"
           fill-opacity="1"
           id="id-780cf995-54ae-4bf2-95a8-f51e9d56bd9a"
           transform="translate(-209.41057,-120.76767)">
          <g
             transform="translate(326.269,146.72)"
             id="g34337">
            <path
               d="M 5.953125,-5.671875 6.09375,-5.8125 C 6.390625,-6.109375 6.71875,-6.453125 7.390625,-6.5 7.5,-6.515625 7.59375,-6.515625 7.59375,-6.6875 c 0,-0.078125 -0.046875,-0.125 -0.125,-0.125 -0.265625,0 -0.546875,0.03125 -0.8125,0.03125 -0.34375,0 -0.6875,-0.03125 -1,-0.03125 -0.0625,0 -0.1875,0 -0.1875,0.1875 0,0.109375 0.09375,0.125 0.140625,0.125 0.078125,0 0.359375,0.015625 0.359375,0.234375 0,0.171875 -0.234375,0.421875 -0.265625,0.46875 L 3.390625,-3.125 2.296875,-6.09375 C 2.234375,-6.234375 2.234375,-6.25 2.234375,-6.265625 2.234375,-6.5 2.71875,-6.5 2.828125,-6.5 c 0.125,0 0.234375,0 0.234375,-0.203125 0,-0.109375 -0.125,-0.109375 -0.15625,-0.109375 -0.28125,0 -0.96875,0.03125 -1.25,0.03125 -0.25,0 -0.875,-0.03125 -1.125,-0.03125 -0.046875,0 -0.1875,0 -0.1875,0.203125 C 0.34375,-6.5 0.453125,-6.5 0.578125,-6.5 c 0.59375,0 0.640625,0.09375 0.734375,0.34375 L 2.53125,-2.875 c 0.015625,0.03125 0.046875,0.140625 0.046875,0.15625 0,0.03125 -0.40625,1.640625 -0.453125,1.828125 C 2,-0.34375 1.984375,-0.3125 1.1875,-0.3125 c -0.1875,0 -0.265625,0 -0.265625,0.203125 C 0.921875,0 1.03125,0 1.0625,0 c 0.265625,0 0.96875,-0.03125 1.25,-0.03125 0.28125,0 1,0.03125 1.28125,0.03125 0.0625,0 0.1875,0 0.1875,-0.203125 C 3.78125,-0.3125 3.6875,-0.3125 3.5,-0.3125 c -0.015625,0 -0.203125,0 -0.375,-0.015625 C 2.90625,-0.34375 2.84375,-0.375 2.84375,-0.484375 c 0,-0.078125 0.09375,-0.421875 0.140625,-0.625 l 0.359375,-1.40625 c 0.046875,-0.203125 0.0625,-0.21875 0.140625,-0.3125 z m 0,0"
               id="id-f1d2c489-f113-4fc1-b0f3-119c116f9706" />
          </g>
        </g>
        <g
           transform="translate(121.95687,93.384684)"
           ns3:version="1.8.2"
           ns3:texconverter="pdflatex"
           ns3:pdfconverter="inkscape"
           ns3:text="$$\\textit{Abierto en } X$$"
           ns3:preamble=""
           ns3:scale="1.0"
           ns3:alignment="middle center"
           ns3:stroke-to-path="0"
           ns3:inkscapeversion="1.2.2"
           ns3:jacobian_sqrt="1.0"
           id="g34693">
          <defs
             id="id-85dea30f-f5db-44fa-b0f6-0c50d2de4563">
            <g
               id="id-d69d7ba0-4675-4982-8de5-b033d0c2e644">
              <g
                 id="id-b2dc1bbb-d255-4056-bae3-ecb6d0c0f215" />
              <g
                 id="id-ed76ade2-775b-44ec-a993-e7b9379e0c65">
                <path
                   d="M 1.90625,-1.125 C 1.484375,-0.375 1.0625,-0.328125 0.703125,-0.3125 0.59375,-0.296875 0.59375,-0.125 0.59375,-0.125 c 0,0.03125 0,0.125 0.109375,0.125 C 0.953125,0 1.25,-0.03125 1.5,-0.03125 1.8125,-0.03125 2.140625,0 2.4375,0 c 0.046875,0 0.171875,0 0.171875,-0.1875 0,-0.109375 -0.078125,-0.109375 -0.15625,-0.125 -0.0625,0 -0.421875,-0.03125 -0.421875,-0.328125 0,-0.09375 0.046875,-0.21875 0.140625,-0.390625 l 0.71875,-1.25 H 5.15625 l 0.125,1.65625 c 0,0.203125 -0.25,0.3125 -0.671875,0.3125 C 4.5,-0.3125 4.375,-0.3125 4.375,-0.125 4.375,0 4.5,0 4.53125,0 4.890625,0 5.296875,-0.03125 5.671875,-0.03125 6.015625,-0.03125 6.375,0 6.71875,0 6.78125,0 6.890625,0 6.890625,-0.171875 6.890625,-0.3125 6.8125,-0.3125 6.65625,-0.3125 c -0.515625,0 -0.546875,-0.078125 -0.5625,-0.328125 l -0.4375,-6.25 c 0,-0.21875 -0.015625,-0.25 -0.171875,-0.25 -0.15625,0 -0.203125,0.078125 -0.265625,0.1875 z m 3.015625,-4.734375 0.21875,3.265625 H 3.0625 Z m 0,0"
                   id="id-1533abf6-d867-443d-b291-f9bc8e619a04" />
              </g>
              <g
                 id="id-51f3b027-f4cc-449e-abf7-183bd36e9c7f">
                <path
                   d="m 3.015625,-6.671875 c 0.015625,-0.03125 0.03125,-0.109375 0.03125,-0.125 0,-0.09375 -0.0625,-0.125 -0.140625,-0.125 -0.03125,0 -0.125,0.015625 -0.15625,0.03125 L 1.765625,-6.8125 c -0.125,0 -0.234375,0.015625 -0.234375,0.203125 0,0.109375 0.109375,0.109375 0.25,0.109375 0.46875,0 0.484375,0.0625 0.484375,0.171875 0,0.03125 -0.015625,0.15625 -0.015625,0.171875 l -1,3.9375 c 0,0.03125 -0.109375,0.4375 -0.109375,0.8125 0,0.84375 0.421875,1.515625 1.15625,1.515625 1.109375,0 2.28125,-1.5 2.28125,-2.953125 0,-1.078125 -0.59375,-1.5625 -1.203125,-1.5625 -0.375,0 -0.71875,0.203125 -1.046875,0.53125 z m -0.71875,6.5625 c -0.25,0 -0.578125,-0.203125 -0.578125,-0.953125 0,-0.4375 0.078125,-0.796875 0.375,-1.921875 0.0625,-0.25 0.0625,-0.265625 0.21875,-0.46875 C 2.609375,-3.84375 2.984375,-4.1875 3.359375,-4.1875 c 0.453125,0 0.546875,0.5625 0.546875,0.890625 0,0.421875 -0.265625,1.609375 -0.5625,2.234375 -0.109375,0.25 -0.546875,0.953125 -1.046875,0.953125 z m 0,0"
                   id="id-1bbf38f6-babc-4ad6-b4c2-7aee2d30b079" />
              </g>
              <g
                 id="id-056ca7a5-977c-49c1-bd89-f40849b2dd42">
                <path
                   d="m 3.296875,-1.421875 c 0,-0.109375 -0.078125,-0.109375 -0.140625,-0.109375 -0.140625,0 -0.140625,0.03125 -0.171875,0.171875 -0.078125,0.296875 -0.359375,1.25 -0.9375,1.25 -0.078125,0 -0.21875,-0.015625 -0.21875,-0.28125 0,-0.25 0.140625,-0.59375 0.265625,-0.953125 l 0.640625,-1.703125 c 0.09375,-0.296875 0.109375,-0.375 0.109375,-0.5625 0,-0.546875 -0.375,-0.796875 -0.734375,-0.796875 -0.9375,0 -1.28125,1.484375 -1.28125,1.53125 0,0.109375 0.09375,0.109375 0.15625,0.109375 0.125,0 0.125,-0.03125 0.171875,-0.171875 0.09375,-0.328125 0.34375,-1.25 0.921875,-1.25 0.109375,0 0.21875,0.046875 0.21875,0.28125 0,0.234375 -0.109375,0.53125 -0.171875,0.71875 L 1.828125,-2.359375 C 1.6875,-2.03125 1.578125,-1.703125 1.453125,-1.375 1.3125,-1 1.28125,-0.890625 1.28125,-0.6875 c 0,0.390625 0.234375,0.796875 0.75,0.796875 0.9375,0 1.265625,-1.5 1.265625,-1.53125 z M 3.25,-6.203125 c 0,-0.25 -0.203125,-0.34375 -0.34375,-0.34375 -0.203125,0 -0.46875,0.203125 -0.46875,0.484375 0,0.25 0.1875,0.328125 0.328125,0.328125 0.203125,0 0.484375,-0.1875 0.484375,-0.46875 z m 0,0"
                   id="id-e77e283f-2b16-4841-ac7b-a16b473e1559" />
              </g>
              <g
                 id="id-470b263b-f650-41d9-9856-6387d4c33ab3">
                <path
                   d="m 2.375,-2.296875 c 0.3125,0 0.96875,-0.03125 1.453125,-0.21875 0.78125,-0.328125 0.78125,-0.96875 0.78125,-1.046875 0,-0.453125 -0.359375,-0.84375 -1,-0.84375 -1.046875,0 -2.46875,1 -2.46875,2.765625 0,0.90625 0.46875,1.75 1.421875,1.75 1.28125,0 2.109375,-1 2.109375,-1.140625 0,-0.0625 -0.09375,-0.171875 -0.171875,-0.171875 -0.03125,0 -0.046875,0.015625 -0.125,0.109375 -0.734375,0.9375 -1.625,0.984375 -1.796875,0.984375 -0.640625,0 -0.75,-0.703125 -0.75,-1.09375 0,-0.375 0.09375,-0.828125 0.171875,-1.09375 z m -0.328125,-0.21875 c 0.4375,-1.640625 1.46875,-1.671875 1.5625,-1.671875 0.390625,0 0.625,0.265625 0.625,0.609375 0,1.0625 -1.640625,1.0625 -1.96875,1.0625 z m 0,0"
                   id="id-04fe9c62-6cf9-427d-95e6-036558580734" />
              </g>
              <g
                 id="id-ec47a528-59aa-4613-aa3b-efbeb737e9f1">
                <path
                   d="m 2.578125,-2.875 c 0,-0.03125 0.453125,-1.3125 1.3125,-1.3125 0.046875,0 0.328125,0 0.53125,0.140625 C 4.0625,-3.9375 4.03125,-3.625 4.03125,-3.5625 c 0,0.125 0.09375,0.3125 0.359375,0.3125 0.171875,0 0.484375,-0.140625 0.484375,-0.53125 0,-0.515625 -0.640625,-0.625 -0.984375,-0.625 -0.6875,0 -1.046875,0.5 -1.203125,0.71875 -0.109375,-0.53125 -0.5,-0.71875 -0.828125,-0.71875 -0.359375,0 -0.546875,0.234375 -0.71875,0.53125 -0.1875,0.390625 -0.3125,0.984375 -0.3125,1 0,0.109375 0.09375,0.109375 0.15625,0.109375 0.125,0 0.125,-0.015625 0.1875,-0.234375 0.171875,-0.703125 0.359375,-1.1875 0.671875,-1.1875 0.265625,0 0.265625,0.296875 0.265625,0.40625 0,0.15625 -0.03125,0.34375 -0.078125,0.5 l -0.75,2.984375 c -0.015625,0.0625 -0.03125,0.125 -0.03125,0.140625 0,0.109375 0.078125,0.265625 0.28125,0.265625 0.296875,0 0.375,-0.28125 0.390625,-0.375 z m 0,0"
                   id="id-bd5c25b8-9c70-407c-983b-860e7f57b0d6" />
              </g>
              <g
                 id="id-8ed999bc-99b7-4864-811b-dacf0b4e0fb4">
                <path
                   d="M 2.59375,-3.984375 H 3.4375 c 0.171875,0 0.28125,0 0.28125,-0.1875 0,-0.125 -0.09375,-0.125 -0.25,-0.125 H 2.671875 l 0.375,-1.46875 c 0.03125,-0.140625 0.03125,-0.171875 0.03125,-0.21875 0,-0.203125 -0.171875,-0.25 -0.265625,-0.25 -0.25,0 -0.34375,0.203125 -0.390625,0.359375 L 2.03125,-4.296875 H 1.1875 c -0.171875,0 -0.28125,0 -0.28125,0.1875 0,0.125 0.09375,0.125 0.25,0.125 H 1.953125 L 1.234375,-1.125 C 1.21875,-1.09375 1.1875,-0.921875 1.1875,-0.78125 c 0,0.484375 0.328125,0.890625 0.84375,0.890625 1.015625,0 1.515625,-1.484375 1.515625,-1.53125 0,-0.109375 -0.078125,-0.109375 -0.140625,-0.109375 -0.125,0 -0.125,0.015625 -0.203125,0.203125 -0.1875,0.46875 -0.578125,1.21875 -1.15625,1.21875 -0.265625,0 -0.265625,-0.25 -0.265625,-0.40625 0,-0.078125 0,-0.234375 0.078125,-0.515625 z m 0,0"
                   id="id-6147d4ba-fca3-4d9c-819d-1c60fafad211" />
              </g>
              <g
                 id="id-9e46441b-dd32-4ce6-90af-e6d209e701c3">
                <path
                   d="m 5.078125,-2.765625 c 0,-0.953125 -0.59375,-1.640625 -1.453125,-1.640625 -1.25,0 -2.53125,1.421875 -2.53125,2.875 0,1.015625 0.625,1.640625 1.453125,1.640625 1.234375,0 2.53125,-1.421875 2.53125,-2.875 z m -2.53125,2.65625 c -0.390625,0 -0.75,-0.3125 -0.75,-1.03125 0,-0.5 0.25,-1.59375 0.578125,-2.140625 0.359375,-0.609375 0.84375,-0.90625 1.234375,-0.90625 0.484375,0 0.765625,0.4375 0.765625,1.03125 0,0.421875 -0.21875,1.453125 -0.53125,2.046875 -0.296875,0.546875 -0.796875,1 -1.296875,1 z m 0,0"
                   id="id-c61d0a9c-d8e4-4ad0-85bc-7a75c00a5409" />
              </g>
              <g
                 id="id-f97070c8-dc0e-4bbf-b3e1-b9f3b2fc905b">
                <path
                   d="M 2.296875,-1.75 C 2.34375,-1.96875 2.40625,-2.171875 2.453125,-2.390625 2.578125,-2.90625 2.578125,-2.90625 2.75,-3.203125 2.890625,-3.4375 3.34375,-4.1875 4.09375,-4.1875 c 0.4375,0 0.46875,0.453125 0.46875,0.65625 0,0.625 -0.453125,1.8125 -0.578125,2.203125 -0.140625,0.34375 -0.171875,0.4375 -0.171875,0.640625 0,0.4375 0.28125,0.796875 0.765625,0.796875 0.921875,0 1.265625,-1.484375 1.265625,-1.53125 0,-0.109375 -0.078125,-0.109375 -0.15625,-0.109375 -0.125,0 -0.125,0.03125 -0.171875,0.171875 -0.078125,0.265625 -0.34375,1.25 -0.921875,1.25 -0.203125,0 -0.21875,-0.15625 -0.21875,-0.296875 0,-0.234375 0.09375,-0.5 0.1875,-0.734375 0.1875,-0.53125 0.59375,-1.65625 0.59375,-2.234375 0,-0.8125 -0.546875,-1.03125 -1.03125,-1.03125 -0.8125,0 -1.296875,0.59375 -1.421875,0.78125 C 2.625,-4.109375 2.296875,-4.40625 1.859375,-4.40625 1.5,-4.40625 1.3125,-4.171875 1.140625,-3.875 c -0.1875,0.390625 -0.3125,0.984375 -0.3125,1 0,0.109375 0.09375,0.109375 0.15625,0.109375 0.125,0 0.125,-0.015625 0.1875,-0.234375 0.171875,-0.703125 0.359375,-1.1875 0.671875,-1.1875 0.265625,0 0.265625,0.296875 0.265625,0.40625 0,0.15625 -0.03125,0.34375 -0.078125,0.5 l -0.75,2.984375 c -0.015625,0.0625 -0.03125,0.125 -0.03125,0.140625 0,0.109375 0.078125,0.265625 0.28125,0.265625 0.125,0 0.296875,-0.0625 0.359375,-0.265625 z m 0,0"
                   id="id-e4241312-ddfe-4d11-ac71-33958c911138" />
              </g>
              <g
                 id="id-408bc23a-1432-413e-8231-500d1296c7b1" />
              <g
                 id="id-e983b1b2-ab91-4108-a75b-056fce8c7c36">
                <path
                   d="M 4.828125,-4.09375 4,-6.078125 c -0.03125,-0.078125 -0.046875,-0.125 -0.046875,-0.125 0,-0.0625 0.15625,-0.25 0.578125,-0.296875 0.109375,-0.015625 0.203125,-0.015625 0.203125,-0.1875 0,-0.125 -0.125,-0.125 -0.15625,-0.125 -0.40625,0 -0.828125,0.03125 -1.25,0.03125 -0.25,0 -0.859375,-0.03125 -1.109375,-0.03125 -0.0625,0 -0.1875,0 -0.1875,0.203125 C 2.03125,-6.5 2.140625,-6.5 2.265625,-6.5 c 0.59375,0 0.65625,0.09375 0.75,0.3125 l 1.171875,2.78125 -2.109375,2.265625 -0.125,0.109375 C 1.46875,-0.5 1,-0.34375 0.484375,-0.3125 c -0.125,0.015625 -0.21875,0.015625 -0.21875,0.203125 0,0.015625 0,0.109375 0.140625,0.109375 0.296875,0 0.625,-0.03125 0.921875,-0.03125 C 1.703125,-0.03125 2.09375,0 2.453125,0 2.515625,0 2.625,0 2.625,-0.203125 2.625,-0.296875 2.53125,-0.3125 2.515625,-0.3125 c -0.09375,0 -0.40625,-0.03125 -0.40625,-0.3125 0,-0.15625 0.15625,-0.3125 0.265625,-0.4375 L 3.40625,-2.140625 4.296875,-3.125 l 1,2.390625 c 0.046875,0.109375 0.0625,0.109375 0.0625,0.140625 0,0.078125 -0.203125,0.25 -0.578125,0.28125 C 4.671875,-0.296875 4.578125,-0.296875 4.578125,-0.125 4.578125,0 4.6875,0 4.71875,0 5,0 5.703125,-0.03125 5.984375,-0.03125 6.234375,-0.03125 6.84375,0 7.09375,0 c 0.0625,0 0.1875,0 0.1875,-0.1875 0,-0.125 -0.109375,-0.125 -0.1875,-0.125 -0.65625,0 -0.6875,-0.03125 -0.859375,-0.4375 C 5.859375,-1.671875 5.1875,-3.234375 4.953125,-3.828125 5.625,-4.53125 6.671875,-5.71875 7,-5.984375 7.28125,-6.234375 7.671875,-6.46875 8.265625,-6.5 c 0.125,-0.015625 0.21875,-0.015625 0.21875,-0.203125 0,0 0,-0.109375 -0.125,-0.109375 -0.296875,0 -0.640625,0.03125 -0.9375,0.03125 -0.375,0 -0.75,-0.03125 -1.109375,-0.03125 -0.0625,0 -0.1875,0 -0.1875,0.203125 0,0.0625 0.046875,0.09375 0.109375,0.109375 0.09375,0.015625 0.40625,0.03125 0.40625,0.3125 0,0.140625 -0.109375,0.265625 -0.1875,0.359375 z m 0,0"
                   id="id-7379ef56-0173-461a-a5b4-ee4e28780094" />
              </g>
            </g>
          </defs>
          <g
             fill="#000000"
             fill-opacity="1"
             id="id-1eab06cc-623a-48c1-99bf-46825df0a9af"
             transform="translate(-277.057,-139.579)">
            <g
               transform="translate(276.463,146.72)"
               id="g34660">
              <path
                 d="M 1.90625,-1.125 C 1.484375,-0.375 1.0625,-0.328125 0.703125,-0.3125 0.59375,-0.296875 0.59375,-0.125 0.59375,-0.125 c 0,0.03125 0,0.125 0.109375,0.125 C 0.953125,0 1.25,-0.03125 1.5,-0.03125 1.8125,-0.03125 2.140625,0 2.4375,0 c 0.046875,0 0.171875,0 0.171875,-0.1875 0,-0.109375 -0.078125,-0.109375 -0.15625,-0.125 -0.0625,0 -0.421875,-0.03125 -0.421875,-0.328125 0,-0.09375 0.046875,-0.21875 0.140625,-0.390625 l 0.71875,-1.25 H 5.15625 l 0.125,1.65625 c 0,0.203125 -0.25,0.3125 -0.671875,0.3125 C 4.5,-0.3125 4.375,-0.3125 4.375,-0.125 4.375,0 4.5,0 4.53125,0 4.890625,0 5.296875,-0.03125 5.671875,-0.03125 6.015625,-0.03125 6.375,0 6.71875,0 6.78125,0 6.890625,0 6.890625,-0.171875 6.890625,-0.3125 6.8125,-0.3125 6.65625,-0.3125 c -0.515625,0 -0.546875,-0.078125 -0.5625,-0.328125 l -0.4375,-6.25 c 0,-0.21875 -0.015625,-0.25 -0.171875,-0.25 -0.15625,0 -0.203125,0.078125 -0.265625,0.1875 z m 3.015625,-4.734375 0.21875,3.265625 H 3.0625 Z m 0,0"
                 id="id-43a770b0-a604-4714-8e60-d42b2d562810" />
            </g>
          </g>
          <g
             fill="#000000"
             fill-opacity="1"
             id="id-ca683ad8-a5b4-43c8-b838-b248e08e6468"
             transform="translate(-277.057,-139.579)">
            <g
               transform="translate(283.609,146.72)"
               id="g34664">
              <path
                 d="m 3.015625,-6.671875 c 0.015625,-0.03125 0.03125,-0.109375 0.03125,-0.125 0,-0.09375 -0.0625,-0.125 -0.140625,-0.125 -0.03125,0 -0.125,0.015625 -0.15625,0.03125 L 1.765625,-6.8125 c -0.125,0 -0.234375,0.015625 -0.234375,0.203125 0,0.109375 0.109375,0.109375 0.25,0.109375 0.46875,0 0.484375,0.0625 0.484375,0.171875 0,0.03125 -0.015625,0.15625 -0.015625,0.171875 l -1,3.9375 c 0,0.03125 -0.109375,0.4375 -0.109375,0.8125 0,0.84375 0.421875,1.515625 1.15625,1.515625 1.109375,0 2.28125,-1.5 2.28125,-2.953125 0,-1.078125 -0.59375,-1.5625 -1.203125,-1.5625 -0.375,0 -0.71875,0.203125 -1.046875,0.53125 z m -0.71875,6.5625 c -0.25,0 -0.578125,-0.203125 -0.578125,-0.953125 0,-0.4375 0.078125,-0.796875 0.375,-1.921875 0.0625,-0.25 0.0625,-0.265625 0.21875,-0.46875 C 2.609375,-3.84375 2.984375,-4.1875 3.359375,-4.1875 c 0.453125,0 0.546875,0.5625 0.546875,0.890625 0,0.421875 -0.265625,1.609375 -0.5625,2.234375 -0.109375,0.25 -0.546875,0.953125 -1.046875,0.953125 z m 0,0"
                 id="id-868a49d8-1fc2-45e2-bcfc-7783dca9f74f" />
            </g>
            <g
               transform="translate(288.192,146.72)"
               id="g34667">
              <path
                 d="m 3.296875,-1.421875 c 0,-0.109375 -0.078125,-0.109375 -0.140625,-0.109375 -0.140625,0 -0.140625,0.03125 -0.171875,0.171875 -0.078125,0.296875 -0.359375,1.25 -0.9375,1.25 -0.078125,0 -0.21875,-0.015625 -0.21875,-0.28125 0,-0.25 0.140625,-0.59375 0.265625,-0.953125 l 0.640625,-1.703125 c 0.09375,-0.296875 0.109375,-0.375 0.109375,-0.5625 0,-0.546875 -0.375,-0.796875 -0.734375,-0.796875 -0.9375,0 -1.28125,1.484375 -1.28125,1.53125 0,0.109375 0.09375,0.109375 0.15625,0.109375 0.125,0 0.125,-0.03125 0.171875,-0.171875 0.09375,-0.328125 0.34375,-1.25 0.921875,-1.25 0.109375,0 0.21875,0.046875 0.21875,0.28125 0,0.234375 -0.109375,0.53125 -0.171875,0.71875 L 1.828125,-2.359375 C 1.6875,-2.03125 1.578125,-1.703125 1.453125,-1.375 1.3125,-1 1.28125,-0.890625 1.28125,-0.6875 c 0,0.390625 0.234375,0.796875 0.75,0.796875 0.9375,0 1.265625,-1.5 1.265625,-1.53125 z M 3.25,-6.203125 c 0,-0.25 -0.203125,-0.34375 -0.34375,-0.34375 -0.203125,0 -0.46875,0.203125 -0.46875,0.484375 0,0.25 0.1875,0.328125 0.328125,0.328125 0.203125,0 0.484375,-0.1875 0.484375,-0.46875 z m 0,0"
                 id="id-23aff906-03b1-4285-8ab3-081d234c2415" />
            </g>
            <g
               transform="translate(291.248,146.72)"
               id="g34670">
              <path
                 d="m 2.375,-2.296875 c 0.3125,0 0.96875,-0.03125 1.453125,-0.21875 0.78125,-0.328125 0.78125,-0.96875 0.78125,-1.046875 0,-0.453125 -0.359375,-0.84375 -1,-0.84375 -1.046875,0 -2.46875,1 -2.46875,2.765625 0,0.90625 0.46875,1.75 1.421875,1.75 1.28125,0 2.109375,-1 2.109375,-1.140625 0,-0.0625 -0.09375,-0.171875 -0.171875,-0.171875 -0.03125,0 -0.046875,0.015625 -0.125,0.109375 -0.734375,0.9375 -1.625,0.984375 -1.796875,0.984375 -0.640625,0 -0.75,-0.703125 -0.75,-1.09375 0,-0.375 0.09375,-0.828125 0.171875,-1.09375 z m -0.328125,-0.21875 c 0.4375,-1.640625 1.46875,-1.671875 1.5625,-1.671875 0.390625,0 0.625,0.265625 0.625,0.609375 0,1.0625 -1.640625,1.0625 -1.96875,1.0625 z m 0,0"
                 id="id-ab3e4434-3e6f-4329-8c3e-58de4152ae04" />
            </g>
            <g
               transform="translate(295.83,146.72)"
               id="g34673">
              <path
                 d="m 2.578125,-2.875 c 0,-0.03125 0.453125,-1.3125 1.3125,-1.3125 0.046875,0 0.328125,0 0.53125,0.140625 C 4.0625,-3.9375 4.03125,-3.625 4.03125,-3.5625 c 0,0.125 0.09375,0.3125 0.359375,0.3125 0.171875,0 0.484375,-0.140625 0.484375,-0.53125 0,-0.515625 -0.640625,-0.625 -0.984375,-0.625 -0.6875,0 -1.046875,0.5 -1.203125,0.71875 -0.109375,-0.53125 -0.5,-0.71875 -0.828125,-0.71875 -0.359375,0 -0.546875,0.234375 -0.71875,0.53125 -0.1875,0.390625 -0.3125,0.984375 -0.3125,1 0,0.109375 0.09375,0.109375 0.15625,0.109375 0.125,0 0.125,-0.015625 0.1875,-0.234375 0.171875,-0.703125 0.359375,-1.1875 0.671875,-1.1875 0.265625,0 0.265625,0.296875 0.265625,0.40625 0,0.15625 -0.03125,0.34375 -0.078125,0.5 l -0.75,2.984375 c -0.015625,0.0625 -0.03125,0.125 -0.03125,0.140625 0,0.109375 0.078125,0.265625 0.28125,0.265625 0.296875,0 0.375,-0.28125 0.390625,-0.375 z m 0,0"
                 id="id-1766c437-5a27-4ad0-b0ca-3ad23823a5bf" />
            </g>
            <g
               transform="translate(300.032,146.72)"
               id="g34676">
              <path
                 d="M 2.59375,-3.984375 H 3.4375 c 0.171875,0 0.28125,0 0.28125,-0.1875 0,-0.125 -0.09375,-0.125 -0.25,-0.125 H 2.671875 l 0.375,-1.46875 c 0.03125,-0.140625 0.03125,-0.171875 0.03125,-0.21875 0,-0.203125 -0.171875,-0.25 -0.265625,-0.25 -0.25,0 -0.34375,0.203125 -0.390625,0.359375 L 2.03125,-4.296875 H 1.1875 c -0.171875,0 -0.28125,0 -0.28125,0.1875 0,0.125 0.09375,0.125 0.25,0.125 H 1.953125 L 1.234375,-1.125 C 1.21875,-1.09375 1.1875,-0.921875 1.1875,-0.78125 c 0,0.484375 0.328125,0.890625 0.84375,0.890625 1.015625,0 1.515625,-1.484375 1.515625,-1.53125 0,-0.109375 -0.078125,-0.109375 -0.140625,-0.109375 -0.125,0 -0.125,0.015625 -0.203125,0.203125 -0.1875,0.46875 -0.578125,1.21875 -1.15625,1.21875 -0.265625,0 -0.265625,-0.25 -0.265625,-0.40625 0,-0.078125 0,-0.234375 0.078125,-0.515625 z m 0,0"
                 id="id-c5e5bc45-4d2c-48c7-8420-88eea9cae05d" />
            </g>
            <g
               transform="translate(303.341,146.72)"
               id="g34679">
              <path
                 d="m 5.078125,-2.765625 c 0,-0.953125 -0.59375,-1.640625 -1.453125,-1.640625 -1.25,0 -2.53125,1.421875 -2.53125,2.875 0,1.015625 0.625,1.640625 1.453125,1.640625 1.234375,0 2.53125,-1.421875 2.53125,-2.875 z m -2.53125,2.65625 c -0.390625,0 -0.75,-0.3125 -0.75,-1.03125 0,-0.5 0.25,-1.59375 0.578125,-2.140625 0.359375,-0.609375 0.84375,-0.90625 1.234375,-0.90625 0.484375,0 0.765625,0.4375 0.765625,1.03125 0,0.421875 -0.21875,1.453125 -0.53125,2.046875 -0.296875,0.546875 -0.796875,1 -1.296875,1 z m 0,0"
                 id="id-14740188-58ce-4e1b-9473-d4c2133f6bba" />
            </g>
          </g>
          <g
             fill="#000000"
             fill-opacity="1"
             id="id-38de0ea6-539d-4568-8f12-302f99894219"
             transform="translate(-277.057,-139.579)">
            <g
               transform="translate(312,146.72)"
               id="g34683">
              <path
                 d="m 2.375,-2.296875 c 0.3125,0 0.96875,-0.03125 1.453125,-0.21875 0.78125,-0.328125 0.78125,-0.96875 0.78125,-1.046875 0,-0.453125 -0.359375,-0.84375 -1,-0.84375 -1.046875,0 -2.46875,1 -2.46875,2.765625 0,0.90625 0.46875,1.75 1.421875,1.75 1.28125,0 2.109375,-1 2.109375,-1.140625 0,-0.0625 -0.09375,-0.171875 -0.171875,-0.171875 -0.03125,0 -0.046875,0.015625 -0.125,0.109375 -0.734375,0.9375 -1.625,0.984375 -1.796875,0.984375 -0.640625,0 -0.75,-0.703125 -0.75,-1.09375 0,-0.375 0.09375,-0.828125 0.171875,-1.09375 z m -0.328125,-0.21875 c 0.4375,-1.640625 1.46875,-1.671875 1.5625,-1.671875 0.390625,0 0.625,0.265625 0.625,0.609375 0,1.0625 -1.640625,1.0625 -1.96875,1.0625 z m 0,0"
                 id="id-57dcf0e1-b69f-4791-878e-c69e7d19023f" />
            </g>
            <g
               transform="translate(316.582,146.72)"
               id="g34686">
              <path
                 d="M 2.296875,-1.75 C 2.34375,-1.96875 2.40625,-2.171875 2.453125,-2.390625 2.578125,-2.90625 2.578125,-2.90625 2.75,-3.203125 2.890625,-3.4375 3.34375,-4.1875 4.09375,-4.1875 c 0.4375,0 0.46875,0.453125 0.46875,0.65625 0,0.625 -0.453125,1.8125 -0.578125,2.203125 -0.140625,0.34375 -0.171875,0.4375 -0.171875,0.640625 0,0.4375 0.28125,0.796875 0.765625,0.796875 0.921875,0 1.265625,-1.484375 1.265625,-1.53125 0,-0.109375 -0.078125,-0.109375 -0.15625,-0.109375 -0.125,0 -0.125,0.03125 -0.171875,0.171875 -0.078125,0.265625 -0.34375,1.25 -0.921875,1.25 -0.203125,0 -0.21875,-0.15625 -0.21875,-0.296875 0,-0.234375 0.09375,-0.5 0.1875,-0.734375 0.1875,-0.53125 0.59375,-1.65625 0.59375,-2.234375 0,-0.8125 -0.546875,-1.03125 -1.03125,-1.03125 -0.8125,0 -1.296875,0.59375 -1.421875,0.78125 C 2.625,-4.109375 2.296875,-4.40625 1.859375,-4.40625 1.5,-4.40625 1.3125,-4.171875 1.140625,-3.875 c -0.1875,0.390625 -0.3125,0.984375 -0.3125,1 0,0.109375 0.09375,0.109375 0.15625,0.109375 0.125,0 0.125,-0.015625 0.1875,-0.234375 0.171875,-0.703125 0.359375,-1.1875 0.671875,-1.1875 0.265625,0 0.265625,0.296875 0.265625,0.40625 0,0.15625 -0.03125,0.34375 -0.078125,0.5 l -0.75,2.984375 c -0.015625,0.0625 -0.03125,0.125 -0.03125,0.140625 0,0.109375 0.078125,0.265625 0.28125,0.265625 0.125,0 0.296875,-0.0625 0.359375,-0.265625 z m 0,0"
                 id="id-a5378617-6182-43c2-9669-0476d9e909a2" />
            </g>
          </g>
          <g
             fill="#000000"
             fill-opacity="1"
             id="id-61eacbb2-5beb-4dc5-81e9-b6f6da58f737"
             transform="translate(-277.057,-139.579)">
            <g
               transform="translate(325.75,146.72)"
               id="g34690">
              <path
                 d="M 4.828125,-4.09375 4,-6.078125 c -0.03125,-0.078125 -0.046875,-0.125 -0.046875,-0.125 0,-0.0625 0.15625,-0.25 0.578125,-0.296875 0.109375,-0.015625 0.203125,-0.015625 0.203125,-0.1875 0,-0.125 -0.125,-0.125 -0.15625,-0.125 -0.40625,0 -0.828125,0.03125 -1.25,0.03125 -0.25,0 -0.859375,-0.03125 -1.109375,-0.03125 -0.0625,0 -0.1875,0 -0.1875,0.203125 C 2.03125,-6.5 2.140625,-6.5 2.265625,-6.5 c 0.59375,0 0.65625,0.09375 0.75,0.3125 l 1.171875,2.78125 -2.109375,2.265625 -0.125,0.109375 C 1.46875,-0.5 1,-0.34375 0.484375,-0.3125 c -0.125,0.015625 -0.21875,0.015625 -0.21875,0.203125 0,0.015625 0,0.109375 0.140625,0.109375 0.296875,0 0.625,-0.03125 0.921875,-0.03125 C 1.703125,-0.03125 2.09375,0 2.453125,0 2.515625,0 2.625,0 2.625,-0.203125 2.625,-0.296875 2.53125,-0.3125 2.515625,-0.3125 c -0.09375,0 -0.40625,-0.03125 -0.40625,-0.3125 0,-0.15625 0.15625,-0.3125 0.265625,-0.4375 L 3.40625,-2.140625 4.296875,-3.125 l 1,2.390625 c 0.046875,0.109375 0.0625,0.109375 0.0625,0.140625 0,0.078125 -0.203125,0.25 -0.578125,0.28125 C 4.671875,-0.296875 4.578125,-0.296875 4.578125,-0.125 4.578125,0 4.6875,0 4.71875,0 5,0 5.703125,-0.03125 5.984375,-0.03125 6.234375,-0.03125 6.84375,0 7.09375,0 c 0.0625,0 0.1875,0 0.1875,-0.1875 0,-0.125 -0.109375,-0.125 -0.1875,-0.125 -0.65625,0 -0.6875,-0.03125 -0.859375,-0.4375 C 5.859375,-1.671875 5.1875,-3.234375 4.953125,-3.828125 5.625,-4.53125 6.671875,-5.71875 7,-5.984375 7.28125,-6.234375 7.671875,-6.46875 8.265625,-6.5 c 0.125,-0.015625 0.21875,-0.015625 0.21875,-0.203125 0,0 0,-0.109375 -0.125,-0.109375 -0.296875,0 -0.640625,0.03125 -0.9375,0.03125 -0.375,0 -0.75,-0.03125 -1.109375,-0.03125 -0.0625,0 -0.1875,0 -0.1875,0.203125 0,0.0625 0.046875,0.09375 0.109375,0.109375 0.09375,0.015625 0.40625,0.03125 0.40625,0.3125 0,0.140625 -0.109375,0.265625 -0.1875,0.359375 z m 0,0"
                 id="id-e5f8097a-9cc3-4352-8444-1db6084a9036" />
            </g>
          </g>
        </g>
      </g>
    </g>
  </g>
  <g
     inkscape:groupmode="layer"
     id="layer2"
     inkscape:label="Layer 2"
     clip-path="url(#clipPath22732)" />
</svg>
