<?xml version="1.0" encoding="UTF-8" standalone="no"?>
<!-- Created with Inkscape (http://www.inkscape.org/) -->

<svg
   width="240mm"
   height="120mm"
   viewBox="0 0 240 120"
   version="1.1"
   id="svg8"
   inkscape:version="1.2.2 (b0a8486541, 2022-12-01)"
   sodipodi:docname="normas-topología.svg"
   xmlns:inkscape="http://www.inkscape.org/namespaces/inkscape"
   xmlns:sodipodi="http://sodipodi.sourceforge.net/DTD/sodipodi-0.dtd"
   xmlns="http://www.w3.org/2000/svg"
   xmlns:svg="http://www.w3.org/2000/svg"
   xmlns:rdf="http://www.w3.org/1999/02/22-rdf-syntax-ns#"
   xmlns:cc="http://creativecommons.org/ns#"
   xmlns:dc="http://purl.org/dc/elements/1.1/">
  <defs
     id="defs2">
    <clipPath
       id="clipPath8283">
      <path
         clip-rule="nonzero"
         d="m 32,7 h 5 v 3.226562 h -5 z m 0,0"
         id="path7287" />
    </clipPath>
    <clipPath
       id="clipPath6133">
      <path
         clip-rule="nonzero"
         d="m 60,7 h 4 v 3.226562 h -4 z m 0,0"
         id="path3032" />
    </clipPath>
    <clipPath
       id="clipPath2520">
      <path
         clip-rule="nonzero"
         d="M 0,0 H 5 V 4.289062 H 0 Z m 0,0"
         id="path5401" />
    </clipPath>
    <clipPath
       id="clipPath9092">
      <path
         clip-rule="nonzero"
         d="m 10,0 h 4 v 9.964844 h -4 z m 0,0"
         id="path1566" />
    </clipPath>
    <clipPath
       id="clipPath3277">
      <path
         clip-rule="nonzero"
         d="m 13,3 h 8 v 6.964844 h -8 z m 0,0"
         id="path5319" />
    </clipPath>
    <clipPath
       id="clipPath7493">
      <path
         clip-rule="nonzero"
         d="m 28,0 h 3 v 9.964844 h -3 z m 0,0"
         id="path8913" />
    </clipPath>
    <clipPath
       id="clipPath5066">
      <path
         clip-rule="nonzero"
         d="m 10,0 h 4 v 9.964844 h -4 z m 0,0"
         id="path715" />
    </clipPath>
    <clipPath
       id="clipPath9121">
      <path
         clip-rule="nonzero"
         d="m 13,3 h 8 v 6.964844 h -8 z m 0,0"
         id="path2861" />
    </clipPath>
    <clipPath
       id="clipPath3210">
      <path
         clip-rule="nonzero"
         d="m 28,0 h 3 v 9.964844 h -3 z m 0,0"
         id="path1706" />
    </clipPath>
    <clipPath
       id="clipPath7766">
      <path
         clip-rule="nonzero"
         d="m 10,0 h 4 v 9.964844 h -4 z m 0,0"
         id="path1742" />
    </clipPath>
    <clipPath
       id="clipPath1395">
      <path
         clip-rule="nonzero"
         d="m 13,3 h 8 v 6.964844 h -8 z m 0,0"
         id="path630" />
    </clipPath>
    <clipPath
       id="clipPath5429">
      <path
         clip-rule="nonzero"
         d="m 28,0 h 3 v 9.964844 h -3 z m 0,0"
         id="path526" />
    </clipPath>
    <clipPath
       id="clipPath6944">
      <path
         clip-rule="nonzero"
         d="m 45,0 h 7.976562 V 8 H 45 Z m 0,0"
         id="path7679" />
    </clipPath>
    <clipPath
       id="clipPath3430">
      <path
         clip-rule="nonzero"
         d="m 10,0 h 4 v 9.964844 h -4 z m 0,0"
         id="path7682" />
    </clipPath>
    <clipPath
       id="clipPath1616">
      <path
         clip-rule="nonzero"
         d="m 13,3 h 8 v 6.964844 h -8 z m 0,0"
         id="path3964" />
    </clipPath>
    <clipPath
       id="clipPath1083">
      <path
         clip-rule="nonzero"
         d="m 28,0 h 3 v 9.964844 h -3 z m 0,0"
         id="path6563" />
    </clipPath>
    <clipPath
       id="clipPath3690">
      <path
         clip-rule="nonzero"
         d="m 45,0 h 7.976562 V 8 H 45 Z m 0,0"
         id="path4490" />
    </clipPath>
    <clipPath
       id="clipPath5215">
      <path
         clip-rule="nonzero"
         d="M 0,0 H 8 V 7.488281 H 0 Z m 0,0"
         id="path8137" />
    </clipPath>
    <clipPath
       id="clipPath6653">
      <path
         clip-rule="nonzero"
         d="m 8,0 h 2.851562 V 4 H 8 Z m 0,0"
         id="path9272" />
    </clipPath>
    <clipPath
       id="clipPath8226">
      <path
         clip-rule="nonzero"
         d="M 0,0 H 8 V 7.488281 H 0 Z m 0,0"
         id="path9686" />
    </clipPath>
  </defs>
  <sodipodi:namedview
     id="base"
     pagecolor="#ffffff"
     bordercolor="#666666"
     borderopacity="1.0"
     inkscape:pageopacity="0.0"
     inkscape:pageshadow="2"
     inkscape:zoom="4.0795949"
     inkscape:cx="330.42497"
     inkscape:cy="273.92426"
     inkscape:document-units="mm"
     inkscape:current-layer="layer1"
     showgrid="false"
     showborder="true"
     width="200mm"
     showguides="true"
     inkscape:guide-bbox="true"
     inkscape:window-width="1920"
     inkscape:window-height="1050"
     inkscape:window-x="0"
     inkscape:window-y="0"
     inkscape:window-maximized="1"
     inkscape:showpageshadow="2"
     inkscape:pagecheckerboard="0"
     inkscape:deskcolor="#d1d1d1">
    <inkscape:grid
       type="xygrid"
       id="grid815"
       units="mm"
       spacingx="10"
       spacingy="10"
       empspacing="4"
       dotted="false" />
  </sodipodi:namedview>
  <metadata
     id="metadata5">
    <rdf:RDF>
      <cc:Work
         rdf:about="">
        <dc:format>image/svg+xml</dc:format>
        <dc:type
           rdf:resource="http://purl.org/dc/dcmitype/StillImage" />
        <dc:title />
      </cc:Work>
    </rdf:RDF>
  </metadata>
  <g
     inkscape:label="Layer 1"
     inkscape:groupmode="layer"
     id="layer1"
     transform="translate(0, -177)">
    <circle
       style="fill:#93deff;fill-opacity:1;stroke:#0000ff;stroke-width:0.264583;stroke-linecap:round;stroke-dasharray:0.264583, 0.529166;stroke-dashoffset:0;paint-order:fill markers stroke"
       id="path214"
       cx="36.753773"
       cy="235.66133"
       r="12.817774" />
    <rect
       style="fill:#a200e8;fill-opacity:1;stroke:#0000ff;stroke-width:0.264583;stroke-dasharray:0.264583, 0.529166;stroke-dashoffset:0"
       id="rect537"
       width="18.453196"
       height="17.555006"
       x="27.483412"
       y="226.88019" />
    <rect
       style="fill:#6666ff;fill-opacity:1;stroke:#2525ff;stroke-width:0.264583;stroke-dasharray:0.264583, 0.529166;stroke-dashoffset:0;stroke-opacity:1"
       id="rect593"
       width="7.9619503"
       height="7.9619503"
       x="188.64575"
       y="136.60536"
       transform="rotate(45)" />
    <rect
       style="fill:#6666ff;fill-opacity:1;stroke:#2525ff;stroke-width:0.264583;stroke-dasharray:0.264583, 0.529166;stroke-dashoffset:0;stroke-opacity:1"
       id="rect593-3"
       width="7.9619503"
       height="7.9619503"
       x="302.22842"
       y="24.369287"
       transform="rotate(45)" />
    <circle
       style="fill:#6bd2ff;fill-opacity:1;stroke:#0000ff;stroke-width:0.264583;stroke-dasharray:0.264583, 0.529166;stroke-dashoffset:0"
       id="path647"
       cx="36.942242"
       cy="235.8922"
       r="2.953887" />
    <path
       style="fill:#0000ff;stroke:#0000ff;stroke-width:0.264583"
       d="m 36.891415,236.29517 c -0.528485,-0.1624 -0.615252,-1.14459 0.07883,-1.03637 0.242467,0.0378 0.57921,0.64538 0.3345,0.84158 -0.118832,0.0953 -0.275553,0.12986 -0.41333,0.19479 z"
       id="path848" />
    <g
       inkscape:label=""
       transform="translate(54.84601,234.35225)"
       id="g6385">
      <g
         fill="#000000"
         fill-opacity="1"
         id="g44"
         transform="matrix(0.352778,0,0,0.352778,-0.148828,0.00586491)">
        <g
           id="use42"
           transform="translate(0,7.4899998)">
          <path
             d="M 1.59375,-0.78125 C 1.5,-0.390625 1.46875,-0.3125 0.6875,-0.3125 c -0.171875,0 -0.265625,0 -0.265625,0.203125 C 0.421875,0 0.515625,0 0.6875,0 H 4.25 C 5.828125,0 7,-1.171875 7,-2.15625 7,-2.875 6.421875,-3.453125 5.453125,-3.5625 6.484375,-3.75 7.53125,-4.484375 7.53125,-5.4375 c 0,-0.734375 -0.65625,-1.375 -1.84375,-1.375 H 2.328125 c -0.1875,0 -0.28125,0 -0.28125,0.203125 0,0.109375 0.09375,0.109375 0.28125,0.109375 0.015625,0 0.203125,0 0.375,0.015625 0.171875,0.03125 0.265625,0.03125 0.265625,0.171875 0,0.03125 -0.015625,0.0625 -0.03125,0.1875 z m 1.5,-2.875 0.625,-2.46875 C 3.8125,-6.46875 3.828125,-6.5 4.25,-6.5 h 1.296875 c 0.875,0 1.078125,0.59375 1.078125,1.03125 0,0.875 -0.859375,1.8125 -2.0625,1.8125 z m -0.4375,3.34375 c -0.140625,0 -0.15625,0 -0.21875,0 -0.109375,-0.015625 -0.140625,-0.03125 -0.140625,-0.109375 0,-0.03125 0,-0.046875 0.0625,-0.21875 l 0.6875,-2.78125 h 1.875 c 0.953125,0 1.15625,0.734375 1.15625,1.15625 C 6.078125,-1.28125 5.1875,-0.3125 4,-0.3125 Z m 0,0"
             id="path122" />
        </g>
      </g>
      <g
         fill="#000000"
         fill-opacity="1"
         id="g48"
         transform="matrix(0.352778,0,0,0.352778,-0.148828,0.00586491)">
        <g
           id="use46"
           transform="translate(7.5570002,8.9840002)">
          <path
             d="m 1.15625,-1.546875 c 0.265625,0.09375 0.46875,0.09375 0.671875,0.09375 0.234375,0 0.640625,0 0.640625,-0.25 0,-0.1875 -0.265625,-0.21875 -0.5625,-0.21875 -0.09375,0 -0.40625,0 -0.75,0.140625 C 1,-1.859375 0.90625,-2 0.90625,-2.140625 c 0,-0.375 0.671875,-0.625 1.375,-0.625 0.109375,0 0.40625,0 0.71875,0.203125 0.046875,0.03125 0.09375,0.0625 0.140625,0.0625 0.09375,0 0.21875,-0.109375 0.21875,-0.21875 0,-0.140625 -0.21875,-0.25 -0.359375,-0.296875 -0.296875,-0.125 -0.546875,-0.125 -0.640625,-0.125 -0.859375,0 -1.703125,0.4375 -1.703125,1 0,0.28125 0.265625,0.46875 0.28125,0.46875 -0.265625,0.15625 -0.609375,0.46875 -0.609375,0.90625 0,0.5 0.5,0.90625 1.28125,0.90625 1.046875,0 1.421875,-0.625 1.421875,-0.734375 C 3.03125,-0.640625 3,-0.6875 2.9375,-0.6875 2.90625,-0.6875 2.875,-0.65625 2.859375,-0.640625 2.6875,-0.359375 2.453125,-0.25 1.71875,-0.25 c -0.171875,0 -0.5,0 -0.75,-0.09375 C 0.6875,-0.453125 0.5625,-0.640625 0.5625,-0.8125 c 0,-0.15625 0.125,-0.5 0.59375,-0.734375 z m 0.3125,-0.125 c 0.078125,-0.015625 0.203125,-0.0625 0.421875,-0.0625 0.15625,0 0.1875,0.015625 0.328125,0.046875 -0.109375,0.03125 -0.125,0.046875 -0.390625,0.046875 -0.09375,0 -0.234375,0 -0.359375,-0.03125 z m 0,0"
             id="path126" />
        </g>
      </g>
      <g
         fill="#000000"
         fill-opacity="1"
         id="g52"
         transform="matrix(0.352778,0,0,0.352778,-0.148828,0.00586491)">
        <g
           id="use50"
           transform="translate(14.586,7.4899998)">
          <path
             d="m 3.84375,-4.984375 c 1.546875,0 2.671875,1.15625 2.671875,2.484375 0,1.34375 -1.125,2.5 -2.671875,2.5 H 1.171875 C 1,0 0.828125,0 0.828125,0.203125 0.828125,0.40625 1,0.40625 1.171875,0.40625 h 2.6875 c 1.703125,0 3.0625,-1.296875 3.0625,-2.90625 0,-1.59375 -1.359375,-2.890625 -3.0625,-2.890625 h -2.6875 c -0.171875,0 -0.34375,0 -0.34375,0.203125 0,0.203125 0.171875,0.203125 0.34375,0.203125 z m 0,0"
             id="path130" />
        </g>
      </g>
      <g
         fill="#000000"
         fill-opacity="1"
         id="g56"
         transform="matrix(0.352778,0,0,0.352778,-0.148828,0.00586491)">
        <g
           id="use54"
           transform="translate(25.101999,7.4899998)">
          <path
             d="M 1.59375,-0.78125 C 1.5,-0.390625 1.46875,-0.3125 0.6875,-0.3125 c -0.171875,0 -0.265625,0 -0.265625,0.203125 C 0.421875,0 0.515625,0 0.6875,0 H 4.25 C 5.828125,0 7,-1.171875 7,-2.15625 7,-2.875 6.421875,-3.453125 5.453125,-3.5625 6.484375,-3.75 7.53125,-4.484375 7.53125,-5.4375 c 0,-0.734375 -0.65625,-1.375 -1.84375,-1.375 H 2.328125 c -0.1875,0 -0.28125,0 -0.28125,0.203125 0,0.109375 0.09375,0.109375 0.28125,0.109375 0.015625,0 0.203125,0 0.375,0.015625 0.171875,0.03125 0.265625,0.03125 0.265625,0.171875 0,0.03125 -0.015625,0.0625 -0.03125,0.1875 z m 1.5,-2.875 0.625,-2.46875 C 3.8125,-6.46875 3.828125,-6.5 4.25,-6.5 h 1.296875 c 0.875,0 1.078125,0.59375 1.078125,1.03125 0,0.875 -0.859375,1.8125 -2.0625,1.8125 z m -0.4375,3.34375 c -0.140625,0 -0.15625,0 -0.21875,0 -0.109375,-0.015625 -0.140625,-0.03125 -0.140625,-0.109375 0,-0.03125 0,-0.046875 0.0625,-0.21875 l 0.6875,-2.78125 h 1.875 c 0.953125,0 1.15625,0.734375 1.15625,1.15625 C 6.078125,-1.28125 5.1875,-0.3125 4,-0.3125 Z m 0,0"
             id="path134" />
        </g>
      </g>
      <g
         fill="#000000"
         fill-opacity="1"
         id="g60"
         transform="matrix(0.352778,0,0,0.352778,-0.148828,0.00586491)">
        <g
           id="use58"
           transform="translate(33.159,3.8740001)">
          <path
             d="m 2.015625,-3.296875 c 0.0625,-0.109375 0.0625,-0.171875 0.0625,-0.21875 0,-0.21875 -0.1875,-0.375 -0.40625,-0.375 -0.265625,0 -0.34375,0.21875 -0.375,0.328125 L 0.375,-0.546875 c -0.015625,0.015625 -0.046875,0.09375 -0.046875,0.109375 0,0.078125 0.21875,0.15625 0.28125,0.15625 0.046875,0 0.046875,-0.015625 0.09375,-0.125 z m 0,0"
             id="path138" />
        </g>
      </g>
      <g
         clip-path="url(#clipPath8283)"
         id="g66"
         transform="matrix(0.352778,0,0,0.352778,-0.148828,0.00586491)">
        <g
           fill="#000000"
           fill-opacity="1"
           id="g64">
          <g
             id="use62"
             transform="translate(32.659,10.228)">
            <path
               d="m 1.15625,-1.546875 c 0.265625,0.09375 0.46875,0.09375 0.671875,0.09375 0.234375,0 0.640625,0 0.640625,-0.25 0,-0.1875 -0.265625,-0.21875 -0.5625,-0.21875 -0.09375,0 -0.40625,0 -0.75,0.140625 C 1,-1.859375 0.90625,-2 0.90625,-2.140625 c 0,-0.375 0.671875,-0.625 1.375,-0.625 0.109375,0 0.40625,0 0.71875,0.203125 0.046875,0.03125 0.09375,0.0625 0.140625,0.0625 0.09375,0 0.21875,-0.109375 0.21875,-0.21875 0,-0.140625 -0.21875,-0.25 -0.359375,-0.296875 -0.296875,-0.125 -0.546875,-0.125 -0.640625,-0.125 -0.859375,0 -1.703125,0.4375 -1.703125,1 0,0.28125 0.265625,0.46875 0.28125,0.46875 -0.265625,0.15625 -0.609375,0.46875 -0.609375,0.90625 0,0.5 0.5,0.90625 1.28125,0.90625 1.046875,0 1.421875,-0.625 1.421875,-0.734375 C 3.03125,-0.640625 3,-0.6875 2.9375,-0.6875 2.90625,-0.6875 2.875,-0.65625 2.859375,-0.640625 2.6875,-0.359375 2.453125,-0.25 1.71875,-0.25 c -0.171875,0 -0.5,0 -0.75,-0.09375 C 0.6875,-0.453125 0.5625,-0.640625 0.5625,-0.8125 c 0,-0.15625 0.125,-0.5 0.59375,-0.734375 z m 0.3125,-0.125 c 0.078125,-0.015625 0.203125,-0.0625 0.421875,-0.0625 0.15625,0 0.1875,0.015625 0.328125,0.046875 -0.109375,0.03125 -0.125,0.046875 -0.390625,0.046875 -0.09375,0 -0.234375,0 -0.359375,-0.03125 z m 0,0"
               id="path142" />
          </g>
        </g>
      </g>
      <g
         fill="#000000"
         fill-opacity="1"
         id="g70"
         transform="matrix(0.352778,0,0,0.352778,-0.148828,0.00586491)">
        <g
           id="use68"
           transform="translate(36.423,8.2349997)">
          <path
             d="m 1.796875,-2.3125 c 0,-0.015625 0.046875,-0.109375 0.046875,-0.1875 0,-0.171875 -0.15625,-0.28125 -0.3125,-0.28125 -0.203125,0 -0.25,0.15625 -0.28125,0.21875 L 0.484375,-0.40625 C 0.46875,-0.34375 0.46875,-0.328125 0.46875,-0.3125 c 0,0.078125 0.203125,0.125 0.203125,0.125 0.046875,0 0.0625,-0.03125 0.09375,-0.09375 z m 0,0"
             id="path146" />
        </g>
      </g>
      <g
         fill="#000000"
         fill-opacity="1"
         id="g74"
         transform="matrix(0.352778,0,0,0.352778,-0.148828,0.00586491)">
        <g
           id="use72"
           transform="translate(42.382999,7.4899998)">
          <path
             d="m 3.84375,-4.984375 c 1.546875,0 2.671875,1.15625 2.671875,2.484375 0,1.34375 -1.125,2.5 -2.671875,2.5 H 1.171875 C 1,0 0.828125,0 0.828125,0.203125 0.828125,0.40625 1,0.40625 1.171875,0.40625 h 2.6875 c 1.703125,0 3.0625,-1.296875 3.0625,-2.90625 0,-1.59375 -1.359375,-2.890625 -3.0625,-2.890625 h -2.6875 c -0.171875,0 -0.34375,0 -0.34375,0.203125 0,0.203125 0.171875,0.203125 0.34375,0.203125 z m 0,0"
             id="path150" />
        </g>
      </g>
      <g
         fill="#000000"
         fill-opacity="1"
         id="g78"
         transform="matrix(0.352778,0,0,0.352778,-0.148828,0.00586491)">
        <g
           id="use76"
           transform="translate(52.898998,7.4899998)">
          <path
             d="M 1.59375,-0.78125 C 1.5,-0.390625 1.46875,-0.3125 0.6875,-0.3125 c -0.171875,0 -0.265625,0 -0.265625,0.203125 C 0.421875,0 0.515625,0 0.6875,0 H 4.25 C 5.828125,0 7,-1.171875 7,-2.15625 7,-2.875 6.421875,-3.453125 5.453125,-3.5625 6.484375,-3.75 7.53125,-4.484375 7.53125,-5.4375 c 0,-0.734375 -0.65625,-1.375 -1.84375,-1.375 H 2.328125 c -0.1875,0 -0.28125,0 -0.28125,0.203125 0,0.109375 0.09375,0.109375 0.28125,0.109375 0.015625,0 0.203125,0 0.375,0.015625 0.171875,0.03125 0.265625,0.03125 0.265625,0.171875 0,0.03125 -0.015625,0.0625 -0.03125,0.1875 z m 1.5,-2.875 0.625,-2.46875 C 3.8125,-6.46875 3.828125,-6.5 4.25,-6.5 h 1.296875 c 0.875,0 1.078125,0.59375 1.078125,1.03125 0,0.875 -0.859375,1.8125 -2.0625,1.8125 z m -0.4375,3.34375 c -0.140625,0 -0.15625,0 -0.21875,0 -0.109375,-0.015625 -0.140625,-0.03125 -0.140625,-0.109375 0,-0.03125 0,-0.046875 0.0625,-0.21875 l 0.6875,-2.78125 h 1.875 c 0.953125,0 1.15625,0.734375 1.15625,1.15625 C 6.078125,-1.28125 5.1875,-0.3125 4,-0.3125 Z m 0,0"
             id="path154" />
        </g>
      </g>
      <g
         fill="#000000"
         fill-opacity="1"
         id="g84"
         transform="matrix(0.352778,0,0,0.352778,-0.148828,0.00586491)">
        <g
           id="use80"
           transform="translate(60.956001,3.8740001)">
          <path
             d="m 2.015625,-3.296875 c 0.0625,-0.109375 0.0625,-0.171875 0.0625,-0.21875 0,-0.21875 -0.1875,-0.375 -0.40625,-0.375 -0.265625,0 -0.34375,0.21875 -0.375,0.328125 L 0.375,-0.546875 c -0.015625,0.015625 -0.046875,0.09375 -0.046875,0.109375 0,0.078125 0.21875,0.15625 0.28125,0.15625 0.046875,0 0.046875,-0.015625 0.09375,-0.125 z m 0,0"
             id="path158" />
        </g>
        <g
           id="use82"
           transform="translate(63.25317,3.8740001)">
          <path
             d="m 2.015625,-3.296875 c 0.0625,-0.109375 0.0625,-0.171875 0.0625,-0.21875 0,-0.21875 -0.1875,-0.375 -0.40625,-0.375 -0.265625,0 -0.34375,0.21875 -0.375,0.328125 L 0.375,-0.546875 c -0.015625,0.015625 -0.046875,0.09375 -0.046875,0.109375 0,0.078125 0.21875,0.15625 0.28125,0.15625 0.046875,0 0.046875,-0.015625 0.09375,-0.125 z m 0,0"
             id="path162" />
        </g>
      </g>
      <g
         clip-path="url(#clipPath6133)"
         id="g90"
         transform="matrix(0.352778,0,0,0.352778,-0.148828,0.00586491)">
        <g
           fill="#000000"
           fill-opacity="1"
           id="g88">
          <g
             id="use86"
             transform="translate(60.456001,10.228)">
            <path
               d="m 1.15625,-1.546875 c 0.265625,0.09375 0.46875,0.09375 0.671875,0.09375 0.234375,0 0.640625,0 0.640625,-0.25 0,-0.1875 -0.265625,-0.21875 -0.5625,-0.21875 -0.09375,0 -0.40625,0 -0.75,0.140625 C 1,-1.859375 0.90625,-2 0.90625,-2.140625 c 0,-0.375 0.671875,-0.625 1.375,-0.625 0.109375,0 0.40625,0 0.71875,0.203125 0.046875,0.03125 0.09375,0.0625 0.140625,0.0625 0.09375,0 0.21875,-0.109375 0.21875,-0.21875 0,-0.140625 -0.21875,-0.25 -0.359375,-0.296875 -0.296875,-0.125 -0.546875,-0.125 -0.640625,-0.125 -0.859375,0 -1.703125,0.4375 -1.703125,1 0,0.28125 0.265625,0.46875 0.28125,0.46875 -0.265625,0.15625 -0.609375,0.46875 -0.609375,0.90625 0,0.5 0.5,0.90625 1.28125,0.90625 1.046875,0 1.421875,-0.625 1.421875,-0.734375 C 3.03125,-0.640625 3,-0.6875 2.9375,-0.6875 2.90625,-0.6875 2.875,-0.65625 2.859375,-0.640625 2.6875,-0.359375 2.453125,-0.25 1.71875,-0.25 c -0.171875,0 -0.5,0 -0.75,-0.09375 C 0.6875,-0.453125 0.5625,-0.640625 0.5625,-0.8125 c 0,-0.15625 0.125,-0.5 0.59375,-0.734375 z m 0.3125,-0.125 c 0.078125,-0.015625 0.203125,-0.0625 0.421875,-0.0625 0.15625,0 0.1875,0.015625 0.328125,0.046875 -0.109375,0.03125 -0.125,0.046875 -0.390625,0.046875 -0.09375,0 -0.234375,0 -0.359375,-0.03125 z m 0,0"
               id="path166" />
          </g>
        </g>
      </g>
      <g
         fill="#000000"
         fill-opacity="1"
         id="g96"
         transform="matrix(0.352778,0,0,0.352778,-0.148828,0.00586491)">
        <g
           id="use92"
           transform="translate(64.220001,8.2349997)">
          <path
             d="m 1.796875,-2.3125 c 0,-0.015625 0.046875,-0.109375 0.046875,-0.1875 0,-0.171875 -0.15625,-0.28125 -0.3125,-0.28125 -0.203125,0 -0.25,0.15625 -0.28125,0.21875 L 0.484375,-0.40625 C 0.46875,-0.34375 0.46875,-0.328125 0.46875,-0.3125 c 0,0.078125 0.203125,0.125 0.203125,0.125 0.046875,0 0.0625,-0.03125 0.09375,-0.09375 z m 0,0"
             id="path170" />
        </g>
        <g
           id="use94"
           transform="translate(66.416756,8.2349997)">
          <path
             d="m 1.796875,-2.3125 c 0,-0.015625 0.046875,-0.109375 0.046875,-0.1875 0,-0.171875 -0.15625,-0.28125 -0.3125,-0.28125 -0.203125,0 -0.25,0.15625 -0.28125,0.21875 L 0.484375,-0.40625 C 0.46875,-0.34375 0.46875,-0.328125 0.46875,-0.3125 c 0,0.078125 0.203125,0.125 0.203125,0.125 0.046875,0 0.0625,-0.03125 0.09375,-0.09375 z m 0,0"
             id="path174" />
        </g>
      </g>
      <g
         fill="#000000"
         fill-opacity="1"
         id="g100"
         transform="matrix(0.352778,0,0,0.352778,-0.148828,0.00586491)">
        <g
           id="use98"
           transform="translate(72.376999,7.4899998)">
          <path
             d="m 3.84375,-4.984375 c 1.546875,0 2.671875,1.15625 2.671875,2.484375 0,1.34375 -1.125,2.5 -2.671875,2.5 H 1.171875 C 1,0 0.828125,0 0.828125,0.203125 0.828125,0.40625 1,0.40625 1.171875,0.40625 h 2.6875 c 1.703125,0 3.0625,-1.296875 3.0625,-2.90625 0,-1.59375 -1.359375,-2.890625 -3.0625,-2.890625 h -2.6875 c -0.171875,0 -0.34375,0 -0.34375,0.203125 0,0.203125 0.171875,0.203125 0.34375,0.203125 z m 0,0"
             id="path178" />
        </g>
      </g>
      <g
         fill="#000000"
         fill-opacity="1"
         id="g104"
         transform="matrix(0.352778,0,0,0.352778,-0.148828,0.00586491)">
        <g
           id="use102"
           transform="translate(82.892998,7.4899998)">
          <path
             d="M 1.59375,-0.78125 C 1.5,-0.390625 1.46875,-0.3125 0.6875,-0.3125 c -0.171875,0 -0.265625,0 -0.265625,0.203125 C 0.421875,0 0.515625,0 0.6875,0 H 4.25 C 5.828125,0 7,-1.171875 7,-2.15625 7,-2.875 6.421875,-3.453125 5.453125,-3.5625 6.484375,-3.75 7.53125,-4.484375 7.53125,-5.4375 c 0,-0.734375 -0.65625,-1.375 -1.84375,-1.375 H 2.328125 c -0.1875,0 -0.28125,0 -0.28125,0.203125 0,0.109375 0.09375,0.109375 0.28125,0.109375 0.015625,0 0.203125,0 0.375,0.015625 0.171875,0.03125 0.265625,0.03125 0.265625,0.171875 0,0.03125 -0.015625,0.0625 -0.03125,0.1875 z m 1.5,-2.875 0.625,-2.46875 C 3.8125,-6.46875 3.828125,-6.5 4.25,-6.5 h 1.296875 c 0.875,0 1.078125,0.59375 1.078125,1.03125 0,0.875 -0.859375,1.8125 -2.0625,1.8125 z m -0.4375,3.34375 c -0.140625,0 -0.15625,0 -0.21875,0 -0.109375,-0.015625 -0.140625,-0.03125 -0.140625,-0.109375 0,-0.03125 0,-0.046875 0.0625,-0.21875 l 0.6875,-2.78125 h 1.875 c 0.953125,0 1.15625,0.734375 1.15625,1.15625 C 6.078125,-1.28125 5.1875,-0.3125 4,-0.3125 Z m 0,0"
             id="path182" />
        </g>
      </g>
      <g
         fill="#000000"
         fill-opacity="1"
         id="g108"
         transform="matrix(0.352778,0,0,0.352778,-0.148828,0.00586491)">
        <g
           id="use106"
           transform="translate(90.449997,8.9840002)">
          <path
             d="m 2.0625,-3.03125 c -1.046875,0.265625 -1.640625,1.15625 -1.640625,1.890625 0,0.75 0.5625,1.21875 1.25,1.21875 0.84375,0 1.5,-0.984375 1.5,-2 C 3.171875,-2.59375 2.8125,-3 2.59375,-3.234375 2.34375,-3.53125 1.8125,-4.09375 1.8125,-4.421875 c 0,-0.09375 0.109375,-0.28125 0.390625,-0.28125 0.234375,0 0.4375,0.109375 0.578125,0.1875 0.0625,0.03125 0.3125,0.1875 0.421875,0.1875 C 3.375,-4.328125 3.5,-4.484375 3.5,-4.625 3.5,-4.796875 3.40625,-4.8125 3.03125,-4.890625 2.953125,-4.90625 2.625,-4.96875 2.40625,-4.96875 c -0.53125,0 -0.8125,0.296875 -0.8125,0.71875 0,0.375 0.21875,0.796875 0.46875,1.21875 z m 0.109375,0.1875 C 2.375,-2.53125 2.625,-2.125 2.625,-1.625 c 0,0.578125 -0.34375,1.515625 -0.9375,1.515625 -0.375,0 -0.75,-0.25 -0.75,-0.828125 0,-0.46875 0.265625,-1.671875 1.234375,-1.90625 z m 0,0"
             id="path186" />
        </g>
      </g>
      <g
         fill="#000000"
         fill-opacity="1"
         id="g112"
         transform="matrix(0.352778,0,0,0.352778,-0.148828,0.00586491)">
        <g
           id="use110"
           transform="translate(100.357,7.4899998)">
          <path
             d="m 6.84375,-3.265625 c 0.15625,0 0.34375,0 0.34375,-0.1875 C 7.1875,-3.65625 7,-3.65625 6.859375,-3.65625 h -5.96875 c -0.140625,0 -0.328125,0 -0.328125,0.203125 0,0.1875 0.1875,0.1875 0.328125,0.1875 z m 0.015625,1.9375 c 0.140625,0 0.328125,0 0.328125,-0.203125 0,-0.1875 -0.1875,-0.1875 -0.34375,-0.1875 H 0.890625 c -0.140625,0 -0.328125,0 -0.328125,0.1875 0,0.203125 0.1875,0.203125 0.328125,0.203125 z m 0,0"
             id="path190" />
        </g>
      </g>
      <g
         fill="#000000"
         fill-opacity="1"
         id="g116"
         transform="matrix(0.352778,0,0,0.352778,-0.148828,0.00586491)">
        <g
           id="use114"
           transform="translate(106.445,7.4899998)">
          <path
             d="M 7.234375,-3.265625 C 7.65625,-2.90625 8.171875,-2.640625 8.5,-2.5 8.140625,-2.328125 7.640625,-2.078125 7.234375,-1.71875 H 0.90625 c -0.171875,0 -0.359375,0 -0.359375,0.1875 0,0.203125 0.1875,0.203125 0.34375,0.203125 H 6.78125 C 6.3125,-0.875 5.796875,0.015625 5.796875,0.140625 5.796875,0.25 5.921875,0.25 5.984375,0.25 6.0625,0.25 6.125,0.25 6.171875,0.171875 6.375,-0.203125 6.65625,-0.734375 7.3125,-1.3125 8,-1.921875 8.65625,-2.1875 9.1875,-2.34375 c 0.15625,-0.0625 0.171875,-0.0625 0.1875,-0.09375 0.03125,0 0.03125,-0.03125 0.03125,-0.0625 0,-0.015625 0,-0.03125 -0.015625,-0.046875 l -0.03125,-0.03125 c -0.015625,0 -0.03125,-0.015625 -0.21875,-0.078125 -1.34375,-0.390625 -2.34375,-1.296875 -2.90625,-2.375 -0.109375,-0.1875 -0.109375,-0.203125 -0.25,-0.203125 -0.0625,0 -0.1875,0 -0.1875,0.109375 0,0.125 0.5,1 0.984375,1.46875 H 0.890625 c -0.15625,0 -0.34375,0 -0.34375,0.203125 0,0.1875 0.1875,0.1875 0.359375,0.1875 z m 0,0"
             id="path194" />
        </g>
      </g>
    </g>
    <path
       style="fill:none;fill-opacity:1;stroke:#000000;stroke-width:0.264583;stroke-linecap:round;stroke-dasharray:0.264583, 0.529167;stroke-dashoffset:0;stroke-opacity:1;paint-order:fill markers stroke"
       d="m 125.95325,237.22558 c -0.37292,1.33053 -0.0918,2.72985 -0.1462,4.08737 -0.11452,2.85657 -0.64162,5.8281 -1.99173,8.37719 -1.00493,1.89737 -3.34529,3.53105 -5.17892,4.55306 -2.16617,1.20737 -4.4783,1.06865 -6.85156,0.84844 -2.5757,-0.239 -5.02697,-0.54317 -7.30331,-1.87634 -0.36932,-0.2163 -1.25666,-0.77947 -1.55396,-1.11126 -1.07447,-1.19915 -2.72163,-4.48477 -3.080408,-6.04707 -0.361371,-1.57358 -0.195279,-3.2966 -0.07967,-4.88776 0.04371,-0.60152 0.06354,-1.20532 0.132646,-1.80446 0.260952,-2.2623 1.130482,-4.48787 1.951902,-6.59654 0.45121,-1.15833 0.82959,-2.39665 1.50058,-3.45371 0.20744,-0.32682 0.8484,-1.06798 0.99586,-1.25459 0.64218,-0.81266 1.21407,-1.68124 1.92561,-2.43813 0.92411,-0.98299 2.0597,-1.48767 3.21348,-2.12725 1.17304,-0.65026 2.25758,-1.44582 3.47917,-2.00775 3.06907,-1.41177 6.42244,-1.90569 9.72007,-2.44963 1.61116,-0.26575 3.19245,-0.70317 4.82,-0.87225 1.54149,-0.16014 3.09717,0.0246 4.63437,0.1195 1.7079,0.10545 3.28676,0.16084 4.99288,0.42997 1.30696,0.20616 2.56841,0.62113 3.85083,0.93221 1.77105,0.42961 3.46104,0.75956 5.11239,1.56546 1.61571,0.78852 3.25376,1.81798 4.50131,3.13093 2.13112,2.2428 3.38381,5.6349 2.11124,8.61661 -0.37062,0.86838 -1.0871,2.01319 -1.97859,2.4139 -0.48933,0.21994 -1.8991,0.0358 -2.56256,0.14332 -1.33538,0.21637 -2.73959,0.65443 -4.10338,0.52565 -0.56865,-0.0537 -1.09033,-0.28387 -1.63322,-0.44188 -0.60881,-0.17718 -1.25301,-0.27113 -1.84554,-0.50224 -2.5568,-0.99724 -4.70394,-1.8568 -7.51602,-1.78024 -0.36998,0.0101 -0.76121,-0.0401 -1.12851,0.0119 -1.25509,0.17765 -1.47929,0.43127 -2.41678,1.09936 -0.22597,0.16103 -0.43669,0.23985 -0.65049,0.44229 -0.37108,0.35136 -0.63137,0.83285 -0.98273,1.20695 -0.41466,0.44149 -1.71448,0.59478 -1.75273,0.68088 -0.0679,0.15288 -0.12402,0.31074 -0.18603,0.46611 z"
       id="path7738" />
    <circle
       style="fill:#c4ffff;fill-opacity:1;stroke:#000000;stroke-width:0.264583;stroke-linecap:round;stroke-dasharray:0.264583, 0.529167;stroke-dashoffset:0;stroke-opacity:1;paint-order:fill markers stroke"
       id="path8572"
       cx="112.52651"
       cy="238.11592"
       r="5.8138089" />
    <path
       style="fill:none;fill-opacity:1;stroke:#000000;stroke-width:0.264583;stroke-linecap:round;stroke-dasharray:0.264583, 0.529167;stroke-dashoffset:0;stroke-opacity:1;paint-order:fill markers stroke"
       d="m 112.0374,238.28921 c 1.12772,0.18126 0.27066,-0.76653 0.15934,-0.5737 -0.0992,0.17189 -0.10623,0.38247 -0.15934,0.5737 z"
       id="path11393" />
    <g
       inkscape:label=""
       transform="translate(111.48446,235.2491)"
       id="g12640">
      <g
         clip-path="url(#clipPath2520)"
         id="g17"
         transform="matrix(0.352778,0,0,0.352778,-0.143316,0.0413632)">
        <g
           fill="#000000"
           fill-opacity="1"
           id="g15">
          <g
             id="use13"
             transform="translate(0,4.289)">
            <path
               d="M 3.71875,-3.765625 C 3.53125,-4.140625 3.25,-4.40625 2.796875,-4.40625 c -1.15625,0 -2.390625,1.46875 -2.390625,2.921875 0,0.9375 0.546875,1.59375 1.3125,1.59375 0.203125,0 0.703125,-0.046875 1.296875,-0.75 0.078125,0.421875 0.4375,0.75 0.90625,0.75 0.359375,0 0.578125,-0.234375 0.75,-0.546875 0.15625,-0.359375 0.296875,-0.96875 0.296875,-0.984375 0,-0.109375 -0.09375,-0.109375 -0.125,-0.109375 -0.09375,0 -0.109375,0.046875 -0.140625,0.1875 -0.171875,0.640625 -0.34375,1.234375 -0.75,1.234375 -0.28125,0 -0.296875,-0.265625 -0.296875,-0.453125 0,-0.21875 0.015625,-0.3125 0.125,-0.75 C 3.890625,-1.71875 3.90625,-1.828125 4,-2.203125 L 4.359375,-3.59375 c 0.0625,-0.28125 0.0625,-0.296875 0.0625,-0.34375 0,-0.171875 -0.109375,-0.265625 -0.28125,-0.265625 -0.25,0 -0.390625,0.21875 -0.421875,0.4375 z M 3.078125,-1.1875 C 3.015625,-1 3.015625,-0.984375 2.875,-0.8125 2.4375,-0.265625 2.03125,-0.109375 1.75,-0.109375 c -0.5,0 -0.640625,-0.546875 -0.640625,-0.9375 0,-0.5 0.3125,-1.71875 0.546875,-2.1875 0.3125,-0.578125 0.75,-0.953125 1.15625,-0.953125 0.640625,0 0.78125,0.8125 0.78125,0.875 0,0.0625 -0.015625,0.125 -0.03125,0.171875 z m 0,0"
               id="path23" />
          </g>
        </g>
      </g>
    </g>
    <path
       style="fill:none;fill-opacity:1;stroke:#000000;stroke-width:0.264999;stroke-linecap:round;stroke-dasharray:none;stroke-dashoffset:0;stroke-opacity:1;paint-order:fill markers stroke"
       d="m 117.60111,245.14653 c 1.7735,-1.26725 4.1764,-0.33793 5.67008,0.99175 0.79086,0.70405 1.34012,1.80235 2.32396,2.25867 1.04216,0.48338 2.3131,0.37042 3.42578,0.37042"
       id="path13745" />
    <g
       inkscape:label=""
       transform="translate(130.74988,247.24141)"
       id="g18317">
      <g
         fill="#000000"
         fill-opacity="1"
         id="g18267"
         transform="matrix(0.352778,0,0,0.352778,-0.148828,0.00436558)">
        <g
           id="g18265"
           transform="translate(0,7.4720001)">
          <path
             d="M 1.59375,-0.78125 C 1.5,-0.390625 1.46875,-0.3125 0.6875,-0.3125 c -0.171875,0 -0.265625,0 -0.265625,0.203125 C 0.421875,0 0.515625,0 0.6875,0 H 4.25 C 5.828125,0 7,-1.171875 7,-2.15625 7,-2.875 6.421875,-3.453125 5.453125,-3.5625 6.484375,-3.75 7.53125,-4.484375 7.53125,-5.4375 c 0,-0.734375 -0.65625,-1.375 -1.84375,-1.375 H 2.328125 c -0.1875,0 -0.28125,0 -0.28125,0.203125 0,0.109375 0.09375,0.109375 0.28125,0.109375 0.015625,0 0.203125,0 0.375,0.015625 0.171875,0.03125 0.265625,0.03125 0.265625,0.171875 0,0.03125 -0.015625,0.0625 -0.03125,0.1875 z m 1.5,-2.875 0.625,-2.46875 C 3.8125,-6.46875 3.828125,-6.5 4.25,-6.5 h 1.296875 c 0.875,0 1.078125,0.59375 1.078125,1.03125 0,0.875 -0.859375,1.8125 -2.0625,1.8125 z m -0.4375,3.34375 c -0.140625,0 -0.15625,0 -0.21875,0 -0.109375,-0.015625 -0.140625,-0.03125 -0.140625,-0.109375 0,-0.03125 0,-0.046875 0.0625,-0.21875 l 0.6875,-2.78125 h 1.875 c 0.953125,0 1.15625,0.734375 1.15625,1.15625 C 6.078125,-1.28125 5.1875,-0.3125 4,-0.3125 Z m 0,0"
             id="path18263" />
        </g>
      </g>
      <g
         clip-path="url(#clipPath3430)"
         id="g18275"
         transform="matrix(0.352778,0,0,0.352778,-0.148828,0.00436558)">
        <g
           fill="#000000"
           fill-opacity="1"
           id="g18273">
          <g
             id="g18271"
             transform="translate(9.717,7.4720001)">
            <path
               d="m 3.296875,2.390625 c 0,-0.03125 0,-0.046875 -0.171875,-0.21875 C 1.890625,0.921875 1.5625,-0.96875 1.5625,-2.5 c 0,-1.734375 0.375,-3.46875 1.609375,-4.703125 0.125,-0.125 0.125,-0.140625 0.125,-0.171875 0,-0.078125 -0.03125,-0.109375 -0.09375,-0.109375 -0.109375,0 -1,0.6875 -1.59375,1.953125 -0.5,1.09375 -0.625,2.203125 -0.625,3.03125 0,0.78125 0.109375,1.984375 0.65625,3.125 C 2.25,1.84375 3.09375,2.5 3.203125,2.5 c 0.0625,0 0.09375,-0.03125 0.09375,-0.109375 z m 0,0"
               id="path18269" />
          </g>
        </g>
      </g>
      <g
         clip-path="url(#clipPath1616)"
         id="g18287"
         transform="matrix(0.352778,0,0,0.352778,-0.148828,0.00436558)">
        <g
           fill="#000000"
           fill-opacity="1"
           id="g18285">
          <g
             id="g18279"
             transform="translate(13.591,7.4720001)">
            <path
               d="M 3.71875,-3.765625 C 3.53125,-4.140625 3.25,-4.40625 2.796875,-4.40625 c -1.15625,0 -2.390625,1.46875 -2.390625,2.921875 0,0.9375 0.546875,1.59375 1.3125,1.59375 0.203125,0 0.703125,-0.046875 1.296875,-0.75 0.078125,0.421875 0.4375,0.75 0.90625,0.75 0.359375,0 0.578125,-0.234375 0.75,-0.546875 0.15625,-0.359375 0.296875,-0.96875 0.296875,-0.984375 0,-0.109375 -0.09375,-0.109375 -0.125,-0.109375 -0.09375,0 -0.109375,0.046875 -0.140625,0.1875 -0.171875,0.640625 -0.34375,1.234375 -0.75,1.234375 -0.28125,0 -0.296875,-0.265625 -0.296875,-0.453125 0,-0.21875 0.015625,-0.3125 0.125,-0.75 C 3.890625,-1.71875 3.90625,-1.828125 4,-2.203125 L 4.359375,-3.59375 c 0.0625,-0.28125 0.0625,-0.296875 0.0625,-0.34375 0,-0.171875 -0.109375,-0.265625 -0.28125,-0.265625 -0.25,0 -0.390625,0.21875 -0.421875,0.4375 z M 3.078125,-1.1875 C 3.015625,-1 3.015625,-0.984375 2.875,-0.8125 2.4375,-0.265625 2.03125,-0.109375 1.75,-0.109375 c -0.5,0 -0.640625,-0.546875 -0.640625,-0.9375 0,-0.5 0.3125,-1.71875 0.546875,-2.1875 0.3125,-0.578125 0.75,-0.953125 1.15625,-0.953125 0.640625,0 0.78125,0.8125 0.78125,0.875 0,0.0625 -0.015625,0.125 -0.03125,0.171875 z m 0,0"
               id="path18277" />
          </g>
          <g
             id="g18283"
             transform="translate(18.857229,7.4720001)">
            <path
               d="m 2.03125,-0.015625 c 0,-0.65625 -0.25,-1.046875 -0.640625,-1.046875 -0.328125,0 -0.53125,0.25 -0.53125,0.53125 C 0.859375,-0.265625 1.0625,0 1.390625,0 1.5,0 1.640625,-0.046875 1.734375,-0.125 1.765625,-0.15625 1.78125,-0.15625 1.78125,-0.15625 c 0.015625,0 0.015625,0 0.015625,0.140625 0,0.75 -0.34375,1.34375 -0.671875,1.671875 -0.109375,0.109375 -0.109375,0.125 -0.109375,0.15625 0,0.078125 0.046875,0.109375 0.09375,0.109375 0.109375,0 0.921875,-0.765625 0.921875,-1.9375 z m 0,0"
               id="path18281" />
          </g>
        </g>
      </g>
      <g
         fill="#000000"
         fill-opacity="1"
         id="g18293"
         transform="matrix(0.352778,0,0,0.352778,-0.148828,0.00436558)">
        <g
           id="g18291"
           transform="translate(23.288595,7.4720001)">
          <path
             d="M 1.40625,-2.265625 C 1.734375,-2.125 2.03125,-2.125 2.265625,-2.125 c 0.25,0 0.8125,0 0.8125,-0.3125 0,-0.234375 -0.359375,-0.265625 -0.734375,-0.265625 -0.203125,0 -0.5625,0.015625 -0.921875,0.1875 C 1.1875,-2.625 1.015625,-2.828125 1.015625,-3.09375 c 0,-0.609375 0.984375,-0.96875 1.875,-0.96875 0.15625,0 0.515625,0 0.921875,0.28125 0.109375,0.078125 0.125,0.109375 0.1875,0.109375 0.140625,0 0.28125,-0.140625 0.28125,-0.28125 0,-0.1875 -0.609375,-0.5625 -1.296875,-0.5625 -1.140625,0 -2.21875,0.671875 -2.21875,1.421875 0,0.4375 0.359375,0.6875 0.40625,0.71875 -0.59375,0.328125 -0.90625,0.875 -0.90625,1.34375 0,0.640625 0.5625,1.25 1.625,1.25 1.3125,0 1.875,-0.875 1.875,-1.03125 0,-0.0625 -0.0625,-0.09375 -0.109375,-0.09375 -0.0625,0 -0.09375,0.03125 -0.109375,0.0625 -0.140625,0.234375 -0.375,0.609375 -1.578125,0.609375 -0.609375,0 -1.453125,-0.15625 -1.453125,-0.859375 0,-0.34375 0.28125,-0.875 0.890625,-1.171875 z m 0.328125,-0.125 c 0.234375,-0.078125 0.4375,-0.09375 0.609375,-0.09375 0.25,0 0.28125,0.015625 0.46875,0.0625 -0.15625,0.0625 -0.171875,0.078125 -0.546875,0.078125 -0.21875,0 -0.34375,0 -0.53125,-0.046875 z m 0,0"
             id="path18289" />
        </g>
      </g>
      <g
         clip-path="url(#clipPath1083)"
         id="g18301"
         transform="matrix(0.352778,0,0,0.352778,-0.148828,0.00436558)">
        <g
           fill="#000000"
           fill-opacity="1"
           id="g18299">
          <g
             id="g18297"
             transform="translate(27.931,7.4720001)">
            <path
               d="m 2.875,-2.5 c 0,-0.765625 -0.109375,-1.96875 -0.65625,-3.109375 -0.59375,-1.21875 -1.453125,-1.875 -1.546875,-1.875 -0.0625,0 -0.109375,0.046875 -0.109375,0.109375 0,0.03125 0,0.046875 0.1875,0.234375 0.984375,0.984375 1.546875,2.5625 1.546875,4.640625 0,1.71875 -0.359375,3.46875 -1.59375,4.71875 C 0.5625,2.34375 0.5625,2.359375 0.5625,2.390625 0.5625,2.453125 0.609375,2.5 0.671875,2.5 0.765625,2.5 1.671875,1.8125 2.25,0.546875 2.765625,-0.546875 2.875,-1.65625 2.875,-2.5 Z m 0,0"
               id="path18295" />
          </g>
        </g>
      </g>
      <g
         fill="#000000"
         fill-opacity="1"
         id="g18307"
         transform="matrix(0.352778,0,0,0.352778,-0.148828,0.00436558)">
        <g
           id="g18305"
           transform="translate(34.573002,7.4720001)">
          <path
             d="m 6.5625,-4.984375 c 0.171875,0 0.359375,0 0.359375,-0.203125 0,-0.203125 -0.1875,-0.203125 -0.359375,-0.203125 H 3.890625 c -1.703125,0 -3.0625,1.296875 -3.0625,2.890625 0,1.609375 1.359375,2.90625 3.0625,2.90625 H 6.5625 c 0.171875,0 0.359375,0 0.359375,-0.203125 C 6.921875,0 6.734375,0 6.5625,0 H 3.90625 c -1.546875,0 -2.6875,-1.15625 -2.6875,-2.5 0,-1.328125 1.140625,-2.484375 2.6875,-2.484375 z m 0,0"
             id="path18303" />
        </g>
      </g>
      <g
         clip-path="url(#clipPath3690)"
         id="g18315"
         transform="matrix(0.352778,0,0,0.352778,-0.148828,0.00436558)">
        <g
           fill="#000000"
           fill-opacity="1"
           id="g18313">
          <g
             id="g18311"
             transform="translate(45.089001,7.4720001)">
            <path
               d="M 6.328125,-5.765625 C 6.4375,-6.171875 6.609375,-6.46875 7.40625,-6.5 c 0.046875,0 0.171875,-0.015625 0.171875,-0.203125 0,0 0,-0.109375 -0.125,-0.109375 -0.328125,0 -0.6875,0.03125 -1.015625,0.03125 -0.34375,0 -0.71875,-0.03125 -1.046875,-0.03125 -0.0625,0 -0.171875,0 -0.171875,0.203125 C 5.21875,-6.5 5.3125,-6.5 5.390625,-6.5 c 0.578125,0.015625 0.6875,0.21875 0.6875,0.4375 0,0.03125 -0.03125,0.1875 -0.03125,0.203125 l -0.90625,3.5625 C 4.8125,-0.953125 3.65625,-0.09375 2.65625,-0.09375 c -0.671875,0 -1.203125,-0.4375 -1.203125,-1.296875 0,-0.015625 0,-0.328125 0.109375,-0.765625 L 2.515625,-6.046875 C 2.609375,-6.40625 2.625,-6.5 3.359375,-6.5 c 0.265625,0 0.34375,0 0.34375,-0.203125 0,-0.109375 -0.109375,-0.109375 -0.140625,-0.109375 -0.28125,0 -1,0.03125 -1.28125,0.03125 -0.28125,0 -1,-0.03125 -1.28125,-0.03125 -0.078125,0 -0.1875,0 -0.1875,0.203125 C 0.8125,-6.5 0.890625,-6.5 1.09375,-6.5 c 0.015625,0 0.203125,0 0.375,0.015625 0.171875,0.03125 0.265625,0.03125 0.265625,0.171875 0,0.046875 -0.109375,0.46875 -0.171875,0.703125 l -0.21875,0.875 C 1.25,-4.34375 0.78125,-2.46875 0.734375,-2.265625 0.671875,-2 0.671875,-1.84375 0.671875,-1.6875 c 0,1.203125 0.90625,1.90625 1.953125,1.90625 1.25,0 2.484375,-1.125 2.8125,-2.4375 z m 0,0"
               id="path18309" />
          </g>
        </g>
      </g>
    </g>
    <g
       inkscape:label=""
       transform="translate(160.017,235.99689)"
       id="g18757">
      <g
         fill="#000000"
         fill-opacity="1"
         id="g12"
         transform="matrix(0.352778,0,0,0.352778,-0.192925,0.00176393)">
        <g
           id="use10"
           transform="translate(0,4.6199999)">
          <path
             d="m 6.84375,-4.234375 c 0.171875,0 0.359375,0 0.359375,-0.1875 C 7.203125,-4.625 7.015625,-4.625 6.84375,-4.625 H 0.890625 c -0.15625,0 -0.34375,0 -0.34375,0.203125 0,0.1875 0.203125,0.1875 0.359375,0.1875 z m 0,3.875 c 0.171875,0 0.359375,0 0.359375,-0.203125 0,-0.1875 -0.1875,-0.1875 -0.359375,-0.1875 h -5.9375 c -0.15625,0 -0.359375,0 -0.359375,0.1875 0,0.203125 0.1875,0.203125 0.34375,0.203125 z m 0,-1.9375 c 0.171875,0 0.359375,0 0.359375,-0.203125 0,-0.1875 -0.1875,-0.1875 -0.359375,-0.1875 H 0.890625 c -0.15625,0 -0.34375,0 -0.34375,0.1875 0,0.203125 0.1875,0.203125 0.34375,0.203125 z m 0,0"
             id="path18" />
        </g>
      </g>
    </g>
    <rect
       style="fill:#b31dd5;fill-opacity:1;stroke:#4268e5;stroke-width:0.264999;stroke-linecap:round;stroke-dasharray:0.264999, 0.529998;stroke-dashoffset:0;stroke-opacity:1;paint-order:fill markers stroke"
       id="rect20634"
       width="11.52034"
       height="11.560329"
       x="170.90308"
       y="231.14853" />
    <g
       inkscape:label=""
       transform="translate(174.70455,227.025)"
       id="g33177">
      <g
         clip-path="url(#clipPath5215)"
         id="g24"
         transform="matrix(0.352778,0,0,0.352778,-0.148828,0.00551215)">
        <g
           fill="#000000"
           fill-opacity="1"
           id="g22">
          <g
             id="use20"
             transform="translate(0,7.4899998)">
            <path
               d="M 1.59375,-0.78125 C 1.5,-0.390625 1.46875,-0.3125 0.6875,-0.3125 c -0.171875,0 -0.265625,0 -0.265625,0.203125 C 0.421875,0 0.515625,0 0.6875,0 H 4.25 C 5.828125,0 7,-1.171875 7,-2.15625 7,-2.875 6.421875,-3.453125 5.453125,-3.5625 6.484375,-3.75 7.53125,-4.484375 7.53125,-5.4375 c 0,-0.734375 -0.65625,-1.375 -1.84375,-1.375 H 2.328125 c -0.1875,0 -0.28125,0 -0.28125,0.203125 0,0.109375 0.09375,0.109375 0.28125,0.109375 0.015625,0 0.203125,0 0.375,0.015625 0.171875,0.03125 0.265625,0.03125 0.265625,0.171875 0,0.03125 -0.015625,0.0625 -0.03125,0.1875 z m 1.5,-2.875 0.625,-2.46875 C 3.8125,-6.46875 3.828125,-6.5 4.25,-6.5 h 1.296875 c 0.875,0 1.078125,0.59375 1.078125,1.03125 0,0.875 -0.859375,1.8125 -2.0625,1.8125 z m -0.4375,3.34375 c -0.140625,0 -0.15625,0 -0.21875,0 -0.109375,-0.015625 -0.140625,-0.03125 -0.140625,-0.109375 0,-0.03125 0,-0.046875 0.0625,-0.21875 l 0.6875,-2.78125 h 1.875 c 0.953125,0 1.15625,0.734375 1.15625,1.15625 C 6.078125,-1.28125 5.1875,-0.3125 4,-0.3125 Z m 0,0"
               id="path36" />
          </g>
        </g>
      </g>
      <g
         clip-path="url(#clipPath6653)"
         id="g30"
         transform="matrix(0.352778,0,0,0.352778,-0.148828,0.00551215)">
        <g
           fill="#000000"
           fill-opacity="1"
           id="g28">
          <g
             id="use26"
             transform="translate(8.0570002,3.875)">
            <path
               d="m 2.015625,-3.296875 c 0.0625,-0.109375 0.0625,-0.171875 0.0625,-0.21875 0,-0.21875 -0.1875,-0.375 -0.40625,-0.375 -0.265625,0 -0.34375,0.21875 -0.375,0.328125 L 0.375,-0.546875 c -0.015625,0.015625 -0.046875,0.09375 -0.046875,0.109375 0,0.078125 0.21875,0.15625 0.28125,0.15625 0.046875,0 0.046875,-0.015625 0.09375,-0.125 z m 0,0"
               id="path40" />
          </g>
        </g>
      </g>
    </g>
    <g
       inkscape:label=""
       transform="translate(194.51115,226.65148)"
       id="g34974">
      <g
         clip-path="url(#clipPath8226)"
         id="g21"
         transform="matrix(0.352778,0,0,0.352778,-0.148828,0.00551215)">
        <g
           fill="#000000"
           fill-opacity="1"
           id="g19">
          <g
             id="use17"
             transform="translate(0,7.4899998)">
            <path
               d="M 1.59375,-0.78125 C 1.5,-0.390625 1.46875,-0.3125 0.6875,-0.3125 c -0.171875,0 -0.265625,0 -0.265625,0.203125 C 0.421875,0 0.515625,0 0.6875,0 H 4.25 C 5.828125,0 7,-1.171875 7,-2.15625 7,-2.875 6.421875,-3.453125 5.453125,-3.5625 6.484375,-3.75 7.53125,-4.484375 7.53125,-5.4375 c 0,-0.734375 -0.65625,-1.375 -1.84375,-1.375 H 2.328125 c -0.1875,0 -0.28125,0 -0.28125,0.203125 0,0.109375 0.09375,0.109375 0.28125,0.109375 0.015625,0 0.203125,0 0.375,0.015625 0.171875,0.03125 0.265625,0.03125 0.265625,0.171875 0,0.03125 -0.015625,0.0625 -0.03125,0.1875 z m 1.5,-2.875 0.625,-2.46875 C 3.8125,-6.46875 3.828125,-6.5 4.25,-6.5 h 1.296875 c 0.875,0 1.078125,0.59375 1.078125,1.03125 0,0.875 -0.859375,1.8125 -2.0625,1.8125 z m -0.4375,3.34375 c -0.140625,0 -0.15625,0 -0.21875,0 -0.109375,-0.015625 -0.140625,-0.03125 -0.140625,-0.109375 0,-0.03125 0,-0.046875 0.0625,-0.21875 l 0.6875,-2.78125 h 1.875 c 0.953125,0 1.15625,0.734375 1.15625,1.15625 C 6.078125,-1.28125 5.1875,-0.3125 4,-0.3125 Z m 0,0"
               id="path33" />
          </g>
        </g>
      </g>
      <g
         fill="#000000"
         fill-opacity="1"
         id="g27"
         transform="matrix(0.352778,0,0,0.352778,-0.148828,0.00551215)">
        <g
           id="use23"
           transform="translate(8.0570002,3.875)">
          <path
             d="m 2.015625,-3.296875 c 0.0625,-0.109375 0.0625,-0.171875 0.0625,-0.21875 0,-0.21875 -0.1875,-0.375 -0.40625,-0.375 -0.265625,0 -0.34375,0.21875 -0.375,0.328125 L 0.375,-0.546875 c -0.015625,0.015625 -0.046875,0.09375 -0.046875,0.109375 0,0.078125 0.21875,0.15625 0.28125,0.15625 0.046875,0 0.046875,-0.015625 0.09375,-0.125 z m 0,0"
             id="path37" />
        </g>
        <g
           id="use25"
           transform="translate(10.35417,3.875)">
          <path
             d="m 2.015625,-3.296875 c 0.0625,-0.109375 0.0625,-0.171875 0.0625,-0.21875 0,-0.21875 -0.1875,-0.375 -0.40625,-0.375 -0.265625,0 -0.34375,0.21875 -0.375,0.328125 L 0.375,-0.546875 c -0.015625,0.015625 -0.046875,0.09375 -0.046875,0.109375 0,0.078125 0.21875,0.15625 0.28125,0.15625 0.046875,0 0.046875,-0.015625 0.09375,-0.125 z m 0,0"
             id="path41" />
        </g>
      </g>
    </g>
  </g>
</svg>
