<?xml version="1.0" encoding="UTF-8" standalone="no"?>
<!-- Created with Inkscape (http://www.inkscape.org/) -->

<svg
   width="240mm"
   height="120mm"
   viewBox="0 0 240 120"
   version="1.1"
   id="svg8"
   inkscape:version="1.2.2 (b0a8486541, 2022-12-01)"
   sodipodi:docname="proyectivo_disco.svg"
   xmlns:inkscape="http://www.inkscape.org/namespaces/inkscape"
   xmlns:sodipodi="http://sodipodi.sourceforge.net/DTD/sodipodi-0.dtd"
   xmlns:xlink="http://www.w3.org/1999/xlink"
   xmlns="http://www.w3.org/2000/svg"
   xmlns:svg="http://www.w3.org/2000/svg"
   xmlns:rdf="http://www.w3.org/1999/02/22-rdf-syntax-ns#"
   xmlns:cc="http://creativecommons.org/ns#"
   xmlns:dc="http://purl.org/dc/elements/1.1/"
   xmlns:ns1="http://www.iki.fi/pav/software/textext/">
  <defs
     id="defs2">
    <marker
       style="overflow:visible"
       id="Arrow3"
       refX="0"
       refY="0"
       orient="auto-start-reverse"
       inkscape:stockid="Arrow3"
       markerWidth="4.2071066"
       markerHeight="7"
       viewBox="0 0 4.2071068 7"
       inkscape:isstock="true"
       inkscape:collect="always"
       preserveAspectRatio="xMidYMid">
      <path
         style="fill:none;stroke:context-stroke;stroke-width:1;stroke-linecap:round"
         d="M 3,-3 0,0 3,3"
         id="arrow3"
         transform="rotate(180,0.125,0)"
         sodipodi:nodetypes="ccc" />
    </marker>
    <linearGradient
       inkscape:collect="always"
       id="linearGradient9665">
      <stop
         style="stop-color:#a4d3ff;stop-opacity:0;"
         offset="0"
         id="stop9663" />
      <stop
         style="stop-color:#a4d3ff;stop-opacity:1;"
         offset="1"
         id="stop9661" />
    </linearGradient>
    <linearGradient
       id="linearGradient9641"
       inkscape:swatch="solid">
      <stop
         style="stop-color:#a4d3ff;stop-opacity:1;"
         offset="0"
         id="stop9639" />
    </linearGradient>
    <linearGradient
       id="linearGradient3496"
       inkscape:swatch="solid">
      <stop
         style="stop-color:#4531ff;stop-opacity:1;"
         offset="0"
         id="stop3494" />
    </linearGradient>
    <radialGradient
       inkscape:collect="always"
       xlink:href="#linearGradient9665"
       id="radialGradient9667"
       cx="110.85616"
       cy="243.6243"
       fx="110.85616"
       fy="243.6243"
       r="10.208079"
       gradientTransform="matrix(1,0,0,0.21938162,0,190.1776)"
       gradientUnits="userSpaceOnUse" />
  </defs>
  <sodipodi:namedview
     id="base"
     pagecolor="#ffffff"
     bordercolor="#666666"
     borderopacity="1.0"
     inkscape:pageopacity="0.0"
     inkscape:pageshadow="2"
     inkscape:zoom="1.4033941"
     inkscape:cx="432.52284"
     inkscape:cy="252.60189"
     inkscape:document-units="mm"
     inkscape:current-layer="layer1"
     showgrid="false"
     showborder="true"
     width="200mm"
     showguides="true"
     inkscape:guide-bbox="true"
     inkscape:window-width="1920"
     inkscape:window-height="1050"
     inkscape:window-x="0"
     inkscape:window-y="0"
     inkscape:window-maximized="1"
     inkscape:showpageshadow="2"
     inkscape:pagecheckerboard="0"
     inkscape:deskcolor="#d1d1d1">
    <inkscape:grid
       type="xygrid"
       id="grid815"
       units="mm"
       spacingx="10"
       spacingy="10"
       empspacing="4"
       dotted="false" />
  </sodipodi:namedview>
  <metadata
     id="metadata5">
    <rdf:RDF>
      <cc:Work
         rdf:about="">
        <dc:format>image/svg+xml</dc:format>
        <dc:type
           rdf:resource="http://purl.org/dc/dcmitype/StillImage" />
      </cc:Work>
    </rdf:RDF>
  </metadata>
  <g
     inkscape:label="Layer 1"
     inkscape:groupmode="layer"
     id="layer1"
     transform="translate(0, -177)">
    <g
       id="g19905"
       transform="matrix(6.9698924,0,0,6.9698924,-617.43549,-1434.4564)">
      <path
         style="font-variation-settings:normal;opacity:1;vector-effect:none;fill:url(#radialGradient9667);fill-opacity:1;stroke:#738bff;stroke-width:0.086;stroke-linecap:butt;stroke-linejoin:miter;stroke-miterlimit:4;stroke-dasharray:none;stroke-dashoffset:0;stroke-opacity:1;-inkscape-stroke:none;paint-order:fill markers stroke;stop-color:#000000;stop-opacity:1"
         id="path183"
         sodipodi:type="arc"
         sodipodi:cx="110.85616"
         sodipodi:cy="243.6243"
         sodipodi:rx="10.165079"
         sodipodi:ry="2.1964648"
         sodipodi:start="0"
         sodipodi:end="6.2774148"
         sodipodi:open="true"
         sodipodi:arc-type="arc"
         d="m 121.02124,243.6243 a 10.165079,2.1964648 0 0 1 -10.15041,2.19646 10.165079,2.1964648 0 0 1 -10.1797,-2.19012 10.165079,2.1964648 0 0 1 10.12104,-2.20279 10.165079,2.1964648 0 0 1 10.2089,2.18377" />
      <path
         style="font-variation-settings:normal;opacity:1;vector-effect:none;fill:none;fill-opacity:1;stroke:#738bff;stroke-width:0.086;stroke-linecap:butt;stroke-linejoin:miter;stroke-miterlimit:4;stroke-dasharray:none;stroke-dashoffset:0;stroke-opacity:1;-inkscape-stroke:none;paint-order:fill markers stroke;stop-color:#000000;stop-opacity:1"
         id="path6370"
         sodipodi:type="arc"
         sodipodi:cx="-110.85608"
         sodipodi:cy="-243.6244"
         sodipodi:rx="10.165131"
         sodipodi:ry="10.349833"
         sodipodi:start="0"
         sodipodi:end="3.1415927"
         sodipodi:open="true"
         sodipodi:arc-type="arc"
         d="m -100.69095,-243.6244 a 10.165131,10.349833 0 0 1 -5.08256,8.96321 10.165131,10.349833 0 0 1 -10.16513,0 10.165131,10.349833 0 0 1 -5.08257,-8.96321"
         transform="scale(-1)" />
      <path
         style="fill:none;fill-opacity:1;stroke:#738bff;stroke-width:0.086;stroke-dasharray:0.344, 0.086;stroke-dashoffset:0;stroke-opacity:1;paint-order:fill markers stroke;stop-color:#000000"
         id="path6370-6"
         sodipodi:type="arc"
         sodipodi:cx="-110.96366"
         sodipodi:cy="-245.34549"
         sodipodi:rx="6.4373722"
         sodipodi:ry="12.076221"
         sodipodi:start="0"
         sodipodi:end="2.8489818"
         sodipodi:open="true"
         sodipodi:arc-type="arc"
         d="m -104.52629,-245.34549 a 6.4373722,12.076221 0 0 1 -5.49891,11.9472 6.4373722,12.076221 0 0 1 -7.10221,-8.46378"
         transform="scale(-1)" />
      <path
         style="font-variation-settings:normal;opacity:1;vector-effect:none;fill:#a4d3ff;fill-opacity:1;stroke:#738bff;stroke-width:0.0859999;stroke-linecap:butt;stroke-linejoin:miter;stroke-miterlimit:4;stroke-dasharray:0.172, 0.172;stroke-dashoffset:0;stroke-opacity:1;-inkscape-stroke:none;paint-order:fill markers stroke;stop-color:#000000;stop-opacity:1"
         d="m 110.85616,243.6243 -8e-5,-10.34973"
         id="path9725" />
      <circle
         id="path10621"
         style="fill:#738bff;stroke:none;stroke-width:0.264583"
         cx="104.52629"
         cy="245.34549"
         r="0.12899999" />
      <circle
         id="path10623"
         style="fill:#738bff;stroke:none;stroke-width:0.264583"
         cx="117.1274"
         cy="241.86206"
         r="0.12899999" />
      <circle
         id="path11351"
         style="fill:#738bff;stroke:none;stroke-width:0.264583"
         cx="110.85616"
         cy="243.6243"
         r="0.12899999" />
      <g
         transform="matrix(0.131909,0,0,0.131909,118.97857,245.13331)"
         ns1:version="1.8.2"
         ns1:texconverter="pdflatex"
         ns1:pdfconverter="inkscape"
         ns1:text="$$\\partial$$"
         ns1:preamble=""
         ns1:scale="0.3739150400535181"
         ns1:alignment="middle center"
         ns1:stroke-to-path="0"
         ns1:inkscapeversion="0.92.4"
         ns1:jacobian_sqrt="0.131909"
         id="g12130">
        <defs
           id="id-9a3230ef-ff08-454c-9165-da1f33a76f0c">
          <g
             id="id-91c1ad73-f676-4886-9db6-cd79ec25d7ec">
            <g
               id="id-5f36aaf2-5613-4de8-8e9b-8dee828f4e93" />
            <g
               id="id-6924b7c0-33b3-4633-96d6-dd3212399450">
              <path
                 d="m 4.609375,-3.375 c -0.09375,-0.625 -0.5,-1.1875 -1.28125,-1.1875 -0.609375,0 -1.25,0.171875 -2.03125,0.9375 -0.828125,0.828125 -0.890625,1.765625 -0.890625,2.0625 0,0.625 0.4375,1.78125 1.828125,1.78125 2.375,0 3.40625,-3.34375 3.40625,-4.78125 0,-1.578125 -0.921875,-2.578125 -2.15625,-2.578125 -1.4375,0 -1.90625,1.296875 -1.90625,1.578125 0,0.140625 0.09375,0.34375 0.390625,0.34375 0.328125,0 0.53125,-0.296875 0.53125,-0.515625 0,-0.359375 -0.3125,-0.359375 -0.46875,-0.359375 0.4375,-0.734375 1.15625,-0.796875 1.4375,-0.796875 0.734375,0 1.421875,0.515625 1.421875,1.8125 0,0.390625 -0.0625,0.890625 -0.265625,1.703125 z m -2.34375,3.3125 c -1.09375,0 -1.09375,-1.03125 -1.09375,-1.125 0,-0.265625 0.25,-1.65625 0.65625,-2.265625 0.390625,-0.5625 0.890625,-0.890625 1.5,-0.890625 1.09375,0 1.109375,1.125 1.109375,1.328125 0,0.71875 -0.640625,2.953125 -2.171875,2.953125 z m 0,0"
                 id="id-2bbbf9ab-4c30-44b8-81da-ef664b2af06f" />
            </g>
          </g>
        </defs>
        <g
           fill="#000000"
           fill-opacity="1"
           id="id-7d8217f7-4ed2-4251-993b-de097a47b978"
           transform="translate(-303.109,-139.579)">
          <g
             transform="translate(302.703,146.72)"
             id="g12127">
            <path
               d="m 4.609375,-3.375 c -0.09375,-0.625 -0.5,-1.1875 -1.28125,-1.1875 -0.609375,0 -1.25,0.171875 -2.03125,0.9375 -0.828125,0.828125 -0.890625,1.765625 -0.890625,2.0625 0,0.625 0.4375,1.78125 1.828125,1.78125 2.375,0 3.40625,-3.34375 3.40625,-4.78125 0,-1.578125 -0.921875,-2.578125 -2.15625,-2.578125 -1.4375,0 -1.90625,1.296875 -1.90625,1.578125 0,0.140625 0.09375,0.34375 0.390625,0.34375 0.328125,0 0.53125,-0.296875 0.53125,-0.515625 0,-0.359375 -0.3125,-0.359375 -0.46875,-0.359375 0.4375,-0.734375 1.15625,-0.796875 1.4375,-0.796875 0.734375,0 1.421875,0.515625 1.421875,1.8125 0,0.390625 -0.0625,0.890625 -0.265625,1.703125 z m -2.34375,3.3125 c -1.09375,0 -1.09375,-1.03125 -1.09375,-1.125 0,-0.265625 0.25,-1.65625 0.65625,-2.265625 0.390625,-0.5625 0.890625,-0.890625 1.5,-0.890625 1.09375,0 1.109375,1.125 1.109375,1.328125 0,0.71875 -0.640625,2.953125 -2.171875,2.953125 z m 0,0"
               id="id-8aeccea2-dfa0-4049-89a8-ddd32df6a493" />
          </g>
        </g>
      </g>
      <g
         transform="matrix(0.131909,0,0,0.131909,103.38154,245.81514)"
         ns1:version="1.8.2"
         ns1:texconverter="pdflatex"
         ns1:pdfconverter="inkscape"
         ns1:text="$$-x$$"
         ns1:preamble=""
         ns1:scale="0.3739150400535181"
         ns1:alignment="middle center"
         ns1:stroke-to-path="0"
         ns1:inkscapeversion="0.92.4"
         ns1:jacobian_sqrt="0.131909"
         id="g13671">
        <defs
           id="id-b6e0ebd1-e376-4327-8f97-bec0872a7886">
          <g
             id="id-fe64c960-5576-4853-872b-bc23e2970ce1">
            <g
               id="id-f8bb8654-d25b-44d4-a48d-3e9c8b9f1a84" />
            <g
               id="id-33d7afd6-53fc-40f1-8a34-cc9467e70fb2">
              <path
                 d="m 6.5625,-2.296875 c 0.171875,0 0.359375,0 0.359375,-0.203125 0,-0.1875 -0.1875,-0.1875 -0.359375,-0.1875 H 1.171875 c -0.171875,0 -0.34375,0 -0.34375,0.1875 0,0.203125 0.171875,0.203125 0.34375,0.203125 z m 0,0"
                 id="id-b750f15d-5ba2-4cc2-8405-ae79e38d355e" />
            </g>
            <g
               id="id-7d9dde9d-bb7e-4120-ad21-fcb4ecfe6780" />
            <g
               id="id-47788220-9722-4287-9784-ad5a45885893">
              <path
                 d="M 3.328125,-3.015625 C 3.390625,-3.265625 3.625,-4.1875 4.3125,-4.1875 c 0.046875,0 0.296875,0 0.5,0.125 C 4.53125,-4 4.34375,-3.765625 4.34375,-3.515625 c 0,0.15625 0.109375,0.34375 0.375,0.34375 0.21875,0 0.53125,-0.171875 0.53125,-0.578125 0,-0.515625 -0.578125,-0.65625 -0.921875,-0.65625 -0.578125,0 -0.921875,0.53125 -1.046875,0.75 -0.25,-0.65625 -0.78125,-0.75 -1.078125,-0.75 -1.03125,0 -1.609375,1.28125 -1.609375,1.53125 0,0.109375 0.109375,0.109375 0.125,0.109375 0.078125,0 0.109375,-0.03125 0.125,-0.109375 0.34375,-1.0625 1,-1.3125 1.34375,-1.3125 0.1875,0 0.53125,0.09375 0.53125,0.671875 0,0.3125 -0.171875,0.96875 -0.53125,2.375 -0.15625,0.609375 -0.515625,1.03125 -0.953125,1.03125 -0.0625,0 -0.28125,0 -0.5,-0.125 0.25,-0.0625 0.46875,-0.265625 0.46875,-0.546875 0,-0.265625 -0.21875,-0.34375 -0.359375,-0.34375 -0.3125,0 -0.546875,0.25 -0.546875,0.578125 0,0.453125 0.484375,0.65625 0.921875,0.65625 0.671875,0 1.03125,-0.703125 1.046875,-0.75 0.125,0.359375 0.484375,0.75 1.078125,0.75 1.03125,0 1.59375,-1.28125 1.59375,-1.53125 0,-0.109375 -0.078125,-0.109375 -0.109375,-0.109375 -0.09375,0 -0.109375,0.046875 -0.140625,0.109375 -0.328125,1.078125 -1,1.3125 -1.3125,1.3125 -0.390625,0 -0.546875,-0.3125 -0.546875,-0.65625 0,-0.21875 0.046875,-0.4375 0.15625,-0.875 z m 0,0"
                 id="id-3c58ff15-7d0b-4cca-b91b-8b791c305f79" />
            </g>
          </g>
        </defs>
        <g
           fill="#000000"
           fill-opacity="1"
           id="id-c6341eef-6065-44a1-9a01-f6df9e7187d3"
           transform="translate(-299.731,-142.314)">
          <g
             transform="translate(298.903,146.72)"
             id="g13761">
            <path
               d="m 6.5625,-2.296875 c 0.171875,0 0.359375,0 0.359375,-0.203125 0,-0.1875 -0.1875,-0.1875 -0.359375,-0.1875 H 1.171875 c -0.171875,0 -0.34375,0 -0.34375,0.1875 0,0.203125 0.171875,0.203125 0.34375,0.203125 z m 0,0"
               id="id-9be72ccc-d9c8-4ff3-afdf-d46f2c05895c" />
          </g>
        </g>
        <g
           fill="#000000"
           fill-opacity="1"
           id="id-3a67a3d0-3626-4df5-9830-855e3e630a62"
           transform="translate(-299.731,-142.314)">
          <g
             transform="translate(306.651,146.72)"
             id="g13765">
            <path
               d="M 3.328125,-3.015625 C 3.390625,-3.265625 3.625,-4.1875 4.3125,-4.1875 c 0.046875,0 0.296875,0 0.5,0.125 C 4.53125,-4 4.34375,-3.765625 4.34375,-3.515625 c 0,0.15625 0.109375,0.34375 0.375,0.34375 0.21875,0 0.53125,-0.171875 0.53125,-0.578125 0,-0.515625 -0.578125,-0.65625 -0.921875,-0.65625 -0.578125,0 -0.921875,0.53125 -1.046875,0.75 -0.25,-0.65625 -0.78125,-0.75 -1.078125,-0.75 -1.03125,0 -1.609375,1.28125 -1.609375,1.53125 0,0.109375 0.109375,0.109375 0.125,0.109375 0.078125,0 0.109375,-0.03125 0.125,-0.109375 0.34375,-1.0625 1,-1.3125 1.34375,-1.3125 0.1875,0 0.53125,0.09375 0.53125,0.671875 0,0.3125 -0.171875,0.96875 -0.53125,2.375 -0.15625,0.609375 -0.515625,1.03125 -0.953125,1.03125 -0.0625,0 -0.28125,0 -0.5,-0.125 0.25,-0.0625 0.46875,-0.265625 0.46875,-0.546875 0,-0.265625 -0.21875,-0.34375 -0.359375,-0.34375 -0.3125,0 -0.546875,0.25 -0.546875,0.578125 0,0.453125 0.484375,0.65625 0.921875,0.65625 0.671875,0 1.03125,-0.703125 1.046875,-0.75 0.125,0.359375 0.484375,0.75 1.078125,0.75 1.03125,0 1.59375,-1.28125 1.59375,-1.53125 0,-0.109375 -0.078125,-0.109375 -0.109375,-0.109375 -0.09375,0 -0.109375,0.046875 -0.140625,0.109375 -0.328125,1.078125 -1,1.3125 -1.3125,1.3125 -0.390625,0 -0.546875,-0.3125 -0.546875,-0.65625 0,-0.21875 0.046875,-0.4375 0.15625,-0.875 z m 0,0"
               id="id-f113636e-0f10-4e7a-bc33-1d77ca908a7a" />
          </g>
        </g>
      </g>
      <g
         transform="matrix(0.131909,0,0,0.131909,117.4076,241.09093)"
         ns1:version="1.8.2"
         ns1:texconverter="pdflatex"
         ns1:pdfconverter="inkscape"
         ns1:text="$$x$$"
         ns1:preamble=""
         ns1:scale="0.3739150400535181"
         ns1:alignment="middle center"
         ns1:stroke-to-path="0"
         ns1:inkscapeversion="0.92.4"
         ns1:jacobian_sqrt="0.131909"
         id="g13884">
        <defs
           id="id-a0bb3b64-4079-4a43-823b-fba13efb82ed">
          <g
             id="id-291f2459-869e-401c-84d8-ebb9dbfa1962">
            <g
               id="id-ad96cd62-47e1-44d8-bcb9-e85415f33031" />
            <g
               id="id-2d5d6ae5-f52e-40a3-9f93-63f55718bf56">
              <path
                 d="M 3.328125,-3.015625 C 3.390625,-3.265625 3.625,-4.1875 4.3125,-4.1875 c 0.046875,0 0.296875,0 0.5,0.125 C 4.53125,-4 4.34375,-3.765625 4.34375,-3.515625 c 0,0.15625 0.109375,0.34375 0.375,0.34375 0.21875,0 0.53125,-0.171875 0.53125,-0.578125 0,-0.515625 -0.578125,-0.65625 -0.921875,-0.65625 -0.578125,0 -0.921875,0.53125 -1.046875,0.75 -0.25,-0.65625 -0.78125,-0.75 -1.078125,-0.75 -1.03125,0 -1.609375,1.28125 -1.609375,1.53125 0,0.109375 0.109375,0.109375 0.125,0.109375 0.078125,0 0.109375,-0.03125 0.125,-0.109375 0.34375,-1.0625 1,-1.3125 1.34375,-1.3125 0.1875,0 0.53125,0.09375 0.53125,0.671875 0,0.3125 -0.171875,0.96875 -0.53125,2.375 -0.15625,0.609375 -0.515625,1.03125 -0.953125,1.03125 -0.0625,0 -0.28125,0 -0.5,-0.125 0.25,-0.0625 0.46875,-0.265625 0.46875,-0.546875 0,-0.265625 -0.21875,-0.34375 -0.359375,-0.34375 -0.3125,0 -0.546875,0.25 -0.546875,0.578125 0,0.453125 0.484375,0.65625 0.921875,0.65625 0.671875,0 1.03125,-0.703125 1.046875,-0.75 0.125,0.359375 0.484375,0.75 1.078125,0.75 1.03125,0 1.59375,-1.28125 1.59375,-1.53125 0,-0.109375 -0.078125,-0.109375 -0.109375,-0.109375 -0.09375,0 -0.109375,0.046875 -0.140625,0.109375 -0.328125,1.078125 -1,1.3125 -1.3125,1.3125 -0.390625,0 -0.546875,-0.3125 -0.546875,-0.65625 0,-0.21875 0.046875,-0.4375 0.15625,-0.875 z m 0,0"
                 id="id-646a5c94-b2a9-43a6-a150-0f5b11c8f488" />
            </g>
          </g>
        </defs>
        <g
           fill="#000000"
           fill-opacity="1"
           id="id-8475539f-a337-4f7a-a08d-d5d7f03ad0dc"
           transform="translate(-303.074,-142.314)">
          <g
             transform="translate(302.777,146.72)"
             id="g13881">
            <path
               d="M 3.328125,-3.015625 C 3.390625,-3.265625 3.625,-4.1875 4.3125,-4.1875 c 0.046875,0 0.296875,0 0.5,0.125 C 4.53125,-4 4.34375,-3.765625 4.34375,-3.515625 c 0,0.15625 0.109375,0.34375 0.375,0.34375 0.21875,0 0.53125,-0.171875 0.53125,-0.578125 0,-0.515625 -0.578125,-0.65625 -0.921875,-0.65625 -0.578125,0 -0.921875,0.53125 -1.046875,0.75 -0.25,-0.65625 -0.78125,-0.75 -1.078125,-0.75 -1.03125,0 -1.609375,1.28125 -1.609375,1.53125 0,0.109375 0.109375,0.109375 0.125,0.109375 0.078125,0 0.109375,-0.03125 0.125,-0.109375 0.34375,-1.0625 1,-1.3125 1.34375,-1.3125 0.1875,0 0.53125,0.09375 0.53125,0.671875 0,0.3125 -0.171875,0.96875 -0.53125,2.375 -0.15625,0.609375 -0.515625,1.03125 -0.953125,1.03125 -0.0625,0 -0.28125,0 -0.5,-0.125 0.25,-0.0625 0.46875,-0.265625 0.46875,-0.546875 0,-0.265625 -0.21875,-0.34375 -0.359375,-0.34375 -0.3125,0 -0.546875,0.25 -0.546875,0.578125 0,0.453125 0.484375,0.65625 0.921875,0.65625 0.671875,0 1.03125,-0.703125 1.046875,-0.75 0.125,0.359375 0.484375,0.75 1.078125,0.75 1.03125,0 1.59375,-1.28125 1.59375,-1.53125 0,-0.109375 -0.078125,-0.109375 -0.109375,-0.109375 -0.09375,0 -0.109375,0.046875 -0.140625,0.109375 -0.328125,1.078125 -1,1.3125 -1.3125,1.3125 -0.390625,0 -0.546875,-0.3125 -0.546875,-0.65625 0,-0.21875 0.046875,-0.4375 0.15625,-0.875 z m 0,0"
               id="id-39e3fc4c-a40b-42ee-9c22-b80dcfc14859" />
          </g>
        </g>
      </g>
      <g
         transform="matrix(0.131909,0,0,0.131909,117.60466,233.21113)"
         ns1:version="1.8.2"
         ns1:texconverter="pdflatex"
         ns1:pdfconverter="inkscape"
         ns1:text="$$\\mathbb{S}^n$$"
         ns1:preamble="/home/mario/.config/inkscape/extensions/textext/default_packages.tex"
         ns1:scale="0.3739150400535181"
         ns1:alignment="middle center"
         ns1:stroke-to-path="0"
         ns1:inkscapeversion="0.92.4"
         ns1:jacobian_sqrt="0.131909"
         id="g14746">
        <defs
           id="id-f69d4e3b-7139-480c-b623-f258d32d84c9">
          <g
             id="id-2e916119-c30b-4f74-bec7-803d5474f1df">
            <g
               id="id-2a0f219a-3b80-4181-99e2-891893cf9633" />
            <g
               id="id-9f4fb77c-34c7-4abb-b33c-a6d77ab68411">
              <path
                 d="m 0.71875,-1.046875 h 0.015625 c 0,0 0.140625,0.234375 0.453125,0.53125 -0.15625,0 -0.3125,0.03125 -0.46875,0.109375 z m 1.375,-2 c 0.78125,0.328125 1.828125,0.78125 1.828125,1.703125 0,0.703125 -0.296875,1.109375 -1.296875,1.109375 -0.515625,0 -0.953125,-0.28125 -1.296875,-0.640625 C 0.734375,-1.46875 0.71875,-2 0.71875,-2.21875 0.71875,-2.3125 0.640625,-2.390625 0.546875,-2.390625 0.375,-2.390625 0.375,-2.234375 0.375,-2.0625 v 1.859375 c 0,0.15625 0,0.328125 0.171875,0.328125 0.078125,0 0.09375,-0.03125 0.15625,-0.09375 0.171875,-0.15625 0.34375,-0.1875 0.46875,-0.1875 0.265625,0 0.5,0.09375 0.59375,0.125 C 2.171875,0.125 2.46875,0.125 2.625,0.125 c 1.4375,0 2.65625,-0.734375 2.65625,-2.03125 0,-0.84375 -0.5,-1.75 -1.9375,-2.296875 -0.875,-0.359375 -1.875,-0.75 -1.875,-1.453125 0,-0.546875 0.390625,-1.015625 1.109375,-1.015625 0.71875,0 1.671875,0.75 1.875,1.59375 C 4.46875,-4.9375 4.5,-4.84375 4.640625,-4.84375 4.8125,-4.84375 4.8125,-5 4.8125,-5.171875 V -6.6875 c 0,-0.171875 0,-0.328125 -0.171875,-0.328125 -0.078125,0 -0.125,0.046875 -0.171875,0.078125 C 4.390625,-6.84375 4.25,-6.734375 4,-6.734375 c -0.25,0 -0.484375,-0.078125 -0.59375,-0.125 -0.328125,-0.125 -0.5625,-0.15625 -0.859375,-0.15625 -1.34375,0 -2.25,0.671875 -2.25,1.984375 0,0.65625 0.265625,1.328125 1.796875,1.984375 z m 2.359375,-2.84375 c -0.0625,-0.109375 -0.15625,-0.203125 -0.4375,-0.5 0.265625,-0.015625 0.4375,-0.09375 0.4375,-0.09375 z M 4.125,-0.59375 c 0.140625,-0.28125 0.15625,-0.6875 0.15625,-0.75 0,-1.046875 -1.046875,-1.59375 -1.8125,-1.921875 -0.9375,-0.40625 -1.828125,-0.828125 -1.828125,-1.765625 0,-0.46875 0.125,-1.03125 0.671875,-1.34375 v 0.015625 c -0.171875,0.28125 -0.1875,0.625 -0.1875,0.703125 0,0.90625 1.09375,1.375 2,1.734375 0.359375,0.140625 0.875,0.34375 1.265625,0.734375 0.3125,0.359375 0.546875,0.734375 0.546875,1.28125 0,0.765625 -0.515625,1.15625 -0.8125,1.3125 z m 0,0"
                 id="id-d1700c21-c154-4d22-8306-d6f795183ff4" />
            </g>
            <g
               id="id-db442671-9531-45bc-ab03-f1a4a39a2b3e" />
            <g
               id="id-dd147b8b-8192-47f9-9145-397cfe315640">
              <path
                 d="m 0.84375,-0.4375 c -0.015625,0.09375 -0.0625,0.265625 -0.0625,0.28125 0,0.15625 0.125,0.21875 0.234375,0.21875 0.125,0 0.234375,-0.078125 0.28125,-0.140625 0.03125,-0.0625 0.078125,-0.296875 0.125,-0.4375 0.03125,-0.125 0.109375,-0.453125 0.140625,-0.625 0.046875,-0.15625 0.09375,-0.3125 0.125,-0.46875 0.078125,-0.28125 0.09375,-0.34375 0.296875,-0.625 C 2.171875,-2.515625 2.5,-2.875 3.03125,-2.875 c 0.390625,0 0.40625,0.359375 0.40625,0.484375 0,0.421875 -0.296875,1.1875 -0.40625,1.484375 -0.078125,0.203125 -0.109375,0.265625 -0.109375,0.375 0,0.375 0.296875,0.59375 0.65625,0.59375 0.703125,0 1,-0.953125 1,-1.0625 0,-0.09375 -0.078125,-0.09375 -0.109375,-0.09375 -0.09375,0 -0.09375,0.046875 -0.125,0.125 C 4.1875,-0.40625 3.875,-0.125 3.609375,-0.125 c -0.15625,0 -0.1875,-0.09375 -0.1875,-0.25 0,-0.15625 0.046875,-0.25 0.171875,-0.5625 0.078125,-0.21875 0.359375,-0.953125 0.359375,-1.34375 0,-0.671875 -0.53125,-0.796875 -0.90625,-0.796875 -0.578125,0 -0.96875,0.359375 -1.171875,0.640625 -0.046875,-0.484375 -0.453125,-0.640625 -0.75,-0.640625 -0.296875,0 -0.453125,0.21875 -0.546875,0.375 -0.15625,0.265625 -0.25,0.65625 -0.25,0.703125 0,0.078125 0.09375,0.078125 0.125,0.078125 0.09375,0 0.09375,-0.015625 0.140625,-0.203125 0.109375,-0.40625 0.25,-0.75 0.515625,-0.75 0.1875,0 0.234375,0.15625 0.234375,0.34375 0,0.125 -0.0625,0.390625 -0.125,0.578125 -0.046875,0.1875 -0.109375,0.46875 -0.140625,0.625 z m 0,0"
                 id="id-22ea08b8-ac85-4746-b045-6cafa22fb663" />
            </g>
          </g>
        </defs>
        <g
           fill="#000000"
           fill-opacity="1"
           id="id-59b716de-4e31-4b3a-b689-4be47bef7769"
           transform="translate(-300.442,-139.528)">
          <g
             transform="translate(300.145,146.72)"
             id="g14739">
            <path
               d="m 0.71875,-1.046875 h 0.015625 c 0,0 0.140625,0.234375 0.453125,0.53125 -0.15625,0 -0.3125,0.03125 -0.46875,0.109375 z m 1.375,-2 c 0.78125,0.328125 1.828125,0.78125 1.828125,1.703125 0,0.703125 -0.296875,1.109375 -1.296875,1.109375 -0.515625,0 -0.953125,-0.28125 -1.296875,-0.640625 C 0.734375,-1.46875 0.71875,-2 0.71875,-2.21875 0.71875,-2.3125 0.640625,-2.390625 0.546875,-2.390625 0.375,-2.390625 0.375,-2.234375 0.375,-2.0625 v 1.859375 c 0,0.15625 0,0.328125 0.171875,0.328125 0.078125,0 0.09375,-0.03125 0.15625,-0.09375 0.171875,-0.15625 0.34375,-0.1875 0.46875,-0.1875 0.265625,0 0.5,0.09375 0.59375,0.125 C 2.171875,0.125 2.46875,0.125 2.625,0.125 c 1.4375,0 2.65625,-0.734375 2.65625,-2.03125 0,-0.84375 -0.5,-1.75 -1.9375,-2.296875 -0.875,-0.359375 -1.875,-0.75 -1.875,-1.453125 0,-0.546875 0.390625,-1.015625 1.109375,-1.015625 0.71875,0 1.671875,0.75 1.875,1.59375 C 4.46875,-4.9375 4.5,-4.84375 4.640625,-4.84375 4.8125,-4.84375 4.8125,-5 4.8125,-5.171875 V -6.6875 c 0,-0.171875 0,-0.328125 -0.171875,-0.328125 -0.078125,0 -0.125,0.046875 -0.171875,0.078125 C 4.390625,-6.84375 4.25,-6.734375 4,-6.734375 c -0.25,0 -0.484375,-0.078125 -0.59375,-0.125 -0.328125,-0.125 -0.5625,-0.15625 -0.859375,-0.15625 -1.34375,0 -2.25,0.671875 -2.25,1.984375 0,0.65625 0.265625,1.328125 1.796875,1.984375 z m 2.359375,-2.84375 c -0.0625,-0.109375 -0.15625,-0.203125 -0.4375,-0.5 0.265625,-0.015625 0.4375,-0.09375 0.4375,-0.09375 z M 4.125,-0.59375 c 0.140625,-0.28125 0.15625,-0.6875 0.15625,-0.75 0,-1.046875 -1.046875,-1.59375 -1.8125,-1.921875 -0.9375,-0.40625 -1.828125,-0.828125 -1.828125,-1.765625 0,-0.46875 0.125,-1.03125 0.671875,-1.34375 v 0.015625 c -0.171875,0.28125 -0.1875,0.625 -0.1875,0.703125 0,0.90625 1.09375,1.375 2,1.734375 0.359375,0.140625 0.875,0.34375 1.265625,0.734375 0.3125,0.359375 0.546875,0.734375 0.546875,1.28125 0,0.765625 -0.515625,1.15625 -0.8125,1.3125 z m 0,0"
               id="id-795908ee-c404-4c12-9049-c38ea7f58aeb" />
          </g>
        </g>
        <g
           fill="#000000"
           fill-opacity="1"
           id="id-4746f3ed-468e-44e4-ab57-70753aa09d5d"
           transform="translate(-300.442,-139.528)">
          <g
             transform="translate(305.68,142.606)"
             id="g14743">
            <path
               d="m 0.84375,-0.4375 c -0.015625,0.09375 -0.0625,0.265625 -0.0625,0.28125 0,0.15625 0.125,0.21875 0.234375,0.21875 0.125,0 0.234375,-0.078125 0.28125,-0.140625 0.03125,-0.0625 0.078125,-0.296875 0.125,-0.4375 0.03125,-0.125 0.109375,-0.453125 0.140625,-0.625 0.046875,-0.15625 0.09375,-0.3125 0.125,-0.46875 0.078125,-0.28125 0.09375,-0.34375 0.296875,-0.625 C 2.171875,-2.515625 2.5,-2.875 3.03125,-2.875 c 0.390625,0 0.40625,0.359375 0.40625,0.484375 0,0.421875 -0.296875,1.1875 -0.40625,1.484375 -0.078125,0.203125 -0.109375,0.265625 -0.109375,0.375 0,0.375 0.296875,0.59375 0.65625,0.59375 0.703125,0 1,-0.953125 1,-1.0625 0,-0.09375 -0.078125,-0.09375 -0.109375,-0.09375 -0.09375,0 -0.09375,0.046875 -0.125,0.125 C 4.1875,-0.40625 3.875,-0.125 3.609375,-0.125 c -0.15625,0 -0.1875,-0.09375 -0.1875,-0.25 0,-0.15625 0.046875,-0.25 0.171875,-0.5625 0.078125,-0.21875 0.359375,-0.953125 0.359375,-1.34375 0,-0.671875 -0.53125,-0.796875 -0.90625,-0.796875 -0.578125,0 -0.96875,0.359375 -1.171875,0.640625 -0.046875,-0.484375 -0.453125,-0.640625 -0.75,-0.640625 -0.296875,0 -0.453125,0.21875 -0.546875,0.375 -0.15625,0.265625 -0.25,0.65625 -0.25,0.703125 0,0.078125 0.09375,0.078125 0.125,0.078125 0.09375,0 0.09375,-0.015625 0.140625,-0.203125 0.109375,-0.40625 0.25,-0.75 0.515625,-0.75 0.1875,0 0.234375,0.15625 0.234375,0.34375 0,0.125 -0.0625,0.390625 -0.125,0.578125 -0.046875,0.1875 -0.109375,0.46875 -0.140625,0.625 z m 0,0"
               id="id-862ac31c-c05d-4201-8f55-7985ac6c4bb1" />
          </g>
        </g>
      </g>
      <path
         style="font-variation-settings:normal;opacity:1;vector-effect:none;fill:#a4d3ff;fill-opacity:1;stroke:#738bff;stroke-width:0.0859999;stroke-linecap:butt;stroke-linejoin:miter;stroke-miterlimit:4;stroke-dasharray:none;stroke-dashoffset:0;stroke-opacity:1;-inkscape-stroke:none;marker-end:url(#Arrow3);paint-order:fill markers stroke;stop-color:#000000;stop-opacity:1"
         d="m 95.688117,234.7141 v 5.71802"
         id="path15492" />
      <g
         transform="matrix(0.131909,0,0,0.131909,95.986627,237.22969)"
         ns1:version="1.8.2"
         ns1:texconverter="pdflatex"
         ns1:pdfconverter="inkscape"
         ns1:text="$$\\alpha$$"
         ns1:preamble="/home/mario/.config/inkscape/extensions/textext/default_packages.tex"
         ns1:scale="0.3739150400535181"
         ns1:alignment="middle center"
         ns1:stroke-to-path="0"
         ns1:inkscapeversion="0.92.4"
         ns1:jacobian_sqrt="0.131909"
         id="g16604">
        <defs
           id="id-4f0e733f-edcc-4603-99e4-1c75e0508011">
          <g
             id="id-18416e07-2692-45d0-aa30-5c2f85659eda">
            <g
               id="id-76b8f4ab-2da7-4055-b5a6-7c4e65d8e5d8" />
            <g
               id="id-9aa038ad-a6c4-47dc-b4c9-b5ed134a64b4">
              <path
                 d="m 4.75,-2.359375 c 0,-1.5625 -0.921875,-2.046875 -1.65625,-2.046875 -1.375,0 -2.6875,1.421875 -2.6875,2.828125 0,0.9375 0.59375,1.6875 1.625,1.6875 0.625,0 1.34375,-0.234375 2.09375,-0.84375 0.125,0.53125 0.453125,0.84375 0.90625,0.84375 0.53125,0 0.84375,-0.546875 0.84375,-0.703125 0,-0.078125 -0.0625,-0.109375 -0.125,-0.109375 -0.0625,0 -0.09375,0.03125 -0.125,0.109375 -0.1875,0.484375 -0.546875,0.484375 -0.5625,0.484375 -0.3125,0 -0.3125,-0.78125 -0.3125,-1.015625 0,-0.203125 0,-0.234375 0.109375,-0.34375 C 5.796875,-2.65625 6,-3.8125 6,-3.8125 6,-3.84375 5.984375,-3.921875 5.875,-3.921875 c -0.09375,0 -0.09375,0.03125 -0.140625,0.21875 -0.1875,0.625 -0.515625,1.375 -0.984375,1.96875 z m -0.65625,1.375 c -0.890625,0.765625 -1.65625,0.875 -2.046875,0.875 -0.59375,0 -0.90625,-0.453125 -0.90625,-1.09375 0,-0.484375 0.265625,-1.5625 0.578125,-2.0625 C 2.1875,-4 2.734375,-4.1875 3.078125,-4.1875 c 0.984375,0 0.984375,1.3125 0.984375,2.078125 0,0.375 0,0.953125 0.03125,1.125 z m 0,0"
                 id="id-b78e5fcc-3f95-4de3-bcde-c230cb1c30f0" />
            </g>
          </g>
        </defs>
        <g
           fill="#000000"
           fill-opacity="1"
           id="id-9275c35a-e330-49b3-996a-600c91e9fe33"
           transform="translate(-302.825,-142.314)">
          <g
             transform="translate(302.419,146.72)"
             id="g16601">
            <path
               d="m 4.75,-2.359375 c 0,-1.5625 -0.921875,-2.046875 -1.65625,-2.046875 -1.375,0 -2.6875,1.421875 -2.6875,2.828125 0,0.9375 0.59375,1.6875 1.625,1.6875 0.625,0 1.34375,-0.234375 2.09375,-0.84375 0.125,0.53125 0.453125,0.84375 0.90625,0.84375 0.53125,0 0.84375,-0.546875 0.84375,-0.703125 0,-0.078125 -0.0625,-0.109375 -0.125,-0.109375 -0.0625,0 -0.09375,0.03125 -0.125,0.109375 -0.1875,0.484375 -0.546875,0.484375 -0.5625,0.484375 -0.3125,0 -0.3125,-0.78125 -0.3125,-1.015625 0,-0.203125 0,-0.234375 0.109375,-0.34375 C 5.796875,-2.65625 6,-3.8125 6,-3.8125 6,-3.84375 5.984375,-3.921875 5.875,-3.921875 c -0.09375,0 -0.09375,0.03125 -0.140625,0.21875 -0.1875,0.625 -0.515625,1.375 -0.984375,1.96875 z m -0.65625,1.375 c -0.890625,0.765625 -1.65625,0.875 -2.046875,0.875 -0.59375,0 -0.90625,-0.453125 -0.90625,-1.09375 0,-0.484375 0.265625,-1.5625 0.578125,-2.0625 C 2.1875,-4 2.734375,-4.1875 3.078125,-4.1875 c 0.984375,0 0.984375,1.3125 0.984375,2.078125 0,0.375 0,0.953125 0.03125,1.125 z m 0,0"
               id="id-c2339a75-00bb-4a0b-90a3-b3555ff2816b" />
          </g>
        </g>
      </g>
      <g
         transform="matrix(0.131909,0,0,0.131909,91.14471,240.56092)"
         ns1:version="1.8.2"
         ns1:texconverter="pdflatex"
         ns1:pdfconverter="inkscape"
         ns1:text="$$h=0$$"
         ns1:preamble="/home/mario/.config/inkscape/extensions/textext/default_packages.tex"
         ns1:scale="0.3739150400535181"
         ns1:alignment="middle center"
         ns1:stroke-to-path="0"
         ns1:inkscapeversion="0.92.4"
         ns1:jacobian_sqrt="0.131909"
         id="g17554">
        <defs
           id="id-1a58eb7a-c766-4f1e-9696-2fa6f1f8f09a">
          <g
             id="id-e4b8aa72-40d3-4c96-9db1-cccc93406b73">
            <g
               id="id-1e90b442-bc67-45b9-b20d-2e59f94349d6" />
            <g
               id="id-09f862d1-173b-4089-88f2-c882e93b4941">
              <path
                 d="m 2.859375,-6.8125 c 0,0 0,-0.109375 -0.125,-0.109375 -0.234375,0 -0.953125,0.078125 -1.21875,0.109375 -0.078125,0 -0.1875,0.015625 -0.1875,0.1875 0,0.125 0.09375,0.125 0.234375,0.125 0.484375,0 0.5,0.0625 0.5,0.171875 L 2.03125,-6.125 0.59375,-0.390625 c -0.046875,0.140625 -0.046875,0.15625 -0.046875,0.21875 0,0.234375 0.203125,0.28125 0.296875,0.28125 0.15625,0 0.3125,-0.125 0.359375,-0.265625 l 0.1875,-0.75 0.21875,-0.890625 C 1.671875,-2.03125 1.734375,-2.25 1.78125,-2.46875 1.796875,-2.53125 1.890625,-2.859375 1.890625,-2.921875 1.921875,-3.015625 2.234375,-3.5625 2.578125,-3.84375 2.796875,-4 3.09375,-4.1875 3.53125,-4.1875 c 0.421875,0 0.53125,0.34375 0.53125,0.703125 0,0.53125 -0.375,1.625 -0.609375,2.234375 C 3.375,-1.03125 3.3125,-0.90625 3.3125,-0.703125 c 0,0.46875 0.359375,0.8125 0.828125,0.8125 0.9375,0 1.296875,-1.453125 1.296875,-1.53125 0,-0.109375 -0.078125,-0.109375 -0.109375,-0.109375 -0.109375,0 -0.109375,0.03125 -0.15625,0.1875 -0.140625,0.53125 -0.46875,1.234375 -1.015625,1.234375 -0.171875,0 -0.234375,-0.09375 -0.234375,-0.328125 0,-0.25 0.078125,-0.484375 0.171875,-0.703125 0.15625,-0.4375 0.609375,-1.625 0.609375,-2.203125 0,-0.640625 -0.390625,-1.0625 -1.140625,-1.0625 -0.625,0 -1.109375,0.3125 -1.484375,0.765625 z m 0,0"
                 id="id-ae49f2c5-5092-44cf-ad30-c914e9ff565c" />
            </g>
            <g
               id="id-3f62b1d3-fd49-4584-a97a-141f54d92ecb" />
            <g
               id="id-f3d0f404-ec3d-4cdb-9d4a-daa3c83ee042">
              <path
                 d="m 6.84375,-3.265625 c 0.15625,0 0.34375,0 0.34375,-0.1875 C 7.1875,-3.65625 7,-3.65625 6.859375,-3.65625 h -5.96875 c -0.140625,0 -0.328125,0 -0.328125,0.203125 0,0.1875 0.1875,0.1875 0.328125,0.1875 z m 0.015625,1.9375 c 0.140625,0 0.328125,0 0.328125,-0.203125 0,-0.1875 -0.1875,-0.1875 -0.34375,-0.1875 H 0.890625 c -0.140625,0 -0.328125,0 -0.328125,0.1875 0,0.203125 0.1875,0.203125 0.328125,0.203125 z m 0,0"
                 id="id-27b874cd-652e-47a1-a200-dc4380c77216" />
            </g>
            <g
               id="id-673c44d8-31b8-4620-be99-f073cb5ac831">
              <path
                 d="m 4.578125,-3.1875 c 0,-0.796875 -0.046875,-1.59375 -0.390625,-2.328125 -0.453125,-0.96875 -1.28125,-1.125 -1.6875,-1.125 -0.609375,0 -1.328125,0.265625 -1.75,1.1875 -0.3125,0.6875 -0.359375,1.46875 -0.359375,2.265625 0,0.75 0.03125,1.640625 0.453125,2.40625 0.421875,0.796875 1.15625,1 1.640625,1 0.53125,0 1.296875,-0.203125 1.734375,-1.15625 0.3125,-0.6875 0.359375,-1.46875 0.359375,-2.25 z M 2.484375,0 C 2.09375,0 1.5,-0.25 1.328125,-1.203125 1.21875,-1.796875 1.21875,-2.71875 1.21875,-3.3125 c 0,-0.640625 0,-1.296875 0.078125,-1.828125 0.1875,-1.1875 0.9375,-1.28125 1.1875,-1.28125 0.328125,0 0.984375,0.1875 1.171875,1.171875 0.109375,0.5625 0.109375,1.3125 0.109375,1.9375 0,0.75 0,1.421875 -0.109375,2.0625 C 3.5,-0.296875 2.9375,0 2.484375,0 Z m 0,0"
                 id="id-ac983f20-d790-4121-84a9-10fca1714b2c" />
            </g>
          </g>
        </defs>
        <g
           fill="#000000"
           fill-opacity="1"
           id="id-9ad0db0b-65ff-4e60-8d57-668fb8fb399a"
           transform="translate(-294.168,-139.798)">
          <g
             transform="translate(293.621,146.72)"
             id="g17543">
            <path
               d="m 2.859375,-6.8125 c 0,0 0,-0.109375 -0.125,-0.109375 -0.234375,0 -0.953125,0.078125 -1.21875,0.109375 -0.078125,0 -0.1875,0.015625 -0.1875,0.1875 0,0.125 0.09375,0.125 0.234375,0.125 0.484375,0 0.5,0.0625 0.5,0.171875 L 2.03125,-6.125 0.59375,-0.390625 c -0.046875,0.140625 -0.046875,0.15625 -0.046875,0.21875 0,0.234375 0.203125,0.28125 0.296875,0.28125 0.15625,0 0.3125,-0.125 0.359375,-0.265625 l 0.1875,-0.75 0.21875,-0.890625 C 1.671875,-2.03125 1.734375,-2.25 1.78125,-2.46875 1.796875,-2.53125 1.890625,-2.859375 1.890625,-2.921875 1.921875,-3.015625 2.234375,-3.5625 2.578125,-3.84375 2.796875,-4 3.09375,-4.1875 3.53125,-4.1875 c 0.421875,0 0.53125,0.34375 0.53125,0.703125 0,0.53125 -0.375,1.625 -0.609375,2.234375 C 3.375,-1.03125 3.3125,-0.90625 3.3125,-0.703125 c 0,0.46875 0.359375,0.8125 0.828125,0.8125 0.9375,0 1.296875,-1.453125 1.296875,-1.53125 0,-0.109375 -0.078125,-0.109375 -0.109375,-0.109375 -0.109375,0 -0.109375,0.03125 -0.15625,0.1875 -0.140625,0.53125 -0.46875,1.234375 -1.015625,1.234375 -0.171875,0 -0.234375,-0.09375 -0.234375,-0.328125 0,-0.25 0.078125,-0.484375 0.171875,-0.703125 0.15625,-0.4375 0.609375,-1.625 0.609375,-2.203125 0,-0.640625 -0.390625,-1.0625 -1.140625,-1.0625 -0.625,0 -1.109375,0.3125 -1.484375,0.765625 z m 0,0"
               id="id-0af02722-02ba-4aa1-9a66-769191c2d10f" />
          </g>
        </g>
        <g
           fill="#000000"
           fill-opacity="1"
           id="id-2a56137a-da68-4946-8ce8-699649d1a100"
           transform="translate(-294.168,-139.798)">
          <g
             transform="translate(302.129,146.72)"
             id="g17547">
            <path
               d="m 6.84375,-3.265625 c 0.15625,0 0.34375,0 0.34375,-0.1875 C 7.1875,-3.65625 7,-3.65625 6.859375,-3.65625 h -5.96875 c -0.140625,0 -0.328125,0 -0.328125,0.203125 0,0.1875 0.1875,0.1875 0.328125,0.1875 z m 0.015625,1.9375 c 0.140625,0 0.328125,0 0.328125,-0.203125 0,-0.1875 -0.1875,-0.1875 -0.34375,-0.1875 H 0.890625 c -0.140625,0 -0.328125,0 -0.328125,0.1875 0,0.203125 0.1875,0.203125 0.328125,0.203125 z m 0,0"
               id="id-858912de-5c92-4a23-b35a-f2c46db590d4" />
          </g>
        </g>
        <g
           fill="#000000"
           fill-opacity="1"
           id="id-dc3b8ddd-0304-43af-a28f-b7a22d0f66f3"
           transform="translate(-294.168,-139.798)">
          <g
             transform="translate(312.648,146.72)"
             id="g17551">
            <path
               d="m 4.578125,-3.1875 c 0,-0.796875 -0.046875,-1.59375 -0.390625,-2.328125 -0.453125,-0.96875 -1.28125,-1.125 -1.6875,-1.125 -0.609375,0 -1.328125,0.265625 -1.75,1.1875 -0.3125,0.6875 -0.359375,1.46875 -0.359375,2.265625 0,0.75 0.03125,1.640625 0.453125,2.40625 0.421875,0.796875 1.15625,1 1.640625,1 0.53125,0 1.296875,-0.203125 1.734375,-1.15625 0.3125,-0.6875 0.359375,-1.46875 0.359375,-2.25 z M 2.484375,0 C 2.09375,0 1.5,-0.25 1.328125,-1.203125 1.21875,-1.796875 1.21875,-2.71875 1.21875,-3.3125 c 0,-0.640625 0,-1.296875 0.078125,-1.828125 0.1875,-1.1875 0.9375,-1.28125 1.1875,-1.28125 0.328125,0 0.984375,0.1875 1.171875,1.171875 0.109375,0.5625 0.109375,1.3125 0.109375,1.9375 0,0.75 0,1.421875 -0.109375,2.0625 C 3.5,-0.296875 2.9375,0 2.484375,0 Z m 0,0"
               id="id-fdcde4b5-bceb-4797-8c7f-07c9c0c39d07" />
          </g>
        </g>
      </g>
      <path
         style="font-variation-settings:normal;opacity:1;vector-effect:none;fill:#a4d3ff;fill-opacity:1;stroke:#738bff;stroke-width:0.0859999;stroke-linecap:butt;stroke-linejoin:miter;stroke-miterlimit:4;stroke-dasharray:none;stroke-dashoffset:0;stroke-opacity:1;-inkscape-stroke:none;paint-order:fill markers stroke;stop-color:#000000;stop-opacity:1"
         d="m 96.466942,241.11567 -5.764715,3.32826 h 5.772345"
         id="path18329" />
    </g>
  </g>
</svg>
